%TF.GenerationSoftware,KiCad,Pcbnew,8.0.8*%
%TF.CreationDate,2025-07-23T19:23:50+02:00*%
%TF.ProjectId,liz_sensor,6c697a5f-7365-46e7-936f-722e6b696361,rev?*%
%TF.SameCoordinates,Original*%
%TF.FileFunction,Legend,Top*%
%TF.FilePolarity,Positive*%
%FSLAX46Y46*%
G04 Gerber Fmt 4.6, Leading zero omitted, Abs format (unit mm)*
G04 Created by KiCad (PCBNEW 8.0.8) date 2025-07-23 19:23:50*
%MOMM*%
%LPD*%
G01*
G04 APERTURE LIST*
G04 Aperture macros list*
%AMRoundRect*
0 Rectangle with rounded corners*
0 $1 Rounding radius*
0 $2 $3 $4 $5 $6 $7 $8 $9 X,Y pos of 4 corners*
0 Add a 4 corners polygon primitive as box body*
4,1,4,$2,$3,$4,$5,$6,$7,$8,$9,$2,$3,0*
0 Add four circle primitives for the rounded corners*
1,1,$1+$1,$2,$3*
1,1,$1+$1,$4,$5*
1,1,$1+$1,$6,$7*
1,1,$1+$1,$8,$9*
0 Add four rect primitives between the rounded corners*
20,1,$1+$1,$2,$3,$4,$5,0*
20,1,$1+$1,$4,$5,$6,$7,0*
20,1,$1+$1,$6,$7,$8,$9,0*
20,1,$1+$1,$8,$9,$2,$3,0*%
G04 Aperture macros list end*
%ADD10C,0.150000*%
%ADD11C,0.120000*%
%ADD12C,0.127000*%
%ADD13C,0.200000*%
%ADD14C,0.100000*%
%ADD15C,0.170000*%
%ADD16C,0.152400*%
%ADD17C,0.010000*%
%ADD18RoundRect,0.200000X-0.275000X0.200000X-0.275000X-0.200000X0.275000X-0.200000X0.275000X0.200000X0*%
%ADD19RoundRect,0.225000X-0.250000X0.225000X-0.250000X-0.225000X0.250000X-0.225000X0.250000X0.225000X0*%
%ADD20C,1.000000*%
%ADD21RoundRect,0.225000X0.375000X-0.225000X0.375000X0.225000X-0.375000X0.225000X-0.375000X-0.225000X0*%
%ADD22RoundRect,0.225000X0.225000X0.250000X-0.225000X0.250000X-0.225000X-0.250000X0.225000X-0.250000X0*%
%ADD23RoundRect,0.102000X-0.400000X-0.200000X0.400000X-0.200000X0.400000X0.200000X-0.400000X0.200000X0*%
%ADD24RoundRect,0.102000X-0.200000X-0.400000X0.200000X-0.400000X0.200000X0.400000X-0.200000X0.400000X0*%
%ADD25RoundRect,0.102000X-0.600000X-0.600000X0.600000X-0.600000X0.600000X0.600000X-0.600000X0.600000X0*%
%ADD26RoundRect,0.102000X-0.400000X-0.400000X0.400000X-0.400000X0.400000X0.400000X-0.400000X0.400000X0*%
%ADD27RoundRect,0.102000X-0.525000X-0.325000X0.525000X-0.325000X0.525000X0.325000X-0.525000X0.325000X0*%
%ADD28RoundRect,0.200000X-0.200000X-0.275000X0.200000X-0.275000X0.200000X0.275000X-0.200000X0.275000X0*%
%ADD29R,0.250000X0.625000*%
%ADD30R,0.450000X0.700000*%
%ADD31R,0.450000X0.575000*%
%ADD32RoundRect,0.225000X-0.375000X0.225000X-0.375000X-0.225000X0.375000X-0.225000X0.375000X0.225000X0*%
%ADD33RoundRect,0.218750X-0.218750X-0.256250X0.218750X-0.256250X0.218750X0.256250X-0.218750X0.256250X0*%
%ADD34RoundRect,0.225000X-0.225000X-0.250000X0.225000X-0.250000X0.225000X0.250000X-0.225000X0.250000X0*%
%ADD35R,0.249999X0.499999*%
%ADD36R,1.599999X0.900001*%
%ADD37C,0.499999*%
%ADD38C,0.650000*%
%ADD39RoundRect,0.150000X-0.150000X-0.425000X0.150000X-0.425000X0.150000X0.425000X-0.150000X0.425000X0*%
%ADD40RoundRect,0.075000X-0.075000X-0.500000X0.075000X-0.500000X0.075000X0.500000X-0.075000X0.500000X0*%
%ADD41O,1.000000X2.100000*%
%ADD42O,1.000000X1.800000*%
%ADD43RoundRect,0.225000X0.250000X-0.225000X0.250000X0.225000X-0.250000X0.225000X-0.250000X-0.225000X0*%
%ADD44R,1.066800X1.803400*%
%ADD45RoundRect,0.093750X-0.106250X0.093750X-0.106250X-0.093750X0.106250X-0.093750X0.106250X0.093750X0*%
%ADD46R,1.600000X1.000000*%
G04 APERTURE END LIST*
D10*
X147833333Y-103154819D02*
X147500000Y-102678628D01*
X147261905Y-103154819D02*
X147261905Y-102154819D01*
X147261905Y-102154819D02*
X147642857Y-102154819D01*
X147642857Y-102154819D02*
X147738095Y-102202438D01*
X147738095Y-102202438D02*
X147785714Y-102250057D01*
X147785714Y-102250057D02*
X147833333Y-102345295D01*
X147833333Y-102345295D02*
X147833333Y-102488152D01*
X147833333Y-102488152D02*
X147785714Y-102583390D01*
X147785714Y-102583390D02*
X147738095Y-102631009D01*
X147738095Y-102631009D02*
X147642857Y-102678628D01*
X147642857Y-102678628D02*
X147261905Y-102678628D01*
X148166667Y-102154819D02*
X148833333Y-102154819D01*
X148833333Y-102154819D02*
X148404762Y-103154819D01*
X149133333Y-109859580D02*
X149085714Y-109907200D01*
X149085714Y-109907200D02*
X148942857Y-109954819D01*
X148942857Y-109954819D02*
X148847619Y-109954819D01*
X148847619Y-109954819D02*
X148704762Y-109907200D01*
X148704762Y-109907200D02*
X148609524Y-109811961D01*
X148609524Y-109811961D02*
X148561905Y-109716723D01*
X148561905Y-109716723D02*
X148514286Y-109526247D01*
X148514286Y-109526247D02*
X148514286Y-109383390D01*
X148514286Y-109383390D02*
X148561905Y-109192914D01*
X148561905Y-109192914D02*
X148609524Y-109097676D01*
X148609524Y-109097676D02*
X148704762Y-109002438D01*
X148704762Y-109002438D02*
X148847619Y-108954819D01*
X148847619Y-108954819D02*
X148942857Y-108954819D01*
X148942857Y-108954819D02*
X149085714Y-109002438D01*
X149085714Y-109002438D02*
X149133333Y-109050057D01*
X150038095Y-108954819D02*
X149561905Y-108954819D01*
X149561905Y-108954819D02*
X149514286Y-109431009D01*
X149514286Y-109431009D02*
X149561905Y-109383390D01*
X149561905Y-109383390D02*
X149657143Y-109335771D01*
X149657143Y-109335771D02*
X149895238Y-109335771D01*
X149895238Y-109335771D02*
X149990476Y-109383390D01*
X149990476Y-109383390D02*
X150038095Y-109431009D01*
X150038095Y-109431009D02*
X150085714Y-109526247D01*
X150085714Y-109526247D02*
X150085714Y-109764342D01*
X150085714Y-109764342D02*
X150038095Y-109859580D01*
X150038095Y-109859580D02*
X149990476Y-109907200D01*
X149990476Y-109907200D02*
X149895238Y-109954819D01*
X149895238Y-109954819D02*
X149657143Y-109954819D01*
X149657143Y-109954819D02*
X149561905Y-109907200D01*
X149561905Y-109907200D02*
X149514286Y-109859580D01*
X141011904Y-85304438D02*
X140916666Y-85256819D01*
X140916666Y-85256819D02*
X140773809Y-85256819D01*
X140773809Y-85256819D02*
X140630952Y-85304438D01*
X140630952Y-85304438D02*
X140535714Y-85399676D01*
X140535714Y-85399676D02*
X140488095Y-85494914D01*
X140488095Y-85494914D02*
X140440476Y-85685390D01*
X140440476Y-85685390D02*
X140440476Y-85828247D01*
X140440476Y-85828247D02*
X140488095Y-86018723D01*
X140488095Y-86018723D02*
X140535714Y-86113961D01*
X140535714Y-86113961D02*
X140630952Y-86209200D01*
X140630952Y-86209200D02*
X140773809Y-86256819D01*
X140773809Y-86256819D02*
X140869047Y-86256819D01*
X140869047Y-86256819D02*
X141011904Y-86209200D01*
X141011904Y-86209200D02*
X141059523Y-86161580D01*
X141059523Y-86161580D02*
X141059523Y-85828247D01*
X141059523Y-85828247D02*
X140869047Y-85828247D01*
X141488095Y-86256819D02*
X141488095Y-85256819D01*
X141488095Y-85256819D02*
X142059523Y-86256819D01*
X142059523Y-86256819D02*
X142059523Y-85256819D01*
X142535714Y-86256819D02*
X142535714Y-85256819D01*
X142535714Y-85256819D02*
X142773809Y-85256819D01*
X142773809Y-85256819D02*
X142916666Y-85304438D01*
X142916666Y-85304438D02*
X143011904Y-85399676D01*
X143011904Y-85399676D02*
X143059523Y-85494914D01*
X143059523Y-85494914D02*
X143107142Y-85685390D01*
X143107142Y-85685390D02*
X143107142Y-85828247D01*
X143107142Y-85828247D02*
X143059523Y-86018723D01*
X143059523Y-86018723D02*
X143011904Y-86113961D01*
X143011904Y-86113961D02*
X142916666Y-86209200D01*
X142916666Y-86209200D02*
X142773809Y-86256819D01*
X142773809Y-86256819D02*
X142535714Y-86256819D01*
X144059523Y-86256819D02*
X143488095Y-86256819D01*
X143773809Y-86256819D02*
X143773809Y-85256819D01*
X143773809Y-85256819D02*
X143678571Y-85399676D01*
X143678571Y-85399676D02*
X143583333Y-85494914D01*
X143583333Y-85494914D02*
X143488095Y-85542533D01*
X147333333Y-109854819D02*
X147000000Y-109378628D01*
X146761905Y-109854819D02*
X146761905Y-108854819D01*
X146761905Y-108854819D02*
X147142857Y-108854819D01*
X147142857Y-108854819D02*
X147238095Y-108902438D01*
X147238095Y-108902438D02*
X147285714Y-108950057D01*
X147285714Y-108950057D02*
X147333333Y-109045295D01*
X147333333Y-109045295D02*
X147333333Y-109188152D01*
X147333333Y-109188152D02*
X147285714Y-109283390D01*
X147285714Y-109283390D02*
X147238095Y-109331009D01*
X147238095Y-109331009D02*
X147142857Y-109378628D01*
X147142857Y-109378628D02*
X146761905Y-109378628D01*
X148190476Y-109188152D02*
X148190476Y-109854819D01*
X147952381Y-108807200D02*
X147714286Y-109521485D01*
X147714286Y-109521485D02*
X148333333Y-109521485D01*
X141954819Y-116238094D02*
X140954819Y-116238094D01*
X140954819Y-116238094D02*
X140954819Y-115999999D01*
X140954819Y-115999999D02*
X141002438Y-115857142D01*
X141002438Y-115857142D02*
X141097676Y-115761904D01*
X141097676Y-115761904D02*
X141192914Y-115714285D01*
X141192914Y-115714285D02*
X141383390Y-115666666D01*
X141383390Y-115666666D02*
X141526247Y-115666666D01*
X141526247Y-115666666D02*
X141716723Y-115714285D01*
X141716723Y-115714285D02*
X141811961Y-115761904D01*
X141811961Y-115761904D02*
X141907200Y-115857142D01*
X141907200Y-115857142D02*
X141954819Y-115999999D01*
X141954819Y-115999999D02*
X141954819Y-116238094D01*
X141288152Y-114809523D02*
X141954819Y-114809523D01*
X140907200Y-115047618D02*
X141621485Y-115285713D01*
X141621485Y-115285713D02*
X141621485Y-114666666D01*
X161059524Y-89209200D02*
X161202381Y-89256819D01*
X161202381Y-89256819D02*
X161440476Y-89256819D01*
X161440476Y-89256819D02*
X161535714Y-89209200D01*
X161535714Y-89209200D02*
X161583333Y-89161580D01*
X161583333Y-89161580D02*
X161630952Y-89066342D01*
X161630952Y-89066342D02*
X161630952Y-88971104D01*
X161630952Y-88971104D02*
X161583333Y-88875866D01*
X161583333Y-88875866D02*
X161535714Y-88828247D01*
X161535714Y-88828247D02*
X161440476Y-88780628D01*
X161440476Y-88780628D02*
X161250000Y-88733009D01*
X161250000Y-88733009D02*
X161154762Y-88685390D01*
X161154762Y-88685390D02*
X161107143Y-88637771D01*
X161107143Y-88637771D02*
X161059524Y-88542533D01*
X161059524Y-88542533D02*
X161059524Y-88447295D01*
X161059524Y-88447295D02*
X161107143Y-88352057D01*
X161107143Y-88352057D02*
X161154762Y-88304438D01*
X161154762Y-88304438D02*
X161250000Y-88256819D01*
X161250000Y-88256819D02*
X161488095Y-88256819D01*
X161488095Y-88256819D02*
X161630952Y-88304438D01*
X162059524Y-89256819D02*
X162059524Y-88256819D01*
X162059524Y-88256819D02*
X162297619Y-88256819D01*
X162297619Y-88256819D02*
X162440476Y-88304438D01*
X162440476Y-88304438D02*
X162535714Y-88399676D01*
X162535714Y-88399676D02*
X162583333Y-88494914D01*
X162583333Y-88494914D02*
X162630952Y-88685390D01*
X162630952Y-88685390D02*
X162630952Y-88828247D01*
X162630952Y-88828247D02*
X162583333Y-89018723D01*
X162583333Y-89018723D02*
X162535714Y-89113961D01*
X162535714Y-89113961D02*
X162440476Y-89209200D01*
X162440476Y-89209200D02*
X162297619Y-89256819D01*
X162297619Y-89256819D02*
X162059524Y-89256819D01*
X163011905Y-88971104D02*
X163488095Y-88971104D01*
X162916667Y-89256819D02*
X163250000Y-88256819D01*
X163250000Y-88256819D02*
X163583333Y-89256819D01*
X164440476Y-89256819D02*
X163869048Y-89256819D01*
X164154762Y-89256819D02*
X164154762Y-88256819D01*
X164154762Y-88256819D02*
X164059524Y-88399676D01*
X164059524Y-88399676D02*
X163964286Y-88494914D01*
X163964286Y-88494914D02*
X163869048Y-88542533D01*
X144633333Y-101559580D02*
X144585714Y-101607200D01*
X144585714Y-101607200D02*
X144442857Y-101654819D01*
X144442857Y-101654819D02*
X144347619Y-101654819D01*
X144347619Y-101654819D02*
X144204762Y-101607200D01*
X144204762Y-101607200D02*
X144109524Y-101511961D01*
X144109524Y-101511961D02*
X144061905Y-101416723D01*
X144061905Y-101416723D02*
X144014286Y-101226247D01*
X144014286Y-101226247D02*
X144014286Y-101083390D01*
X144014286Y-101083390D02*
X144061905Y-100892914D01*
X144061905Y-100892914D02*
X144109524Y-100797676D01*
X144109524Y-100797676D02*
X144204762Y-100702438D01*
X144204762Y-100702438D02*
X144347619Y-100654819D01*
X144347619Y-100654819D02*
X144442857Y-100654819D01*
X144442857Y-100654819D02*
X144585714Y-100702438D01*
X144585714Y-100702438D02*
X144633333Y-100750057D01*
X145014286Y-100750057D02*
X145061905Y-100702438D01*
X145061905Y-100702438D02*
X145157143Y-100654819D01*
X145157143Y-100654819D02*
X145395238Y-100654819D01*
X145395238Y-100654819D02*
X145490476Y-100702438D01*
X145490476Y-100702438D02*
X145538095Y-100750057D01*
X145538095Y-100750057D02*
X145585714Y-100845295D01*
X145585714Y-100845295D02*
X145585714Y-100940533D01*
X145585714Y-100940533D02*
X145538095Y-101083390D01*
X145538095Y-101083390D02*
X144966667Y-101654819D01*
X144966667Y-101654819D02*
X145585714Y-101654819D01*
X152833333Y-103859580D02*
X152785714Y-103907200D01*
X152785714Y-103907200D02*
X152642857Y-103954819D01*
X152642857Y-103954819D02*
X152547619Y-103954819D01*
X152547619Y-103954819D02*
X152404762Y-103907200D01*
X152404762Y-103907200D02*
X152309524Y-103811961D01*
X152309524Y-103811961D02*
X152261905Y-103716723D01*
X152261905Y-103716723D02*
X152214286Y-103526247D01*
X152214286Y-103526247D02*
X152214286Y-103383390D01*
X152214286Y-103383390D02*
X152261905Y-103192914D01*
X152261905Y-103192914D02*
X152309524Y-103097676D01*
X152309524Y-103097676D02*
X152404762Y-103002438D01*
X152404762Y-103002438D02*
X152547619Y-102954819D01*
X152547619Y-102954819D02*
X152642857Y-102954819D01*
X152642857Y-102954819D02*
X152785714Y-103002438D01*
X152785714Y-103002438D02*
X152833333Y-103050057D01*
X153690476Y-102954819D02*
X153500000Y-102954819D01*
X153500000Y-102954819D02*
X153404762Y-103002438D01*
X153404762Y-103002438D02*
X153357143Y-103050057D01*
X153357143Y-103050057D02*
X153261905Y-103192914D01*
X153261905Y-103192914D02*
X153214286Y-103383390D01*
X153214286Y-103383390D02*
X153214286Y-103764342D01*
X153214286Y-103764342D02*
X153261905Y-103859580D01*
X153261905Y-103859580D02*
X153309524Y-103907200D01*
X153309524Y-103907200D02*
X153404762Y-103954819D01*
X153404762Y-103954819D02*
X153595238Y-103954819D01*
X153595238Y-103954819D02*
X153690476Y-103907200D01*
X153690476Y-103907200D02*
X153738095Y-103859580D01*
X153738095Y-103859580D02*
X153785714Y-103764342D01*
X153785714Y-103764342D02*
X153785714Y-103526247D01*
X153785714Y-103526247D02*
X153738095Y-103431009D01*
X153738095Y-103431009D02*
X153690476Y-103383390D01*
X153690476Y-103383390D02*
X153595238Y-103335771D01*
X153595238Y-103335771D02*
X153404762Y-103335771D01*
X153404762Y-103335771D02*
X153309524Y-103383390D01*
X153309524Y-103383390D02*
X153261905Y-103431009D01*
X153261905Y-103431009D02*
X153214286Y-103526247D01*
X146963095Y-75219819D02*
X146963095Y-76029342D01*
X146963095Y-76029342D02*
X147010714Y-76124580D01*
X147010714Y-76124580D02*
X147058333Y-76172200D01*
X147058333Y-76172200D02*
X147153571Y-76219819D01*
X147153571Y-76219819D02*
X147344047Y-76219819D01*
X147344047Y-76219819D02*
X147439285Y-76172200D01*
X147439285Y-76172200D02*
X147486904Y-76124580D01*
X147486904Y-76124580D02*
X147534523Y-76029342D01*
X147534523Y-76029342D02*
X147534523Y-75219819D01*
X148534523Y-76219819D02*
X147963095Y-76219819D01*
X148248809Y-76219819D02*
X148248809Y-75219819D01*
X148248809Y-75219819D02*
X148153571Y-75362676D01*
X148153571Y-75362676D02*
X148058333Y-75457914D01*
X148058333Y-75457914D02*
X147963095Y-75505533D01*
X161204819Y-111928571D02*
X160728628Y-112261904D01*
X161204819Y-112499999D02*
X160204819Y-112499999D01*
X160204819Y-112499999D02*
X160204819Y-112119047D01*
X160204819Y-112119047D02*
X160252438Y-112023809D01*
X160252438Y-112023809D02*
X160300057Y-111976190D01*
X160300057Y-111976190D02*
X160395295Y-111928571D01*
X160395295Y-111928571D02*
X160538152Y-111928571D01*
X160538152Y-111928571D02*
X160633390Y-111976190D01*
X160633390Y-111976190D02*
X160681009Y-112023809D01*
X160681009Y-112023809D02*
X160728628Y-112119047D01*
X160728628Y-112119047D02*
X160728628Y-112499999D01*
X160681009Y-111499999D02*
X160681009Y-111166666D01*
X161204819Y-111023809D02*
X161204819Y-111499999D01*
X161204819Y-111499999D02*
X160204819Y-111499999D01*
X160204819Y-111499999D02*
X160204819Y-111023809D01*
X161157200Y-110642856D02*
X161204819Y-110499999D01*
X161204819Y-110499999D02*
X161204819Y-110261904D01*
X161204819Y-110261904D02*
X161157200Y-110166666D01*
X161157200Y-110166666D02*
X161109580Y-110119047D01*
X161109580Y-110119047D02*
X161014342Y-110071428D01*
X161014342Y-110071428D02*
X160919104Y-110071428D01*
X160919104Y-110071428D02*
X160823866Y-110119047D01*
X160823866Y-110119047D02*
X160776247Y-110166666D01*
X160776247Y-110166666D02*
X160728628Y-110261904D01*
X160728628Y-110261904D02*
X160681009Y-110452380D01*
X160681009Y-110452380D02*
X160633390Y-110547618D01*
X160633390Y-110547618D02*
X160585771Y-110595237D01*
X160585771Y-110595237D02*
X160490533Y-110642856D01*
X160490533Y-110642856D02*
X160395295Y-110642856D01*
X160395295Y-110642856D02*
X160300057Y-110595237D01*
X160300057Y-110595237D02*
X160252438Y-110547618D01*
X160252438Y-110547618D02*
X160204819Y-110452380D01*
X160204819Y-110452380D02*
X160204819Y-110214285D01*
X160204819Y-110214285D02*
X160252438Y-110071428D01*
X160681009Y-109642856D02*
X160681009Y-109309523D01*
X161204819Y-109166666D02*
X161204819Y-109642856D01*
X161204819Y-109642856D02*
X160204819Y-109642856D01*
X160204819Y-109642856D02*
X160204819Y-109166666D01*
X160204819Y-108880951D02*
X160204819Y-108309523D01*
X161204819Y-108595237D02*
X160204819Y-108595237D01*
X161204819Y-107452380D02*
X161204819Y-108023808D01*
X161204819Y-107738094D02*
X160204819Y-107738094D01*
X160204819Y-107738094D02*
X160347676Y-107833332D01*
X160347676Y-107833332D02*
X160442914Y-107928570D01*
X160442914Y-107928570D02*
X160490533Y-108023808D01*
X152833333Y-105704819D02*
X152500000Y-105228628D01*
X152261905Y-105704819D02*
X152261905Y-104704819D01*
X152261905Y-104704819D02*
X152642857Y-104704819D01*
X152642857Y-104704819D02*
X152738095Y-104752438D01*
X152738095Y-104752438D02*
X152785714Y-104800057D01*
X152785714Y-104800057D02*
X152833333Y-104895295D01*
X152833333Y-104895295D02*
X152833333Y-105038152D01*
X152833333Y-105038152D02*
X152785714Y-105133390D01*
X152785714Y-105133390D02*
X152738095Y-105181009D01*
X152738095Y-105181009D02*
X152642857Y-105228628D01*
X152642857Y-105228628D02*
X152261905Y-105228628D01*
X153690476Y-104704819D02*
X153500000Y-104704819D01*
X153500000Y-104704819D02*
X153404762Y-104752438D01*
X153404762Y-104752438D02*
X153357143Y-104800057D01*
X153357143Y-104800057D02*
X153261905Y-104942914D01*
X153261905Y-104942914D02*
X153214286Y-105133390D01*
X153214286Y-105133390D02*
X153214286Y-105514342D01*
X153214286Y-105514342D02*
X153261905Y-105609580D01*
X153261905Y-105609580D02*
X153309524Y-105657200D01*
X153309524Y-105657200D02*
X153404762Y-105704819D01*
X153404762Y-105704819D02*
X153595238Y-105704819D01*
X153595238Y-105704819D02*
X153690476Y-105657200D01*
X153690476Y-105657200D02*
X153738095Y-105609580D01*
X153738095Y-105609580D02*
X153785714Y-105514342D01*
X153785714Y-105514342D02*
X153785714Y-105276247D01*
X153785714Y-105276247D02*
X153738095Y-105181009D01*
X153738095Y-105181009D02*
X153690476Y-105133390D01*
X153690476Y-105133390D02*
X153595238Y-105085771D01*
X153595238Y-105085771D02*
X153404762Y-105085771D01*
X153404762Y-105085771D02*
X153309524Y-105133390D01*
X153309524Y-105133390D02*
X153261905Y-105181009D01*
X153261905Y-105181009D02*
X153214286Y-105276247D01*
X160954819Y-118166666D02*
X160478628Y-118499999D01*
X160954819Y-118738094D02*
X159954819Y-118738094D01*
X159954819Y-118738094D02*
X159954819Y-118357142D01*
X159954819Y-118357142D02*
X160002438Y-118261904D01*
X160002438Y-118261904D02*
X160050057Y-118214285D01*
X160050057Y-118214285D02*
X160145295Y-118166666D01*
X160145295Y-118166666D02*
X160288152Y-118166666D01*
X160288152Y-118166666D02*
X160383390Y-118214285D01*
X160383390Y-118214285D02*
X160431009Y-118261904D01*
X160431009Y-118261904D02*
X160478628Y-118357142D01*
X160478628Y-118357142D02*
X160478628Y-118738094D01*
X160954819Y-117214285D02*
X160954819Y-117785713D01*
X160954819Y-117499999D02*
X159954819Y-117499999D01*
X159954819Y-117499999D02*
X160097676Y-117595237D01*
X160097676Y-117595237D02*
X160192914Y-117690475D01*
X160192914Y-117690475D02*
X160240533Y-117785713D01*
X149107142Y-98854819D02*
X148773809Y-98378628D01*
X148535714Y-98854819D02*
X148535714Y-97854819D01*
X148535714Y-97854819D02*
X148916666Y-97854819D01*
X148916666Y-97854819D02*
X149011904Y-97902438D01*
X149011904Y-97902438D02*
X149059523Y-97950057D01*
X149059523Y-97950057D02*
X149107142Y-98045295D01*
X149107142Y-98045295D02*
X149107142Y-98188152D01*
X149107142Y-98188152D02*
X149059523Y-98283390D01*
X149059523Y-98283390D02*
X149011904Y-98331009D01*
X149011904Y-98331009D02*
X148916666Y-98378628D01*
X148916666Y-98378628D02*
X148535714Y-98378628D01*
X150059523Y-98854819D02*
X149488095Y-98854819D01*
X149773809Y-98854819D02*
X149773809Y-97854819D01*
X149773809Y-97854819D02*
X149678571Y-97997676D01*
X149678571Y-97997676D02*
X149583333Y-98092914D01*
X149583333Y-98092914D02*
X149488095Y-98140533D01*
X151011904Y-98854819D02*
X150440476Y-98854819D01*
X150726190Y-98854819D02*
X150726190Y-97854819D01*
X150726190Y-97854819D02*
X150630952Y-97997676D01*
X150630952Y-97997676D02*
X150535714Y-98092914D01*
X150535714Y-98092914D02*
X150440476Y-98140533D01*
X150538095Y-109504819D02*
X150538095Y-110314342D01*
X150538095Y-110314342D02*
X150585714Y-110409580D01*
X150585714Y-110409580D02*
X150633333Y-110457200D01*
X150633333Y-110457200D02*
X150728571Y-110504819D01*
X150728571Y-110504819D02*
X150919047Y-110504819D01*
X150919047Y-110504819D02*
X151014285Y-110457200D01*
X151014285Y-110457200D02*
X151061904Y-110409580D01*
X151061904Y-110409580D02*
X151109523Y-110314342D01*
X151109523Y-110314342D02*
X151109523Y-109504819D01*
X151538095Y-109600057D02*
X151585714Y-109552438D01*
X151585714Y-109552438D02*
X151680952Y-109504819D01*
X151680952Y-109504819D02*
X151919047Y-109504819D01*
X151919047Y-109504819D02*
X152014285Y-109552438D01*
X152014285Y-109552438D02*
X152061904Y-109600057D01*
X152061904Y-109600057D02*
X152109523Y-109695295D01*
X152109523Y-109695295D02*
X152109523Y-109790533D01*
X152109523Y-109790533D02*
X152061904Y-109933390D01*
X152061904Y-109933390D02*
X151490476Y-110504819D01*
X151490476Y-110504819D02*
X152109523Y-110504819D01*
X146454819Y-120666666D02*
X145978628Y-120999999D01*
X146454819Y-121238094D02*
X145454819Y-121238094D01*
X145454819Y-121238094D02*
X145454819Y-120857142D01*
X145454819Y-120857142D02*
X145502438Y-120761904D01*
X145502438Y-120761904D02*
X145550057Y-120714285D01*
X145550057Y-120714285D02*
X145645295Y-120666666D01*
X145645295Y-120666666D02*
X145788152Y-120666666D01*
X145788152Y-120666666D02*
X145883390Y-120714285D01*
X145883390Y-120714285D02*
X145931009Y-120761904D01*
X145931009Y-120761904D02*
X145978628Y-120857142D01*
X145978628Y-120857142D02*
X145978628Y-121238094D01*
X145550057Y-120285713D02*
X145502438Y-120238094D01*
X145502438Y-120238094D02*
X145454819Y-120142856D01*
X145454819Y-120142856D02*
X145454819Y-119904761D01*
X145454819Y-119904761D02*
X145502438Y-119809523D01*
X145502438Y-119809523D02*
X145550057Y-119761904D01*
X145550057Y-119761904D02*
X145645295Y-119714285D01*
X145645295Y-119714285D02*
X145740533Y-119714285D01*
X145740533Y-119714285D02*
X145883390Y-119761904D01*
X145883390Y-119761904D02*
X146454819Y-120333332D01*
X146454819Y-120333332D02*
X146454819Y-119714285D01*
X142609580Y-96666666D02*
X142657200Y-96714285D01*
X142657200Y-96714285D02*
X142704819Y-96857142D01*
X142704819Y-96857142D02*
X142704819Y-96952380D01*
X142704819Y-96952380D02*
X142657200Y-97095237D01*
X142657200Y-97095237D02*
X142561961Y-97190475D01*
X142561961Y-97190475D02*
X142466723Y-97238094D01*
X142466723Y-97238094D02*
X142276247Y-97285713D01*
X142276247Y-97285713D02*
X142133390Y-97285713D01*
X142133390Y-97285713D02*
X141942914Y-97238094D01*
X141942914Y-97238094D02*
X141847676Y-97190475D01*
X141847676Y-97190475D02*
X141752438Y-97095237D01*
X141752438Y-97095237D02*
X141704819Y-96952380D01*
X141704819Y-96952380D02*
X141704819Y-96857142D01*
X141704819Y-96857142D02*
X141752438Y-96714285D01*
X141752438Y-96714285D02*
X141800057Y-96666666D01*
X141704819Y-96333332D02*
X141704819Y-95666666D01*
X141704819Y-95666666D02*
X142704819Y-96095237D01*
X141204819Y-100988094D02*
X140204819Y-100988094D01*
X140204819Y-100988094D02*
X140204819Y-100749999D01*
X140204819Y-100749999D02*
X140252438Y-100607142D01*
X140252438Y-100607142D02*
X140347676Y-100511904D01*
X140347676Y-100511904D02*
X140442914Y-100464285D01*
X140442914Y-100464285D02*
X140633390Y-100416666D01*
X140633390Y-100416666D02*
X140776247Y-100416666D01*
X140776247Y-100416666D02*
X140966723Y-100464285D01*
X140966723Y-100464285D02*
X141061961Y-100511904D01*
X141061961Y-100511904D02*
X141157200Y-100607142D01*
X141157200Y-100607142D02*
X141204819Y-100749999D01*
X141204819Y-100749999D02*
X141204819Y-100988094D01*
X141204819Y-99464285D02*
X141204819Y-100035713D01*
X141204819Y-99749999D02*
X140204819Y-99749999D01*
X140204819Y-99749999D02*
X140347676Y-99845237D01*
X140347676Y-99845237D02*
X140442914Y-99940475D01*
X140442914Y-99940475D02*
X140490533Y-100035713D01*
X158109580Y-113416666D02*
X158157200Y-113464285D01*
X158157200Y-113464285D02*
X158204819Y-113607142D01*
X158204819Y-113607142D02*
X158204819Y-113702380D01*
X158204819Y-113702380D02*
X158157200Y-113845237D01*
X158157200Y-113845237D02*
X158061961Y-113940475D01*
X158061961Y-113940475D02*
X157966723Y-113988094D01*
X157966723Y-113988094D02*
X157776247Y-114035713D01*
X157776247Y-114035713D02*
X157633390Y-114035713D01*
X157633390Y-114035713D02*
X157442914Y-113988094D01*
X157442914Y-113988094D02*
X157347676Y-113940475D01*
X157347676Y-113940475D02*
X157252438Y-113845237D01*
X157252438Y-113845237D02*
X157204819Y-113702380D01*
X157204819Y-113702380D02*
X157204819Y-113607142D01*
X157204819Y-113607142D02*
X157252438Y-113464285D01*
X157252438Y-113464285D02*
X157300057Y-113416666D01*
X157204819Y-113083332D02*
X157204819Y-112464285D01*
X157204819Y-112464285D02*
X157585771Y-112797618D01*
X157585771Y-112797618D02*
X157585771Y-112654761D01*
X157585771Y-112654761D02*
X157633390Y-112559523D01*
X157633390Y-112559523D02*
X157681009Y-112511904D01*
X157681009Y-112511904D02*
X157776247Y-112464285D01*
X157776247Y-112464285D02*
X158014342Y-112464285D01*
X158014342Y-112464285D02*
X158109580Y-112511904D01*
X158109580Y-112511904D02*
X158157200Y-112559523D01*
X158157200Y-112559523D02*
X158204819Y-112654761D01*
X158204819Y-112654761D02*
X158204819Y-112940475D01*
X158204819Y-112940475D02*
X158157200Y-113035713D01*
X158157200Y-113035713D02*
X158109580Y-113083332D01*
X158333333Y-101454819D02*
X158000000Y-100978628D01*
X157761905Y-101454819D02*
X157761905Y-100454819D01*
X157761905Y-100454819D02*
X158142857Y-100454819D01*
X158142857Y-100454819D02*
X158238095Y-100502438D01*
X158238095Y-100502438D02*
X158285714Y-100550057D01*
X158285714Y-100550057D02*
X158333333Y-100645295D01*
X158333333Y-100645295D02*
X158333333Y-100788152D01*
X158333333Y-100788152D02*
X158285714Y-100883390D01*
X158285714Y-100883390D02*
X158238095Y-100931009D01*
X158238095Y-100931009D02*
X158142857Y-100978628D01*
X158142857Y-100978628D02*
X157761905Y-100978628D01*
X158904762Y-100883390D02*
X158809524Y-100835771D01*
X158809524Y-100835771D02*
X158761905Y-100788152D01*
X158761905Y-100788152D02*
X158714286Y-100692914D01*
X158714286Y-100692914D02*
X158714286Y-100645295D01*
X158714286Y-100645295D02*
X158761905Y-100550057D01*
X158761905Y-100550057D02*
X158809524Y-100502438D01*
X158809524Y-100502438D02*
X158904762Y-100454819D01*
X158904762Y-100454819D02*
X159095238Y-100454819D01*
X159095238Y-100454819D02*
X159190476Y-100502438D01*
X159190476Y-100502438D02*
X159238095Y-100550057D01*
X159238095Y-100550057D02*
X159285714Y-100645295D01*
X159285714Y-100645295D02*
X159285714Y-100692914D01*
X159285714Y-100692914D02*
X159238095Y-100788152D01*
X159238095Y-100788152D02*
X159190476Y-100835771D01*
X159190476Y-100835771D02*
X159095238Y-100883390D01*
X159095238Y-100883390D02*
X158904762Y-100883390D01*
X158904762Y-100883390D02*
X158809524Y-100931009D01*
X158809524Y-100931009D02*
X158761905Y-100978628D01*
X158761905Y-100978628D02*
X158714286Y-101073866D01*
X158714286Y-101073866D02*
X158714286Y-101264342D01*
X158714286Y-101264342D02*
X158761905Y-101359580D01*
X158761905Y-101359580D02*
X158809524Y-101407200D01*
X158809524Y-101407200D02*
X158904762Y-101454819D01*
X158904762Y-101454819D02*
X159095238Y-101454819D01*
X159095238Y-101454819D02*
X159190476Y-101407200D01*
X159190476Y-101407200D02*
X159238095Y-101359580D01*
X159238095Y-101359580D02*
X159285714Y-101264342D01*
X159285714Y-101264342D02*
X159285714Y-101073866D01*
X159285714Y-101073866D02*
X159238095Y-100978628D01*
X159238095Y-100978628D02*
X159190476Y-100931009D01*
X159190476Y-100931009D02*
X159095238Y-100883390D01*
X162704819Y-114166666D02*
X162228628Y-114499999D01*
X162704819Y-114738094D02*
X161704819Y-114738094D01*
X161704819Y-114738094D02*
X161704819Y-114357142D01*
X161704819Y-114357142D02*
X161752438Y-114261904D01*
X161752438Y-114261904D02*
X161800057Y-114214285D01*
X161800057Y-114214285D02*
X161895295Y-114166666D01*
X161895295Y-114166666D02*
X162038152Y-114166666D01*
X162038152Y-114166666D02*
X162133390Y-114214285D01*
X162133390Y-114214285D02*
X162181009Y-114261904D01*
X162181009Y-114261904D02*
X162228628Y-114357142D01*
X162228628Y-114357142D02*
X162228628Y-114738094D01*
X161704819Y-113833332D02*
X161704819Y-113214285D01*
X161704819Y-113214285D02*
X162085771Y-113547618D01*
X162085771Y-113547618D02*
X162085771Y-113404761D01*
X162085771Y-113404761D02*
X162133390Y-113309523D01*
X162133390Y-113309523D02*
X162181009Y-113261904D01*
X162181009Y-113261904D02*
X162276247Y-113214285D01*
X162276247Y-113214285D02*
X162514342Y-113214285D01*
X162514342Y-113214285D02*
X162609580Y-113261904D01*
X162609580Y-113261904D02*
X162657200Y-113309523D01*
X162657200Y-113309523D02*
X162704819Y-113404761D01*
X162704819Y-113404761D02*
X162704819Y-113690475D01*
X162704819Y-113690475D02*
X162657200Y-113785713D01*
X162657200Y-113785713D02*
X162609580Y-113833332D01*
X144154819Y-104138094D02*
X143154819Y-104138094D01*
X143154819Y-104138094D02*
X143154819Y-103899999D01*
X143154819Y-103899999D02*
X143202438Y-103757142D01*
X143202438Y-103757142D02*
X143297676Y-103661904D01*
X143297676Y-103661904D02*
X143392914Y-103614285D01*
X143392914Y-103614285D02*
X143583390Y-103566666D01*
X143583390Y-103566666D02*
X143726247Y-103566666D01*
X143726247Y-103566666D02*
X143916723Y-103614285D01*
X143916723Y-103614285D02*
X144011961Y-103661904D01*
X144011961Y-103661904D02*
X144107200Y-103757142D01*
X144107200Y-103757142D02*
X144154819Y-103899999D01*
X144154819Y-103899999D02*
X144154819Y-104138094D01*
X143154819Y-102709523D02*
X143154819Y-102899999D01*
X143154819Y-102899999D02*
X143202438Y-102995237D01*
X143202438Y-102995237D02*
X143250057Y-103042856D01*
X143250057Y-103042856D02*
X143392914Y-103138094D01*
X143392914Y-103138094D02*
X143583390Y-103185713D01*
X143583390Y-103185713D02*
X143964342Y-103185713D01*
X143964342Y-103185713D02*
X144059580Y-103138094D01*
X144059580Y-103138094D02*
X144107200Y-103090475D01*
X144107200Y-103090475D02*
X144154819Y-102995237D01*
X144154819Y-102995237D02*
X144154819Y-102804761D01*
X144154819Y-102804761D02*
X144107200Y-102709523D01*
X144107200Y-102709523D02*
X144059580Y-102661904D01*
X144059580Y-102661904D02*
X143964342Y-102614285D01*
X143964342Y-102614285D02*
X143726247Y-102614285D01*
X143726247Y-102614285D02*
X143631009Y-102661904D01*
X143631009Y-102661904D02*
X143583390Y-102709523D01*
X143583390Y-102709523D02*
X143535771Y-102804761D01*
X143535771Y-102804761D02*
X143535771Y-102995237D01*
X143535771Y-102995237D02*
X143583390Y-103090475D01*
X143583390Y-103090475D02*
X143631009Y-103138094D01*
X143631009Y-103138094D02*
X143726247Y-103185713D01*
X141583333Y-92154819D02*
X141250000Y-91678628D01*
X141011905Y-92154819D02*
X141011905Y-91154819D01*
X141011905Y-91154819D02*
X141392857Y-91154819D01*
X141392857Y-91154819D02*
X141488095Y-91202438D01*
X141488095Y-91202438D02*
X141535714Y-91250057D01*
X141535714Y-91250057D02*
X141583333Y-91345295D01*
X141583333Y-91345295D02*
X141583333Y-91488152D01*
X141583333Y-91488152D02*
X141535714Y-91583390D01*
X141535714Y-91583390D02*
X141488095Y-91631009D01*
X141488095Y-91631009D02*
X141392857Y-91678628D01*
X141392857Y-91678628D02*
X141011905Y-91678628D01*
X142488095Y-91154819D02*
X142011905Y-91154819D01*
X142011905Y-91154819D02*
X141964286Y-91631009D01*
X141964286Y-91631009D02*
X142011905Y-91583390D01*
X142011905Y-91583390D02*
X142107143Y-91535771D01*
X142107143Y-91535771D02*
X142345238Y-91535771D01*
X142345238Y-91535771D02*
X142440476Y-91583390D01*
X142440476Y-91583390D02*
X142488095Y-91631009D01*
X142488095Y-91631009D02*
X142535714Y-91726247D01*
X142535714Y-91726247D02*
X142535714Y-91964342D01*
X142535714Y-91964342D02*
X142488095Y-92059580D01*
X142488095Y-92059580D02*
X142440476Y-92107200D01*
X142440476Y-92107200D02*
X142345238Y-92154819D01*
X142345238Y-92154819D02*
X142107143Y-92154819D01*
X142107143Y-92154819D02*
X142011905Y-92107200D01*
X142011905Y-92107200D02*
X141964286Y-92059580D01*
X161511904Y-91304438D02*
X161416666Y-91256819D01*
X161416666Y-91256819D02*
X161273809Y-91256819D01*
X161273809Y-91256819D02*
X161130952Y-91304438D01*
X161130952Y-91304438D02*
X161035714Y-91399676D01*
X161035714Y-91399676D02*
X160988095Y-91494914D01*
X160988095Y-91494914D02*
X160940476Y-91685390D01*
X160940476Y-91685390D02*
X160940476Y-91828247D01*
X160940476Y-91828247D02*
X160988095Y-92018723D01*
X160988095Y-92018723D02*
X161035714Y-92113961D01*
X161035714Y-92113961D02*
X161130952Y-92209200D01*
X161130952Y-92209200D02*
X161273809Y-92256819D01*
X161273809Y-92256819D02*
X161369047Y-92256819D01*
X161369047Y-92256819D02*
X161511904Y-92209200D01*
X161511904Y-92209200D02*
X161559523Y-92161580D01*
X161559523Y-92161580D02*
X161559523Y-91828247D01*
X161559523Y-91828247D02*
X161369047Y-91828247D01*
X161988095Y-92256819D02*
X161988095Y-91256819D01*
X161988095Y-91256819D02*
X162559523Y-92256819D01*
X162559523Y-92256819D02*
X162559523Y-91256819D01*
X163035714Y-92256819D02*
X163035714Y-91256819D01*
X163035714Y-91256819D02*
X163273809Y-91256819D01*
X163273809Y-91256819D02*
X163416666Y-91304438D01*
X163416666Y-91304438D02*
X163511904Y-91399676D01*
X163511904Y-91399676D02*
X163559523Y-91494914D01*
X163559523Y-91494914D02*
X163607142Y-91685390D01*
X163607142Y-91685390D02*
X163607142Y-91828247D01*
X163607142Y-91828247D02*
X163559523Y-92018723D01*
X163559523Y-92018723D02*
X163511904Y-92113961D01*
X163511904Y-92113961D02*
X163416666Y-92209200D01*
X163416666Y-92209200D02*
X163273809Y-92256819D01*
X163273809Y-92256819D02*
X163035714Y-92256819D01*
X163988095Y-91352057D02*
X164035714Y-91304438D01*
X164035714Y-91304438D02*
X164130952Y-91256819D01*
X164130952Y-91256819D02*
X164369047Y-91256819D01*
X164369047Y-91256819D02*
X164464285Y-91304438D01*
X164464285Y-91304438D02*
X164511904Y-91352057D01*
X164511904Y-91352057D02*
X164559523Y-91447295D01*
X164559523Y-91447295D02*
X164559523Y-91542533D01*
X164559523Y-91542533D02*
X164511904Y-91685390D01*
X164511904Y-91685390D02*
X163940476Y-92256819D01*
X163940476Y-92256819D02*
X164559523Y-92256819D01*
X161083333Y-86209200D02*
X161226190Y-86256819D01*
X161226190Y-86256819D02*
X161464285Y-86256819D01*
X161464285Y-86256819D02*
X161559523Y-86209200D01*
X161559523Y-86209200D02*
X161607142Y-86161580D01*
X161607142Y-86161580D02*
X161654761Y-86066342D01*
X161654761Y-86066342D02*
X161654761Y-85971104D01*
X161654761Y-85971104D02*
X161607142Y-85875866D01*
X161607142Y-85875866D02*
X161559523Y-85828247D01*
X161559523Y-85828247D02*
X161464285Y-85780628D01*
X161464285Y-85780628D02*
X161273809Y-85733009D01*
X161273809Y-85733009D02*
X161178571Y-85685390D01*
X161178571Y-85685390D02*
X161130952Y-85637771D01*
X161130952Y-85637771D02*
X161083333Y-85542533D01*
X161083333Y-85542533D02*
X161083333Y-85447295D01*
X161083333Y-85447295D02*
X161130952Y-85352057D01*
X161130952Y-85352057D02*
X161178571Y-85304438D01*
X161178571Y-85304438D02*
X161273809Y-85256819D01*
X161273809Y-85256819D02*
X161511904Y-85256819D01*
X161511904Y-85256819D02*
X161654761Y-85304438D01*
X162654761Y-86161580D02*
X162607142Y-86209200D01*
X162607142Y-86209200D02*
X162464285Y-86256819D01*
X162464285Y-86256819D02*
X162369047Y-86256819D01*
X162369047Y-86256819D02*
X162226190Y-86209200D01*
X162226190Y-86209200D02*
X162130952Y-86113961D01*
X162130952Y-86113961D02*
X162083333Y-86018723D01*
X162083333Y-86018723D02*
X162035714Y-85828247D01*
X162035714Y-85828247D02*
X162035714Y-85685390D01*
X162035714Y-85685390D02*
X162083333Y-85494914D01*
X162083333Y-85494914D02*
X162130952Y-85399676D01*
X162130952Y-85399676D02*
X162226190Y-85304438D01*
X162226190Y-85304438D02*
X162369047Y-85256819D01*
X162369047Y-85256819D02*
X162464285Y-85256819D01*
X162464285Y-85256819D02*
X162607142Y-85304438D01*
X162607142Y-85304438D02*
X162654761Y-85352057D01*
X163559523Y-86256819D02*
X163083333Y-86256819D01*
X163083333Y-86256819D02*
X163083333Y-85256819D01*
X164416666Y-86256819D02*
X163845238Y-86256819D01*
X164130952Y-86256819D02*
X164130952Y-85256819D01*
X164130952Y-85256819D02*
X164035714Y-85399676D01*
X164035714Y-85399676D02*
X163940476Y-85494914D01*
X163940476Y-85494914D02*
X163845238Y-85542533D01*
X151757142Y-98854819D02*
X151423809Y-98378628D01*
X151185714Y-98854819D02*
X151185714Y-97854819D01*
X151185714Y-97854819D02*
X151566666Y-97854819D01*
X151566666Y-97854819D02*
X151661904Y-97902438D01*
X151661904Y-97902438D02*
X151709523Y-97950057D01*
X151709523Y-97950057D02*
X151757142Y-98045295D01*
X151757142Y-98045295D02*
X151757142Y-98188152D01*
X151757142Y-98188152D02*
X151709523Y-98283390D01*
X151709523Y-98283390D02*
X151661904Y-98331009D01*
X151661904Y-98331009D02*
X151566666Y-98378628D01*
X151566666Y-98378628D02*
X151185714Y-98378628D01*
X152709523Y-98854819D02*
X152138095Y-98854819D01*
X152423809Y-98854819D02*
X152423809Y-97854819D01*
X152423809Y-97854819D02*
X152328571Y-97997676D01*
X152328571Y-97997676D02*
X152233333Y-98092914D01*
X152233333Y-98092914D02*
X152138095Y-98140533D01*
X153328571Y-97854819D02*
X153423809Y-97854819D01*
X153423809Y-97854819D02*
X153519047Y-97902438D01*
X153519047Y-97902438D02*
X153566666Y-97950057D01*
X153566666Y-97950057D02*
X153614285Y-98045295D01*
X153614285Y-98045295D02*
X153661904Y-98235771D01*
X153661904Y-98235771D02*
X153661904Y-98473866D01*
X153661904Y-98473866D02*
X153614285Y-98664342D01*
X153614285Y-98664342D02*
X153566666Y-98759580D01*
X153566666Y-98759580D02*
X153519047Y-98807200D01*
X153519047Y-98807200D02*
X153423809Y-98854819D01*
X153423809Y-98854819D02*
X153328571Y-98854819D01*
X153328571Y-98854819D02*
X153233333Y-98807200D01*
X153233333Y-98807200D02*
X153185714Y-98759580D01*
X153185714Y-98759580D02*
X153138095Y-98664342D01*
X153138095Y-98664342D02*
X153090476Y-98473866D01*
X153090476Y-98473866D02*
X153090476Y-98235771D01*
X153090476Y-98235771D02*
X153138095Y-98045295D01*
X153138095Y-98045295D02*
X153185714Y-97950057D01*
X153185714Y-97950057D02*
X153233333Y-97902438D01*
X153233333Y-97902438D02*
X153328571Y-97854819D01*
X157761905Y-99704819D02*
X157761905Y-98704819D01*
X157761905Y-98704819D02*
X158000000Y-98704819D01*
X158000000Y-98704819D02*
X158142857Y-98752438D01*
X158142857Y-98752438D02*
X158238095Y-98847676D01*
X158238095Y-98847676D02*
X158285714Y-98942914D01*
X158285714Y-98942914D02*
X158333333Y-99133390D01*
X158333333Y-99133390D02*
X158333333Y-99276247D01*
X158333333Y-99276247D02*
X158285714Y-99466723D01*
X158285714Y-99466723D02*
X158238095Y-99561961D01*
X158238095Y-99561961D02*
X158142857Y-99657200D01*
X158142857Y-99657200D02*
X158000000Y-99704819D01*
X158000000Y-99704819D02*
X157761905Y-99704819D01*
X158666667Y-98704819D02*
X159285714Y-98704819D01*
X159285714Y-98704819D02*
X158952381Y-99085771D01*
X158952381Y-99085771D02*
X159095238Y-99085771D01*
X159095238Y-99085771D02*
X159190476Y-99133390D01*
X159190476Y-99133390D02*
X159238095Y-99181009D01*
X159238095Y-99181009D02*
X159285714Y-99276247D01*
X159285714Y-99276247D02*
X159285714Y-99514342D01*
X159285714Y-99514342D02*
X159238095Y-99609580D01*
X159238095Y-99609580D02*
X159190476Y-99657200D01*
X159190476Y-99657200D02*
X159095238Y-99704819D01*
X159095238Y-99704819D02*
X158809524Y-99704819D01*
X158809524Y-99704819D02*
X158714286Y-99657200D01*
X158714286Y-99657200D02*
X158666667Y-99609580D01*
X147359580Y-115642857D02*
X147407200Y-115690476D01*
X147407200Y-115690476D02*
X147454819Y-115833333D01*
X147454819Y-115833333D02*
X147454819Y-115928571D01*
X147454819Y-115928571D02*
X147407200Y-116071428D01*
X147407200Y-116071428D02*
X147311961Y-116166666D01*
X147311961Y-116166666D02*
X147216723Y-116214285D01*
X147216723Y-116214285D02*
X147026247Y-116261904D01*
X147026247Y-116261904D02*
X146883390Y-116261904D01*
X146883390Y-116261904D02*
X146692914Y-116214285D01*
X146692914Y-116214285D02*
X146597676Y-116166666D01*
X146597676Y-116166666D02*
X146502438Y-116071428D01*
X146502438Y-116071428D02*
X146454819Y-115928571D01*
X146454819Y-115928571D02*
X146454819Y-115833333D01*
X146454819Y-115833333D02*
X146502438Y-115690476D01*
X146502438Y-115690476D02*
X146550057Y-115642857D01*
X147454819Y-114690476D02*
X147454819Y-115261904D01*
X147454819Y-114976190D02*
X146454819Y-114976190D01*
X146454819Y-114976190D02*
X146597676Y-115071428D01*
X146597676Y-115071428D02*
X146692914Y-115166666D01*
X146692914Y-115166666D02*
X146740533Y-115261904D01*
X146454819Y-114071428D02*
X146454819Y-113976190D01*
X146454819Y-113976190D02*
X146502438Y-113880952D01*
X146502438Y-113880952D02*
X146550057Y-113833333D01*
X146550057Y-113833333D02*
X146645295Y-113785714D01*
X146645295Y-113785714D02*
X146835771Y-113738095D01*
X146835771Y-113738095D02*
X147073866Y-113738095D01*
X147073866Y-113738095D02*
X147264342Y-113785714D01*
X147264342Y-113785714D02*
X147359580Y-113833333D01*
X147359580Y-113833333D02*
X147407200Y-113880952D01*
X147407200Y-113880952D02*
X147454819Y-113976190D01*
X147454819Y-113976190D02*
X147454819Y-114071428D01*
X147454819Y-114071428D02*
X147407200Y-114166666D01*
X147407200Y-114166666D02*
X147359580Y-114214285D01*
X147359580Y-114214285D02*
X147264342Y-114261904D01*
X147264342Y-114261904D02*
X147073866Y-114309523D01*
X147073866Y-114309523D02*
X146835771Y-114309523D01*
X146835771Y-114309523D02*
X146645295Y-114261904D01*
X146645295Y-114261904D02*
X146550057Y-114214285D01*
X146550057Y-114214285D02*
X146502438Y-114166666D01*
X146502438Y-114166666D02*
X146454819Y-114071428D01*
X161511905Y-82256819D02*
X162130952Y-82256819D01*
X162130952Y-82256819D02*
X161797619Y-82637771D01*
X161797619Y-82637771D02*
X161940476Y-82637771D01*
X161940476Y-82637771D02*
X162035714Y-82685390D01*
X162035714Y-82685390D02*
X162083333Y-82733009D01*
X162083333Y-82733009D02*
X162130952Y-82828247D01*
X162130952Y-82828247D02*
X162130952Y-83066342D01*
X162130952Y-83066342D02*
X162083333Y-83161580D01*
X162083333Y-83161580D02*
X162035714Y-83209200D01*
X162035714Y-83209200D02*
X161940476Y-83256819D01*
X161940476Y-83256819D02*
X161654762Y-83256819D01*
X161654762Y-83256819D02*
X161559524Y-83209200D01*
X161559524Y-83209200D02*
X161511905Y-83161580D01*
X162416667Y-82256819D02*
X162750000Y-83256819D01*
X162750000Y-83256819D02*
X163083333Y-82256819D01*
X163321429Y-82256819D02*
X163940476Y-82256819D01*
X163940476Y-82256819D02*
X163607143Y-82637771D01*
X163607143Y-82637771D02*
X163750000Y-82637771D01*
X163750000Y-82637771D02*
X163845238Y-82685390D01*
X163845238Y-82685390D02*
X163892857Y-82733009D01*
X163892857Y-82733009D02*
X163940476Y-82828247D01*
X163940476Y-82828247D02*
X163940476Y-83066342D01*
X163940476Y-83066342D02*
X163892857Y-83161580D01*
X163892857Y-83161580D02*
X163845238Y-83209200D01*
X163845238Y-83209200D02*
X163750000Y-83256819D01*
X163750000Y-83256819D02*
X163464286Y-83256819D01*
X163464286Y-83256819D02*
X163369048Y-83209200D01*
X163369048Y-83209200D02*
X163321429Y-83161580D01*
X144254819Y-90566666D02*
X143778628Y-90899999D01*
X144254819Y-91138094D02*
X143254819Y-91138094D01*
X143254819Y-91138094D02*
X143254819Y-90757142D01*
X143254819Y-90757142D02*
X143302438Y-90661904D01*
X143302438Y-90661904D02*
X143350057Y-90614285D01*
X143350057Y-90614285D02*
X143445295Y-90566666D01*
X143445295Y-90566666D02*
X143588152Y-90566666D01*
X143588152Y-90566666D02*
X143683390Y-90614285D01*
X143683390Y-90614285D02*
X143731009Y-90661904D01*
X143731009Y-90661904D02*
X143778628Y-90757142D01*
X143778628Y-90757142D02*
X143778628Y-91138094D01*
X144254819Y-90090475D02*
X144254819Y-89899999D01*
X144254819Y-89899999D02*
X144207200Y-89804761D01*
X144207200Y-89804761D02*
X144159580Y-89757142D01*
X144159580Y-89757142D02*
X144016723Y-89661904D01*
X144016723Y-89661904D02*
X143826247Y-89614285D01*
X143826247Y-89614285D02*
X143445295Y-89614285D01*
X143445295Y-89614285D02*
X143350057Y-89661904D01*
X143350057Y-89661904D02*
X143302438Y-89709523D01*
X143302438Y-89709523D02*
X143254819Y-89804761D01*
X143254819Y-89804761D02*
X143254819Y-89995237D01*
X143254819Y-89995237D02*
X143302438Y-90090475D01*
X143302438Y-90090475D02*
X143350057Y-90138094D01*
X143350057Y-90138094D02*
X143445295Y-90185713D01*
X143445295Y-90185713D02*
X143683390Y-90185713D01*
X143683390Y-90185713D02*
X143778628Y-90138094D01*
X143778628Y-90138094D02*
X143826247Y-90090475D01*
X143826247Y-90090475D02*
X143873866Y-89995237D01*
X143873866Y-89995237D02*
X143873866Y-89804761D01*
X143873866Y-89804761D02*
X143826247Y-89709523D01*
X143826247Y-89709523D02*
X143778628Y-89661904D01*
X143778628Y-89661904D02*
X143683390Y-89614285D01*
X154833333Y-103109580D02*
X154785714Y-103157200D01*
X154785714Y-103157200D02*
X154642857Y-103204819D01*
X154642857Y-103204819D02*
X154547619Y-103204819D01*
X154547619Y-103204819D02*
X154404762Y-103157200D01*
X154404762Y-103157200D02*
X154309524Y-103061961D01*
X154309524Y-103061961D02*
X154261905Y-102966723D01*
X154261905Y-102966723D02*
X154214286Y-102776247D01*
X154214286Y-102776247D02*
X154214286Y-102633390D01*
X154214286Y-102633390D02*
X154261905Y-102442914D01*
X154261905Y-102442914D02*
X154309524Y-102347676D01*
X154309524Y-102347676D02*
X154404762Y-102252438D01*
X154404762Y-102252438D02*
X154547619Y-102204819D01*
X154547619Y-102204819D02*
X154642857Y-102204819D01*
X154642857Y-102204819D02*
X154785714Y-102252438D01*
X154785714Y-102252438D02*
X154833333Y-102300057D01*
X155690476Y-102538152D02*
X155690476Y-103204819D01*
X155452381Y-102157200D02*
X155214286Y-102871485D01*
X155214286Y-102871485D02*
X155833333Y-102871485D01*
X160681009Y-106583333D02*
X160728628Y-106440476D01*
X160728628Y-106440476D02*
X160776247Y-106392857D01*
X160776247Y-106392857D02*
X160871485Y-106345238D01*
X160871485Y-106345238D02*
X161014342Y-106345238D01*
X161014342Y-106345238D02*
X161109580Y-106392857D01*
X161109580Y-106392857D02*
X161157200Y-106440476D01*
X161157200Y-106440476D02*
X161204819Y-106535714D01*
X161204819Y-106535714D02*
X161204819Y-106916666D01*
X161204819Y-106916666D02*
X160204819Y-106916666D01*
X160204819Y-106916666D02*
X160204819Y-106583333D01*
X160204819Y-106583333D02*
X160252438Y-106488095D01*
X160252438Y-106488095D02*
X160300057Y-106440476D01*
X160300057Y-106440476D02*
X160395295Y-106392857D01*
X160395295Y-106392857D02*
X160490533Y-106392857D01*
X160490533Y-106392857D02*
X160585771Y-106440476D01*
X160585771Y-106440476D02*
X160633390Y-106488095D01*
X160633390Y-106488095D02*
X160681009Y-106583333D01*
X160681009Y-106583333D02*
X160681009Y-106916666D01*
X160204819Y-105726190D02*
X160204819Y-105535714D01*
X160204819Y-105535714D02*
X160252438Y-105440476D01*
X160252438Y-105440476D02*
X160347676Y-105345238D01*
X160347676Y-105345238D02*
X160538152Y-105297619D01*
X160538152Y-105297619D02*
X160871485Y-105297619D01*
X160871485Y-105297619D02*
X161061961Y-105345238D01*
X161061961Y-105345238D02*
X161157200Y-105440476D01*
X161157200Y-105440476D02*
X161204819Y-105535714D01*
X161204819Y-105535714D02*
X161204819Y-105726190D01*
X161204819Y-105726190D02*
X161157200Y-105821428D01*
X161157200Y-105821428D02*
X161061961Y-105916666D01*
X161061961Y-105916666D02*
X160871485Y-105964285D01*
X160871485Y-105964285D02*
X160538152Y-105964285D01*
X160538152Y-105964285D02*
X160347676Y-105916666D01*
X160347676Y-105916666D02*
X160252438Y-105821428D01*
X160252438Y-105821428D02*
X160204819Y-105726190D01*
X160204819Y-104678571D02*
X160204819Y-104488095D01*
X160204819Y-104488095D02*
X160252438Y-104392857D01*
X160252438Y-104392857D02*
X160347676Y-104297619D01*
X160347676Y-104297619D02*
X160538152Y-104250000D01*
X160538152Y-104250000D02*
X160871485Y-104250000D01*
X160871485Y-104250000D02*
X161061961Y-104297619D01*
X161061961Y-104297619D02*
X161157200Y-104392857D01*
X161157200Y-104392857D02*
X161204819Y-104488095D01*
X161204819Y-104488095D02*
X161204819Y-104678571D01*
X161204819Y-104678571D02*
X161157200Y-104773809D01*
X161157200Y-104773809D02*
X161061961Y-104869047D01*
X161061961Y-104869047D02*
X160871485Y-104916666D01*
X160871485Y-104916666D02*
X160538152Y-104916666D01*
X160538152Y-104916666D02*
X160347676Y-104869047D01*
X160347676Y-104869047D02*
X160252438Y-104773809D01*
X160252438Y-104773809D02*
X160204819Y-104678571D01*
X160204819Y-103964285D02*
X160204819Y-103392857D01*
X161204819Y-103678571D02*
X160204819Y-103678571D01*
X161204819Y-102535714D02*
X161204819Y-103107142D01*
X161204819Y-102821428D02*
X160204819Y-102821428D01*
X160204819Y-102821428D02*
X160347676Y-102916666D01*
X160347676Y-102916666D02*
X160442914Y-103011904D01*
X160442914Y-103011904D02*
X160490533Y-103107142D01*
X141023809Y-88304438D02*
X140928571Y-88256819D01*
X140928571Y-88256819D02*
X140785714Y-88256819D01*
X140785714Y-88256819D02*
X140642857Y-88304438D01*
X140642857Y-88304438D02*
X140547619Y-88399676D01*
X140547619Y-88399676D02*
X140500000Y-88494914D01*
X140500000Y-88494914D02*
X140452381Y-88685390D01*
X140452381Y-88685390D02*
X140452381Y-88828247D01*
X140452381Y-88828247D02*
X140500000Y-89018723D01*
X140500000Y-89018723D02*
X140547619Y-89113961D01*
X140547619Y-89113961D02*
X140642857Y-89209200D01*
X140642857Y-89209200D02*
X140785714Y-89256819D01*
X140785714Y-89256819D02*
X140880952Y-89256819D01*
X140880952Y-89256819D02*
X141023809Y-89209200D01*
X141023809Y-89209200D02*
X141071428Y-89161580D01*
X141071428Y-89161580D02*
X141071428Y-88828247D01*
X141071428Y-88828247D02*
X140880952Y-88828247D01*
X141500000Y-89256819D02*
X141500000Y-88256819D01*
X141500000Y-88256819D02*
X141880952Y-88256819D01*
X141880952Y-88256819D02*
X141976190Y-88304438D01*
X141976190Y-88304438D02*
X142023809Y-88352057D01*
X142023809Y-88352057D02*
X142071428Y-88447295D01*
X142071428Y-88447295D02*
X142071428Y-88590152D01*
X142071428Y-88590152D02*
X142023809Y-88685390D01*
X142023809Y-88685390D02*
X141976190Y-88733009D01*
X141976190Y-88733009D02*
X141880952Y-88780628D01*
X141880952Y-88780628D02*
X141500000Y-88780628D01*
X142500000Y-89256819D02*
X142500000Y-88256819D01*
X143166666Y-88256819D02*
X143357142Y-88256819D01*
X143357142Y-88256819D02*
X143452380Y-88304438D01*
X143452380Y-88304438D02*
X143547618Y-88399676D01*
X143547618Y-88399676D02*
X143595237Y-88590152D01*
X143595237Y-88590152D02*
X143595237Y-88923485D01*
X143595237Y-88923485D02*
X143547618Y-89113961D01*
X143547618Y-89113961D02*
X143452380Y-89209200D01*
X143452380Y-89209200D02*
X143357142Y-89256819D01*
X143357142Y-89256819D02*
X143166666Y-89256819D01*
X143166666Y-89256819D02*
X143071428Y-89209200D01*
X143071428Y-89209200D02*
X142976190Y-89113961D01*
X142976190Y-89113961D02*
X142928571Y-88923485D01*
X142928571Y-88923485D02*
X142928571Y-88590152D01*
X142928571Y-88590152D02*
X142976190Y-88399676D01*
X142976190Y-88399676D02*
X143071428Y-88304438D01*
X143071428Y-88304438D02*
X143166666Y-88256819D01*
X144547618Y-89256819D02*
X143976190Y-89256819D01*
X144261904Y-89256819D02*
X144261904Y-88256819D01*
X144261904Y-88256819D02*
X144166666Y-88399676D01*
X144166666Y-88399676D02*
X144071428Y-88494914D01*
X144071428Y-88494914D02*
X143976190Y-88542533D01*
X143104818Y-109964285D02*
X142104818Y-109964285D01*
X142104818Y-109964285D02*
X142104818Y-109583333D01*
X142104818Y-109583333D02*
X142152437Y-109488095D01*
X142152437Y-109488095D02*
X142200056Y-109440476D01*
X142200056Y-109440476D02*
X142295294Y-109392857D01*
X142295294Y-109392857D02*
X142438151Y-109392857D01*
X142438151Y-109392857D02*
X142533389Y-109440476D01*
X142533389Y-109440476D02*
X142581008Y-109488095D01*
X142581008Y-109488095D02*
X142628627Y-109583333D01*
X142628627Y-109583333D02*
X142628627Y-109964285D01*
X143057199Y-109011904D02*
X143104818Y-108869047D01*
X143104818Y-108869047D02*
X143104818Y-108630952D01*
X143104818Y-108630952D02*
X143057199Y-108535714D01*
X143057199Y-108535714D02*
X143009579Y-108488095D01*
X143009579Y-108488095D02*
X142914341Y-108440476D01*
X142914341Y-108440476D02*
X142819103Y-108440476D01*
X142819103Y-108440476D02*
X142723865Y-108488095D01*
X142723865Y-108488095D02*
X142676246Y-108535714D01*
X142676246Y-108535714D02*
X142628627Y-108630952D01*
X142628627Y-108630952D02*
X142581008Y-108821428D01*
X142581008Y-108821428D02*
X142533389Y-108916666D01*
X142533389Y-108916666D02*
X142485770Y-108964285D01*
X142485770Y-108964285D02*
X142390532Y-109011904D01*
X142390532Y-109011904D02*
X142295294Y-109011904D01*
X142295294Y-109011904D02*
X142200056Y-108964285D01*
X142200056Y-108964285D02*
X142152437Y-108916666D01*
X142152437Y-108916666D02*
X142104818Y-108821428D01*
X142104818Y-108821428D02*
X142104818Y-108583333D01*
X142104818Y-108583333D02*
X142152437Y-108440476D01*
X143104818Y-107488095D02*
X143104818Y-108059523D01*
X143104818Y-107773809D02*
X142104818Y-107773809D01*
X142104818Y-107773809D02*
X142247675Y-107869047D01*
X142247675Y-107869047D02*
X142342913Y-107964285D01*
X142342913Y-107964285D02*
X142390532Y-108059523D01*
X140904761Y-83256819D02*
X140333333Y-83256819D01*
X140619047Y-83256819D02*
X140619047Y-82256819D01*
X140619047Y-82256819D02*
X140523809Y-82399676D01*
X140523809Y-82399676D02*
X140428571Y-82494914D01*
X140428571Y-82494914D02*
X140333333Y-82542533D01*
X141285714Y-82352057D02*
X141333333Y-82304438D01*
X141333333Y-82304438D02*
X141428571Y-82256819D01*
X141428571Y-82256819D02*
X141666666Y-82256819D01*
X141666666Y-82256819D02*
X141761904Y-82304438D01*
X141761904Y-82304438D02*
X141809523Y-82352057D01*
X141809523Y-82352057D02*
X141857142Y-82447295D01*
X141857142Y-82447295D02*
X141857142Y-82542533D01*
X141857142Y-82542533D02*
X141809523Y-82685390D01*
X141809523Y-82685390D02*
X141238095Y-83256819D01*
X141238095Y-83256819D02*
X141857142Y-83256819D01*
X142142857Y-82256819D02*
X142476190Y-83256819D01*
X142476190Y-83256819D02*
X142809523Y-82256819D01*
X143142857Y-83256819D02*
X143142857Y-82256819D01*
X143142857Y-82256819D02*
X143523809Y-82256819D01*
X143523809Y-82256819D02*
X143619047Y-82304438D01*
X143619047Y-82304438D02*
X143666666Y-82352057D01*
X143666666Y-82352057D02*
X143714285Y-82447295D01*
X143714285Y-82447295D02*
X143714285Y-82590152D01*
X143714285Y-82590152D02*
X143666666Y-82685390D01*
X143666666Y-82685390D02*
X143619047Y-82733009D01*
X143619047Y-82733009D02*
X143523809Y-82780628D01*
X143523809Y-82780628D02*
X143142857Y-82780628D01*
X144666666Y-83256819D02*
X144095238Y-83256819D01*
X144380952Y-83256819D02*
X144380952Y-82256819D01*
X144380952Y-82256819D02*
X144285714Y-82399676D01*
X144285714Y-82399676D02*
X144190476Y-82494914D01*
X144190476Y-82494914D02*
X144095238Y-82542533D01*
X146783333Y-98709580D02*
X146735714Y-98757200D01*
X146735714Y-98757200D02*
X146592857Y-98804819D01*
X146592857Y-98804819D02*
X146497619Y-98804819D01*
X146497619Y-98804819D02*
X146354762Y-98757200D01*
X146354762Y-98757200D02*
X146259524Y-98661961D01*
X146259524Y-98661961D02*
X146211905Y-98566723D01*
X146211905Y-98566723D02*
X146164286Y-98376247D01*
X146164286Y-98376247D02*
X146164286Y-98233390D01*
X146164286Y-98233390D02*
X146211905Y-98042914D01*
X146211905Y-98042914D02*
X146259524Y-97947676D01*
X146259524Y-97947676D02*
X146354762Y-97852438D01*
X146354762Y-97852438D02*
X146497619Y-97804819D01*
X146497619Y-97804819D02*
X146592857Y-97804819D01*
X146592857Y-97804819D02*
X146735714Y-97852438D01*
X146735714Y-97852438D02*
X146783333Y-97900057D01*
X147735714Y-98804819D02*
X147164286Y-98804819D01*
X147450000Y-98804819D02*
X147450000Y-97804819D01*
X147450000Y-97804819D02*
X147354762Y-97947676D01*
X147354762Y-97947676D02*
X147259524Y-98042914D01*
X147259524Y-98042914D02*
X147164286Y-98090533D01*
X153666666Y-112454819D02*
X153666666Y-113169104D01*
X153666666Y-113169104D02*
X153619047Y-113311961D01*
X153619047Y-113311961D02*
X153523809Y-113407200D01*
X153523809Y-113407200D02*
X153380952Y-113454819D01*
X153380952Y-113454819D02*
X153285714Y-113454819D01*
X154666666Y-113454819D02*
X154095238Y-113454819D01*
X154380952Y-113454819D02*
X154380952Y-112454819D01*
X154380952Y-112454819D02*
X154285714Y-112597676D01*
X154285714Y-112597676D02*
X154190476Y-112692914D01*
X154190476Y-112692914D02*
X154095238Y-112740533D01*
X142059580Y-105566666D02*
X142107200Y-105614285D01*
X142107200Y-105614285D02*
X142154819Y-105757142D01*
X142154819Y-105757142D02*
X142154819Y-105852380D01*
X142154819Y-105852380D02*
X142107200Y-105995237D01*
X142107200Y-105995237D02*
X142011961Y-106090475D01*
X142011961Y-106090475D02*
X141916723Y-106138094D01*
X141916723Y-106138094D02*
X141726247Y-106185713D01*
X141726247Y-106185713D02*
X141583390Y-106185713D01*
X141583390Y-106185713D02*
X141392914Y-106138094D01*
X141392914Y-106138094D02*
X141297676Y-106090475D01*
X141297676Y-106090475D02*
X141202438Y-105995237D01*
X141202438Y-105995237D02*
X141154819Y-105852380D01*
X141154819Y-105852380D02*
X141154819Y-105757142D01*
X141154819Y-105757142D02*
X141202438Y-105614285D01*
X141202438Y-105614285D02*
X141250057Y-105566666D01*
X142154819Y-105090475D02*
X142154819Y-104899999D01*
X142154819Y-104899999D02*
X142107200Y-104804761D01*
X142107200Y-104804761D02*
X142059580Y-104757142D01*
X142059580Y-104757142D02*
X141916723Y-104661904D01*
X141916723Y-104661904D02*
X141726247Y-104614285D01*
X141726247Y-104614285D02*
X141345295Y-104614285D01*
X141345295Y-104614285D02*
X141250057Y-104661904D01*
X141250057Y-104661904D02*
X141202438Y-104709523D01*
X141202438Y-104709523D02*
X141154819Y-104804761D01*
X141154819Y-104804761D02*
X141154819Y-104995237D01*
X141154819Y-104995237D02*
X141202438Y-105090475D01*
X141202438Y-105090475D02*
X141250057Y-105138094D01*
X141250057Y-105138094D02*
X141345295Y-105185713D01*
X141345295Y-105185713D02*
X141583390Y-105185713D01*
X141583390Y-105185713D02*
X141678628Y-105138094D01*
X141678628Y-105138094D02*
X141726247Y-105090475D01*
X141726247Y-105090475D02*
X141773866Y-104995237D01*
X141773866Y-104995237D02*
X141773866Y-104804761D01*
X141773866Y-104804761D02*
X141726247Y-104709523D01*
X141726247Y-104709523D02*
X141678628Y-104661904D01*
X141678628Y-104661904D02*
X141583390Y-104614285D01*
X141833333Y-111954819D02*
X141357143Y-111954819D01*
X141357143Y-111954819D02*
X141357143Y-110954819D01*
X142119048Y-111050057D02*
X142166667Y-111002438D01*
X142166667Y-111002438D02*
X142261905Y-110954819D01*
X142261905Y-110954819D02*
X142500000Y-110954819D01*
X142500000Y-110954819D02*
X142595238Y-111002438D01*
X142595238Y-111002438D02*
X142642857Y-111050057D01*
X142642857Y-111050057D02*
X142690476Y-111145295D01*
X142690476Y-111145295D02*
X142690476Y-111240533D01*
X142690476Y-111240533D02*
X142642857Y-111383390D01*
X142642857Y-111383390D02*
X142071429Y-111954819D01*
X142071429Y-111954819D02*
X142690476Y-111954819D01*
X150654819Y-108511904D02*
X151464342Y-108511904D01*
X151464342Y-108511904D02*
X151559580Y-108464285D01*
X151559580Y-108464285D02*
X151607200Y-108416666D01*
X151607200Y-108416666D02*
X151654819Y-108321428D01*
X151654819Y-108321428D02*
X151654819Y-108130952D01*
X151654819Y-108130952D02*
X151607200Y-108035714D01*
X151607200Y-108035714D02*
X151559580Y-107988095D01*
X151559580Y-107988095D02*
X151464342Y-107940476D01*
X151464342Y-107940476D02*
X150654819Y-107940476D01*
X150654819Y-106988095D02*
X150654819Y-107464285D01*
X150654819Y-107464285D02*
X151131009Y-107511904D01*
X151131009Y-107511904D02*
X151083390Y-107464285D01*
X151083390Y-107464285D02*
X151035771Y-107369047D01*
X151035771Y-107369047D02*
X151035771Y-107130952D01*
X151035771Y-107130952D02*
X151083390Y-107035714D01*
X151083390Y-107035714D02*
X151131009Y-106988095D01*
X151131009Y-106988095D02*
X151226247Y-106940476D01*
X151226247Y-106940476D02*
X151464342Y-106940476D01*
X151464342Y-106940476D02*
X151559580Y-106988095D01*
X151559580Y-106988095D02*
X151607200Y-107035714D01*
X151607200Y-107035714D02*
X151654819Y-107130952D01*
X151654819Y-107130952D02*
X151654819Y-107369047D01*
X151654819Y-107369047D02*
X151607200Y-107464285D01*
X151607200Y-107464285D02*
X151559580Y-107511904D01*
D11*
%TO.C,R7*%
X147477500Y-104262742D02*
X147477500Y-104737258D01*
X148522500Y-104262742D02*
X148522500Y-104737258D01*
%TO.C,C5*%
X148740000Y-111109420D02*
X148740000Y-111390580D01*
X149760000Y-111109420D02*
X149760000Y-111390580D01*
%TO.C,GND1*%
X142950000Y-87250000D02*
G75*
G02*
X141550000Y-87250000I-700000J0D01*
G01*
X141550000Y-87250000D02*
G75*
G02*
X142950000Y-87250000I700000J0D01*
G01*
%TO.C,R4*%
X146977500Y-111012742D02*
X146977500Y-111487258D01*
X148022500Y-111012742D02*
X148022500Y-111487258D01*
%TO.C,D4*%
X142500000Y-117860000D02*
X142500000Y-113850000D01*
X142500000Y-117860000D02*
X144500000Y-117860000D01*
X144500000Y-117860000D02*
X144500000Y-113850000D01*
%TO.C,SDA1*%
X163450000Y-90250000D02*
G75*
G02*
X162050000Y-90250000I-700000J0D01*
G01*
X162050000Y-90250000D02*
G75*
G02*
X163450000Y-90250000I700000J0D01*
G01*
%TO.C,C2*%
X147140580Y-100740000D02*
X146859420Y-100740000D01*
X147140580Y-101760000D02*
X146859420Y-101760000D01*
%TO.C,C6*%
X150640580Y-102990000D02*
X150359420Y-102990000D01*
X150640580Y-104010000D02*
X150359420Y-104010000D01*
D12*
%TO.C,U1*%
X144800000Y-77125000D02*
X160200000Y-77125000D01*
X144800000Y-82175000D02*
X144800000Y-77125000D01*
X160200000Y-77125000D02*
X160200000Y-82175000D01*
X160200000Y-97625000D02*
X144800000Y-97625000D01*
D13*
X144150000Y-83950000D02*
G75*
G02*
X143950000Y-83950000I-100000J0D01*
G01*
X143950000Y-83950000D02*
G75*
G02*
X144150000Y-83950000I100000J0D01*
G01*
D14*
%TO.C,RESET1*%
X155150000Y-107650000D02*
X159325000Y-107650000D01*
X155150000Y-110850000D02*
X159325000Y-110850000D01*
D13*
X154250000Y-108050000D02*
G75*
G02*
X154250000Y-108250000I0J-100000D01*
G01*
X154250000Y-108250000D02*
G75*
G02*
X154250000Y-108050000I0J100000D01*
G01*
D11*
%TO.C,R6*%
X150262742Y-104727500D02*
X150737258Y-104727500D01*
X150262742Y-105772500D02*
X150737258Y-105772500D01*
%TO.C,R1*%
X158477500Y-117762742D02*
X158477500Y-118237258D01*
X159522500Y-117762742D02*
X159522500Y-118237258D01*
%TO.C,R11*%
X148977500Y-100012742D02*
X148977500Y-100487258D01*
X150022500Y-100012742D02*
X150022500Y-100487258D01*
%TO.C,U2*%
X150390000Y-112112500D02*
X150390000Y-111112500D01*
X153110000Y-112112500D02*
X153110000Y-111112500D01*
X153340000Y-110722500D02*
X153060000Y-110722500D01*
X153060000Y-110442500D01*
X153340000Y-110722500D01*
G36*
X153340000Y-110722500D02*
G01*
X153060000Y-110722500D01*
X153060000Y-110442500D01*
X153340000Y-110722500D01*
G37*
%TO.C,R2*%
X145477500Y-117762742D02*
X145477500Y-118237258D01*
X146522500Y-117762742D02*
X146522500Y-118237258D01*
%TO.C,C7*%
X142990000Y-95859420D02*
X142990000Y-96140580D01*
X144010000Y-95859420D02*
X144010000Y-96140580D01*
%TO.C,D1*%
X141750000Y-97890000D02*
X141750000Y-101900000D01*
X143750000Y-97890000D02*
X141750000Y-97890000D01*
X143750000Y-97890000D02*
X143750000Y-101900000D01*
%TO.C,C3*%
X158490000Y-113859420D02*
X158490000Y-114140580D01*
X159510000Y-113859420D02*
X159510000Y-114140580D01*
%TO.C,R8*%
X155762742Y-100477500D02*
X156237258Y-100477500D01*
X155762742Y-101522500D02*
X156237258Y-101522500D01*
%TO.C,R3*%
X160227500Y-113762742D02*
X160227500Y-114237258D01*
X161272500Y-113762742D02*
X161272500Y-114237258D01*
%TO.C,D6*%
X144400000Y-106860000D02*
X144400000Y-102850000D01*
X144400000Y-106860000D02*
X146400000Y-106860000D01*
X146400000Y-106860000D02*
X146400000Y-102850000D01*
%TO.C,R5*%
X141227500Y-93262742D02*
X141227500Y-93737258D01*
X142272500Y-93262742D02*
X142272500Y-93737258D01*
%TO.C,GND2*%
X163450000Y-93250000D02*
G75*
G02*
X162050000Y-93250000I-700000J0D01*
G01*
X162050000Y-93250000D02*
G75*
G02*
X163450000Y-93250000I700000J0D01*
G01*
%TO.C,SCL1*%
X163450000Y-87250000D02*
G75*
G02*
X162050000Y-87250000I-700000J0D01*
G01*
X162050000Y-87250000D02*
G75*
G02*
X163450000Y-87250000I700000J0D01*
G01*
%TO.C,R10*%
X150727500Y-100012742D02*
X150727500Y-100487258D01*
X151772500Y-100012742D02*
X151772500Y-100487258D01*
%TO.C,D3*%
X154515000Y-98515000D02*
X154515000Y-99985000D01*
X154515000Y-99985000D02*
X156800000Y-99985000D01*
X156800000Y-98515000D02*
X154515000Y-98515000D01*
%TO.C,C10*%
X145240000Y-114359420D02*
X145240000Y-114640580D01*
X146260000Y-114359420D02*
X146260000Y-114640580D01*
%TO.C,3V3*%
X163450000Y-84250000D02*
G75*
G02*
X162050000Y-84250000I-700000J0D01*
G01*
X162050000Y-84250000D02*
G75*
G02*
X163450000Y-84250000I700000J0D01*
G01*
%TO.C,R9*%
X142977500Y-92512742D02*
X142977500Y-92987258D01*
X144022500Y-92512742D02*
X144022500Y-92987258D01*
%TO.C,C4*%
X157109420Y-102240000D02*
X157390580Y-102240000D01*
X157109420Y-103260000D02*
X157390580Y-103260000D01*
D14*
%TO.C,BOOT1*%
X155150000Y-103650000D02*
X159325000Y-103650000D01*
X155150000Y-106850000D02*
X159325000Y-106850000D01*
D13*
X154250000Y-104050000D02*
G75*
G02*
X154250000Y-104250000I0J-100000D01*
G01*
X154250000Y-104250000D02*
G75*
G02*
X154250000Y-104050000I0J100000D01*
G01*
D11*
%TO.C,GPIO1*%
X142950000Y-90250000D02*
G75*
G02*
X141550000Y-90250000I-700000J0D01*
G01*
X141550000Y-90250000D02*
G75*
G02*
X142950000Y-90250000I700000J0D01*
G01*
D15*
%TO.C,PS1*%
X143499999Y-107675001D02*
X143499999Y-107849999D01*
X143499999Y-109650001D02*
X143499999Y-109824999D01*
X145799999Y-107675001D02*
X145799999Y-108325000D01*
X145799999Y-109650001D02*
X145799999Y-109824999D01*
D11*
%TO.C,12VP1*%
X142950000Y-84250000D02*
G75*
G02*
X141550000Y-84250000I-700000J0D01*
G01*
X141550000Y-84250000D02*
G75*
G02*
X142950000Y-84250000I700000J0D01*
G01*
%TO.C,C1*%
X147140580Y-98990000D02*
X146859420Y-98990000D01*
X147140580Y-100010000D02*
X146859420Y-100010000D01*
%TO.C,J1*%
X147830000Y-118150000D02*
X147830000Y-116450000D01*
X157170000Y-118150000D02*
X157170000Y-116450000D01*
%TO.C,C9*%
X142490000Y-105640580D02*
X142490000Y-105359420D01*
X143510000Y-105640580D02*
X143510000Y-105359420D01*
D16*
%TO.C,L2*%
X144663850Y-112528700D02*
X144836150Y-112528700D01*
X144836150Y-110471300D02*
X144663850Y-110471300D01*
D11*
%TO.C,U5*%
X148140000Y-106750000D02*
X148140000Y-108750000D01*
X150360000Y-106750000D02*
X150360000Y-108750000D01*
X150540000Y-106510000D02*
X150260000Y-106510000D01*
X150260000Y-106230000D01*
X150540000Y-106510000D01*
G36*
X150540000Y-106510000D02*
G01*
X150260000Y-106510000D01*
X150260000Y-106230000D01*
X150540000Y-106510000D01*
G37*
%TD*%
%LPC*%
D17*
%TO.C,U1*%
X151550000Y-88950000D02*
X150150000Y-88950000D01*
X150150000Y-88200000D01*
X150800000Y-87550000D01*
X151550000Y-87550000D01*
X151550000Y-88950000D01*
G36*
X151550000Y-88950000D02*
G01*
X150150000Y-88950000D01*
X150150000Y-88200000D01*
X150800000Y-87550000D01*
X151550000Y-87550000D01*
X151550000Y-88950000D01*
G37*
%TD*%
D18*
%TO.C,R7*%
X148000000Y-103675000D03*
X148000000Y-105325000D03*
%TD*%
D19*
%TO.C,C5*%
X149250000Y-110475000D03*
X149250000Y-112025000D03*
%TD*%
D20*
%TO.C,GND1*%
X142250000Y-87250000D03*
%TD*%
D18*
%TO.C,R4*%
X147500000Y-110425000D03*
X147500000Y-112075000D03*
%TD*%
D21*
%TO.C,D4*%
X143500000Y-117150000D03*
X143500000Y-113850000D03*
%TD*%
D20*
%TO.C,SDA1*%
X162750000Y-90250000D03*
%TD*%
D22*
%TO.C,C2*%
X147775000Y-101250000D03*
X146225000Y-101250000D03*
%TD*%
%TO.C,C6*%
X151275000Y-103500000D03*
X149725000Y-103500000D03*
%TD*%
D23*
%TO.C,U1*%
X145500000Y-83950000D03*
X145500000Y-84800000D03*
X145500000Y-85650000D03*
X145500000Y-86500000D03*
X145500000Y-87350000D03*
X145500000Y-88200000D03*
X145500000Y-89050000D03*
X145500000Y-89900000D03*
X145500000Y-90750000D03*
X145500000Y-91600000D03*
X145500000Y-92450000D03*
X145500000Y-93300000D03*
X145500000Y-94150000D03*
X145500000Y-95000000D03*
X145500000Y-95850000D03*
D24*
X146550000Y-96900000D03*
X147400000Y-96900000D03*
X148250000Y-96900000D03*
X149100000Y-96900000D03*
X149950000Y-96900000D03*
X150800000Y-96900000D03*
X151650000Y-96900000D03*
X152500000Y-96900000D03*
X153350000Y-96900000D03*
X154200000Y-96900000D03*
X155050000Y-96900000D03*
X155900000Y-96900000D03*
X156750000Y-96900000D03*
X157600000Y-96900000D03*
X158450000Y-96900000D03*
D23*
X159500000Y-95850000D03*
X159500000Y-95000000D03*
X159500000Y-94150000D03*
X159500000Y-93300000D03*
X159500000Y-92450000D03*
X159500000Y-91600000D03*
X159500000Y-90750000D03*
X159500000Y-89900000D03*
X159500000Y-89050000D03*
X159500000Y-88200000D03*
X159500000Y-87350000D03*
X159500000Y-86500000D03*
X159500000Y-85650000D03*
X159500000Y-84800000D03*
X159500000Y-83950000D03*
D24*
X158450000Y-82900000D03*
X157600000Y-82900000D03*
X156750000Y-82900000D03*
X155900000Y-82900000D03*
X155050000Y-82900000D03*
X154200000Y-82900000D03*
X153350000Y-82900000D03*
X152500000Y-82900000D03*
X151650000Y-82900000D03*
X150800000Y-82900000D03*
X149950000Y-82900000D03*
X149100000Y-82900000D03*
X148250000Y-82900000D03*
X147400000Y-82900000D03*
X146550000Y-82900000D03*
D25*
X152500000Y-89900000D03*
X152500000Y-88250000D03*
X154150000Y-88250000D03*
X154150000Y-89900000D03*
X154150000Y-91550000D03*
X152500000Y-91550000D03*
X150850000Y-91550000D03*
X150850000Y-89900000D03*
D26*
X145500000Y-82900000D03*
X145500000Y-96900000D03*
X159500000Y-96900000D03*
X159500000Y-82900000D03*
%TD*%
D27*
%TO.C,RESET1*%
X155175000Y-108175000D03*
X159325000Y-108175000D03*
X155175000Y-110325000D03*
X159325000Y-110325000D03*
%TD*%
D28*
%TO.C,R6*%
X149675000Y-105250000D03*
X151325000Y-105250000D03*
%TD*%
D18*
%TO.C,R1*%
X159000000Y-117175000D03*
X159000000Y-118825000D03*
%TD*%
%TO.C,R11*%
X149500000Y-99425000D03*
X149500000Y-101075000D03*
%TD*%
D29*
%TO.C,U2*%
X152750000Y-111225000D03*
X152250000Y-111225000D03*
D30*
X151750000Y-111262500D03*
D29*
X151250000Y-111225000D03*
X150750000Y-111225000D03*
X150750000Y-112000000D03*
X151250000Y-112000000D03*
D31*
X151750000Y-112025000D03*
D29*
X152250000Y-112000000D03*
X152750000Y-112000000D03*
%TD*%
D18*
%TO.C,R2*%
X146000000Y-117175000D03*
X146000000Y-118825000D03*
%TD*%
D19*
%TO.C,C7*%
X143500000Y-95225000D03*
X143500000Y-96775000D03*
%TD*%
D32*
%TO.C,D1*%
X142750000Y-98600000D03*
X142750000Y-101900000D03*
%TD*%
D19*
%TO.C,C3*%
X159000000Y-113225000D03*
X159000000Y-114775000D03*
%TD*%
D28*
%TO.C,R8*%
X155175000Y-101000000D03*
X156825000Y-101000000D03*
%TD*%
D18*
%TO.C,R3*%
X160750000Y-113175000D03*
X160750000Y-114825000D03*
%TD*%
D21*
%TO.C,D6*%
X145400000Y-106150000D03*
X145400000Y-102850000D03*
%TD*%
D18*
%TO.C,R5*%
X141750000Y-92675000D03*
X141750000Y-94325000D03*
%TD*%
D20*
%TO.C,GND2*%
X162750000Y-93250000D03*
%TD*%
%TO.C,SCL1*%
X162750000Y-87250000D03*
%TD*%
D18*
%TO.C,R10*%
X151250000Y-99425000D03*
X151250000Y-101075000D03*
%TD*%
D33*
%TO.C,D3*%
X155212500Y-99250000D03*
X156787500Y-99250000D03*
%TD*%
D19*
%TO.C,C10*%
X145750000Y-113725000D03*
X145750000Y-115275000D03*
%TD*%
D20*
%TO.C,3V3*%
X162750000Y-84250000D03*
%TD*%
D18*
%TO.C,R9*%
X143500000Y-91925000D03*
X143500000Y-93575000D03*
%TD*%
D34*
%TO.C,C4*%
X156475000Y-102750000D03*
X158025000Y-102750000D03*
%TD*%
D27*
%TO.C,BOOT1*%
X155175000Y-104175000D03*
X159325000Y-104175000D03*
X155175000Y-106325000D03*
X159325000Y-106325000D03*
%TD*%
D20*
%TO.C,GPIO1*%
X142250000Y-90250000D03*
%TD*%
D35*
%TO.C,PS1*%
X145400000Y-107799999D03*
X144900001Y-107799999D03*
X144399999Y-107799999D03*
X143900001Y-107799999D03*
X143900001Y-109700001D03*
X144399999Y-109700001D03*
X144900001Y-109700001D03*
X145400000Y-109700001D03*
D36*
X144650002Y-108750000D03*
D37*
X145049998Y-108750000D03*
X144250000Y-108750000D03*
%TD*%
D20*
%TO.C,12VP1*%
X142250000Y-84250000D03*
%TD*%
D22*
%TO.C,C1*%
X147775000Y-99500000D03*
X146225000Y-99500000D03*
%TD*%
D38*
%TO.C,J1*%
X149610000Y-115645000D03*
X155390000Y-115645000D03*
D39*
X149300000Y-114570000D03*
X150100000Y-114570000D03*
D40*
X151250000Y-114570000D03*
X152250000Y-114570000D03*
X152750000Y-114570000D03*
X153750000Y-114570000D03*
D39*
X154900000Y-114570000D03*
X155700000Y-114570000D03*
X155700000Y-114570000D03*
X154900000Y-114570000D03*
D40*
X154250000Y-114570000D03*
X153250000Y-114570000D03*
X151750000Y-114570000D03*
X150750000Y-114570000D03*
D39*
X150100000Y-114570000D03*
X149300000Y-114570000D03*
D41*
X148180000Y-115145000D03*
D42*
X148180000Y-119325000D03*
D41*
X156820000Y-115145000D03*
D42*
X156820000Y-119325000D03*
%TD*%
D43*
%TO.C,C9*%
X143000000Y-106275000D03*
X143000000Y-104725000D03*
%TD*%
D44*
%TO.C,L2*%
X145677100Y-111500000D03*
X143822900Y-111500000D03*
%TD*%
D45*
%TO.C,U5*%
X149900000Y-106862500D03*
X149250000Y-106862500D03*
X148600000Y-106862500D03*
X148600000Y-108637500D03*
X149250000Y-108637500D03*
X149900000Y-108637500D03*
D46*
X149250000Y-107750000D03*
%TD*%
%LPD*%
M02*
