M48
; DRILL file {KiCad 8.0.8} date 2025-07-23T19:23:50+0200
; FORMAT={-:-/ absolute / inch / decimal}
; #@! TF.CreationDate,2025-07-23T19:23:50+02:00
; #@! TF.GenerationSoftware,Kicad,Pcbnew,8.0.8
; #@! TF.FileFunction,Plated,1,2,PTH
FMAT,2
INCH
; #@! TA.AperFunction,Plated,PTH,ComponentDrill
T1C0.0080
; #@! TA.AperFunction,Plated,PTH,ViaDrill
T2C0.0118
; #@! TA.AperFunction,Plated,PTH,ComponentDrill
T3C0.0197
; #@! TA.AperFunction,Plated,PTH,ComponentDrill
T4C0.0236
%
G90
G05
T1
X5.6791Y-4.2815
X5.7106Y-4.2815
T2
X5.5709Y-4.6063
X5.5807Y-3.75
X5.5807Y-4.0157
X5.6201Y-4.0906
X5.6398Y-4.2421
X5.6398Y-4.3209
X5.6496Y-3.5039
X5.6594Y-3.3366
X5.6594Y-3.435
X5.6654Y-3.5906
X5.7136Y-3.9715
X5.7382Y-4.5768
X5.748Y-4.2421
X5.748Y-4.7146
X5.7559Y-3.8858
X5.7574Y-4.0182
X5.7776Y-3.3465
X5.7776Y-3.5138
X5.7776Y-3.5728
X5.7776Y-3.6516
X5.7776Y-3.7303
X5.7953Y-4.0846
X5.8066Y-3.376
X5.8115Y-4.2072
X5.8169Y-3.3071
X5.8169Y-3.5335
X5.8169Y-3.6122
X5.8169Y-3.6909
X5.8169Y-3.7697
X5.8366Y-3.8661
X5.8563Y-3.3465
X5.872Y-3.5187
X5.874Y-4.4409
X5.8752Y-4.3041
X5.878Y-4.4724
X5.8937Y-4.0433
X5.8957Y-3.3071
X5.8957Y-3.4055
X5.8957Y-3.4646
X5.8957Y-3.6122
X5.8957Y-3.6909
X5.8957Y-3.7697
X5.9154Y-4.4488
X5.935Y-3.3465
X5.935Y-3.4291
X5.935Y-3.6516
X5.935Y-3.7303
X5.9547Y-4.4488
X5.9646Y-4.0256
X5.9646Y-4.3307
X5.9744Y-3.3071
X5.9744Y-3.5039
X5.9744Y-3.5728
X5.9744Y-3.6909
X5.9843Y-3.7697
X5.9882Y-4.5669
X5.9941Y-3.4055
X5.9941Y-3.7303
X6.0236Y-3.3465
X6.0236Y-3.4291
X6.0335Y-3.5039
X6.0335Y-3.5728
X6.0335Y-3.7303
X6.0433Y-4.6063
X6.0669Y-3.9429
X6.0728Y-3.3071
X6.0728Y-3.4055
X6.0787Y-3.9075
X6.0925Y-4.4488
X6.1024Y-4.0354
X6.1063Y-4.2323
X6.1122Y-3.3465
X6.1122Y-3.4291
X6.1122Y-3.5138
X6.1122Y-3.5728
X6.1122Y-3.6516
X6.1299Y-4.4724
X6.1516Y-3.3071
X6.1516Y-3.4055
X6.1516Y-3.4646
X6.1516Y-3.6122
X6.1516Y-3.7697
X6.1909Y-3.3465
X6.1909Y-3.4291
X6.1909Y-3.5728
X6.1909Y-3.7303
X6.2303Y-3.3071
X6.2303Y-3.5433
X6.2303Y-3.6909
X6.2303Y-3.7697
X6.2573Y-4.5497
X6.2598Y-4.7146
X6.2648Y-4.06
X6.3091Y-4.5669
X6.3524Y-3.3169
X6.3524Y-3.435
X6.3524Y-3.5531
X6.3524Y-3.6713
T3
X5.6004Y-3.3169
X5.6004Y-3.435
X5.6004Y-3.5531
X6.4075Y-3.3169
X6.4075Y-3.435
X6.4075Y-3.5531
X6.4075Y-3.6713
T4
G00X5.8339Y-4.5116
M15
G01X5.8339Y-4.5549
M16
G05
G00X5.8339Y-4.6821
M15
G01X5.8339Y-4.7136
M16
G05
G00X6.174Y-4.5116
M15
G01X6.174Y-4.5549
M16
G05
G00X6.174Y-4.6821
M15
G01X6.174Y-4.7136
M16
G05
M30
