%TF.GenerationSoftware,KiCad,Pcbnew,8.0.8*%
%TF.CreationDate,2025-07-23T19:23:50+02:00*%
%TF.ProjectId,liz_sensor,6c697a5f-7365-46e7-936f-722e6b696361,rev?*%
%TF.SameCoordinates,Original*%
%TF.FileFunction,Paste,Top*%
%TF.FilePolarity,Positive*%
%FSLAX46Y46*%
G04 Gerber Fmt 4.6, Leading zero omitted, Abs format (unit mm)*
G04 Created by KiCad (PCBNEW 8.0.8) date 2025-07-23 19:23:50*
%MOMM*%
%LPD*%
G01*
G04 APERTURE LIST*
G04 Aperture macros list*
%AMRoundRect*
0 Rectangle with rounded corners*
0 $1 Rounding radius*
0 $2 $3 $4 $5 $6 $7 $8 $9 X,Y pos of 4 corners*
0 Add a 4 corners polygon primitive as box body*
4,1,4,$2,$3,$4,$5,$6,$7,$8,$9,$2,$3,0*
0 Add four circle primitives for the rounded corners*
1,1,$1+$1,$2,$3*
1,1,$1+$1,$4,$5*
1,1,$1+$1,$6,$7*
1,1,$1+$1,$8,$9*
0 Add four rect primitives between the rounded corners*
20,1,$1+$1,$2,$3,$4,$5,0*
20,1,$1+$1,$4,$5,$6,$7,0*
20,1,$1+$1,$6,$7,$8,$9,0*
20,1,$1+$1,$8,$9,$2,$3,0*%
G04 Aperture macros list end*
%ADD10C,0.010000*%
%ADD11C,0.000000*%
%ADD12RoundRect,0.200000X-0.275000X0.200000X-0.275000X-0.200000X0.275000X-0.200000X0.275000X0.200000X0*%
%ADD13RoundRect,0.225000X-0.250000X0.225000X-0.250000X-0.225000X0.250000X-0.225000X0.250000X0.225000X0*%
%ADD14RoundRect,0.225000X0.375000X-0.225000X0.375000X0.225000X-0.375000X0.225000X-0.375000X-0.225000X0*%
%ADD15RoundRect,0.225000X0.225000X0.250000X-0.225000X0.250000X-0.225000X-0.250000X0.225000X-0.250000X0*%
%ADD16R,0.800000X0.400000*%
%ADD17R,0.400000X0.800000*%
%ADD18R,1.200000X1.200000*%
%ADD19R,0.800000X0.800000*%
%ADD20R,1.050000X0.650000*%
%ADD21RoundRect,0.200000X-0.200000X-0.275000X0.200000X-0.275000X0.200000X0.275000X-0.200000X0.275000X0*%
%ADD22R,0.250000X0.625000*%
%ADD23R,0.450000X0.700000*%
%ADD24R,0.450000X0.575000*%
%ADD25RoundRect,0.225000X-0.375000X0.225000X-0.375000X-0.225000X0.375000X-0.225000X0.375000X0.225000X0*%
%ADD26RoundRect,0.218750X-0.218750X-0.256250X0.218750X-0.256250X0.218750X0.256250X-0.218750X0.256250X0*%
%ADD27RoundRect,0.225000X-0.225000X-0.250000X0.225000X-0.250000X0.225000X0.250000X-0.225000X0.250000X0*%
%ADD28R,0.249999X0.499999*%
%ADD29R,1.599999X0.900001*%
%ADD30RoundRect,0.150000X-0.150000X-0.425000X0.150000X-0.425000X0.150000X0.425000X-0.150000X0.425000X0*%
%ADD31RoundRect,0.075000X-0.075000X-0.500000X0.075000X-0.500000X0.075000X0.500000X-0.075000X0.500000X0*%
%ADD32O,1.000000X2.100000*%
%ADD33O,1.000000X1.800000*%
%ADD34RoundRect,0.225000X0.250000X-0.225000X0.250000X0.225000X-0.250000X0.225000X-0.250000X-0.225000X0*%
%ADD35R,1.066800X1.803400*%
%ADD36RoundRect,0.160000X-0.160000X0.245000X-0.160000X-0.245000X0.160000X-0.245000X0.160000X0.245000X0*%
%ADD37RoundRect,0.093750X-0.106250X0.093750X-0.106250X-0.093750X0.106250X-0.093750X0.106250X0.093750X0*%
G04 APERTURE END LIST*
D10*
%TO.C,U1*%
X151450000Y-88850000D02*
X150250000Y-88850000D01*
X150250000Y-88250000D01*
X150850000Y-87650000D01*
X151450000Y-87650000D01*
X151450000Y-88850000D01*
G36*
X151450000Y-88850000D02*
G01*
X150250000Y-88850000D01*
X150250000Y-88250000D01*
X150850000Y-87650000D01*
X151450000Y-87650000D01*
X151450000Y-88850000D01*
G37*
D11*
%TO.C,PS1*%
G36*
X145383002Y-109176999D02*
G01*
X143917003Y-109176999D01*
X143917003Y-108323001D01*
X145383002Y-108323001D01*
X145383002Y-109176999D01*
G37*
%TD*%
D12*
%TO.C,R7*%
X148000000Y-103675000D03*
X148000000Y-105325000D03*
%TD*%
D13*
%TO.C,C5*%
X149250000Y-110475000D03*
X149250000Y-112025000D03*
%TD*%
D12*
%TO.C,R4*%
X147500000Y-110425000D03*
X147500000Y-112075000D03*
%TD*%
D14*
%TO.C,D4*%
X143500000Y-117150000D03*
X143500000Y-113850000D03*
%TD*%
D15*
%TO.C,C2*%
X147775000Y-101250000D03*
X146225000Y-101250000D03*
%TD*%
%TO.C,C6*%
X151275000Y-103500000D03*
X149725000Y-103500000D03*
%TD*%
D16*
%TO.C,U1*%
X145500000Y-83950000D03*
X145500000Y-84800000D03*
X145500000Y-85650000D03*
X145500000Y-86500000D03*
X145500000Y-87350000D03*
X145500000Y-88200000D03*
X145500000Y-89050000D03*
X145500000Y-89900000D03*
X145500000Y-90750000D03*
X145500000Y-91600000D03*
X145500000Y-92450000D03*
X145500000Y-93300000D03*
X145500000Y-94150000D03*
X145500000Y-95000000D03*
X145500000Y-95850000D03*
D17*
X146550000Y-96900000D03*
X147400000Y-96900000D03*
X148250000Y-96900000D03*
X149100000Y-96900000D03*
X149950000Y-96900000D03*
X150800000Y-96900000D03*
X151650000Y-96900000D03*
X152500000Y-96900000D03*
X153350000Y-96900000D03*
X154200000Y-96900000D03*
X155050000Y-96900000D03*
X155900000Y-96900000D03*
X156750000Y-96900000D03*
X157600000Y-96900000D03*
X158450000Y-96900000D03*
D16*
X159500000Y-95850000D03*
X159500000Y-95000000D03*
X159500000Y-94150000D03*
X159500000Y-93300000D03*
X159500000Y-92450000D03*
X159500000Y-91600000D03*
X159500000Y-90750000D03*
X159500000Y-89900000D03*
X159500000Y-89050000D03*
X159500000Y-88200000D03*
X159500000Y-87350000D03*
X159500000Y-86500000D03*
X159500000Y-85650000D03*
X159500000Y-84800000D03*
X159500000Y-83950000D03*
D17*
X158450000Y-82900000D03*
X157600000Y-82900000D03*
X156750000Y-82900000D03*
X155900000Y-82900000D03*
X155050000Y-82900000D03*
X154200000Y-82900000D03*
X153350000Y-82900000D03*
X152500000Y-82900000D03*
X151650000Y-82900000D03*
X150800000Y-82900000D03*
X149950000Y-82900000D03*
X149100000Y-82900000D03*
X148250000Y-82900000D03*
X147400000Y-82900000D03*
X146550000Y-82900000D03*
D18*
X152500000Y-89900000D03*
X152500000Y-88250000D03*
X154150000Y-88250000D03*
X154150000Y-89900000D03*
X154150000Y-91550000D03*
X152500000Y-91550000D03*
X150850000Y-91550000D03*
X150850000Y-89900000D03*
D19*
X145500000Y-82900000D03*
X145500000Y-96900000D03*
X159500000Y-96900000D03*
X159500000Y-82900000D03*
%TD*%
D20*
%TO.C,RESET1*%
X155175000Y-108175000D03*
X159325000Y-108175000D03*
X155175000Y-110325000D03*
X159325000Y-110325000D03*
%TD*%
D21*
%TO.C,R6*%
X149675000Y-105250000D03*
X151325000Y-105250000D03*
%TD*%
D12*
%TO.C,R1*%
X159000000Y-117175000D03*
X159000000Y-118825000D03*
%TD*%
%TO.C,R11*%
X149500000Y-99425000D03*
X149500000Y-101075000D03*
%TD*%
D22*
%TO.C,U2*%
X152750000Y-111225000D03*
X152250000Y-111225000D03*
D23*
X151750000Y-111262500D03*
D22*
X151250000Y-111225000D03*
X150750000Y-111225000D03*
X150750000Y-112000000D03*
X151250000Y-112000000D03*
D24*
X151750000Y-112025000D03*
D22*
X152250000Y-112000000D03*
X152750000Y-112000000D03*
%TD*%
D12*
%TO.C,R2*%
X146000000Y-117175000D03*
X146000000Y-118825000D03*
%TD*%
D13*
%TO.C,C7*%
X143500000Y-95225000D03*
X143500000Y-96775000D03*
%TD*%
D25*
%TO.C,D1*%
X142750000Y-98600000D03*
X142750000Y-101900000D03*
%TD*%
D13*
%TO.C,C3*%
X159000000Y-113225000D03*
X159000000Y-114775000D03*
%TD*%
D21*
%TO.C,R8*%
X155175000Y-101000000D03*
X156825000Y-101000000D03*
%TD*%
D12*
%TO.C,R3*%
X160750000Y-113175000D03*
X160750000Y-114825000D03*
%TD*%
D14*
%TO.C,D6*%
X145400000Y-106150000D03*
X145400000Y-102850000D03*
%TD*%
D12*
%TO.C,R5*%
X141750000Y-92675000D03*
X141750000Y-94325000D03*
%TD*%
%TO.C,R10*%
X151250000Y-99425000D03*
X151250000Y-101075000D03*
%TD*%
D26*
%TO.C,D3*%
X155212500Y-99250000D03*
X156787500Y-99250000D03*
%TD*%
D13*
%TO.C,C10*%
X145750000Y-113725000D03*
X145750000Y-115275000D03*
%TD*%
D12*
%TO.C,R9*%
X143500000Y-91925000D03*
X143500000Y-93575000D03*
%TD*%
D27*
%TO.C,C4*%
X156475000Y-102750000D03*
X158025000Y-102750000D03*
%TD*%
D20*
%TO.C,BOOT1*%
X155175000Y-104175000D03*
X159325000Y-104175000D03*
X155175000Y-106325000D03*
X159325000Y-106325000D03*
%TD*%
D28*
%TO.C,PS1*%
X145400000Y-107799999D03*
X144900001Y-107799999D03*
X144399999Y-107799999D03*
X143900001Y-107799999D03*
X143900001Y-109700001D03*
X144399999Y-109700001D03*
X144900001Y-109700001D03*
X145400000Y-109700001D03*
D29*
X144650002Y-108750000D03*
%TD*%
D15*
%TO.C,C1*%
X147775000Y-99500000D03*
X146225000Y-99500000D03*
%TD*%
D30*
%TO.C,J1*%
X149300000Y-114570000D03*
X150100000Y-114570000D03*
D31*
X151250000Y-114570000D03*
X152250000Y-114570000D03*
X152750000Y-114570000D03*
X153750000Y-114570000D03*
D30*
X154900000Y-114570000D03*
X155700000Y-114570000D03*
X155700000Y-114570000D03*
X154900000Y-114570000D03*
D31*
X154250000Y-114570000D03*
X153250000Y-114570000D03*
X151750000Y-114570000D03*
X150750000Y-114570000D03*
D30*
X150100000Y-114570000D03*
X149300000Y-114570000D03*
D32*
X148180000Y-115145000D03*
D33*
X148180000Y-119325000D03*
D32*
X156820000Y-115145000D03*
D33*
X156820000Y-119325000D03*
%TD*%
D34*
%TO.C,C9*%
X143000000Y-106275000D03*
X143000000Y-104725000D03*
%TD*%
D35*
%TO.C,L2*%
X145677100Y-111500000D03*
X143822900Y-111500000D03*
%TD*%
D36*
%TO.C,U5*%
X149650000Y-107750000D03*
X148850000Y-107750000D03*
D37*
X149900000Y-106862500D03*
X149250000Y-106862500D03*
X148600000Y-106862500D03*
X148600000Y-108637500D03*
X149250000Y-108637500D03*
X149900000Y-108637500D03*
%TD*%
M02*
