%TF.GenerationSoftware,KiCad,Pcbnew,8.0.8*%
%TF.CreationDate,2025-07-23T19:23:50+02:00*%
%TF.ProjectId,liz_sensor,6c697a5f-7365-46e7-936f-722e6b696361,rev?*%
%TF.SameCoordinates,Original*%
%TF.FileFunction,Copper,L2,Bot*%
%TF.FilePolarity,Positive*%
%FSLAX46Y46*%
G04 Gerber Fmt 4.6, Leading zero omitted, Abs format (unit mm)*
G04 Created by KiCad (PCBNEW 8.0.8) date 2025-07-23 19:23:50*
%MOMM*%
%LPD*%
G01*
G04 APERTURE LIST*
%ADD10C,0.300000*%
%TA.AperFunction,ComponentPad*%
%ADD11C,1.000000*%
%TD*%
%TA.AperFunction,ComponentPad*%
%ADD12C,0.499999*%
%TD*%
%TA.AperFunction,HeatsinkPad*%
%ADD13O,1.000000X2.100000*%
%TD*%
%TA.AperFunction,HeatsinkPad*%
%ADD14O,1.000000X1.800000*%
%TD*%
%TA.AperFunction,ViaPad*%
%ADD15C,0.600000*%
%TD*%
%TA.AperFunction,Conductor*%
%ADD16C,0.200000*%
%TD*%
%TA.AperFunction,Conductor*%
%ADD17C,0.240000*%
%TD*%
%TA.AperFunction,Conductor*%
%ADD18C,0.300000*%
%TD*%
G04 APERTURE END LIST*
D10*
G36*
X163620659Y-119131255D02*
G01*
X163587857Y-119196858D01*
X163562757Y-119221957D01*
X163497154Y-119254760D01*
X163383410Y-119254760D01*
X163620659Y-119034457D01*
X163620659Y-119131255D01*
G37*
G36*
X163087326Y-119120301D02*
G01*
X163087326Y-119023504D01*
X163120128Y-118957899D01*
X163145227Y-118932799D01*
X163210831Y-118899998D01*
X163324576Y-118899998D01*
X163087326Y-119120301D01*
G37*
G36*
X163562756Y-110658990D02*
G01*
X163587857Y-110684091D01*
X163620659Y-110749695D01*
X163620659Y-110857446D01*
X163587857Y-110923049D01*
X163562757Y-110948148D01*
X163497154Y-110980951D01*
X163210831Y-110980951D01*
X163145227Y-110948149D01*
X163120128Y-110923050D01*
X163087326Y-110857446D01*
X163087326Y-110749695D01*
X163120128Y-110684090D01*
X163145227Y-110658990D01*
X163210831Y-110626189D01*
X163497154Y-110626189D01*
X163562756Y-110658990D01*
G37*
G36*
X163263516Y-108833636D02*
G01*
X163242188Y-108876290D01*
X163199535Y-108897618D01*
X163151308Y-108897618D01*
X163108653Y-108876290D01*
X163087326Y-108833636D01*
X163087326Y-108606838D01*
X163089555Y-108602380D01*
X163263516Y-108602380D01*
X163263516Y-108833636D01*
G37*
G36*
X163562756Y-106135181D02*
G01*
X163587857Y-106160282D01*
X163620659Y-106225886D01*
X163620659Y-106333637D01*
X163587857Y-106399240D01*
X163562757Y-106424339D01*
X163497154Y-106457142D01*
X163210831Y-106457142D01*
X163145227Y-106424340D01*
X163120128Y-106399241D01*
X163087326Y-106333637D01*
X163087326Y-106225886D01*
X163120128Y-106160281D01*
X163145227Y-106135181D01*
X163210831Y-106102380D01*
X163497154Y-106102380D01*
X163562756Y-106135181D01*
G37*
G36*
X164487326Y-121490474D02*
G01*
X162220659Y-121490474D01*
X162220659Y-120714284D01*
X162787326Y-120714284D01*
X162787326Y-121011903D01*
X162788784Y-121026714D01*
X162788504Y-121030664D01*
X162789685Y-121035858D01*
X162790208Y-121041167D01*
X162791725Y-121044829D01*
X162795024Y-121059337D01*
X162854547Y-121237908D01*
X162866536Y-121264759D01*
X162904883Y-121308973D01*
X162957231Y-121335147D01*
X163015611Y-121339296D01*
X163071135Y-121320788D01*
X163115349Y-121282440D01*
X163141523Y-121230093D01*
X163145672Y-121171713D01*
X163139152Y-121143039D01*
X163087326Y-120987562D01*
X163087326Y-120749694D01*
X163120128Y-120684089D01*
X163145226Y-120658991D01*
X163210831Y-120626189D01*
X163259059Y-120626189D01*
X163324662Y-120658990D01*
X163349762Y-120684090D01*
X163391037Y-120766640D01*
X163446567Y-120988760D01*
X163447337Y-120990915D01*
X163447414Y-120991997D01*
X163452076Y-121004182D01*
X163456460Y-121016451D01*
X163457104Y-121017320D01*
X163457923Y-121019460D01*
X163517446Y-121138508D01*
X163525376Y-121151106D01*
X163526891Y-121154763D01*
X163530268Y-121158879D01*
X163533111Y-121163394D01*
X163536106Y-121165991D01*
X163545546Y-121177494D01*
X163605070Y-121237017D01*
X163616571Y-121246455D01*
X163619167Y-121249449D01*
X163623679Y-121252289D01*
X163627801Y-121255672D01*
X163631462Y-121257188D01*
X163644053Y-121265114D01*
X163763101Y-121324638D01*
X163790565Y-121335148D01*
X163795940Y-121335529D01*
X163800919Y-121337592D01*
X163830183Y-121340474D01*
X163949230Y-121340474D01*
X163978494Y-121337592D01*
X163983471Y-121335530D01*
X163988849Y-121335148D01*
X164016312Y-121324638D01*
X164135360Y-121265114D01*
X164147950Y-121257188D01*
X164151612Y-121255672D01*
X164155733Y-121252289D01*
X164160246Y-121249449D01*
X164162842Y-121246455D01*
X164174343Y-121237017D01*
X164233867Y-121177494D01*
X164243306Y-121165991D01*
X164246301Y-121163395D01*
X164249142Y-121158880D01*
X164252522Y-121154763D01*
X164254037Y-121151104D01*
X164261966Y-121138509D01*
X164321490Y-121019461D01*
X164332000Y-120991997D01*
X164332381Y-120986621D01*
X164334444Y-120981643D01*
X164337326Y-120952379D01*
X164337326Y-120654760D01*
X164335867Y-120639948D01*
X164336148Y-120635999D01*
X164334966Y-120630804D01*
X164334444Y-120625496D01*
X164332927Y-120621834D01*
X164329628Y-120607325D01*
X164270104Y-120428755D01*
X164258116Y-120401904D01*
X164219768Y-120357689D01*
X164167421Y-120331516D01*
X164109041Y-120327367D01*
X164053517Y-120345875D01*
X164009302Y-120384223D01*
X163983129Y-120436570D01*
X163978980Y-120494950D01*
X163985500Y-120523623D01*
X164037326Y-120679102D01*
X164037326Y-120916969D01*
X164004524Y-120982572D01*
X163979424Y-121007671D01*
X163913820Y-121040474D01*
X163865593Y-121040474D01*
X163799988Y-121007671D01*
X163774888Y-120982572D01*
X163733614Y-120900021D01*
X163678085Y-120677904D01*
X163677314Y-120675748D01*
X163677238Y-120674666D01*
X163672576Y-120662485D01*
X163668192Y-120650212D01*
X163667546Y-120649340D01*
X163666728Y-120647202D01*
X163607204Y-120528154D01*
X163599276Y-120515560D01*
X163597761Y-120511901D01*
X163594379Y-120507781D01*
X163591539Y-120503268D01*
X163588545Y-120500671D01*
X163579106Y-120489170D01*
X163519582Y-120429646D01*
X163508080Y-120420206D01*
X163505483Y-120417212D01*
X163500969Y-120414371D01*
X163496851Y-120410991D01*
X163493190Y-120409474D01*
X163480597Y-120401548D01*
X163361551Y-120342025D01*
X163334087Y-120331515D01*
X163328711Y-120331133D01*
X163323733Y-120329071D01*
X163294469Y-120326189D01*
X163175421Y-120326189D01*
X163146157Y-120329071D01*
X163141178Y-120331133D01*
X163135803Y-120331515D01*
X163108340Y-120342025D01*
X162989292Y-120401547D01*
X162976693Y-120409477D01*
X162973037Y-120410992D01*
X162968920Y-120414369D01*
X162964406Y-120417212D01*
X162961808Y-120420207D01*
X162950306Y-120429647D01*
X162890783Y-120489171D01*
X162881344Y-120500671D01*
X162878351Y-120503268D01*
X162875510Y-120507780D01*
X162872128Y-120511902D01*
X162870611Y-120515563D01*
X162862686Y-120528154D01*
X162803162Y-120647202D01*
X162792652Y-120674665D01*
X162792269Y-120680042D01*
X162790208Y-120685020D01*
X162787326Y-120714284D01*
X162220659Y-120714284D01*
X162220659Y-120119046D01*
X162370659Y-120119046D01*
X162370659Y-120178570D01*
X162373541Y-120207834D01*
X162395939Y-120261906D01*
X162437323Y-120303290D01*
X162491395Y-120325688D01*
X162549923Y-120325688D01*
X162603995Y-120303290D01*
X162645379Y-120261906D01*
X162667777Y-120207834D01*
X162670659Y-120178570D01*
X162670659Y-120154456D01*
X162691986Y-120111801D01*
X162734641Y-120090474D01*
X163770659Y-120090474D01*
X163799923Y-120087592D01*
X163853995Y-120065194D01*
X163895379Y-120023810D01*
X163917777Y-119969738D01*
X163917777Y-119911210D01*
X163921160Y-119911210D01*
X163921160Y-119969738D01*
X163925923Y-119981236D01*
X163928318Y-119987018D01*
X163943556Y-120023808D01*
X163943557Y-120023809D01*
X163962212Y-120046540D01*
X164021736Y-120106064D01*
X164044467Y-120124719D01*
X164098539Y-120147116D01*
X164157065Y-120147116D01*
X164211138Y-120124719D01*
X164211142Y-120124714D01*
X164233868Y-120106064D01*
X164293392Y-120046540D01*
X164312047Y-120023809D01*
X164312048Y-120023808D01*
X164327286Y-119987018D01*
X164329681Y-119981236D01*
X164334444Y-119969738D01*
X164334444Y-119911210D01*
X164322137Y-119881499D01*
X164312047Y-119857138D01*
X164312041Y-119857132D01*
X164293391Y-119834407D01*
X164233867Y-119774884D01*
X164211136Y-119756229D01*
X164179462Y-119743109D01*
X164157066Y-119733833D01*
X164157064Y-119733833D01*
X164098538Y-119733833D01*
X164076142Y-119743109D01*
X164044468Y-119756229D01*
X164021737Y-119774884D01*
X163962213Y-119834407D01*
X163943558Y-119857138D01*
X163943557Y-119857139D01*
X163933467Y-119881499D01*
X163921160Y-119911210D01*
X163917777Y-119911210D01*
X163895379Y-119857138D01*
X163853995Y-119815754D01*
X163799923Y-119793356D01*
X163770659Y-119790474D01*
X162699230Y-119790474D01*
X162669966Y-119793356D01*
X162664988Y-119795417D01*
X162659611Y-119795800D01*
X162632148Y-119806310D01*
X162513101Y-119865834D01*
X162508210Y-119868912D01*
X162505899Y-119869683D01*
X162503020Y-119872179D01*
X162488215Y-119881499D01*
X162475892Y-119895707D01*
X162461684Y-119908030D01*
X162452364Y-119922835D01*
X162449868Y-119925714D01*
X162449097Y-119928025D01*
X162446019Y-119932916D01*
X162386495Y-120051964D01*
X162375985Y-120079427D01*
X162375602Y-120084804D01*
X162373541Y-120089782D01*
X162370659Y-120119046D01*
X162220659Y-120119046D01*
X162220659Y-118988094D01*
X162787326Y-118988094D01*
X162787326Y-119166665D01*
X162790208Y-119195929D01*
X162792269Y-119200906D01*
X162792652Y-119206284D01*
X162803162Y-119233747D01*
X162854525Y-119336473D01*
X162835258Y-119354365D01*
X162815775Y-119376390D01*
X162791392Y-119429596D01*
X162789226Y-119488082D01*
X162809606Y-119542946D01*
X162849432Y-119585835D01*
X162902638Y-119610218D01*
X162961124Y-119612384D01*
X163015988Y-119592004D01*
X163039394Y-119574203D01*
X163088220Y-119528864D01*
X163108339Y-119538924D01*
X163135803Y-119549434D01*
X163141178Y-119549815D01*
X163146157Y-119551878D01*
X163175421Y-119554760D01*
X163532564Y-119554760D01*
X163561828Y-119551878D01*
X163566808Y-119549814D01*
X163572183Y-119549433D01*
X163599646Y-119538924D01*
X163718694Y-119479400D01*
X163731285Y-119471473D01*
X163734945Y-119469958D01*
X163739066Y-119466575D01*
X163743579Y-119463735D01*
X163746174Y-119460741D01*
X163757676Y-119451303D01*
X163817200Y-119391780D01*
X163826639Y-119380277D01*
X163829634Y-119377681D01*
X163832475Y-119373166D01*
X163835855Y-119369049D01*
X163837370Y-119365390D01*
X163845299Y-119352795D01*
X163904823Y-119233747D01*
X163915333Y-119206283D01*
X163915714Y-119200907D01*
X163917777Y-119195929D01*
X163920659Y-119166665D01*
X163920659Y-118988094D01*
X163917777Y-118958830D01*
X163915714Y-118953851D01*
X163915333Y-118948476D01*
X163904823Y-118921012D01*
X163853459Y-118818285D01*
X163872727Y-118800394D01*
X163892210Y-118778370D01*
X163916593Y-118725163D01*
X163918759Y-118666677D01*
X163898379Y-118611813D01*
X163858553Y-118568924D01*
X163805347Y-118544541D01*
X163746861Y-118542375D01*
X163691997Y-118562755D01*
X163668591Y-118580556D01*
X163619765Y-118625893D01*
X163599646Y-118615834D01*
X163572183Y-118605325D01*
X163566808Y-118604943D01*
X163561828Y-118602880D01*
X163532564Y-118599998D01*
X163175421Y-118599998D01*
X163146157Y-118602880D01*
X163141178Y-118604942D01*
X163135803Y-118605324D01*
X163108339Y-118615834D01*
X162989291Y-118675358D01*
X162976695Y-118683286D01*
X162973037Y-118684802D01*
X162968919Y-118688181D01*
X162964405Y-118691023D01*
X162961808Y-118694017D01*
X162950306Y-118703457D01*
X162890783Y-118762981D01*
X162881344Y-118774481D01*
X162878351Y-118777078D01*
X162875510Y-118781590D01*
X162872128Y-118785712D01*
X162870611Y-118789373D01*
X162862686Y-118801964D01*
X162803162Y-118921012D01*
X162792652Y-118948475D01*
X162792269Y-118953852D01*
X162790208Y-118958830D01*
X162787326Y-118988094D01*
X162220659Y-118988094D01*
X162220659Y-118016951D01*
X162788504Y-118016951D01*
X162792652Y-118075332D01*
X162803162Y-118102795D01*
X162862686Y-118221843D01*
X162865766Y-118226737D01*
X162866536Y-118229045D01*
X162869028Y-118231918D01*
X162878351Y-118246729D01*
X162892563Y-118259055D01*
X162904883Y-118273260D01*
X162919686Y-118282578D01*
X162922566Y-118285076D01*
X162924877Y-118285846D01*
X162929768Y-118288925D01*
X163048815Y-118348448D01*
X163076279Y-118358958D01*
X163081654Y-118359339D01*
X163086633Y-118361402D01*
X163115897Y-118364284D01*
X164187326Y-118364284D01*
X164216590Y-118361402D01*
X164270662Y-118339004D01*
X164312046Y-118297620D01*
X164334444Y-118243548D01*
X164334444Y-118185020D01*
X164312046Y-118130948D01*
X164270662Y-118089564D01*
X164216590Y-118067166D01*
X164187326Y-118064284D01*
X163151306Y-118064284D01*
X163108653Y-118042957D01*
X163071490Y-117968631D01*
X163055825Y-117943745D01*
X163011610Y-117905399D01*
X162956088Y-117886891D01*
X162897707Y-117891039D01*
X162845358Y-117917214D01*
X162807012Y-117961429D01*
X162788504Y-118016951D01*
X162220659Y-118016951D01*
X162220659Y-117697332D01*
X162371837Y-117697332D01*
X162390345Y-117752854D01*
X162428691Y-117797069D01*
X162481040Y-117823244D01*
X162539421Y-117827392D01*
X162594943Y-117808884D01*
X162639158Y-117770538D01*
X162654823Y-117745652D01*
X162703460Y-117648376D01*
X162724002Y-117627835D01*
X162940331Y-117541303D01*
X163720209Y-117819831D01*
X163748737Y-117826960D01*
X163807192Y-117824053D01*
X163860084Y-117798999D01*
X163899364Y-117755610D01*
X163919049Y-117700492D01*
X163916142Y-117642037D01*
X163891088Y-117589145D01*
X163847700Y-117549865D01*
X163821110Y-117537309D01*
X163383307Y-117380951D01*
X163821110Y-117224593D01*
X163847700Y-117212037D01*
X163891088Y-117172757D01*
X163916142Y-117119865D01*
X163919049Y-117061410D01*
X163899364Y-117006292D01*
X163860084Y-116962903D01*
X163807192Y-116937849D01*
X163748737Y-116934942D01*
X163720209Y-116942071D01*
X162886876Y-117239690D01*
X162884329Y-117240892D01*
X162881618Y-117241679D01*
X162583998Y-117360728D01*
X162557898Y-117374272D01*
X162557233Y-117374920D01*
X162556373Y-117375277D01*
X162533642Y-117393932D01*
X162474118Y-117453455D01*
X162464678Y-117464956D01*
X162461684Y-117467554D01*
X162458842Y-117472068D01*
X162455463Y-117476186D01*
X162453947Y-117479844D01*
X162446019Y-117492440D01*
X162386495Y-117611488D01*
X162375985Y-117638951D01*
X162371837Y-117697332D01*
X162220659Y-117697332D01*
X162220659Y-116309522D01*
X162787326Y-116309522D01*
X162787326Y-116547618D01*
X162790208Y-116576882D01*
X162792271Y-116581862D01*
X162792653Y-116587237D01*
X162803162Y-116614700D01*
X162862686Y-116733748D01*
X162878351Y-116758633D01*
X162922567Y-116796980D01*
X162978089Y-116815487D01*
X163036469Y-116811339D01*
X163088818Y-116785164D01*
X163127165Y-116740949D01*
X163145672Y-116685426D01*
X163141524Y-116627046D01*
X163131014Y-116599583D01*
X163087326Y-116512207D01*
X163087326Y-116344932D01*
X163108653Y-116302278D01*
X163145659Y-116283775D01*
X163182665Y-116302278D01*
X163203992Y-116344931D01*
X163203992Y-116488094D01*
X163206874Y-116517358D01*
X163208937Y-116522338D01*
X163209319Y-116527713D01*
X163219828Y-116555176D01*
X163279352Y-116674224D01*
X163282433Y-116679118D01*
X163283202Y-116681425D01*
X163285693Y-116684297D01*
X163295017Y-116699109D01*
X163309225Y-116711431D01*
X163321548Y-116725640D01*
X163336357Y-116734962D01*
X163339233Y-116737456D01*
X163341542Y-116738225D01*
X163346434Y-116741305D01*
X163465482Y-116800829D01*
X163492946Y-116811339D01*
X163498321Y-116811720D01*
X163503300Y-116813783D01*
X163532564Y-116816665D01*
X163592088Y-116816665D01*
X163621352Y-116813783D01*
X163626332Y-116811719D01*
X163631707Y-116811338D01*
X163659170Y-116800829D01*
X163778218Y-116741305D01*
X163783109Y-116738225D01*
X163785419Y-116737456D01*
X163788295Y-116734961D01*
X163803103Y-116725640D01*
X163815424Y-116711432D01*
X163829634Y-116699109D01*
X163838956Y-116684299D01*
X163841450Y-116681424D01*
X163842219Y-116679114D01*
X163845299Y-116674223D01*
X163904823Y-116555176D01*
X163915333Y-116527713D01*
X163915715Y-116522335D01*
X163917777Y-116517358D01*
X163920659Y-116488094D01*
X163920659Y-116309522D01*
X163917777Y-116280258D01*
X163915715Y-116275280D01*
X163915333Y-116269903D01*
X163904823Y-116242440D01*
X163845299Y-116123393D01*
X163829634Y-116098507D01*
X163785419Y-116060160D01*
X163729896Y-116041653D01*
X163671516Y-116045802D01*
X163619167Y-116071976D01*
X163580820Y-116116191D01*
X163562313Y-116171714D01*
X163566462Y-116230094D01*
X163576971Y-116257557D01*
X163620659Y-116344933D01*
X163620659Y-116452683D01*
X163599331Y-116495337D01*
X163562325Y-116513840D01*
X163525319Y-116495337D01*
X163503992Y-116452683D01*
X163503992Y-116309522D01*
X163501110Y-116280258D01*
X163499047Y-116275279D01*
X163498666Y-116269904D01*
X163488156Y-116242440D01*
X163428633Y-116123393D01*
X163425554Y-116118502D01*
X163424784Y-116116191D01*
X163422286Y-116113311D01*
X163412968Y-116098508D01*
X163398763Y-116086188D01*
X163386437Y-116071976D01*
X163371626Y-116062653D01*
X163368753Y-116060161D01*
X163366445Y-116059391D01*
X163361551Y-116056311D01*
X163242503Y-115996787D01*
X163215040Y-115986277D01*
X163209662Y-115985894D01*
X163204685Y-115983833D01*
X163175421Y-115980951D01*
X163115897Y-115980951D01*
X163086633Y-115983833D01*
X163081655Y-115985894D01*
X163076278Y-115986277D01*
X163048815Y-115996787D01*
X162929768Y-116056311D01*
X162924876Y-116059390D01*
X162922567Y-116060160D01*
X162919691Y-116062653D01*
X162904882Y-116071976D01*
X162892558Y-116086185D01*
X162878351Y-116098507D01*
X162869029Y-116113314D01*
X162866535Y-116116191D01*
X162865765Y-116118500D01*
X162862686Y-116123392D01*
X162803162Y-116242440D01*
X162792653Y-116269903D01*
X162792271Y-116275277D01*
X162790208Y-116280258D01*
X162787326Y-116309522D01*
X162220659Y-116309522D01*
X162220659Y-115297617D01*
X162787326Y-115297617D01*
X162787326Y-115416665D01*
X162790208Y-115445929D01*
X162792269Y-115450906D01*
X162792652Y-115456284D01*
X162803162Y-115483747D01*
X162862686Y-115602795D01*
X162865766Y-115607689D01*
X162866536Y-115609997D01*
X162869028Y-115612870D01*
X162878351Y-115627681D01*
X162892563Y-115640007D01*
X162904883Y-115654212D01*
X162919686Y-115663530D01*
X162922566Y-115666028D01*
X162924877Y-115666798D01*
X162929768Y-115669877D01*
X163048815Y-115729400D01*
X163076279Y-115739910D01*
X163081654Y-115740291D01*
X163086633Y-115742354D01*
X163115897Y-115745236D01*
X163620659Y-115745236D01*
X163620659Y-115773808D01*
X163623541Y-115803072D01*
X163645939Y-115857144D01*
X163687323Y-115898528D01*
X163741395Y-115920926D01*
X163799923Y-115920926D01*
X163853995Y-115898528D01*
X163895379Y-115857144D01*
X163917777Y-115803072D01*
X163920659Y-115773808D01*
X163920659Y-115745236D01*
X164187326Y-115745236D01*
X164216590Y-115742354D01*
X164270662Y-115719956D01*
X164312046Y-115678572D01*
X164334444Y-115624500D01*
X164334444Y-115565972D01*
X164312046Y-115511900D01*
X164270662Y-115470516D01*
X164216590Y-115448118D01*
X164187326Y-115445236D01*
X163920659Y-115445236D01*
X163920659Y-115297617D01*
X163917777Y-115268353D01*
X163895379Y-115214281D01*
X163853995Y-115172897D01*
X163799923Y-115150499D01*
X163741395Y-115150499D01*
X163687323Y-115172897D01*
X163645939Y-115214281D01*
X163623541Y-115268353D01*
X163620659Y-115297617D01*
X163620659Y-115445236D01*
X163151306Y-115445236D01*
X163108653Y-115423909D01*
X163087326Y-115381255D01*
X163087326Y-115297617D01*
X163084444Y-115268353D01*
X163062046Y-115214281D01*
X163020662Y-115172897D01*
X162966590Y-115150499D01*
X162908062Y-115150499D01*
X162853990Y-115172897D01*
X162812606Y-115214281D01*
X162790208Y-115268353D01*
X162787326Y-115297617D01*
X162220659Y-115297617D01*
X162220659Y-113899305D01*
X162790208Y-113899305D01*
X162790208Y-113957833D01*
X162812606Y-114011905D01*
X162853990Y-114053289D01*
X162908062Y-114075687D01*
X162937326Y-114078569D01*
X164187326Y-114078569D01*
X164216590Y-114075687D01*
X164270662Y-114053289D01*
X164312046Y-114011905D01*
X164334444Y-113957833D01*
X164334444Y-113899305D01*
X164312046Y-113845233D01*
X164270662Y-113803849D01*
X164216590Y-113781451D01*
X164187326Y-113778569D01*
X162937326Y-113778569D01*
X162908062Y-113781451D01*
X162853990Y-113803849D01*
X162812606Y-113845233D01*
X162790208Y-113899305D01*
X162220659Y-113899305D01*
X162220659Y-112768353D01*
X162790208Y-112768353D01*
X162790208Y-112826881D01*
X162812606Y-112880953D01*
X162853990Y-112922337D01*
X162908062Y-112944735D01*
X162937326Y-112947617D01*
X163556678Y-112947617D01*
X163599331Y-112968944D01*
X163620659Y-113011599D01*
X163620659Y-113119350D01*
X163588669Y-113183331D01*
X162937326Y-113183331D01*
X162908062Y-113186213D01*
X162853990Y-113208611D01*
X162812606Y-113249995D01*
X162790208Y-113304067D01*
X162790208Y-113362595D01*
X162812606Y-113416667D01*
X162853990Y-113458051D01*
X162908062Y-113480449D01*
X162937326Y-113483331D01*
X163770659Y-113483331D01*
X163799923Y-113480449D01*
X163853995Y-113458051D01*
X163895379Y-113416667D01*
X163917777Y-113362595D01*
X163917777Y-113304067D01*
X163895379Y-113249995D01*
X163892290Y-113246906D01*
X163904823Y-113221842D01*
X163915333Y-113194378D01*
X163915714Y-113189002D01*
X163917777Y-113184024D01*
X163920659Y-113154760D01*
X163920659Y-112976189D01*
X163917777Y-112946925D01*
X163915714Y-112941946D01*
X163915333Y-112936571D01*
X163904823Y-112909107D01*
X163845299Y-112790059D01*
X163842219Y-112785167D01*
X163841450Y-112782858D01*
X163838956Y-112779982D01*
X163829634Y-112765173D01*
X163815425Y-112752850D01*
X163803103Y-112738642D01*
X163788291Y-112729318D01*
X163785419Y-112726827D01*
X163783112Y-112726058D01*
X163778218Y-112722977D01*
X163659170Y-112663453D01*
X163631707Y-112652944D01*
X163626332Y-112652562D01*
X163621352Y-112650499D01*
X163592088Y-112647617D01*
X162937326Y-112647617D01*
X162908062Y-112650499D01*
X162853990Y-112672897D01*
X162812606Y-112714281D01*
X162790208Y-112768353D01*
X162220659Y-112768353D01*
X162220659Y-111637401D01*
X162790208Y-111637401D01*
X162790208Y-111695929D01*
X162812606Y-111750001D01*
X162853990Y-111791385D01*
X162908062Y-111813783D01*
X162937326Y-111816665D01*
X163556678Y-111816665D01*
X163599331Y-111837992D01*
X163620659Y-111880647D01*
X163620659Y-111988398D01*
X163588669Y-112052379D01*
X162937326Y-112052379D01*
X162908062Y-112055261D01*
X162853990Y-112077659D01*
X162812606Y-112119043D01*
X162790208Y-112173115D01*
X162790208Y-112231643D01*
X162812606Y-112285715D01*
X162853990Y-112327099D01*
X162908062Y-112349497D01*
X162937326Y-112352379D01*
X163770659Y-112352379D01*
X163799923Y-112349497D01*
X163853995Y-112327099D01*
X163895379Y-112285715D01*
X163917777Y-112231643D01*
X163917777Y-112173115D01*
X163895379Y-112119043D01*
X163892290Y-112115954D01*
X163904823Y-112090890D01*
X163915333Y-112063426D01*
X163915714Y-112058050D01*
X163917777Y-112053072D01*
X163920659Y-112023808D01*
X163920659Y-111845237D01*
X163917777Y-111815973D01*
X163915714Y-111810994D01*
X163915333Y-111805619D01*
X163904823Y-111778155D01*
X163845299Y-111659107D01*
X163842219Y-111654215D01*
X163841450Y-111651906D01*
X163838956Y-111649030D01*
X163829634Y-111634221D01*
X163815425Y-111621898D01*
X163803103Y-111607690D01*
X163788291Y-111598366D01*
X163785419Y-111595875D01*
X163783112Y-111595106D01*
X163778218Y-111592025D01*
X163659170Y-111532501D01*
X163631707Y-111521992D01*
X163626332Y-111521610D01*
X163621352Y-111519547D01*
X163592088Y-111516665D01*
X162937326Y-111516665D01*
X162908062Y-111519547D01*
X162853990Y-111541945D01*
X162812606Y-111583329D01*
X162790208Y-111637401D01*
X162220659Y-111637401D01*
X162220659Y-110714285D01*
X162787326Y-110714285D01*
X162787326Y-110892856D01*
X162790208Y-110922120D01*
X162792269Y-110927097D01*
X162792652Y-110932475D01*
X162803162Y-110959938D01*
X162862686Y-111078986D01*
X162870613Y-111091579D01*
X162872129Y-111095239D01*
X162875510Y-111099358D01*
X162878351Y-111103872D01*
X162881345Y-111106468D01*
X162890784Y-111117970D01*
X162950307Y-111177493D01*
X162961809Y-111186933D01*
X162964405Y-111189926D01*
X162968914Y-111192764D01*
X162973037Y-111196148D01*
X162976699Y-111197664D01*
X162989291Y-111205591D01*
X163108339Y-111265115D01*
X163135803Y-111275625D01*
X163141178Y-111276006D01*
X163146157Y-111278069D01*
X163175421Y-111280951D01*
X163532564Y-111280951D01*
X163561828Y-111278069D01*
X163566808Y-111276005D01*
X163572183Y-111275624D01*
X163599646Y-111265115D01*
X163718694Y-111205591D01*
X163731285Y-111197664D01*
X163734945Y-111196149D01*
X163739066Y-111192766D01*
X163743579Y-111189926D01*
X163746174Y-111186932D01*
X163757676Y-111177494D01*
X163817200Y-111117971D01*
X163826639Y-111106468D01*
X163829634Y-111103872D01*
X163832475Y-111099357D01*
X163835855Y-111095240D01*
X163837370Y-111091581D01*
X163845299Y-111078986D01*
X163904823Y-110959938D01*
X163915333Y-110932474D01*
X163915714Y-110927098D01*
X163917777Y-110922120D01*
X163920659Y-110892856D01*
X163920659Y-110714285D01*
X163917777Y-110685021D01*
X163915714Y-110680042D01*
X163915333Y-110674667D01*
X163904823Y-110647203D01*
X163845299Y-110528155D01*
X163837371Y-110515561D01*
X163835856Y-110511902D01*
X163832474Y-110507782D01*
X163829634Y-110503269D01*
X163826640Y-110500672D01*
X163817201Y-110489171D01*
X163757677Y-110429647D01*
X163746175Y-110420207D01*
X163743579Y-110417214D01*
X163739065Y-110414372D01*
X163734946Y-110410992D01*
X163731287Y-110409476D01*
X163718694Y-110401549D01*
X163599646Y-110342025D01*
X163572183Y-110331516D01*
X163566808Y-110331134D01*
X163561828Y-110329071D01*
X163532564Y-110326189D01*
X163175421Y-110326189D01*
X163146157Y-110329071D01*
X163141178Y-110331133D01*
X163135803Y-110331515D01*
X163108339Y-110342025D01*
X162989291Y-110401549D01*
X162976695Y-110409477D01*
X162973037Y-110410993D01*
X162968919Y-110414372D01*
X162964405Y-110417214D01*
X162961808Y-110420208D01*
X162950306Y-110429648D01*
X162890783Y-110489172D01*
X162881344Y-110500672D01*
X162878351Y-110503269D01*
X162875510Y-110507781D01*
X162872128Y-110511903D01*
X162870611Y-110515564D01*
X162862686Y-110528155D01*
X162803162Y-110647203D01*
X162792652Y-110674666D01*
X162792269Y-110680043D01*
X162790208Y-110685021D01*
X162787326Y-110714285D01*
X162220659Y-110714285D01*
X162220659Y-109739982D01*
X162788936Y-109739982D01*
X162790026Y-109761904D01*
X162788936Y-109783826D01*
X162791469Y-109790918D01*
X162791843Y-109798437D01*
X162801237Y-109818269D01*
X162808621Y-109838944D01*
X162813674Y-109844526D01*
X162816897Y-109851329D01*
X162833169Y-109866060D01*
X162847901Y-109882333D01*
X162854703Y-109885555D01*
X162860286Y-109890609D01*
X162886876Y-109903165D01*
X163720209Y-110200784D01*
X163748737Y-110207913D01*
X163807192Y-110205006D01*
X163860084Y-110179952D01*
X163899364Y-110136563D01*
X163919049Y-110081445D01*
X163916142Y-110022990D01*
X163891088Y-109970098D01*
X163847700Y-109930818D01*
X163821110Y-109918262D01*
X163383307Y-109761904D01*
X163821110Y-109605546D01*
X163847700Y-109592990D01*
X163891088Y-109553710D01*
X163916142Y-109500818D01*
X163919049Y-109442363D01*
X163899364Y-109387245D01*
X163860084Y-109343856D01*
X163807192Y-109318802D01*
X163748737Y-109315895D01*
X163720209Y-109323024D01*
X162886876Y-109620643D01*
X162860286Y-109633199D01*
X162854703Y-109638252D01*
X162847901Y-109641475D01*
X162833169Y-109657747D01*
X162816897Y-109672479D01*
X162813674Y-109679281D01*
X162808621Y-109684864D01*
X162801237Y-109705538D01*
X162791843Y-109725371D01*
X162791469Y-109732889D01*
X162788936Y-109739982D01*
X162220659Y-109739982D01*
X162220659Y-108571428D01*
X162787326Y-108571428D01*
X162787326Y-108869047D01*
X162790208Y-108898311D01*
X162792271Y-108903291D01*
X162792653Y-108908666D01*
X162803162Y-108936129D01*
X162862686Y-109055177D01*
X162865765Y-109060068D01*
X162866535Y-109062378D01*
X162869029Y-109065254D01*
X162878351Y-109080062D01*
X162892558Y-109092383D01*
X162904882Y-109106593D01*
X162919691Y-109115915D01*
X162922567Y-109118409D01*
X162924876Y-109119178D01*
X162929768Y-109122258D01*
X163048815Y-109181782D01*
X163076278Y-109192292D01*
X163081655Y-109192674D01*
X163086633Y-109194736D01*
X163115897Y-109197618D01*
X163234945Y-109197618D01*
X163264209Y-109194736D01*
X163269189Y-109192672D01*
X163274564Y-109192291D01*
X163302027Y-109181782D01*
X163421075Y-109122258D01*
X163425966Y-109119178D01*
X163428276Y-109118409D01*
X163431152Y-109115914D01*
X163445960Y-109106593D01*
X163458281Y-109092385D01*
X163472491Y-109080062D01*
X163481813Y-109065252D01*
X163484307Y-109062377D01*
X163485076Y-109060067D01*
X163488156Y-109055176D01*
X163547680Y-108936129D01*
X163558190Y-108908666D01*
X163558572Y-108903288D01*
X163560634Y-108898311D01*
X163563516Y-108869047D01*
X163563516Y-108606838D01*
X163563931Y-108606006D01*
X163599331Y-108623707D01*
X163620659Y-108666362D01*
X163620659Y-108833636D01*
X163576971Y-108921012D01*
X163566462Y-108948475D01*
X163562313Y-109006855D01*
X163580820Y-109062378D01*
X163619167Y-109106593D01*
X163671516Y-109132767D01*
X163729896Y-109136916D01*
X163785419Y-109118409D01*
X163829634Y-109080062D01*
X163845299Y-109055176D01*
X163904823Y-108936129D01*
X163915333Y-108908666D01*
X163915715Y-108903288D01*
X163917777Y-108898311D01*
X163920659Y-108869047D01*
X163920659Y-108630952D01*
X163917777Y-108601688D01*
X163915714Y-108596709D01*
X163915333Y-108591334D01*
X163904823Y-108563870D01*
X163845299Y-108444822D01*
X163842219Y-108439930D01*
X163841450Y-108437621D01*
X163838956Y-108434745D01*
X163829634Y-108419936D01*
X163815425Y-108407613D01*
X163803103Y-108393405D01*
X163788291Y-108384081D01*
X163785419Y-108381590D01*
X163783112Y-108380821D01*
X163778218Y-108377740D01*
X163659170Y-108318216D01*
X163631707Y-108307707D01*
X163626332Y-108307325D01*
X163621352Y-108305262D01*
X163592088Y-108302380D01*
X162937326Y-108302380D01*
X162908062Y-108305262D01*
X162853990Y-108327660D01*
X162812606Y-108369044D01*
X162790208Y-108423116D01*
X162790208Y-108481644D01*
X162801457Y-108508800D01*
X162792652Y-108531809D01*
X162792269Y-108537186D01*
X162790208Y-108542164D01*
X162787326Y-108571428D01*
X162220659Y-108571428D01*
X162220659Y-107559523D01*
X162787326Y-107559523D01*
X162787326Y-107678571D01*
X162790208Y-107707835D01*
X162792269Y-107712812D01*
X162792652Y-107718190D01*
X162803162Y-107745653D01*
X162862686Y-107864701D01*
X162865766Y-107869595D01*
X162866536Y-107871903D01*
X162869028Y-107874776D01*
X162878351Y-107889587D01*
X162892563Y-107901913D01*
X162904883Y-107916118D01*
X162919686Y-107925436D01*
X162922566Y-107927934D01*
X162924877Y-107928704D01*
X162929768Y-107931783D01*
X163048815Y-107991306D01*
X163076279Y-108001816D01*
X163081654Y-108002197D01*
X163086633Y-108004260D01*
X163115897Y-108007142D01*
X163620659Y-108007142D01*
X163620659Y-108035714D01*
X163623541Y-108064978D01*
X163645939Y-108119050D01*
X163687323Y-108160434D01*
X163741395Y-108182832D01*
X163799923Y-108182832D01*
X163853995Y-108160434D01*
X163895379Y-108119050D01*
X163917777Y-108064978D01*
X163920659Y-108035714D01*
X163920659Y-108007142D01*
X164187326Y-108007142D01*
X164216590Y-108004260D01*
X164270662Y-107981862D01*
X164312046Y-107940478D01*
X164334444Y-107886406D01*
X164334444Y-107827878D01*
X164312046Y-107773806D01*
X164270662Y-107732422D01*
X164216590Y-107710024D01*
X164187326Y-107707142D01*
X163920659Y-107707142D01*
X163920659Y-107559523D01*
X163917777Y-107530259D01*
X163895379Y-107476187D01*
X163853995Y-107434803D01*
X163799923Y-107412405D01*
X163741395Y-107412405D01*
X163687323Y-107434803D01*
X163645939Y-107476187D01*
X163623541Y-107530259D01*
X163620659Y-107559523D01*
X163620659Y-107707142D01*
X163151306Y-107707142D01*
X163108653Y-107685815D01*
X163087326Y-107643161D01*
X163087326Y-107559523D01*
X163084444Y-107530259D01*
X163062046Y-107476187D01*
X163020662Y-107434803D01*
X162966590Y-107412405D01*
X162908062Y-107412405D01*
X162853990Y-107434803D01*
X162812606Y-107476187D01*
X162790208Y-107530259D01*
X162787326Y-107559523D01*
X162220659Y-107559523D01*
X162220659Y-107113592D01*
X162790208Y-107113592D01*
X162790208Y-107172120D01*
X162812606Y-107226192D01*
X162853990Y-107267576D01*
X162908062Y-107289974D01*
X162937326Y-107292856D01*
X163770659Y-107292856D01*
X163799923Y-107289974D01*
X163853995Y-107267576D01*
X163895379Y-107226192D01*
X163917777Y-107172120D01*
X163917777Y-107113593D01*
X163921160Y-107113593D01*
X163921160Y-107172119D01*
X163928318Y-107189400D01*
X163943556Y-107226190D01*
X163943557Y-107226191D01*
X163962212Y-107248922D01*
X164021736Y-107308446D01*
X164044467Y-107327101D01*
X164098539Y-107349498D01*
X164157065Y-107349498D01*
X164211138Y-107327101D01*
X164211142Y-107327096D01*
X164233868Y-107308446D01*
X164293392Y-107248922D01*
X164312047Y-107226191D01*
X164312048Y-107226190D01*
X164327286Y-107189400D01*
X164334444Y-107172119D01*
X164334444Y-107113593D01*
X164334031Y-107112597D01*
X164327287Y-107096314D01*
X164312047Y-107059520D01*
X164312041Y-107059514D01*
X164293391Y-107036789D01*
X164233867Y-106977266D01*
X164211136Y-106958611D01*
X164179462Y-106945491D01*
X164157066Y-106936215D01*
X164157064Y-106936215D01*
X164098538Y-106936215D01*
X164076142Y-106945491D01*
X164044468Y-106958611D01*
X164021737Y-106977266D01*
X163962213Y-107036789D01*
X163943558Y-107059520D01*
X163943557Y-107059521D01*
X163930437Y-107091195D01*
X163921573Y-107112597D01*
X163921160Y-107113593D01*
X163917777Y-107113593D01*
X163917777Y-107113592D01*
X163895379Y-107059520D01*
X163853995Y-107018136D01*
X163799923Y-106995738D01*
X163770659Y-106992856D01*
X162937326Y-106992856D01*
X162908062Y-106995738D01*
X162853990Y-107018136D01*
X162812606Y-107059520D01*
X162790208Y-107113592D01*
X162220659Y-107113592D01*
X162220659Y-106190476D01*
X162787326Y-106190476D01*
X162787326Y-106369047D01*
X162790208Y-106398311D01*
X162792269Y-106403288D01*
X162792652Y-106408666D01*
X162803162Y-106436129D01*
X162862686Y-106555177D01*
X162870613Y-106567770D01*
X162872129Y-106571430D01*
X162875510Y-106575549D01*
X162878351Y-106580063D01*
X162881345Y-106582659D01*
X162890784Y-106594161D01*
X162950307Y-106653684D01*
X162961809Y-106663124D01*
X162964405Y-106666117D01*
X162968914Y-106668955D01*
X162973037Y-106672339D01*
X162976699Y-106673855D01*
X162989291Y-106681782D01*
X163108339Y-106741306D01*
X163135803Y-106751816D01*
X163141178Y-106752197D01*
X163146157Y-106754260D01*
X163175421Y-106757142D01*
X163532564Y-106757142D01*
X163561828Y-106754260D01*
X163566808Y-106752196D01*
X163572183Y-106751815D01*
X163599646Y-106741306D01*
X163718694Y-106681782D01*
X163731285Y-106673855D01*
X163734945Y-106672340D01*
X163739066Y-106668957D01*
X163743579Y-106666117D01*
X163746174Y-106663123D01*
X163757676Y-106653685D01*
X163817200Y-106594162D01*
X163826639Y-106582659D01*
X163829634Y-106580063D01*
X163832475Y-106575548D01*
X163835855Y-106571431D01*
X163837370Y-106567772D01*
X163845299Y-106555177D01*
X163904823Y-106436129D01*
X163915333Y-106408665D01*
X163915714Y-106403289D01*
X163917777Y-106398311D01*
X163920659Y-106369047D01*
X163920659Y-106190476D01*
X163917777Y-106161212D01*
X163915714Y-106156233D01*
X163915333Y-106150858D01*
X163904823Y-106123394D01*
X163845299Y-106004346D01*
X163837371Y-105991752D01*
X163835856Y-105988093D01*
X163832474Y-105983973D01*
X163829634Y-105979460D01*
X163826640Y-105976863D01*
X163817201Y-105965362D01*
X163757677Y-105905838D01*
X163746175Y-105896398D01*
X163743579Y-105893405D01*
X163739065Y-105890563D01*
X163734946Y-105887183D01*
X163731287Y-105885667D01*
X163718694Y-105877740D01*
X163599646Y-105818216D01*
X163572183Y-105807707D01*
X163566808Y-105807325D01*
X163561828Y-105805262D01*
X163532564Y-105802380D01*
X163175421Y-105802380D01*
X163146157Y-105805262D01*
X163141178Y-105807324D01*
X163135803Y-105807706D01*
X163108339Y-105818216D01*
X162989291Y-105877740D01*
X162976695Y-105885668D01*
X162973037Y-105887184D01*
X162968919Y-105890563D01*
X162964405Y-105893405D01*
X162961808Y-105896399D01*
X162950306Y-105905839D01*
X162890783Y-105965363D01*
X162881344Y-105976863D01*
X162878351Y-105979460D01*
X162875510Y-105983972D01*
X162872128Y-105988094D01*
X162870611Y-105991755D01*
X162862686Y-106004346D01*
X162803162Y-106123394D01*
X162792652Y-106150857D01*
X162792269Y-106156234D01*
X162790208Y-106161212D01*
X162787326Y-106190476D01*
X162220659Y-106190476D01*
X162220659Y-104851688D01*
X162790208Y-104851688D01*
X162790208Y-104910216D01*
X162812606Y-104964288D01*
X162853990Y-105005672D01*
X162908062Y-105028070D01*
X162937326Y-105030952D01*
X163556678Y-105030952D01*
X163599331Y-105052279D01*
X163620659Y-105094934D01*
X163620659Y-105202685D01*
X163588669Y-105266666D01*
X162937326Y-105266666D01*
X162908062Y-105269548D01*
X162853990Y-105291946D01*
X162812606Y-105333330D01*
X162790208Y-105387402D01*
X162790208Y-105445930D01*
X162812606Y-105500002D01*
X162853990Y-105541386D01*
X162908062Y-105563784D01*
X162937326Y-105566666D01*
X163770659Y-105566666D01*
X163799923Y-105563784D01*
X163853995Y-105541386D01*
X163895379Y-105500002D01*
X163917777Y-105445930D01*
X163917777Y-105387402D01*
X163895379Y-105333330D01*
X163892290Y-105330241D01*
X163904823Y-105305177D01*
X163915333Y-105277713D01*
X163915714Y-105272337D01*
X163917777Y-105267359D01*
X163920659Y-105238095D01*
X163920659Y-105059524D01*
X163917777Y-105030260D01*
X163915714Y-105025281D01*
X163915333Y-105019906D01*
X163904823Y-104992442D01*
X163845299Y-104873394D01*
X163842219Y-104868502D01*
X163841450Y-104866193D01*
X163838956Y-104863317D01*
X163829634Y-104848508D01*
X163815425Y-104836185D01*
X163803103Y-104821977D01*
X163788291Y-104812653D01*
X163785419Y-104810162D01*
X163783112Y-104809393D01*
X163778218Y-104806312D01*
X163659170Y-104746788D01*
X163631707Y-104736279D01*
X163626332Y-104735897D01*
X163621352Y-104733834D01*
X163592088Y-104730952D01*
X162937326Y-104730952D01*
X162908062Y-104733834D01*
X162853990Y-104756232D01*
X162812606Y-104797616D01*
X162790208Y-104851688D01*
X162220659Y-104851688D01*
X162220659Y-103988095D01*
X162787326Y-103988095D01*
X162787326Y-104226191D01*
X162790208Y-104255455D01*
X162792271Y-104260435D01*
X162792653Y-104265810D01*
X162803162Y-104293273D01*
X162862686Y-104412321D01*
X162878351Y-104437206D01*
X162922567Y-104475553D01*
X162978089Y-104494060D01*
X163036469Y-104489912D01*
X163088818Y-104463737D01*
X163127165Y-104419522D01*
X163145672Y-104363999D01*
X163141524Y-104305619D01*
X163131014Y-104278156D01*
X163087326Y-104190780D01*
X163087326Y-104023505D01*
X163108653Y-103980851D01*
X163145659Y-103962348D01*
X163182665Y-103980851D01*
X163203992Y-104023504D01*
X163203992Y-104166667D01*
X163206874Y-104195931D01*
X163208937Y-104200911D01*
X163209319Y-104206286D01*
X163219828Y-104233749D01*
X163279352Y-104352797D01*
X163282433Y-104357691D01*
X163283202Y-104359998D01*
X163285693Y-104362870D01*
X163295017Y-104377682D01*
X163309225Y-104390004D01*
X163321548Y-104404213D01*
X163336357Y-104413535D01*
X163339233Y-104416029D01*
X163341542Y-104416798D01*
X163346434Y-104419878D01*
X163465482Y-104479402D01*
X163492946Y-104489912D01*
X163498321Y-104490293D01*
X163503300Y-104492356D01*
X163532564Y-104495238D01*
X163592088Y-104495238D01*
X163621352Y-104492356D01*
X163626332Y-104490292D01*
X163631707Y-104489911D01*
X163659170Y-104479402D01*
X163778218Y-104419878D01*
X163783109Y-104416798D01*
X163785419Y-104416029D01*
X163788295Y-104413534D01*
X163803103Y-104404213D01*
X163815424Y-104390005D01*
X163829634Y-104377682D01*
X163838956Y-104362872D01*
X163841450Y-104359997D01*
X163842219Y-104357687D01*
X163845299Y-104352796D01*
X163904823Y-104233749D01*
X163915333Y-104206286D01*
X163915715Y-104200908D01*
X163917777Y-104195931D01*
X163920659Y-104166667D01*
X163920659Y-103988095D01*
X163917777Y-103958831D01*
X163915715Y-103953853D01*
X163915333Y-103948476D01*
X163904823Y-103921013D01*
X163845299Y-103801966D01*
X163829634Y-103777080D01*
X163785419Y-103738733D01*
X163729896Y-103720226D01*
X163671516Y-103724375D01*
X163619167Y-103750549D01*
X163580820Y-103794764D01*
X163562313Y-103850287D01*
X163566462Y-103908667D01*
X163576971Y-103936130D01*
X163620659Y-104023506D01*
X163620659Y-104131256D01*
X163599331Y-104173910D01*
X163562325Y-104192413D01*
X163525319Y-104173910D01*
X163503992Y-104131256D01*
X163503992Y-103988095D01*
X163501110Y-103958831D01*
X163499047Y-103953852D01*
X163498666Y-103948477D01*
X163488156Y-103921013D01*
X163428633Y-103801966D01*
X163425554Y-103797075D01*
X163424784Y-103794764D01*
X163422286Y-103791884D01*
X163412968Y-103777081D01*
X163398763Y-103764761D01*
X163386437Y-103750549D01*
X163371626Y-103741226D01*
X163368753Y-103738734D01*
X163366445Y-103737964D01*
X163361551Y-103734884D01*
X163242503Y-103675360D01*
X163215040Y-103664850D01*
X163209662Y-103664467D01*
X163204685Y-103662406D01*
X163175421Y-103659524D01*
X163115897Y-103659524D01*
X163086633Y-103662406D01*
X163081655Y-103664467D01*
X163076278Y-103664850D01*
X163048815Y-103675360D01*
X162929768Y-103734884D01*
X162924876Y-103737963D01*
X162922567Y-103738733D01*
X162919691Y-103741226D01*
X162904882Y-103750549D01*
X162892558Y-103764758D01*
X162878351Y-103777080D01*
X162869029Y-103791887D01*
X162866535Y-103794764D01*
X162865765Y-103797073D01*
X162862686Y-103801965D01*
X162803162Y-103921013D01*
X162792653Y-103948476D01*
X162792271Y-103953850D01*
X162790208Y-103958831D01*
X162787326Y-103988095D01*
X162220659Y-103988095D01*
X162220659Y-103509524D01*
X164487326Y-103509524D01*
X164487326Y-121490474D01*
G37*
G36*
X161987326Y-121453584D02*
G01*
X160137326Y-121453584D01*
X160137326Y-120719333D01*
X160288504Y-120719333D01*
X160289837Y-120738093D01*
X160288504Y-120756854D01*
X160291893Y-120767021D01*
X160292653Y-120777714D01*
X160301064Y-120794537D01*
X160307012Y-120812379D01*
X160314034Y-120820475D01*
X160318827Y-120830061D01*
X160333035Y-120842384D01*
X160345359Y-120856593D01*
X160354944Y-120861385D01*
X160363041Y-120868408D01*
X160389892Y-120880396D01*
X161639892Y-121297064D01*
X161668566Y-121303584D01*
X161726946Y-121299434D01*
X161779293Y-121273260D01*
X161817640Y-121229046D01*
X161836149Y-121173522D01*
X161831999Y-121115142D01*
X161805826Y-121062794D01*
X161761611Y-121024447D01*
X161734760Y-121012459D01*
X160911667Y-120738094D01*
X161734760Y-120463731D01*
X161761611Y-120451742D01*
X161805825Y-120413395D01*
X161831998Y-120361048D01*
X161836148Y-120302668D01*
X161817640Y-120247143D01*
X161779292Y-120202929D01*
X161726945Y-120176755D01*
X161668565Y-120172606D01*
X161639891Y-120179126D01*
X160389892Y-120595791D01*
X160363041Y-120607780D01*
X160354944Y-120614802D01*
X160345359Y-120619595D01*
X160333035Y-120633803D01*
X160318827Y-120646127D01*
X160314034Y-120655712D01*
X160307012Y-120663809D01*
X160301064Y-120681650D01*
X160292653Y-120698474D01*
X160291893Y-120709165D01*
X160288504Y-120719333D01*
X160137326Y-120719333D01*
X160137326Y-119249999D01*
X160287326Y-119249999D01*
X160287326Y-119964284D01*
X160290208Y-119993548D01*
X160312606Y-120047620D01*
X160353990Y-120089004D01*
X160408062Y-120111402D01*
X160466590Y-120111402D01*
X160520662Y-120089004D01*
X160562046Y-120047620D01*
X160584444Y-119993548D01*
X160587326Y-119964284D01*
X160587326Y-119757141D01*
X161268771Y-119757141D01*
X161268366Y-119757782D01*
X161264986Y-119761902D01*
X161263470Y-119765560D01*
X161255543Y-119778154D01*
X161196019Y-119897202D01*
X161185510Y-119924665D01*
X161181361Y-119983045D01*
X161199868Y-120038568D01*
X161238215Y-120082783D01*
X161290564Y-120108957D01*
X161348944Y-120113106D01*
X161404467Y-120094599D01*
X161448682Y-120056252D01*
X161464347Y-120031366D01*
X161512984Y-119934090D01*
X161604316Y-119842758D01*
X161770531Y-119731948D01*
X161770611Y-119731881D01*
X161770662Y-119731861D01*
X161770773Y-119731749D01*
X161793282Y-119713318D01*
X161801547Y-119700975D01*
X161812046Y-119690477D01*
X161817669Y-119676900D01*
X161825848Y-119664688D01*
X161828760Y-119650126D01*
X161834444Y-119636405D01*
X161834444Y-119621708D01*
X161837326Y-119607298D01*
X161834444Y-119592729D01*
X161834444Y-119577877D01*
X161828819Y-119564299D01*
X161825968Y-119549884D01*
X161817729Y-119537526D01*
X161812046Y-119523805D01*
X161801656Y-119513415D01*
X161793503Y-119501185D01*
X161781160Y-119492919D01*
X161770662Y-119482421D01*
X161757085Y-119476797D01*
X161744873Y-119468619D01*
X161730310Y-119465706D01*
X161716590Y-119460023D01*
X161687637Y-119457171D01*
X161687484Y-119457141D01*
X161687431Y-119457151D01*
X161687326Y-119457141D01*
X160587326Y-119457141D01*
X160587326Y-119249999D01*
X160584444Y-119220735D01*
X160562046Y-119166663D01*
X160520662Y-119125279D01*
X160466590Y-119102881D01*
X160408062Y-119102881D01*
X160353990Y-119125279D01*
X160312606Y-119166663D01*
X160290208Y-119220735D01*
X160287326Y-119249999D01*
X160137326Y-119249999D01*
X160137326Y-118685020D01*
X160290208Y-118685020D01*
X160290208Y-118743548D01*
X160297365Y-118760827D01*
X160297366Y-118760828D01*
X160312604Y-118797618D01*
X160312605Y-118797619D01*
X160331260Y-118820350D01*
X160390784Y-118879874D01*
X160413514Y-118898528D01*
X160413516Y-118898530D01*
X160445191Y-118911649D01*
X160467587Y-118920926D01*
X160467588Y-118920926D01*
X160526114Y-118920926D01*
X160541950Y-118914365D01*
X160580186Y-118898529D01*
X160580191Y-118898523D01*
X160602917Y-118879873D01*
X160662440Y-118820349D01*
X160681095Y-118797618D01*
X160696333Y-118760828D01*
X160696334Y-118760827D01*
X160703491Y-118743548D01*
X160703491Y-118685020D01*
X160696334Y-118667742D01*
X160681094Y-118630948D01*
X160662439Y-118608218D01*
X160602916Y-118548695D01*
X160580185Y-118530040D01*
X160548511Y-118516920D01*
X160526114Y-118507643D01*
X160526113Y-118507643D01*
X160467587Y-118507643D01*
X160445191Y-118516919D01*
X160413516Y-118530039D01*
X160390785Y-118548694D01*
X160331261Y-118608217D01*
X160312606Y-118630948D01*
X160312605Y-118630949D01*
X160299485Y-118662623D01*
X160290208Y-118685020D01*
X160137326Y-118685020D01*
X160137326Y-117464285D01*
X160287326Y-117464285D01*
X160287326Y-118178570D01*
X160290208Y-118207834D01*
X160312606Y-118261906D01*
X160353990Y-118303290D01*
X160408062Y-118325688D01*
X160466590Y-118325688D01*
X160520662Y-118303290D01*
X160562046Y-118261906D01*
X160584444Y-118207834D01*
X160587326Y-118178570D01*
X160587326Y-117971427D01*
X161268771Y-117971427D01*
X161268366Y-117972068D01*
X161264986Y-117976188D01*
X161263470Y-117979846D01*
X161255543Y-117992440D01*
X161196019Y-118111488D01*
X161185510Y-118138951D01*
X161181361Y-118197331D01*
X161199868Y-118252854D01*
X161238215Y-118297069D01*
X161290564Y-118323243D01*
X161348944Y-118327392D01*
X161404467Y-118308885D01*
X161448682Y-118270538D01*
X161464347Y-118245652D01*
X161512984Y-118148376D01*
X161604316Y-118057044D01*
X161770531Y-117946234D01*
X161770611Y-117946167D01*
X161770662Y-117946147D01*
X161770773Y-117946035D01*
X161793282Y-117927604D01*
X161801547Y-117915261D01*
X161812046Y-117904763D01*
X161817669Y-117891186D01*
X161825848Y-117878974D01*
X161828760Y-117864412D01*
X161834444Y-117850691D01*
X161834444Y-117835994D01*
X161837326Y-117821584D01*
X161834444Y-117807015D01*
X161834444Y-117792163D01*
X161828819Y-117778585D01*
X161825968Y-117764170D01*
X161817729Y-117751812D01*
X161812046Y-117738091D01*
X161801656Y-117727701D01*
X161793503Y-117715471D01*
X161781160Y-117707205D01*
X161770662Y-117696707D01*
X161757085Y-117691083D01*
X161744873Y-117682905D01*
X161730310Y-117679992D01*
X161716590Y-117674309D01*
X161687637Y-117671457D01*
X161687484Y-117671427D01*
X161687431Y-117671437D01*
X161687326Y-117671427D01*
X160587326Y-117671427D01*
X160587326Y-117464285D01*
X160584444Y-117435021D01*
X160562046Y-117380949D01*
X160520662Y-117339565D01*
X160466590Y-117317167D01*
X160408062Y-117317167D01*
X160353990Y-117339565D01*
X160312606Y-117380949D01*
X160290208Y-117435021D01*
X160287326Y-117464285D01*
X160137326Y-117464285D01*
X160137326Y-117167167D01*
X161987326Y-117167167D01*
X161987326Y-121453584D01*
G37*
D11*
%TO.P,GND1,1,1*%
%TO.N,GND*%
X142250000Y-87250000D03*
%TD*%
%TO.P,SDA1,1,1*%
%TO.N,/I2C_SDA*%
X162750000Y-90250000D03*
%TD*%
%TO.P,GND2,1,1*%
%TO.N,GND*%
X162750000Y-93250000D03*
%TD*%
%TO.P,SCL1,1,1*%
%TO.N,/I2C_SCL*%
X162750000Y-87250000D03*
%TD*%
%TO.P,3V3,1,1*%
%TO.N,/3V3*%
X162750000Y-84250000D03*
%TD*%
%TO.P,GPIO1,1,1*%
%TO.N,Net-(GPIO1-Pad1)*%
X142250000Y-90250000D03*
%TD*%
D12*
%TO.P,PS1,V*%
%TO.N,N/C*%
X145049998Y-108750000D03*
X144250000Y-108750000D03*
%TD*%
D11*
%TO.P,12VP1,1,1*%
%TO.N,/12V_P*%
X142250000Y-84250000D03*
%TD*%
D13*
%TO.P,J1,S1,SHIELD*%
%TO.N,GND*%
X148180000Y-115145000D03*
D14*
X148180000Y-119325000D03*
D13*
X156820000Y-115145000D03*
D14*
X156820000Y-119325000D03*
%TD*%
D15*
%TO.N,/GPIO2*%
X154099265Y-100150735D03*
X150750000Y-94750000D03*
%TO.N,GND*%
X146750000Y-94750000D03*
X155100000Y-107500000D03*
X156250000Y-84000000D03*
X153250000Y-94750000D03*
X157250000Y-94750000D03*
X161350000Y-93250000D03*
X150750000Y-87100000D03*
X153250000Y-90750000D03*
X155250000Y-90750000D03*
X157250000Y-85000000D03*
X158250000Y-84000000D03*
X153000000Y-87100000D03*
X154400000Y-99250000D03*
X149750000Y-84000000D03*
X156250000Y-88000000D03*
X149300000Y-113600000D03*
X149700000Y-102700000D03*
X155250000Y-87100000D03*
X155250000Y-89250000D03*
X156250000Y-86500000D03*
X149750000Y-86500000D03*
X153000000Y-85000000D03*
X158250000Y-90000000D03*
X158250000Y-93750000D03*
X155700000Y-113600000D03*
X146200000Y-98700000D03*
X156250000Y-95750000D03*
X148750000Y-85000000D03*
X146000000Y-107750000D03*
X149750000Y-95750000D03*
X149200000Y-112800000D03*
X146750000Y-92750000D03*
X155250000Y-92750000D03*
X147750000Y-95750000D03*
X155250000Y-85000000D03*
X142750000Y-103900000D03*
X151750000Y-93750000D03*
X146750000Y-85000000D03*
X146236936Y-102062573D03*
X158936593Y-115563407D03*
X157250000Y-87100000D03*
X151500000Y-110000000D03*
X147750000Y-91750000D03*
X141750000Y-102000000D03*
X147200000Y-103750000D03*
X151750000Y-89000000D03*
X157250000Y-90750000D03*
X147750000Y-84000000D03*
X159000000Y-119750000D03*
X150750000Y-92750000D03*
X143250000Y-109750000D03*
X154250000Y-84000000D03*
X151750000Y-84000000D03*
X143750000Y-87250000D03*
X159125000Y-103125000D03*
X145750000Y-116250000D03*
X147750000Y-89750000D03*
X158250000Y-95750000D03*
X147612500Y-106862500D03*
X146000000Y-119750000D03*
X151750000Y-90750000D03*
X153250000Y-89000000D03*
X150750000Y-85000000D03*
X147750000Y-93750000D03*
X154250000Y-86500000D03*
X149750000Y-93750000D03*
X146750000Y-89250000D03*
X149750000Y-88000000D03*
X143250000Y-107750000D03*
X152250000Y-86500000D03*
X143900000Y-91200000D03*
X149750000Y-91750000D03*
X146750000Y-90750000D03*
X156250000Y-91750000D03*
%TO.N,/GPIO0*%
X155000000Y-102500000D03*
X149150000Y-89375000D03*
%TO.N,/USB_P*%
X152100000Y-116000000D03*
X153500000Y-117000000D03*
%TO.N,/3V3*%
X147488068Y-85750000D03*
X151500000Y-102250000D03*
X160250000Y-116000000D03*
X148250000Y-98200000D03*
X161350000Y-84250000D03*
%TO.N,/12V_P*%
X145125000Y-100875000D03*
X143750000Y-84750000D03*
%TO.N,/GPIO1*%
X143500000Y-89000000D03*
X141750000Y-95250000D03*
%TO.N,/I2C_SDA*%
X152000000Y-95750000D03*
X161350000Y-90250000D03*
%TO.N,/I2C_SCL*%
X161350000Y-87250000D03*
X152250000Y-94750000D03*
%TO.N,/5V_USB*%
X149231018Y-109325000D03*
X141500000Y-117000000D03*
X150250000Y-113000000D03*
X154750000Y-113000000D03*
X151250000Y-113000000D03*
%TD*%
D16*
%TO.N,/3V3*%
X153750000Y-102250000D02*
X151500000Y-102250000D01*
X154000000Y-102500000D02*
X153750000Y-102250000D01*
%TO.N,/GPIO2*%
X151000000Y-97051470D02*
X154099265Y-100150735D01*
X150750000Y-94750000D02*
X151000000Y-95000000D01*
X151000000Y-95000000D02*
X151000000Y-97051470D01*
%TO.N,/GPIO0*%
X149150000Y-96050000D02*
X153750000Y-100650000D01*
X153750000Y-100650000D02*
X153750000Y-100651471D01*
X153750000Y-100651471D02*
X155000000Y-101901471D01*
X149150000Y-89375000D02*
X149150000Y-96050000D01*
X155000000Y-101901471D02*
X155000000Y-102500000D01*
D17*
%TO.N,/USB_P*%
X152100000Y-116600000D02*
X152500000Y-117000000D01*
X152100000Y-116000000D02*
X152100000Y-116600000D01*
X152500000Y-117000000D02*
X153500000Y-117000000D01*
D18*
%TO.N,/3V3*%
X147488068Y-85750000D02*
X159850000Y-85750000D01*
X147488068Y-85750000D02*
X148500000Y-86761932D01*
D16*
X154000000Y-109750000D02*
X160250000Y-116000000D01*
D18*
X148500000Y-97950000D02*
X148250000Y-98200000D01*
X159850000Y-85750000D02*
X161350000Y-84250000D01*
X148500000Y-86761932D02*
X148500000Y-97950000D01*
D16*
X154000000Y-102500000D02*
X154000000Y-109750000D01*
D18*
%TO.N,/12V_P*%
X144750000Y-85750000D02*
X143750000Y-84750000D01*
X144750000Y-100500000D02*
X144750000Y-85750000D01*
X145125000Y-100875000D02*
X144750000Y-100500000D01*
D16*
%TO.N,/GPIO1*%
X143250000Y-93750000D02*
X143250000Y-89250000D01*
X141750000Y-95250000D02*
X143250000Y-93750000D01*
X143250000Y-89250000D02*
X143500000Y-89000000D01*
%TO.N,/I2C_SDA*%
X159000000Y-90250000D02*
X153500000Y-95750000D01*
X153500000Y-95750000D02*
X152000000Y-95750000D01*
X161350000Y-90250000D02*
X159000000Y-90250000D01*
%TO.N,/I2C_SCL*%
X161350000Y-87250000D02*
X159750000Y-87250000D01*
X159750000Y-87250000D02*
X152250000Y-94750000D01*
D18*
%TO.N,/5V_USB*%
X141500000Y-117000000D02*
X149175000Y-109325000D01*
X149175000Y-109325000D02*
X149231018Y-109325000D01*
X150250000Y-113000000D02*
X151250000Y-113000000D01*
X154750000Y-113000000D02*
X151250000Y-113000000D01*
%TD*%
%TA.AperFunction,Conductor*%
%TO.N,GND*%
G36*
X149955703Y-94953401D02*
G01*
X149991542Y-95006160D01*
X150024210Y-95099521D01*
X150120184Y-95252262D01*
X150247740Y-95379818D01*
X150341471Y-95438712D01*
X150387763Y-95491046D01*
X150399500Y-95543706D01*
X150399500Y-96150903D01*
X150379815Y-96217942D01*
X150327011Y-96263697D01*
X150257853Y-96273641D01*
X150194297Y-96244616D01*
X150187819Y-96238584D01*
X149786819Y-95837584D01*
X149753334Y-95776261D01*
X149750500Y-95749903D01*
X149750500Y-95047114D01*
X149770185Y-94980075D01*
X149822989Y-94934320D01*
X149892147Y-94924376D01*
X149955703Y-94953401D01*
G37*
%TD.AperFunction*%
%TA.AperFunction,Conductor*%
G36*
X164542539Y-82420185D02*
G01*
X164588294Y-82472989D01*
X164599500Y-82524500D01*
X164599500Y-121475500D01*
X164579815Y-121542539D01*
X164527011Y-121588294D01*
X164475500Y-121599500D01*
X140524500Y-121599500D01*
X140457461Y-121579815D01*
X140411706Y-121527011D01*
X140400500Y-121475500D01*
X140400500Y-121347199D01*
X162363934Y-121347199D01*
X164344051Y-121347199D01*
X164344051Y-103652799D01*
X162363934Y-103652799D01*
X162363934Y-121347199D01*
X140400500Y-121347199D01*
X140400500Y-121311486D01*
X160280601Y-121311486D01*
X161845170Y-121311486D01*
X161845170Y-117306581D01*
X160280601Y-117306581D01*
X160280601Y-121311486D01*
X140400500Y-121311486D01*
X140400500Y-118826504D01*
X147180000Y-118826504D01*
X147180000Y-119075000D01*
X147880000Y-119075000D01*
X147880000Y-119575000D01*
X147180000Y-119575000D01*
X147180000Y-119823495D01*
X147218427Y-120016681D01*
X147218430Y-120016693D01*
X147293807Y-120198671D01*
X147293814Y-120198684D01*
X147403248Y-120362462D01*
X147403251Y-120362466D01*
X147542533Y-120501748D01*
X147542537Y-120501751D01*
X147706315Y-120611185D01*
X147706328Y-120611192D01*
X147888308Y-120686569D01*
X147930000Y-120694862D01*
X147930000Y-119891988D01*
X147939940Y-119909205D01*
X147995795Y-119965060D01*
X148064204Y-120004556D01*
X148140504Y-120025000D01*
X148219496Y-120025000D01*
X148295796Y-120004556D01*
X148364205Y-119965060D01*
X148420060Y-119909205D01*
X148430000Y-119891988D01*
X148430000Y-120694862D01*
X148471690Y-120686569D01*
X148471692Y-120686569D01*
X148653671Y-120611192D01*
X148653684Y-120611185D01*
X148817462Y-120501751D01*
X148817466Y-120501748D01*
X148956748Y-120362466D01*
X148956751Y-120362462D01*
X149066185Y-120198684D01*
X149066192Y-120198671D01*
X149141569Y-120016693D01*
X149141572Y-120016681D01*
X149179999Y-119823495D01*
X149180000Y-119823492D01*
X149180000Y-119575000D01*
X148480000Y-119575000D01*
X148480000Y-119075000D01*
X149180000Y-119075000D01*
X149180000Y-118826508D01*
X149179999Y-118826504D01*
X155820000Y-118826504D01*
X155820000Y-119075000D01*
X156520000Y-119075000D01*
X156520000Y-119575000D01*
X155820000Y-119575000D01*
X155820000Y-119823495D01*
X155858427Y-120016681D01*
X155858430Y-120016693D01*
X155933807Y-120198671D01*
X155933814Y-120198684D01*
X156043248Y-120362462D01*
X156043251Y-120362466D01*
X156182533Y-120501748D01*
X156182537Y-120501751D01*
X156346315Y-120611185D01*
X156346328Y-120611192D01*
X156528308Y-120686569D01*
X156570000Y-120694862D01*
X156570000Y-119891988D01*
X156579940Y-119909205D01*
X156635795Y-119965060D01*
X156704204Y-120004556D01*
X156780504Y-120025000D01*
X156859496Y-120025000D01*
X156935796Y-120004556D01*
X157004205Y-119965060D01*
X157060060Y-119909205D01*
X157070000Y-119891988D01*
X157070000Y-120694862D01*
X157111690Y-120686569D01*
X157111692Y-120686569D01*
X157293671Y-120611192D01*
X157293684Y-120611185D01*
X157457462Y-120501751D01*
X157457466Y-120501748D01*
X157596748Y-120362466D01*
X157596751Y-120362462D01*
X157706185Y-120198684D01*
X157706192Y-120198671D01*
X157781569Y-120016693D01*
X157781572Y-120016681D01*
X157819999Y-119823495D01*
X157820000Y-119823492D01*
X157820000Y-119575000D01*
X157120000Y-119575000D01*
X157120000Y-119075000D01*
X157820000Y-119075000D01*
X157820000Y-118826508D01*
X157819999Y-118826504D01*
X157781572Y-118633318D01*
X157781569Y-118633306D01*
X157706192Y-118451328D01*
X157706185Y-118451315D01*
X157596751Y-118287537D01*
X157596748Y-118287533D01*
X157457466Y-118148251D01*
X157457462Y-118148248D01*
X157293684Y-118038814D01*
X157293671Y-118038807D01*
X157111691Y-117963429D01*
X157111683Y-117963427D01*
X157070000Y-117955135D01*
X157070000Y-118758011D01*
X157060060Y-118740795D01*
X157004205Y-118684940D01*
X156935796Y-118645444D01*
X156859496Y-118625000D01*
X156780504Y-118625000D01*
X156704204Y-118645444D01*
X156635795Y-118684940D01*
X156579940Y-118740795D01*
X156570000Y-118758011D01*
X156570000Y-117955136D01*
X156569999Y-117955135D01*
X156528316Y-117963427D01*
X156528308Y-117963429D01*
X156346328Y-118038807D01*
X156346315Y-118038814D01*
X156182537Y-118148248D01*
X156182533Y-118148251D01*
X156043251Y-118287533D01*
X156043248Y-118287537D01*
X155933814Y-118451315D01*
X155933807Y-118451328D01*
X155858430Y-118633306D01*
X155858427Y-118633318D01*
X155820000Y-118826504D01*
X149179999Y-118826504D01*
X149141572Y-118633318D01*
X149141569Y-118633306D01*
X149066192Y-118451328D01*
X149066185Y-118451315D01*
X148956751Y-118287537D01*
X148956748Y-118287533D01*
X148817466Y-118148251D01*
X148817462Y-118148248D01*
X148653684Y-118038814D01*
X148653671Y-118038807D01*
X148471691Y-117963429D01*
X148471683Y-117963427D01*
X148430000Y-117955135D01*
X148430000Y-118758011D01*
X148420060Y-118740795D01*
X148364205Y-118684940D01*
X148295796Y-118645444D01*
X148219496Y-118625000D01*
X148140504Y-118625000D01*
X148064204Y-118645444D01*
X147995795Y-118684940D01*
X147939940Y-118740795D01*
X147930000Y-118758011D01*
X147930000Y-117955136D01*
X147929999Y-117955135D01*
X147888316Y-117963427D01*
X147888308Y-117963429D01*
X147706328Y-118038807D01*
X147706315Y-118038814D01*
X147542537Y-118148248D01*
X147542533Y-118148251D01*
X147403251Y-118287533D01*
X147403248Y-118287537D01*
X147293814Y-118451315D01*
X147293807Y-118451328D01*
X147218430Y-118633306D01*
X147218427Y-118633318D01*
X147180000Y-118826504D01*
X140400500Y-118826504D01*
X140400500Y-116999996D01*
X140694435Y-116999996D01*
X140694435Y-117000003D01*
X140714630Y-117179249D01*
X140714631Y-117179254D01*
X140774211Y-117349523D01*
X140857436Y-117481974D01*
X140870184Y-117502262D01*
X140997738Y-117629816D01*
X141150478Y-117725789D01*
X141320745Y-117785368D01*
X141320750Y-117785369D01*
X141499996Y-117805565D01*
X141500000Y-117805565D01*
X141500004Y-117805565D01*
X141679249Y-117785369D01*
X141679252Y-117785368D01*
X141679255Y-117785368D01*
X141849522Y-117725789D01*
X142002262Y-117629816D01*
X142129816Y-117502262D01*
X142225789Y-117349522D01*
X142285368Y-117179255D01*
X142286182Y-117172025D01*
X142313245Y-117107611D01*
X142321712Y-117098232D01*
X144923440Y-114496504D01*
X147180000Y-114496504D01*
X147180000Y-114895000D01*
X147880000Y-114895000D01*
X147880000Y-115395000D01*
X147180000Y-115395000D01*
X147180000Y-115793495D01*
X147218427Y-115986681D01*
X147218430Y-115986693D01*
X147293807Y-116168671D01*
X147293814Y-116168684D01*
X147403248Y-116332462D01*
X147403251Y-116332466D01*
X147542533Y-116471748D01*
X147542537Y-116471751D01*
X147706315Y-116581185D01*
X147706328Y-116581192D01*
X147888308Y-116656569D01*
X147930000Y-116664862D01*
X147930000Y-115861988D01*
X147939940Y-115879205D01*
X147995795Y-115935060D01*
X148064204Y-115974556D01*
X148140504Y-115995000D01*
X148219496Y-115995000D01*
X148295796Y-115974556D01*
X148364205Y-115935060D01*
X148420060Y-115879205D01*
X148430000Y-115861988D01*
X148430000Y-116664862D01*
X148471690Y-116656569D01*
X148471692Y-116656569D01*
X148653671Y-116581192D01*
X148653684Y-116581185D01*
X148817462Y-116471751D01*
X148817466Y-116471748D01*
X148956748Y-116332466D01*
X148956751Y-116332462D01*
X149066185Y-116168684D01*
X149066190Y-116168674D01*
X149090160Y-116110804D01*
X149134000Y-116056399D01*
X149200293Y-116034333D01*
X149267993Y-116051611D01*
X149280375Y-116061229D01*
X149280890Y-116060559D01*
X149287338Y-116065507D01*
X149319144Y-116083870D01*
X149407164Y-116134688D01*
X149540817Y-116170500D01*
X149540819Y-116170500D01*
X149679181Y-116170500D01*
X149679183Y-116170500D01*
X149812836Y-116134688D01*
X149932665Y-116065505D01*
X149998174Y-115999996D01*
X151294435Y-115999996D01*
X151294435Y-116000003D01*
X151314630Y-116179249D01*
X151314631Y-116179254D01*
X151365488Y-116324594D01*
X151374211Y-116349522D01*
X151393047Y-116379500D01*
X151460494Y-116486840D01*
X151479500Y-116552812D01*
X151479500Y-116661119D01*
X151503343Y-116780986D01*
X151503344Y-116780990D01*
X151503345Y-116780993D01*
X151526733Y-116837455D01*
X151550120Y-116893917D01*
X151590826Y-116954839D01*
X151590827Y-116954840D01*
X151590826Y-116954840D01*
X151604426Y-116975192D01*
X151618026Y-116995546D01*
X151618028Y-116995548D01*
X151618031Y-116995552D01*
X152104454Y-117481974D01*
X152104457Y-117481977D01*
X152122719Y-117494178D01*
X152134814Y-117502259D01*
X152134817Y-117502263D01*
X152134818Y-117502262D01*
X152206083Y-117549880D01*
X152319007Y-117596654D01*
X152348364Y-117602493D01*
X152438883Y-117620500D01*
X152438886Y-117620500D01*
X152947188Y-117620500D01*
X153013159Y-117639505D01*
X153150478Y-117725789D01*
X153320745Y-117785368D01*
X153320750Y-117785369D01*
X153499996Y-117805565D01*
X153500000Y-117805565D01*
X153500004Y-117805565D01*
X153679249Y-117785369D01*
X153679252Y-117785368D01*
X153679255Y-117785368D01*
X153849522Y-117725789D01*
X154002262Y-117629816D01*
X154129816Y-117502262D01*
X154225789Y-117349522D01*
X154285368Y-117179255D01*
X154285369Y-117179249D01*
X154305565Y-117000003D01*
X154305565Y-116999996D01*
X154285369Y-116820750D01*
X154285368Y-116820745D01*
X154225788Y-116650476D01*
X154138512Y-116511578D01*
X154129816Y-116497738D01*
X154002262Y-116370184D01*
X153969377Y-116349521D01*
X153849523Y-116274211D01*
X153679254Y-116214631D01*
X153679249Y-116214630D01*
X153500004Y-116194435D01*
X153499996Y-116194435D01*
X153320750Y-116214630D01*
X153320745Y-116214631D01*
X153150476Y-116274211D01*
X153068116Y-116325962D01*
X153000879Y-116344962D01*
X152934044Y-116324594D01*
X152888830Y-116271326D01*
X152879593Y-116202070D01*
X152885104Y-116180008D01*
X152885368Y-116179255D01*
X152885369Y-116179249D01*
X152905565Y-116000003D01*
X152905565Y-115999996D01*
X152885369Y-115820750D01*
X152885368Y-115820745D01*
X152848080Y-115714182D01*
X152825789Y-115650478D01*
X152729816Y-115497738D01*
X152602262Y-115370184D01*
X152526108Y-115322333D01*
X152449523Y-115274211D01*
X152279254Y-115214631D01*
X152279249Y-115214630D01*
X152100004Y-115194435D01*
X152099996Y-115194435D01*
X151920750Y-115214630D01*
X151920745Y-115214631D01*
X151750476Y-115274211D01*
X151597737Y-115370184D01*
X151470184Y-115497737D01*
X151374211Y-115650476D01*
X151314631Y-115820745D01*
X151314630Y-115820750D01*
X151294435Y-115999996D01*
X149998174Y-115999996D01*
X150030505Y-115967665D01*
X150099688Y-115847836D01*
X150135500Y-115714183D01*
X150135500Y-115575817D01*
X150099688Y-115442164D01*
X150030505Y-115322335D01*
X149932665Y-115224495D01*
X149932664Y-115224494D01*
X149932661Y-115224492D01*
X149812838Y-115155313D01*
X149812837Y-115155312D01*
X149812836Y-115155312D01*
X149679183Y-115119500D01*
X149540817Y-115119500D01*
X149407164Y-115155312D01*
X149407161Y-115155313D01*
X149287338Y-115224492D01*
X149287333Y-115224496D01*
X149189494Y-115322335D01*
X149183337Y-115333001D01*
X149132769Y-115381216D01*
X149075950Y-115395000D01*
X148480000Y-115395000D01*
X148480000Y-114895000D01*
X149180000Y-114895000D01*
X149180000Y-114496508D01*
X149179999Y-114496504D01*
X149141572Y-114303318D01*
X149141569Y-114303306D01*
X149066192Y-114121328D01*
X149066185Y-114121315D01*
X148956751Y-113957537D01*
X148956748Y-113957533D01*
X148817466Y-113818251D01*
X148817462Y-113818248D01*
X148653684Y-113708814D01*
X148653671Y-113708807D01*
X148471691Y-113633429D01*
X148471683Y-113633427D01*
X148430000Y-113625135D01*
X148430000Y-114428011D01*
X148420060Y-114410795D01*
X148364205Y-114354940D01*
X148295796Y-114315444D01*
X148219496Y-114295000D01*
X148140504Y-114295000D01*
X148064204Y-114315444D01*
X147995795Y-114354940D01*
X147939940Y-114410795D01*
X147930000Y-114428011D01*
X147930000Y-113625136D01*
X147929999Y-113625135D01*
X147888316Y-113633427D01*
X147888308Y-113633429D01*
X147706328Y-113708807D01*
X147706315Y-113708814D01*
X147542537Y-113818248D01*
X147542533Y-113818251D01*
X147403251Y-113957533D01*
X147403248Y-113957537D01*
X147293814Y-114121315D01*
X147293807Y-114121328D01*
X147218430Y-114303306D01*
X147218427Y-114303318D01*
X147180000Y-114496504D01*
X144923440Y-114496504D01*
X146419948Y-112999996D01*
X149444435Y-112999996D01*
X149444435Y-113000003D01*
X149464630Y-113179249D01*
X149464631Y-113179254D01*
X149524211Y-113349523D01*
X149620184Y-113502262D01*
X149747738Y-113629816D01*
X149810904Y-113669506D01*
X149900474Y-113725787D01*
X149900478Y-113725789D01*
X150070739Y-113785366D01*
X150070745Y-113785368D01*
X150070750Y-113785369D01*
X150249996Y-113805565D01*
X150250000Y-113805565D01*
X150250004Y-113805565D01*
X150429249Y-113785369D01*
X150429251Y-113785368D01*
X150429255Y-113785368D01*
X150429258Y-113785366D01*
X150429262Y-113785366D01*
X150519377Y-113753832D01*
X150599522Y-113725789D01*
X150684027Y-113672690D01*
X150751264Y-113653690D01*
X150815972Y-113672690D01*
X150900478Y-113725789D01*
X150900481Y-113725790D01*
X151070737Y-113785366D01*
X151070743Y-113785367D01*
X151070745Y-113785368D01*
X151070746Y-113785368D01*
X151070750Y-113785369D01*
X151249996Y-113805565D01*
X151250000Y-113805565D01*
X151250004Y-113805565D01*
X151429249Y-113785369D01*
X151429251Y-113785368D01*
X151429255Y-113785368D01*
X151429258Y-113785366D01*
X151429262Y-113785366D01*
X151519377Y-113753832D01*
X151599522Y-113725789D01*
X151689096Y-113669505D01*
X151755068Y-113650500D01*
X154244932Y-113650500D01*
X154310904Y-113669506D01*
X154400477Y-113725789D01*
X154400481Y-113725790D01*
X154570737Y-113785366D01*
X154570743Y-113785367D01*
X154570745Y-113785368D01*
X154570746Y-113785368D01*
X154570750Y-113785369D01*
X154749996Y-113805565D01*
X154750000Y-113805565D01*
X154750004Y-113805565D01*
X154929249Y-113785369D01*
X154929252Y-113785368D01*
X154929255Y-113785368D01*
X155099522Y-113725789D01*
X155252262Y-113629816D01*
X155379816Y-113502262D01*
X155475789Y-113349522D01*
X155535368Y-113179255D01*
X155555565Y-113000000D01*
X155535368Y-112820745D01*
X155475789Y-112650478D01*
X155379816Y-112497738D01*
X155252262Y-112370184D01*
X155184027Y-112327309D01*
X155099523Y-112274211D01*
X154929254Y-112214631D01*
X154929249Y-112214630D01*
X154750004Y-112194435D01*
X154749996Y-112194435D01*
X154570750Y-112214630D01*
X154570737Y-112214633D01*
X154400481Y-112274209D01*
X154400477Y-112274210D01*
X154310904Y-112330494D01*
X154244932Y-112349500D01*
X151755068Y-112349500D01*
X151689096Y-112330494D01*
X151599522Y-112274210D01*
X151599518Y-112274209D01*
X151429262Y-112214633D01*
X151429249Y-112214630D01*
X151250004Y-112194435D01*
X151249996Y-112194435D01*
X151070750Y-112214630D01*
X151070737Y-112214633D01*
X150900481Y-112274209D01*
X150900477Y-112274211D01*
X150815972Y-112327309D01*
X150748735Y-112346309D01*
X150684028Y-112327309D01*
X150599522Y-112274211D01*
X150599518Y-112274209D01*
X150429262Y-112214633D01*
X150429249Y-112214630D01*
X150250004Y-112194435D01*
X150249996Y-112194435D01*
X150070750Y-112214630D01*
X150070745Y-112214631D01*
X149900476Y-112274211D01*
X149747737Y-112370184D01*
X149620184Y-112497737D01*
X149524211Y-112650476D01*
X149464631Y-112820745D01*
X149464630Y-112820750D01*
X149444435Y-112999996D01*
X146419948Y-112999996D01*
X149266111Y-110153833D01*
X149327432Y-110120350D01*
X149339908Y-110118296D01*
X149410267Y-110110369D01*
X149410270Y-110110368D01*
X149410273Y-110110368D01*
X149580540Y-110050789D01*
X149733280Y-109954816D01*
X149860834Y-109827262D01*
X149956807Y-109674522D01*
X150016386Y-109504255D01*
X150018408Y-109486312D01*
X150036583Y-109325003D01*
X150036583Y-109324996D01*
X150016387Y-109145750D01*
X150016386Y-109145745D01*
X149992573Y-109077691D01*
X149956807Y-108975478D01*
X149860834Y-108822738D01*
X149733280Y-108695184D01*
X149580541Y-108599211D01*
X149410272Y-108539631D01*
X149410267Y-108539630D01*
X149231022Y-108519435D01*
X149231014Y-108519435D01*
X149051768Y-108539630D01*
X149051763Y-108539631D01*
X148881494Y-108599211D01*
X148728755Y-108695184D01*
X148601202Y-108822737D01*
X148505230Y-108975475D01*
X148505229Y-108975476D01*
X148461101Y-109101586D01*
X148431741Y-109148311D01*
X141401775Y-116178277D01*
X141340452Y-116211762D01*
X141327988Y-116213815D01*
X141320752Y-116214630D01*
X141320744Y-116214632D01*
X141150478Y-116274210D01*
X140997737Y-116370184D01*
X140870184Y-116497737D01*
X140774211Y-116650476D01*
X140714631Y-116820745D01*
X140714630Y-116820750D01*
X140694435Y-116999996D01*
X140400500Y-116999996D01*
X140400500Y-108749997D01*
X143494752Y-108749997D01*
X143494752Y-108750002D01*
X143513686Y-108918053D01*
X143513687Y-108918056D01*
X143569545Y-109077691D01*
X143612307Y-109145745D01*
X143659523Y-109220889D01*
X143779111Y-109340477D01*
X143922310Y-109430455D01*
X144081942Y-109486312D01*
X144081943Y-109486312D01*
X144081946Y-109486313D01*
X144249997Y-109505248D01*
X144250000Y-109505248D01*
X144250003Y-109505248D01*
X144418053Y-109486313D01*
X144418054Y-109486312D01*
X144418058Y-109486312D01*
X144577690Y-109430455D01*
X144584024Y-109426474D01*
X144651260Y-109407473D01*
X144715973Y-109426474D01*
X144722308Y-109430455D01*
X144881940Y-109486312D01*
X144881941Y-109486312D01*
X144881944Y-109486313D01*
X145049995Y-109505248D01*
X145049998Y-109505248D01*
X145050001Y-109505248D01*
X145218051Y-109486313D01*
X145218052Y-109486312D01*
X145218056Y-109486312D01*
X145377688Y-109430455D01*
X145520887Y-109340477D01*
X145640475Y-109220889D01*
X145730453Y-109077690D01*
X145786310Y-108918058D01*
X145797051Y-108822738D01*
X145805246Y-108750002D01*
X145805246Y-108749997D01*
X145786311Y-108581946D01*
X145786310Y-108581943D01*
X145771504Y-108539630D01*
X145730453Y-108422310D01*
X145640475Y-108279111D01*
X145520887Y-108159523D01*
X145414264Y-108092527D01*
X145377689Y-108069545D01*
X145218054Y-108013687D01*
X145218051Y-108013686D01*
X145050001Y-107994752D01*
X145049995Y-107994752D01*
X144881944Y-108013686D01*
X144881941Y-108013687D01*
X144722306Y-108069545D01*
X144715970Y-108073527D01*
X144648733Y-108092527D01*
X144584028Y-108073527D01*
X144577691Y-108069545D01*
X144418056Y-108013687D01*
X144418053Y-108013686D01*
X144250003Y-107994752D01*
X144249997Y-107994752D01*
X144081946Y-108013686D01*
X144081943Y-108013687D01*
X143922308Y-108069545D01*
X143779110Y-108159523D01*
X143659523Y-108279110D01*
X143569545Y-108422308D01*
X143513687Y-108581943D01*
X143513686Y-108581946D01*
X143494752Y-108749997D01*
X140400500Y-108749997D01*
X140400500Y-95249996D01*
X140944435Y-95249996D01*
X140944435Y-95250003D01*
X140964630Y-95429249D01*
X140964631Y-95429254D01*
X141024211Y-95599523D01*
X141118702Y-95749903D01*
X141120184Y-95752262D01*
X141247738Y-95879816D01*
X141400478Y-95975789D01*
X141570745Y-96035368D01*
X141570750Y-96035369D01*
X141749996Y-96055565D01*
X141750000Y-96055565D01*
X141750004Y-96055565D01*
X141929249Y-96035369D01*
X141929252Y-96035368D01*
X141929255Y-96035368D01*
X142099522Y-95975789D01*
X142252262Y-95879816D01*
X142379816Y-95752262D01*
X142475789Y-95599522D01*
X142535368Y-95429255D01*
X142545161Y-95342329D01*
X142572226Y-95277918D01*
X142580690Y-95268543D01*
X143608506Y-94240728D01*
X143608511Y-94240724D01*
X143618714Y-94230520D01*
X143618716Y-94230520D01*
X143730520Y-94118716D01*
X143809577Y-93981784D01*
X143850500Y-93829057D01*
X143850500Y-89793706D01*
X143870185Y-89726667D01*
X143908552Y-89688697D01*
X143909554Y-89688067D01*
X143976795Y-89669085D01*
X144043625Y-89689468D01*
X144088826Y-89742747D01*
X144099500Y-89793078D01*
X144099500Y-100564073D01*
X144123602Y-100685242D01*
X144123603Y-100685242D01*
X144124499Y-100689744D01*
X144124501Y-100689750D01*
X144173533Y-100808124D01*
X144173534Y-100808126D01*
X144173535Y-100808127D01*
X144218219Y-100875003D01*
X144244726Y-100914673D01*
X144303277Y-100973224D01*
X144336762Y-101034547D01*
X144338815Y-101047012D01*
X144339630Y-101054246D01*
X144339632Y-101054255D01*
X144399210Y-101224521D01*
X144495184Y-101377262D01*
X144622738Y-101504816D01*
X144653605Y-101524211D01*
X144773426Y-101599500D01*
X144775478Y-101600789D01*
X144858430Y-101629815D01*
X144945745Y-101660368D01*
X144945750Y-101660369D01*
X145124996Y-101680565D01*
X145125000Y-101680565D01*
X145125004Y-101680565D01*
X145304249Y-101660369D01*
X145304252Y-101660368D01*
X145304255Y-101660368D01*
X145474522Y-101600789D01*
X145627262Y-101504816D01*
X145754816Y-101377262D01*
X145850789Y-101224522D01*
X145910368Y-101054255D01*
X145926095Y-100914673D01*
X145930565Y-100875003D01*
X145930565Y-100874996D01*
X145910369Y-100695750D01*
X145910368Y-100695745D01*
X145906693Y-100685242D01*
X145850789Y-100525478D01*
X145754816Y-100372738D01*
X145627262Y-100245184D01*
X145474522Y-100149211D01*
X145474521Y-100149210D01*
X145474520Y-100149210D01*
X145470698Y-100147369D01*
X145468654Y-100145523D01*
X145468626Y-100145506D01*
X145468629Y-100145501D01*
X145418838Y-100100546D01*
X145400500Y-100035649D01*
X145400500Y-85749996D01*
X146682503Y-85749996D01*
X146682503Y-85750003D01*
X146702698Y-85929249D01*
X146702699Y-85929254D01*
X146762279Y-86099523D01*
X146853475Y-86244659D01*
X146858252Y-86252262D01*
X146985806Y-86379816D01*
X147040353Y-86414090D01*
X147120789Y-86464632D01*
X147138546Y-86475789D01*
X147308813Y-86535368D01*
X147316042Y-86536182D01*
X147380456Y-86563246D01*
X147389844Y-86571722D01*
X147813181Y-86995059D01*
X147846666Y-87056382D01*
X147849500Y-87082740D01*
X147849500Y-97437710D01*
X147829815Y-97504749D01*
X147791472Y-97542704D01*
X147747738Y-97570183D01*
X147620184Y-97697737D01*
X147524211Y-97850476D01*
X147464631Y-98020745D01*
X147464630Y-98020750D01*
X147444435Y-98199996D01*
X147444435Y-98200003D01*
X147464630Y-98379249D01*
X147464631Y-98379254D01*
X147524211Y-98549523D01*
X147620184Y-98702262D01*
X147747738Y-98829816D01*
X147900478Y-98925789D01*
X148070745Y-98985368D01*
X148070750Y-98985369D01*
X148249996Y-99005565D01*
X148250000Y-99005565D01*
X148250004Y-99005565D01*
X148429249Y-98985369D01*
X148429252Y-98985368D01*
X148429255Y-98985368D01*
X148599522Y-98925789D01*
X148752262Y-98829816D01*
X148879816Y-98702262D01*
X148975789Y-98549522D01*
X149035368Y-98379255D01*
X149040073Y-98337486D01*
X149060190Y-98282482D01*
X149076465Y-98258127D01*
X149125501Y-98139744D01*
X149126258Y-98135938D01*
X149126261Y-98135938D01*
X149126261Y-98135920D01*
X149150500Y-98014069D01*
X149150500Y-97199097D01*
X149170185Y-97132058D01*
X149222989Y-97086303D01*
X149292147Y-97076359D01*
X149355703Y-97105384D01*
X149362181Y-97111416D01*
X153258876Y-101008111D01*
X153269372Y-101020078D01*
X153269478Y-101020184D01*
X153269480Y-101020187D01*
X153381284Y-101131991D01*
X153381286Y-101131992D01*
X153388352Y-101139058D01*
X153388351Y-101139058D01*
X153388355Y-101139061D01*
X153687113Y-101437819D01*
X153720598Y-101499142D01*
X153715614Y-101568834D01*
X153673742Y-101624767D01*
X153608278Y-101649184D01*
X153599432Y-101649500D01*
X152082412Y-101649500D01*
X152015373Y-101629815D01*
X152005097Y-101622445D01*
X152002263Y-101620185D01*
X152002262Y-101620184D01*
X151920539Y-101568834D01*
X151849523Y-101524211D01*
X151679254Y-101464631D01*
X151679249Y-101464630D01*
X151500004Y-101444435D01*
X151499996Y-101444435D01*
X151320750Y-101464630D01*
X151320745Y-101464631D01*
X151150476Y-101524211D01*
X150997737Y-101620184D01*
X150870184Y-101747737D01*
X150774211Y-101900476D01*
X150714631Y-102070745D01*
X150714630Y-102070750D01*
X150694435Y-102249996D01*
X150694435Y-102250003D01*
X150714630Y-102429249D01*
X150714631Y-102429254D01*
X150774211Y-102599523D01*
X150870184Y-102752262D01*
X150997738Y-102879816D01*
X151088080Y-102936582D01*
X151148426Y-102974500D01*
X151150478Y-102975789D01*
X151320745Y-103035368D01*
X151320750Y-103035369D01*
X151499996Y-103055565D01*
X151500000Y-103055565D01*
X151500004Y-103055565D01*
X151679249Y-103035369D01*
X151679252Y-103035368D01*
X151679255Y-103035368D01*
X151849522Y-102975789D01*
X152002262Y-102879816D01*
X152002267Y-102879810D01*
X152005097Y-102877555D01*
X152007275Y-102876665D01*
X152008158Y-102876111D01*
X152008255Y-102876265D01*
X152069783Y-102851145D01*
X152082412Y-102850500D01*
X153275500Y-102850500D01*
X153342539Y-102870185D01*
X153388294Y-102922989D01*
X153399500Y-102974500D01*
X153399500Y-109663330D01*
X153399499Y-109663348D01*
X153399499Y-109829054D01*
X153399498Y-109829054D01*
X153440423Y-109981785D01*
X153469358Y-110031900D01*
X153469359Y-110031904D01*
X153469360Y-110031904D01*
X153514660Y-110110368D01*
X153519479Y-110118714D01*
X153519481Y-110118717D01*
X153638349Y-110237585D01*
X153638354Y-110237589D01*
X157033681Y-113632917D01*
X157067166Y-113694239D01*
X157070000Y-113720597D01*
X157070000Y-114428011D01*
X157060060Y-114410795D01*
X157004205Y-114354940D01*
X156935796Y-114315444D01*
X156859496Y-114295000D01*
X156780504Y-114295000D01*
X156704204Y-114315444D01*
X156635795Y-114354940D01*
X156579940Y-114410795D01*
X156570000Y-114428011D01*
X156570000Y-113625136D01*
X156569999Y-113625135D01*
X156528316Y-113633427D01*
X156528308Y-113633429D01*
X156346328Y-113708807D01*
X156346315Y-113708814D01*
X156182537Y-113818248D01*
X156182533Y-113818251D01*
X156043251Y-113957533D01*
X156043248Y-113957537D01*
X155933814Y-114121315D01*
X155933807Y-114121328D01*
X155858430Y-114303306D01*
X155858427Y-114303318D01*
X155820000Y-114496504D01*
X155820000Y-114895000D01*
X156520000Y-114895000D01*
X156520000Y-115395000D01*
X155924050Y-115395000D01*
X155857011Y-115375315D01*
X155816663Y-115333001D01*
X155810505Y-115322335D01*
X155712666Y-115224496D01*
X155712661Y-115224492D01*
X155592838Y-115155313D01*
X155592837Y-115155312D01*
X155592836Y-115155312D01*
X155459183Y-115119500D01*
X155320817Y-115119500D01*
X155187164Y-115155312D01*
X155187161Y-115155313D01*
X155067338Y-115224492D01*
X155067333Y-115224496D01*
X154969496Y-115322333D01*
X154969492Y-115322338D01*
X154900313Y-115442161D01*
X154900312Y-115442164D01*
X154864500Y-115575817D01*
X154864500Y-115714183D01*
X154893055Y-115820750D01*
X154900312Y-115847835D01*
X154900313Y-115847838D01*
X154969492Y-115967661D01*
X154969494Y-115967664D01*
X154969495Y-115967665D01*
X155067335Y-116065505D01*
X155067336Y-116065506D01*
X155067338Y-116065507D01*
X155099144Y-116083870D01*
X155187164Y-116134688D01*
X155320817Y-116170500D01*
X155320819Y-116170500D01*
X155459181Y-116170500D01*
X155459183Y-116170500D01*
X155592836Y-116134688D01*
X155712665Y-116065505D01*
X155712669Y-116065500D01*
X155719110Y-116060559D01*
X155721133Y-116063196D01*
X155768830Y-116037107D01*
X155838525Y-116042040D01*
X155894489Y-116083870D01*
X155909838Y-116110802D01*
X155933807Y-116168672D01*
X155933814Y-116168684D01*
X156043248Y-116332462D01*
X156043251Y-116332466D01*
X156182533Y-116471748D01*
X156182537Y-116471751D01*
X156346315Y-116581185D01*
X156346328Y-116581192D01*
X156528308Y-116656569D01*
X156570000Y-116664862D01*
X156570000Y-115861988D01*
X156579940Y-115879205D01*
X156635795Y-115935060D01*
X156704204Y-115974556D01*
X156780504Y-115995000D01*
X156859496Y-115995000D01*
X156935796Y-115974556D01*
X157004205Y-115935060D01*
X157060060Y-115879205D01*
X157070000Y-115861988D01*
X157070000Y-116664862D01*
X157111690Y-116656569D01*
X157111692Y-116656569D01*
X157293671Y-116581192D01*
X157293684Y-116581185D01*
X157457462Y-116471751D01*
X157457466Y-116471748D01*
X157596748Y-116332466D01*
X157596751Y-116332462D01*
X157706185Y-116168684D01*
X157706192Y-116168671D01*
X157781569Y-115986693D01*
X157781572Y-115986681D01*
X157819999Y-115793495D01*
X157820000Y-115793492D01*
X157820000Y-115395000D01*
X157120000Y-115395000D01*
X157120000Y-114895000D01*
X157820000Y-114895000D01*
X157820000Y-114718597D01*
X157839685Y-114651558D01*
X157892489Y-114605803D01*
X157961647Y-114595859D01*
X158025203Y-114624884D01*
X158031670Y-114630905D01*
X158733765Y-115333001D01*
X159419298Y-116018534D01*
X159452783Y-116079857D01*
X159454837Y-116092331D01*
X159464630Y-116179249D01*
X159524210Y-116349521D01*
X159543047Y-116379500D01*
X159620184Y-116502262D01*
X159747738Y-116629816D01*
X159900478Y-116725789D01*
X160058222Y-116780986D01*
X160070745Y-116785368D01*
X160070750Y-116785369D01*
X160249996Y-116805565D01*
X160250000Y-116805565D01*
X160250004Y-116805565D01*
X160429249Y-116785369D01*
X160429252Y-116785368D01*
X160429255Y-116785368D01*
X160599522Y-116725789D01*
X160752262Y-116629816D01*
X160879816Y-116502262D01*
X160975789Y-116349522D01*
X161035368Y-116179255D01*
X161035369Y-116179249D01*
X161055565Y-116000003D01*
X161055565Y-115999996D01*
X161035369Y-115820750D01*
X161035368Y-115820745D01*
X160998080Y-115714182D01*
X160975789Y-115650478D01*
X160879816Y-115497738D01*
X160752262Y-115370184D01*
X160676108Y-115322333D01*
X160599521Y-115274210D01*
X160429249Y-115214630D01*
X160342331Y-115204837D01*
X160277917Y-115177770D01*
X160268534Y-115169298D01*
X154636819Y-109537583D01*
X154603334Y-109476260D01*
X154600500Y-109449902D01*
X154600500Y-103383062D01*
X154620185Y-103316023D01*
X154672989Y-103270268D01*
X154742147Y-103260324D01*
X154765448Y-103266018D01*
X154820745Y-103285368D01*
X154820748Y-103285368D01*
X154820750Y-103285369D01*
X154999996Y-103305565D01*
X155000000Y-103305565D01*
X155000004Y-103305565D01*
X155179249Y-103285369D01*
X155179252Y-103285368D01*
X155179255Y-103285368D01*
X155349522Y-103225789D01*
X155502262Y-103129816D01*
X155629816Y-103002262D01*
X155725789Y-102849522D01*
X155785368Y-102679255D01*
X155805565Y-102500000D01*
X155797593Y-102429249D01*
X155785369Y-102320750D01*
X155785368Y-102320745D01*
X155725788Y-102150476D01*
X155686582Y-102088080D01*
X155629816Y-101997738D01*
X155629815Y-101997737D01*
X155627555Y-101994903D01*
X155626665Y-101992724D01*
X155626111Y-101991842D01*
X155626265Y-101991744D01*
X155601146Y-101930216D01*
X155600501Y-101917589D01*
X155600501Y-101822416D01*
X155600501Y-101822414D01*
X155559577Y-101669686D01*
X155519055Y-101599500D01*
X155480520Y-101532755D01*
X155368716Y-101420951D01*
X155368715Y-101420950D01*
X155364385Y-101416620D01*
X155364374Y-101416610D01*
X154749488Y-100801724D01*
X154716003Y-100740401D01*
X154720987Y-100670709D01*
X154732172Y-100648076D01*
X154825054Y-100500257D01*
X154884633Y-100329990D01*
X154884634Y-100329984D01*
X154904830Y-100150738D01*
X154904830Y-100150731D01*
X154884634Y-99971485D01*
X154884633Y-99971480D01*
X154825053Y-99801211D01*
X154729080Y-99648472D01*
X154601527Y-99520919D01*
X154448786Y-99424945D01*
X154278514Y-99365365D01*
X154191596Y-99355572D01*
X154127182Y-99328505D01*
X154117799Y-99320033D01*
X151636819Y-96839053D01*
X151603334Y-96777730D01*
X151600500Y-96751372D01*
X151600500Y-96633062D01*
X151620185Y-96566023D01*
X151672989Y-96520268D01*
X151742147Y-96510324D01*
X151765448Y-96516018D01*
X151820745Y-96535368D01*
X151820748Y-96535368D01*
X151820750Y-96535369D01*
X151999996Y-96555565D01*
X152000000Y-96555565D01*
X152000004Y-96555565D01*
X152179249Y-96535369D01*
X152179252Y-96535368D01*
X152179255Y-96535368D01*
X152349522Y-96475789D01*
X152502262Y-96379816D01*
X152502267Y-96379810D01*
X152505097Y-96377555D01*
X152507275Y-96376665D01*
X152508158Y-96376111D01*
X152508255Y-96376265D01*
X152569783Y-96351145D01*
X152582412Y-96350500D01*
X153413331Y-96350500D01*
X153413347Y-96350501D01*
X153420943Y-96350501D01*
X153579054Y-96350501D01*
X153579057Y-96350501D01*
X153731785Y-96309577D01*
X153781904Y-96280639D01*
X153868716Y-96230520D01*
X153980520Y-96118716D01*
X153980520Y-96118714D01*
X153990728Y-96108507D01*
X153990729Y-96108504D01*
X155987159Y-94112075D01*
X162241476Y-94112075D01*
X162365462Y-94178348D01*
X162553969Y-94235531D01*
X162553965Y-94235531D01*
X162750000Y-94254838D01*
X162946032Y-94235531D01*
X163134537Y-94178348D01*
X163258523Y-94112076D01*
X163258523Y-94112075D01*
X162750001Y-93603553D01*
X162750000Y-93603553D01*
X162241476Y-94112075D01*
X155987159Y-94112075D01*
X156849235Y-93250000D01*
X161745161Y-93250000D01*
X161764468Y-93446032D01*
X161821651Y-93634539D01*
X161887922Y-93758523D01*
X161887923Y-93758523D01*
X162396446Y-93250000D01*
X162396446Y-93249999D01*
X162346719Y-93200272D01*
X162500000Y-93200272D01*
X162500000Y-93299728D01*
X162538060Y-93391614D01*
X162608386Y-93461940D01*
X162700272Y-93500000D01*
X162799728Y-93500000D01*
X162891614Y-93461940D01*
X162961940Y-93391614D01*
X163000000Y-93299728D01*
X163000000Y-93249999D01*
X163103553Y-93249999D01*
X163103553Y-93250000D01*
X163612075Y-93758523D01*
X163612076Y-93758523D01*
X163678348Y-93634537D01*
X163735531Y-93446032D01*
X163754838Y-93250000D01*
X163735531Y-93053967D01*
X163678348Y-92865462D01*
X163612075Y-92741476D01*
X163103553Y-93249999D01*
X163000000Y-93249999D01*
X163000000Y-93200272D01*
X162961940Y-93108386D01*
X162891614Y-93038060D01*
X162799728Y-93000000D01*
X162700272Y-93000000D01*
X162608386Y-93038060D01*
X162538060Y-93108386D01*
X162500000Y-93200272D01*
X162346719Y-93200272D01*
X161887923Y-92741476D01*
X161821649Y-92865466D01*
X161764468Y-93053967D01*
X161745161Y-93250000D01*
X156849235Y-93250000D01*
X157711312Y-92387923D01*
X162241476Y-92387923D01*
X162750000Y-92896446D01*
X162750001Y-92896446D01*
X163258523Y-92387923D01*
X163258523Y-92387922D01*
X163134539Y-92321651D01*
X162946030Y-92264468D01*
X162946034Y-92264468D01*
X162750000Y-92245161D01*
X162553967Y-92264468D01*
X162365466Y-92321649D01*
X162241476Y-92387923D01*
X157711312Y-92387923D01*
X159212417Y-90886819D01*
X159273740Y-90853334D01*
X159300098Y-90850500D01*
X160767588Y-90850500D01*
X160834627Y-90870185D01*
X160844903Y-90877555D01*
X160847736Y-90879814D01*
X160847738Y-90879816D01*
X161000478Y-90975789D01*
X161170745Y-91035368D01*
X161170750Y-91035369D01*
X161349996Y-91055565D01*
X161350000Y-91055565D01*
X161350004Y-91055565D01*
X161529249Y-91035369D01*
X161529252Y-91035368D01*
X161529255Y-91035368D01*
X161699522Y-90975789D01*
X161839137Y-90888063D01*
X161906374Y-90869063D01*
X161973209Y-90889431D01*
X162000962Y-90914392D01*
X162039116Y-90960883D01*
X162191460Y-91085909D01*
X162191467Y-91085913D01*
X162365266Y-91178811D01*
X162365269Y-91178811D01*
X162365273Y-91178814D01*
X162553868Y-91236024D01*
X162750000Y-91255341D01*
X162946132Y-91236024D01*
X163134727Y-91178814D01*
X163149502Y-91170917D01*
X163308532Y-91085913D01*
X163308538Y-91085910D01*
X163460883Y-90960883D01*
X163585910Y-90808538D01*
X163678814Y-90634727D01*
X163736024Y-90446132D01*
X163755341Y-90250000D01*
X163736024Y-90053868D01*
X163678814Y-89865273D01*
X163678811Y-89865269D01*
X163678811Y-89865266D01*
X163585913Y-89691467D01*
X163585909Y-89691460D01*
X163460883Y-89539116D01*
X163308539Y-89414090D01*
X163308532Y-89414086D01*
X163134733Y-89321188D01*
X163134727Y-89321186D01*
X162946132Y-89263976D01*
X162946129Y-89263975D01*
X162750000Y-89244659D01*
X162553870Y-89263975D01*
X162365266Y-89321188D01*
X162191467Y-89414086D01*
X162191460Y-89414090D01*
X162039118Y-89539114D01*
X162000961Y-89585609D01*
X161943215Y-89624943D01*
X161873370Y-89626812D01*
X161839137Y-89611937D01*
X161699523Y-89524211D01*
X161529254Y-89464631D01*
X161529249Y-89464630D01*
X161350004Y-89444435D01*
X161349996Y-89444435D01*
X161170750Y-89464630D01*
X161170745Y-89464631D01*
X161000476Y-89524211D01*
X160847736Y-89620185D01*
X160844903Y-89622445D01*
X160842724Y-89623334D01*
X160841842Y-89623889D01*
X160841744Y-89623734D01*
X160780217Y-89648855D01*
X160767588Y-89649500D01*
X159086670Y-89649500D01*
X159086654Y-89649499D01*
X159079058Y-89649499D01*
X158920943Y-89649499D01*
X158847849Y-89669085D01*
X158768214Y-89690423D01*
X158768209Y-89690426D01*
X158631290Y-89769475D01*
X158631282Y-89769481D01*
X153287584Y-95113181D01*
X153226261Y-95146666D01*
X153199903Y-95149500D01*
X153133063Y-95149500D01*
X153066024Y-95129815D01*
X153020269Y-95077011D01*
X153010325Y-95007853D01*
X153016021Y-94984546D01*
X153018655Y-94977017D01*
X153035368Y-94929255D01*
X153045161Y-94842329D01*
X153072226Y-94777918D01*
X153080690Y-94768543D01*
X159962417Y-87886819D01*
X160023740Y-87853334D01*
X160050098Y-87850500D01*
X160767588Y-87850500D01*
X160834627Y-87870185D01*
X160844903Y-87877555D01*
X160847736Y-87879814D01*
X160847738Y-87879816D01*
X161000478Y-87975789D01*
X161170745Y-88035368D01*
X161170750Y-88035369D01*
X161349996Y-88055565D01*
X161350000Y-88055565D01*
X161350004Y-88055565D01*
X161529249Y-88035369D01*
X161529252Y-88035368D01*
X161529255Y-88035368D01*
X161699522Y-87975789D01*
X161839137Y-87888063D01*
X161906374Y-87869063D01*
X161973209Y-87889431D01*
X162000962Y-87914392D01*
X162039116Y-87960883D01*
X162191460Y-88085909D01*
X162191467Y-88085913D01*
X162365266Y-88178811D01*
X162365269Y-88178811D01*
X162365273Y-88178814D01*
X162553868Y-88236024D01*
X162750000Y-88255341D01*
X162946132Y-88236024D01*
X163134727Y-88178814D01*
X163308538Y-88085910D01*
X163460883Y-87960883D01*
X163585910Y-87808538D01*
X163678814Y-87634727D01*
X163736024Y-87446132D01*
X163755341Y-87250000D01*
X163736024Y-87053868D01*
X163678814Y-86865273D01*
X163678811Y-86865269D01*
X163678811Y-86865266D01*
X163585913Y-86691467D01*
X163585909Y-86691460D01*
X163460883Y-86539116D01*
X163308539Y-86414090D01*
X163308532Y-86414086D01*
X163134733Y-86321188D01*
X163134727Y-86321186D01*
X162946132Y-86263976D01*
X162946129Y-86263975D01*
X162750000Y-86244659D01*
X162553870Y-86263975D01*
X162365266Y-86321188D01*
X162191467Y-86414086D01*
X162191460Y-86414090D01*
X162039118Y-86539114D01*
X162000961Y-86585609D01*
X161943215Y-86624943D01*
X161873370Y-86626812D01*
X161839137Y-86611937D01*
X161699523Y-86524211D01*
X161529254Y-86464631D01*
X161529249Y-86464630D01*
X161350004Y-86444435D01*
X161349996Y-86444435D01*
X161170750Y-86464630D01*
X161170745Y-86464631D01*
X161000476Y-86524211D01*
X160847736Y-86620185D01*
X160844903Y-86622445D01*
X160842724Y-86623334D01*
X160841842Y-86623889D01*
X160841744Y-86623734D01*
X160780217Y-86648855D01*
X160767588Y-86649500D01*
X159836670Y-86649500D01*
X159836654Y-86649499D01*
X159829058Y-86649499D01*
X159670943Y-86649499D01*
X159594579Y-86669961D01*
X159518214Y-86690423D01*
X159518209Y-86690426D01*
X159381290Y-86769475D01*
X159381282Y-86769481D01*
X152231465Y-93919298D01*
X152170142Y-93952783D01*
X152157668Y-93954837D01*
X152070750Y-93964630D01*
X151900478Y-94024210D01*
X151747737Y-94120184D01*
X151620184Y-94247737D01*
X151604994Y-94271913D01*
X151552659Y-94318204D01*
X151483605Y-94328852D01*
X151419757Y-94300477D01*
X151395006Y-94271913D01*
X151379815Y-94247737D01*
X151252262Y-94120184D01*
X151099523Y-94024211D01*
X150929254Y-93964631D01*
X150929249Y-93964630D01*
X150750004Y-93944435D01*
X150749996Y-93944435D01*
X150570750Y-93964630D01*
X150570745Y-93964631D01*
X150400476Y-94024211D01*
X150247737Y-94120184D01*
X150120184Y-94247737D01*
X150024209Y-94400480D01*
X149991541Y-94493840D01*
X149950820Y-94550616D01*
X149885867Y-94576363D01*
X149817305Y-94562907D01*
X149766903Y-94514519D01*
X149750500Y-94452885D01*
X149750500Y-89957412D01*
X149770185Y-89890373D01*
X149777555Y-89880097D01*
X149779810Y-89877267D01*
X149779816Y-89877262D01*
X149875789Y-89724522D01*
X149935368Y-89554255D01*
X149937074Y-89539114D01*
X149955565Y-89375003D01*
X149955565Y-89374996D01*
X149935369Y-89195750D01*
X149935368Y-89195745D01*
X149875788Y-89025476D01*
X149779815Y-88872737D01*
X149652262Y-88745184D01*
X149499521Y-88649210D01*
X149329249Y-88589630D01*
X149260616Y-88581897D01*
X149196202Y-88554830D01*
X149156647Y-88497235D01*
X149150500Y-88458677D01*
X149150500Y-86697860D01*
X149125502Y-86572194D01*
X149125501Y-86572188D01*
X149125405Y-86571957D01*
X149125391Y-86571828D01*
X149123733Y-86566361D01*
X149124769Y-86566046D01*
X149117933Y-86502492D01*
X149149203Y-86440010D01*
X149209290Y-86404354D01*
X149239964Y-86400500D01*
X159914071Y-86400500D01*
X159998615Y-86383682D01*
X160039744Y-86375501D01*
X160158127Y-86326465D01*
X160166028Y-86321186D01*
X160264669Y-86255277D01*
X161448224Y-85071720D01*
X161509545Y-85038237D01*
X161522019Y-85036183D01*
X161529255Y-85035368D01*
X161699522Y-84975789D01*
X161839137Y-84888063D01*
X161906374Y-84869063D01*
X161973209Y-84889431D01*
X162000962Y-84914392D01*
X162039116Y-84960883D01*
X162191460Y-85085909D01*
X162191467Y-85085913D01*
X162365266Y-85178811D01*
X162365269Y-85178811D01*
X162365273Y-85178814D01*
X162553868Y-85236024D01*
X162750000Y-85255341D01*
X162946132Y-85236024D01*
X163134727Y-85178814D01*
X163308538Y-85085910D01*
X163460883Y-84960883D01*
X163585910Y-84808538D01*
X163678814Y-84634727D01*
X163736024Y-84446132D01*
X163755341Y-84250000D01*
X163736024Y-84053868D01*
X163678814Y-83865273D01*
X163678811Y-83865269D01*
X163678811Y-83865266D01*
X163585913Y-83691467D01*
X163585909Y-83691460D01*
X163460883Y-83539116D01*
X163308539Y-83414090D01*
X163308532Y-83414086D01*
X163134733Y-83321188D01*
X163134727Y-83321186D01*
X162946132Y-83263976D01*
X162946129Y-83263975D01*
X162750000Y-83244659D01*
X162553870Y-83263975D01*
X162365266Y-83321188D01*
X162191467Y-83414086D01*
X162191460Y-83414090D01*
X162039118Y-83539114D01*
X162000961Y-83585609D01*
X161943215Y-83624943D01*
X161873370Y-83626812D01*
X161839137Y-83611937D01*
X161699523Y-83524211D01*
X161529254Y-83464631D01*
X161529249Y-83464630D01*
X161350004Y-83444435D01*
X161349996Y-83444435D01*
X161170750Y-83464630D01*
X161170745Y-83464631D01*
X161000476Y-83524211D01*
X160847737Y-83620184D01*
X160720184Y-83747737D01*
X160624210Y-83900478D01*
X160564632Y-84070744D01*
X160564630Y-84070752D01*
X160563815Y-84077988D01*
X160536743Y-84142400D01*
X160528277Y-84151775D01*
X159616873Y-85063181D01*
X159555550Y-85096666D01*
X159529192Y-85099500D01*
X147993136Y-85099500D01*
X147927164Y-85080494D01*
X147837590Y-85024210D01*
X147837586Y-85024209D01*
X147667330Y-84964633D01*
X147667317Y-84964630D01*
X147488072Y-84944435D01*
X147488064Y-84944435D01*
X147308818Y-84964630D01*
X147308813Y-84964631D01*
X147138544Y-85024211D01*
X146985805Y-85120184D01*
X146858252Y-85247737D01*
X146762279Y-85400476D01*
X146702699Y-85570745D01*
X146702698Y-85570750D01*
X146682503Y-85749996D01*
X145400500Y-85749996D01*
X145400500Y-85685928D01*
X145375502Y-85560261D01*
X145375501Y-85560260D01*
X145375501Y-85560256D01*
X145327958Y-85445477D01*
X145326466Y-85441874D01*
X145326463Y-85441868D01*
X145255275Y-85335328D01*
X145255272Y-85335325D01*
X144571722Y-84651776D01*
X144538237Y-84590453D01*
X144536182Y-84577973D01*
X144535368Y-84570745D01*
X144475789Y-84400478D01*
X144379816Y-84247738D01*
X144252262Y-84120184D01*
X144173592Y-84070752D01*
X144099523Y-84024211D01*
X143929254Y-83964631D01*
X143929249Y-83964630D01*
X143750004Y-83944435D01*
X143749996Y-83944435D01*
X143570750Y-83964630D01*
X143570745Y-83964631D01*
X143400476Y-84024211D01*
X143392287Y-84029357D01*
X143325050Y-84048355D01*
X143258215Y-84027985D01*
X143213003Y-83974716D01*
X143207658Y-83960357D01*
X143178813Y-83865271D01*
X143085913Y-83691467D01*
X143085909Y-83691460D01*
X142960883Y-83539116D01*
X142808539Y-83414090D01*
X142808532Y-83414086D01*
X142634733Y-83321188D01*
X142634727Y-83321186D01*
X142446132Y-83263976D01*
X142446129Y-83263975D01*
X142250000Y-83244659D01*
X142053870Y-83263975D01*
X141865266Y-83321188D01*
X141691467Y-83414086D01*
X141691460Y-83414090D01*
X141539116Y-83539116D01*
X141414090Y-83691460D01*
X141414086Y-83691467D01*
X141321188Y-83865266D01*
X141263975Y-84053870D01*
X141244659Y-84250000D01*
X141263975Y-84446129D01*
X141321188Y-84634733D01*
X141414086Y-84808532D01*
X141414090Y-84808539D01*
X141539116Y-84960883D01*
X141691460Y-85085909D01*
X141691467Y-85085913D01*
X141865266Y-85178811D01*
X141865269Y-85178811D01*
X141865273Y-85178814D01*
X142053868Y-85236024D01*
X142250000Y-85255341D01*
X142446132Y-85236024D01*
X142634727Y-85178814D01*
X142808533Y-85085912D01*
X142808535Y-85085912D01*
X142808536Y-85085910D01*
X142808538Y-85085910D01*
X142836478Y-85062979D01*
X142900784Y-85035666D01*
X142969652Y-85047455D01*
X143020290Y-85093761D01*
X143020506Y-85093626D01*
X143020997Y-85094407D01*
X143021214Y-85094606D01*
X143021793Y-85095674D01*
X143109981Y-85236024D01*
X143120184Y-85252262D01*
X143247738Y-85379816D01*
X143400478Y-85475789D01*
X143570745Y-85535368D01*
X143577974Y-85536182D01*
X143642388Y-85563246D01*
X143651776Y-85571722D01*
X144063181Y-85983127D01*
X144096666Y-86044450D01*
X144099500Y-86070808D01*
X144099500Y-88206921D01*
X144079815Y-88273960D01*
X144027011Y-88319715D01*
X143957853Y-88329659D01*
X143909528Y-88311915D01*
X143849523Y-88274211D01*
X143679254Y-88214631D01*
X143679249Y-88214630D01*
X143500004Y-88194435D01*
X143499996Y-88194435D01*
X143320750Y-88214630D01*
X143320745Y-88214631D01*
X143150476Y-88274211D01*
X142997737Y-88370184D01*
X142870184Y-88497737D01*
X142774211Y-88650476D01*
X142714631Y-88820745D01*
X142714630Y-88820749D01*
X142694844Y-88996362D01*
X142691399Y-89014571D01*
X142649496Y-89170952D01*
X142648985Y-89174837D01*
X142647643Y-89177867D01*
X142647396Y-89178793D01*
X142647251Y-89178754D01*
X142620712Y-89238730D01*
X142562383Y-89277195D01*
X142492518Y-89278019D01*
X142490054Y-89277299D01*
X142446132Y-89263976D01*
X142250000Y-89244659D01*
X142053870Y-89263975D01*
X141865266Y-89321188D01*
X141691467Y-89414086D01*
X141691460Y-89414090D01*
X141539116Y-89539116D01*
X141414090Y-89691460D01*
X141414086Y-89691467D01*
X141321188Y-89865266D01*
X141263975Y-90053870D01*
X141244659Y-90250000D01*
X141263975Y-90446129D01*
X141321188Y-90634733D01*
X141414086Y-90808532D01*
X141414090Y-90808539D01*
X141539116Y-90960883D01*
X141691460Y-91085909D01*
X141691467Y-91085913D01*
X141865266Y-91178811D01*
X141865269Y-91178811D01*
X141865273Y-91178814D01*
X142053868Y-91236024D01*
X142250000Y-91255341D01*
X142446132Y-91236024D01*
X142489504Y-91222866D01*
X142559370Y-91222242D01*
X142618483Y-91259490D01*
X142648075Y-91322784D01*
X142649500Y-91341527D01*
X142649500Y-93449902D01*
X142629815Y-93516941D01*
X142613181Y-93537583D01*
X141731465Y-94419298D01*
X141670142Y-94452783D01*
X141657668Y-94454837D01*
X141570750Y-94464630D01*
X141400478Y-94524210D01*
X141247737Y-94620184D01*
X141120184Y-94747737D01*
X141024211Y-94900476D01*
X140964631Y-95070745D01*
X140964630Y-95070750D01*
X140944435Y-95249996D01*
X140400500Y-95249996D01*
X140400500Y-88112075D01*
X141741476Y-88112075D01*
X141865462Y-88178348D01*
X142053969Y-88235531D01*
X142053965Y-88235531D01*
X142250000Y-88254838D01*
X142446032Y-88235531D01*
X142634537Y-88178348D01*
X142758523Y-88112076D01*
X142758523Y-88112075D01*
X142250001Y-87603553D01*
X142250000Y-87603553D01*
X141741476Y-88112075D01*
X140400500Y-88112075D01*
X140400500Y-87250000D01*
X141245161Y-87250000D01*
X141264468Y-87446032D01*
X141321651Y-87634539D01*
X141387922Y-87758523D01*
X141387923Y-87758523D01*
X141896446Y-87250000D01*
X141896446Y-87249999D01*
X141846719Y-87200272D01*
X142000000Y-87200272D01*
X142000000Y-87299728D01*
X142038060Y-87391614D01*
X142108386Y-87461940D01*
X142200272Y-87500000D01*
X142299728Y-87500000D01*
X142391614Y-87461940D01*
X142461940Y-87391614D01*
X142500000Y-87299728D01*
X142500000Y-87249999D01*
X142603553Y-87249999D01*
X142603553Y-87250000D01*
X143112075Y-87758523D01*
X143112076Y-87758523D01*
X143178348Y-87634537D01*
X143235531Y-87446032D01*
X143254838Y-87250000D01*
X143235531Y-87053967D01*
X143178348Y-86865462D01*
X143112075Y-86741476D01*
X142603553Y-87249999D01*
X142500000Y-87249999D01*
X142500000Y-87200272D01*
X142461940Y-87108386D01*
X142391614Y-87038060D01*
X142299728Y-87000000D01*
X142200272Y-87000000D01*
X142108386Y-87038060D01*
X142038060Y-87108386D01*
X142000000Y-87200272D01*
X141846719Y-87200272D01*
X141387923Y-86741476D01*
X141321649Y-86865466D01*
X141264468Y-87053967D01*
X141245161Y-87250000D01*
X140400500Y-87250000D01*
X140400500Y-86387923D01*
X141741476Y-86387923D01*
X142250000Y-86896446D01*
X142250001Y-86896446D01*
X142758523Y-86387923D01*
X142758523Y-86387922D01*
X142634539Y-86321651D01*
X142446030Y-86264468D01*
X142446034Y-86264468D01*
X142250000Y-86245161D01*
X142053967Y-86264468D01*
X141865466Y-86321649D01*
X141741476Y-86387923D01*
X140400500Y-86387923D01*
X140400500Y-82524500D01*
X140420185Y-82457461D01*
X140472989Y-82411706D01*
X140524500Y-82400500D01*
X164475500Y-82400500D01*
X164542539Y-82420185D01*
G37*
%TD.AperFunction*%
%TD*%
M02*
