%TF.GenerationSoftware,KiCad,Pcbnew,8.0.8*%
%TF.CreationDate,2025-07-23T19:23:50+02:00*%
%TF.ProjectId,liz_sensor,6c697a5f-7365-46e7-936f-722e6b696361,rev?*%
%TF.SameCoordinates,Original*%
%TF.FileFunction,Copper,L1,Top*%
%TF.FilePolarity,Positive*%
%FSLAX46Y46*%
G04 Gerber Fmt 4.6, Leading zero omitted, Abs format (unit mm)*
G04 Created by KiCad (PCBNEW 8.0.8) date 2025-07-23 19:23:50*
%MOMM*%
%LPD*%
G01*
G04 APERTURE LIST*
G04 Aperture macros list*
%AMRoundRect*
0 Rectangle with rounded corners*
0 $1 Rounding radius*
0 $2 $3 $4 $5 $6 $7 $8 $9 X,Y pos of 4 corners*
0 Add a 4 corners polygon primitive as box body*
4,1,4,$2,$3,$4,$5,$6,$7,$8,$9,$2,$3,0*
0 Add four circle primitives for the rounded corners*
1,1,$1+$1,$2,$3*
1,1,$1+$1,$4,$5*
1,1,$1+$1,$6,$7*
1,1,$1+$1,$8,$9*
0 Add four rect primitives between the rounded corners*
20,1,$1+$1,$2,$3,$4,$5,0*
20,1,$1+$1,$4,$5,$6,$7,0*
20,1,$1+$1,$6,$7,$8,$9,0*
20,1,$1+$1,$8,$9,$2,$3,0*%
%AMFreePoly0*
4,1,14,0.603536,0.603536,0.605000,0.600000,0.605000,-0.600000,0.603536,-0.603536,0.600000,-0.605000,-0.600000,-0.605000,-0.603536,-0.603536,-0.605000,-0.600000,-0.605000,0.000000,-0.603536,0.003536,-0.003536,0.603536,0.000000,0.605000,0.600000,0.605000,0.603536,0.603536,0.603536,0.603536,$1*%
G04 Aperture macros list end*
%ADD10C,0.300000*%
%TA.AperFunction,NonConductor*%
%ADD11C,0.300000*%
%TD*%
%TA.AperFunction,NonConductor*%
%ADD12C,0.200000*%
%TD*%
%TA.AperFunction,SMDPad,CuDef*%
%ADD13RoundRect,0.200000X-0.275000X0.200000X-0.275000X-0.200000X0.275000X-0.200000X0.275000X0.200000X0*%
%TD*%
%TA.AperFunction,SMDPad,CuDef*%
%ADD14RoundRect,0.225000X-0.250000X0.225000X-0.250000X-0.225000X0.250000X-0.225000X0.250000X0.225000X0*%
%TD*%
%TA.AperFunction,ComponentPad*%
%ADD15C,1.000000*%
%TD*%
%TA.AperFunction,SMDPad,CuDef*%
%ADD16RoundRect,0.225000X0.375000X-0.225000X0.375000X0.225000X-0.375000X0.225000X-0.375000X-0.225000X0*%
%TD*%
%TA.AperFunction,SMDPad,CuDef*%
%ADD17RoundRect,0.225000X0.225000X0.250000X-0.225000X0.250000X-0.225000X-0.250000X0.225000X-0.250000X0*%
%TD*%
%TA.AperFunction,SMDPad,CuDef*%
%ADD18R,0.800000X0.400000*%
%TD*%
%TA.AperFunction,SMDPad,CuDef*%
%ADD19R,0.400000X0.800000*%
%TD*%
%TA.AperFunction,SMDPad,CuDef*%
%ADD20R,1.200000X1.200000*%
%TD*%
%TA.AperFunction,SMDPad,CuDef*%
%ADD21FreePoly0,0.000000*%
%TD*%
%TA.AperFunction,SMDPad,CuDef*%
%ADD22R,0.800000X0.800000*%
%TD*%
%TA.AperFunction,SMDPad,CuDef*%
%ADD23R,1.050000X0.650000*%
%TD*%
%TA.AperFunction,SMDPad,CuDef*%
%ADD24RoundRect,0.200000X-0.200000X-0.275000X0.200000X-0.275000X0.200000X0.275000X-0.200000X0.275000X0*%
%TD*%
%TA.AperFunction,SMDPad,CuDef*%
%ADD25R,0.250000X0.625000*%
%TD*%
%TA.AperFunction,SMDPad,CuDef*%
%ADD26R,0.450000X0.700000*%
%TD*%
%TA.AperFunction,SMDPad,CuDef*%
%ADD27R,0.450000X0.575000*%
%TD*%
%TA.AperFunction,SMDPad,CuDef*%
%ADD28RoundRect,0.225000X-0.375000X0.225000X-0.375000X-0.225000X0.375000X-0.225000X0.375000X0.225000X0*%
%TD*%
%TA.AperFunction,SMDPad,CuDef*%
%ADD29RoundRect,0.218750X-0.218750X-0.256250X0.218750X-0.256250X0.218750X0.256250X-0.218750X0.256250X0*%
%TD*%
%TA.AperFunction,SMDPad,CuDef*%
%ADD30RoundRect,0.225000X-0.225000X-0.250000X0.225000X-0.250000X0.225000X0.250000X-0.225000X0.250000X0*%
%TD*%
%TA.AperFunction,SMDPad,CuDef*%
%ADD31R,0.249999X0.499999*%
%TD*%
%TA.AperFunction,SMDPad,CuDef*%
%ADD32R,1.599999X0.900001*%
%TD*%
%TA.AperFunction,ComponentPad*%
%ADD33C,0.499999*%
%TD*%
%TA.AperFunction,SMDPad,CuDef*%
%ADD34RoundRect,0.150000X-0.150000X-0.425000X0.150000X-0.425000X0.150000X0.425000X-0.150000X0.425000X0*%
%TD*%
%TA.AperFunction,SMDPad,CuDef*%
%ADD35RoundRect,0.075000X-0.075000X-0.500000X0.075000X-0.500000X0.075000X0.500000X-0.075000X0.500000X0*%
%TD*%
%TA.AperFunction,HeatsinkPad*%
%ADD36O,1.000000X2.100000*%
%TD*%
%TA.AperFunction,HeatsinkPad*%
%ADD37O,1.000000X1.800000*%
%TD*%
%TA.AperFunction,SMDPad,CuDef*%
%ADD38RoundRect,0.225000X0.250000X-0.225000X0.250000X0.225000X-0.250000X0.225000X-0.250000X-0.225000X0*%
%TD*%
%TA.AperFunction,SMDPad,CuDef*%
%ADD39R,1.066800X1.803400*%
%TD*%
%TA.AperFunction,SMDPad,CuDef*%
%ADD40RoundRect,0.093750X-0.106250X0.093750X-0.106250X-0.093750X0.106250X-0.093750X0.106250X0.093750X0*%
%TD*%
%TA.AperFunction,HeatsinkPad*%
%ADD41R,1.600000X1.000000*%
%TD*%
%TA.AperFunction,ViaPad*%
%ADD42C,0.600000*%
%TD*%
%TA.AperFunction,Conductor*%
%ADD43C,0.200000*%
%TD*%
%TA.AperFunction,Conductor*%
%ADD44C,0.300000*%
%TD*%
%TA.AperFunction,Conductor*%
%ADD45C,0.250000*%
%TD*%
%TA.AperFunction,Conductor*%
%ADD46C,0.315200*%
%TD*%
%TA.AperFunction,Conductor*%
%ADD47C,0.240000*%
%TD*%
G04 APERTURE END LIST*
D10*
D11*
X167878328Y-108214284D02*
X168878328Y-108214284D01*
X167306900Y-108571426D02*
X168378328Y-108928569D01*
X168378328Y-108928569D02*
X168378328Y-107999998D01*
X167378328Y-107142855D02*
X167378328Y-106999998D01*
X167378328Y-106999998D02*
X167449757Y-106857141D01*
X167449757Y-106857141D02*
X167521185Y-106785713D01*
X167521185Y-106785713D02*
X167664042Y-106714284D01*
X167664042Y-106714284D02*
X167949757Y-106642855D01*
X167949757Y-106642855D02*
X168306900Y-106642855D01*
X168306900Y-106642855D02*
X168592614Y-106714284D01*
X168592614Y-106714284D02*
X168735471Y-106785713D01*
X168735471Y-106785713D02*
X168806900Y-106857141D01*
X168806900Y-106857141D02*
X168878328Y-106999998D01*
X168878328Y-106999998D02*
X168878328Y-107142855D01*
X168878328Y-107142855D02*
X168806900Y-107285713D01*
X168806900Y-107285713D02*
X168735471Y-107357141D01*
X168735471Y-107357141D02*
X168592614Y-107428570D01*
X168592614Y-107428570D02*
X168306900Y-107499998D01*
X168306900Y-107499998D02*
X167949757Y-107499998D01*
X167949757Y-107499998D02*
X167664042Y-107428570D01*
X167664042Y-107428570D02*
X167521185Y-107357141D01*
X167521185Y-107357141D02*
X167449757Y-107285713D01*
X167449757Y-107285713D02*
X167378328Y-107142855D01*
X168735471Y-105999999D02*
X168806900Y-105928570D01*
X168806900Y-105928570D02*
X168878328Y-105999999D01*
X168878328Y-105999999D02*
X168806900Y-106071427D01*
X168806900Y-106071427D02*
X168735471Y-105999999D01*
X168735471Y-105999999D02*
X168878328Y-105999999D01*
X167378328Y-104999998D02*
X167378328Y-104857141D01*
X167378328Y-104857141D02*
X167449757Y-104714284D01*
X167449757Y-104714284D02*
X167521185Y-104642856D01*
X167521185Y-104642856D02*
X167664042Y-104571427D01*
X167664042Y-104571427D02*
X167949757Y-104499998D01*
X167949757Y-104499998D02*
X168306900Y-104499998D01*
X168306900Y-104499998D02*
X168592614Y-104571427D01*
X168592614Y-104571427D02*
X168735471Y-104642856D01*
X168735471Y-104642856D02*
X168806900Y-104714284D01*
X168806900Y-104714284D02*
X168878328Y-104857141D01*
X168878328Y-104857141D02*
X168878328Y-104999998D01*
X168878328Y-104999998D02*
X168806900Y-105142856D01*
X168806900Y-105142856D02*
X168735471Y-105214284D01*
X168735471Y-105214284D02*
X168592614Y-105285713D01*
X168592614Y-105285713D02*
X168306900Y-105357141D01*
X168306900Y-105357141D02*
X167949757Y-105357141D01*
X167949757Y-105357141D02*
X167664042Y-105285713D01*
X167664042Y-105285713D02*
X167521185Y-105214284D01*
X167521185Y-105214284D02*
X167449757Y-105142856D01*
X167449757Y-105142856D02*
X167378328Y-104999998D01*
X167378328Y-103571427D02*
X167378328Y-103428570D01*
X167378328Y-103428570D02*
X167449757Y-103285713D01*
X167449757Y-103285713D02*
X167521185Y-103214285D01*
X167521185Y-103214285D02*
X167664042Y-103142856D01*
X167664042Y-103142856D02*
X167949757Y-103071427D01*
X167949757Y-103071427D02*
X168306900Y-103071427D01*
X168306900Y-103071427D02*
X168592614Y-103142856D01*
X168592614Y-103142856D02*
X168735471Y-103214285D01*
X168735471Y-103214285D02*
X168806900Y-103285713D01*
X168806900Y-103285713D02*
X168878328Y-103428570D01*
X168878328Y-103428570D02*
X168878328Y-103571427D01*
X168878328Y-103571427D02*
X168806900Y-103714285D01*
X168806900Y-103714285D02*
X168735471Y-103785713D01*
X168735471Y-103785713D02*
X168592614Y-103857142D01*
X168592614Y-103857142D02*
X168306900Y-103928570D01*
X168306900Y-103928570D02*
X167949757Y-103928570D01*
X167949757Y-103928570D02*
X167664042Y-103857142D01*
X167664042Y-103857142D02*
X167521185Y-103785713D01*
X167521185Y-103785713D02*
X167449757Y-103714285D01*
X167449757Y-103714285D02*
X167378328Y-103571427D01*
X167378328Y-102142856D02*
X167378328Y-101999999D01*
X167378328Y-101999999D02*
X167449757Y-101857142D01*
X167449757Y-101857142D02*
X167521185Y-101785714D01*
X167521185Y-101785714D02*
X167664042Y-101714285D01*
X167664042Y-101714285D02*
X167949757Y-101642856D01*
X167949757Y-101642856D02*
X168306900Y-101642856D01*
X168306900Y-101642856D02*
X168592614Y-101714285D01*
X168592614Y-101714285D02*
X168735471Y-101785714D01*
X168735471Y-101785714D02*
X168806900Y-101857142D01*
X168806900Y-101857142D02*
X168878328Y-101999999D01*
X168878328Y-101999999D02*
X168878328Y-102142856D01*
X168878328Y-102142856D02*
X168806900Y-102285714D01*
X168806900Y-102285714D02*
X168735471Y-102357142D01*
X168735471Y-102357142D02*
X168592614Y-102428571D01*
X168592614Y-102428571D02*
X168306900Y-102499999D01*
X168306900Y-102499999D02*
X167949757Y-102499999D01*
X167949757Y-102499999D02*
X167664042Y-102428571D01*
X167664042Y-102428571D02*
X167521185Y-102357142D01*
X167521185Y-102357142D02*
X167449757Y-102285714D01*
X167449757Y-102285714D02*
X167378328Y-102142856D01*
X167378328Y-100714285D02*
X167378328Y-100571428D01*
X167378328Y-100571428D02*
X167449757Y-100428571D01*
X167449757Y-100428571D02*
X167521185Y-100357143D01*
X167521185Y-100357143D02*
X167664042Y-100285714D01*
X167664042Y-100285714D02*
X167949757Y-100214285D01*
X167949757Y-100214285D02*
X168306900Y-100214285D01*
X168306900Y-100214285D02*
X168592614Y-100285714D01*
X168592614Y-100285714D02*
X168735471Y-100357143D01*
X168735471Y-100357143D02*
X168806900Y-100428571D01*
X168806900Y-100428571D02*
X168878328Y-100571428D01*
X168878328Y-100571428D02*
X168878328Y-100714285D01*
X168878328Y-100714285D02*
X168806900Y-100857143D01*
X168806900Y-100857143D02*
X168735471Y-100928571D01*
X168735471Y-100928571D02*
X168592614Y-101000000D01*
X168592614Y-101000000D02*
X168306900Y-101071428D01*
X168306900Y-101071428D02*
X167949757Y-101071428D01*
X167949757Y-101071428D02*
X167664042Y-101000000D01*
X167664042Y-101000000D02*
X167521185Y-100928571D01*
X167521185Y-100928571D02*
X167449757Y-100857143D01*
X167449757Y-100857143D02*
X167378328Y-100714285D01*
X168878328Y-98428572D02*
X167878328Y-98428572D01*
X168021185Y-98428572D02*
X167949757Y-98357143D01*
X167949757Y-98357143D02*
X167878328Y-98214286D01*
X167878328Y-98214286D02*
X167878328Y-98000000D01*
X167878328Y-98000000D02*
X167949757Y-97857143D01*
X167949757Y-97857143D02*
X168092614Y-97785715D01*
X168092614Y-97785715D02*
X168878328Y-97785715D01*
X168092614Y-97785715D02*
X167949757Y-97714286D01*
X167949757Y-97714286D02*
X167878328Y-97571429D01*
X167878328Y-97571429D02*
X167878328Y-97357143D01*
X167878328Y-97357143D02*
X167949757Y-97214286D01*
X167949757Y-97214286D02*
X168092614Y-97142857D01*
X168092614Y-97142857D02*
X168878328Y-97142857D01*
X168878328Y-96428572D02*
X167878328Y-96428572D01*
X168021185Y-96428572D02*
X167949757Y-96357143D01*
X167949757Y-96357143D02*
X167878328Y-96214286D01*
X167878328Y-96214286D02*
X167878328Y-96000000D01*
X167878328Y-96000000D02*
X167949757Y-95857143D01*
X167949757Y-95857143D02*
X168092614Y-95785715D01*
X168092614Y-95785715D02*
X168878328Y-95785715D01*
X168092614Y-95785715D02*
X167949757Y-95714286D01*
X167949757Y-95714286D02*
X167878328Y-95571429D01*
X167878328Y-95571429D02*
X167878328Y-95357143D01*
X167878328Y-95357143D02*
X167949757Y-95214286D01*
X167949757Y-95214286D02*
X168092614Y-95142857D01*
X168092614Y-95142857D02*
X168878328Y-95142857D01*
D12*
X165500000Y-82000000D02*
X170586420Y-82000000D01*
X165500000Y-122000000D02*
X170586420Y-122000000D01*
X170000000Y-82000000D02*
X170000000Y-122000000D01*
X170000000Y-82000000D02*
X170000000Y-122000000D01*
X170000000Y-82000000D02*
X170586421Y-83126504D01*
X170000000Y-82000000D02*
X169413579Y-83126504D01*
X170000000Y-122000000D02*
X169413579Y-120873496D01*
X170000000Y-122000000D02*
X170586421Y-120873496D01*
D10*
D11*
X145571430Y-125021184D02*
X145642858Y-124949756D01*
X145642858Y-124949756D02*
X145785716Y-124878327D01*
X145785716Y-124878327D02*
X146142858Y-124878327D01*
X146142858Y-124878327D02*
X146285716Y-124949756D01*
X146285716Y-124949756D02*
X146357144Y-125021184D01*
X146357144Y-125021184D02*
X146428573Y-125164041D01*
X146428573Y-125164041D02*
X146428573Y-125306899D01*
X146428573Y-125306899D02*
X146357144Y-125521184D01*
X146357144Y-125521184D02*
X145500001Y-126378327D01*
X145500001Y-126378327D02*
X146428573Y-126378327D01*
X147785715Y-124878327D02*
X147071429Y-124878327D01*
X147071429Y-124878327D02*
X147000001Y-125592613D01*
X147000001Y-125592613D02*
X147071429Y-125521184D01*
X147071429Y-125521184D02*
X147214287Y-125449756D01*
X147214287Y-125449756D02*
X147571429Y-125449756D01*
X147571429Y-125449756D02*
X147714287Y-125521184D01*
X147714287Y-125521184D02*
X147785715Y-125592613D01*
X147785715Y-125592613D02*
X147857144Y-125735470D01*
X147857144Y-125735470D02*
X147857144Y-126092613D01*
X147857144Y-126092613D02*
X147785715Y-126235470D01*
X147785715Y-126235470D02*
X147714287Y-126306899D01*
X147714287Y-126306899D02*
X147571429Y-126378327D01*
X147571429Y-126378327D02*
X147214287Y-126378327D01*
X147214287Y-126378327D02*
X147071429Y-126306899D01*
X147071429Y-126306899D02*
X147000001Y-126235470D01*
X148500000Y-126235470D02*
X148571429Y-126306899D01*
X148571429Y-126306899D02*
X148500000Y-126378327D01*
X148500000Y-126378327D02*
X148428572Y-126306899D01*
X148428572Y-126306899D02*
X148500000Y-126235470D01*
X148500000Y-126235470D02*
X148500000Y-126378327D01*
X149500001Y-124878327D02*
X149642858Y-124878327D01*
X149642858Y-124878327D02*
X149785715Y-124949756D01*
X149785715Y-124949756D02*
X149857144Y-125021184D01*
X149857144Y-125021184D02*
X149928572Y-125164041D01*
X149928572Y-125164041D02*
X150000001Y-125449756D01*
X150000001Y-125449756D02*
X150000001Y-125806899D01*
X150000001Y-125806899D02*
X149928572Y-126092613D01*
X149928572Y-126092613D02*
X149857144Y-126235470D01*
X149857144Y-126235470D02*
X149785715Y-126306899D01*
X149785715Y-126306899D02*
X149642858Y-126378327D01*
X149642858Y-126378327D02*
X149500001Y-126378327D01*
X149500001Y-126378327D02*
X149357144Y-126306899D01*
X149357144Y-126306899D02*
X149285715Y-126235470D01*
X149285715Y-126235470D02*
X149214286Y-126092613D01*
X149214286Y-126092613D02*
X149142858Y-125806899D01*
X149142858Y-125806899D02*
X149142858Y-125449756D01*
X149142858Y-125449756D02*
X149214286Y-125164041D01*
X149214286Y-125164041D02*
X149285715Y-125021184D01*
X149285715Y-125021184D02*
X149357144Y-124949756D01*
X149357144Y-124949756D02*
X149500001Y-124878327D01*
X150928572Y-124878327D02*
X151071429Y-124878327D01*
X151071429Y-124878327D02*
X151214286Y-124949756D01*
X151214286Y-124949756D02*
X151285715Y-125021184D01*
X151285715Y-125021184D02*
X151357143Y-125164041D01*
X151357143Y-125164041D02*
X151428572Y-125449756D01*
X151428572Y-125449756D02*
X151428572Y-125806899D01*
X151428572Y-125806899D02*
X151357143Y-126092613D01*
X151357143Y-126092613D02*
X151285715Y-126235470D01*
X151285715Y-126235470D02*
X151214286Y-126306899D01*
X151214286Y-126306899D02*
X151071429Y-126378327D01*
X151071429Y-126378327D02*
X150928572Y-126378327D01*
X150928572Y-126378327D02*
X150785715Y-126306899D01*
X150785715Y-126306899D02*
X150714286Y-126235470D01*
X150714286Y-126235470D02*
X150642857Y-126092613D01*
X150642857Y-126092613D02*
X150571429Y-125806899D01*
X150571429Y-125806899D02*
X150571429Y-125449756D01*
X150571429Y-125449756D02*
X150642857Y-125164041D01*
X150642857Y-125164041D02*
X150714286Y-125021184D01*
X150714286Y-125021184D02*
X150785715Y-124949756D01*
X150785715Y-124949756D02*
X150928572Y-124878327D01*
X152357143Y-124878327D02*
X152500000Y-124878327D01*
X152500000Y-124878327D02*
X152642857Y-124949756D01*
X152642857Y-124949756D02*
X152714286Y-125021184D01*
X152714286Y-125021184D02*
X152785714Y-125164041D01*
X152785714Y-125164041D02*
X152857143Y-125449756D01*
X152857143Y-125449756D02*
X152857143Y-125806899D01*
X152857143Y-125806899D02*
X152785714Y-126092613D01*
X152785714Y-126092613D02*
X152714286Y-126235470D01*
X152714286Y-126235470D02*
X152642857Y-126306899D01*
X152642857Y-126306899D02*
X152500000Y-126378327D01*
X152500000Y-126378327D02*
X152357143Y-126378327D01*
X152357143Y-126378327D02*
X152214286Y-126306899D01*
X152214286Y-126306899D02*
X152142857Y-126235470D01*
X152142857Y-126235470D02*
X152071428Y-126092613D01*
X152071428Y-126092613D02*
X152000000Y-125806899D01*
X152000000Y-125806899D02*
X152000000Y-125449756D01*
X152000000Y-125449756D02*
X152071428Y-125164041D01*
X152071428Y-125164041D02*
X152142857Y-125021184D01*
X152142857Y-125021184D02*
X152214286Y-124949756D01*
X152214286Y-124949756D02*
X152357143Y-124878327D01*
X153785714Y-124878327D02*
X153928571Y-124878327D01*
X153928571Y-124878327D02*
X154071428Y-124949756D01*
X154071428Y-124949756D02*
X154142857Y-125021184D01*
X154142857Y-125021184D02*
X154214285Y-125164041D01*
X154214285Y-125164041D02*
X154285714Y-125449756D01*
X154285714Y-125449756D02*
X154285714Y-125806899D01*
X154285714Y-125806899D02*
X154214285Y-126092613D01*
X154214285Y-126092613D02*
X154142857Y-126235470D01*
X154142857Y-126235470D02*
X154071428Y-126306899D01*
X154071428Y-126306899D02*
X153928571Y-126378327D01*
X153928571Y-126378327D02*
X153785714Y-126378327D01*
X153785714Y-126378327D02*
X153642857Y-126306899D01*
X153642857Y-126306899D02*
X153571428Y-126235470D01*
X153571428Y-126235470D02*
X153499999Y-126092613D01*
X153499999Y-126092613D02*
X153428571Y-125806899D01*
X153428571Y-125806899D02*
X153428571Y-125449756D01*
X153428571Y-125449756D02*
X153499999Y-125164041D01*
X153499999Y-125164041D02*
X153571428Y-125021184D01*
X153571428Y-125021184D02*
X153642857Y-124949756D01*
X153642857Y-124949756D02*
X153785714Y-124878327D01*
X156071427Y-126378327D02*
X156071427Y-125378327D01*
X156071427Y-125521184D02*
X156142856Y-125449756D01*
X156142856Y-125449756D02*
X156285713Y-125378327D01*
X156285713Y-125378327D02*
X156499999Y-125378327D01*
X156499999Y-125378327D02*
X156642856Y-125449756D01*
X156642856Y-125449756D02*
X156714285Y-125592613D01*
X156714285Y-125592613D02*
X156714285Y-126378327D01*
X156714285Y-125592613D02*
X156785713Y-125449756D01*
X156785713Y-125449756D02*
X156928570Y-125378327D01*
X156928570Y-125378327D02*
X157142856Y-125378327D01*
X157142856Y-125378327D02*
X157285713Y-125449756D01*
X157285713Y-125449756D02*
X157357142Y-125592613D01*
X157357142Y-125592613D02*
X157357142Y-126378327D01*
X158071427Y-126378327D02*
X158071427Y-125378327D01*
X158071427Y-125521184D02*
X158142856Y-125449756D01*
X158142856Y-125449756D02*
X158285713Y-125378327D01*
X158285713Y-125378327D02*
X158499999Y-125378327D01*
X158499999Y-125378327D02*
X158642856Y-125449756D01*
X158642856Y-125449756D02*
X158714285Y-125592613D01*
X158714285Y-125592613D02*
X158714285Y-126378327D01*
X158714285Y-125592613D02*
X158785713Y-125449756D01*
X158785713Y-125449756D02*
X158928570Y-125378327D01*
X158928570Y-125378327D02*
X159142856Y-125378327D01*
X159142856Y-125378327D02*
X159285713Y-125449756D01*
X159285713Y-125449756D02*
X159357142Y-125592613D01*
X159357142Y-125592613D02*
X159357142Y-126378327D01*
D12*
X140000000Y-122500000D02*
X140000000Y-128086419D01*
X165000000Y-122500000D02*
X165000000Y-128086419D01*
X140000000Y-127499999D02*
X165000000Y-127499999D01*
X140000000Y-127499999D02*
X165000000Y-127499999D01*
X140000000Y-127499999D02*
X141126504Y-126913578D01*
X140000000Y-127499999D02*
X141126504Y-128086420D01*
X165000000Y-127499999D02*
X163873496Y-128086420D01*
X165000000Y-127499999D02*
X163873496Y-126913578D01*
D13*
%TO.P,R7,1*%
%TO.N,GND*%
X148000000Y-103675000D03*
%TO.P,R7,2*%
%TO.N,Net-(U5-FB)*%
X148000000Y-105325000D03*
%TD*%
D14*
%TO.P,C5,1*%
%TO.N,/5V_USB*%
X149250000Y-110475000D03*
%TO.P,C5,2*%
%TO.N,GND*%
X149250000Y-112025000D03*
%TD*%
D15*
%TO.P,GND1,1,1*%
%TO.N,GND*%
X142250000Y-87250000D03*
%TD*%
D13*
%TO.P,R4,1*%
%TO.N,Net-(PS1-PG)*%
X147500000Y-110425000D03*
%TO.P,R4,2*%
%TO.N,Net-(D4-A)*%
X147500000Y-112075000D03*
%TD*%
D16*
%TO.P,D4,1,K*%
%TO.N,/5V_USB*%
X143500000Y-117150000D03*
%TO.P,D4,2,A*%
%TO.N,Net-(D4-A)*%
X143500000Y-113850000D03*
%TD*%
D15*
%TO.P,SDA1,1,1*%
%TO.N,/I2C_SDA*%
X162750000Y-90250000D03*
%TD*%
D17*
%TO.P,C2,1*%
%TO.N,/3V3*%
X147775000Y-101250000D03*
%TO.P,C2,2*%
%TO.N,GND*%
X146225000Y-101250000D03*
%TD*%
%TO.P,C6,1*%
%TO.N,/3V3*%
X151275000Y-103500000D03*
%TO.P,C6,2*%
%TO.N,GND*%
X149725000Y-103500000D03*
%TD*%
D18*
%TO.P,U1,1,GND*%
%TO.N,GND*%
X145500000Y-83950000D03*
%TO.P,U1,2,GND*%
X145500000Y-84800000D03*
%TO.P,U1,3,3V3*%
%TO.N,/3V3*%
X145500000Y-85650000D03*
%TO.P,U1,4,IO0*%
%TO.N,/GPIO0*%
X145500000Y-86500000D03*
%TO.P,U1,5,IO1*%
%TO.N,/GPIO1*%
X145500000Y-87350000D03*
%TO.P,U1,6,IO2*%
%TO.N,/GPIO2*%
X145500000Y-88200000D03*
%TO.P,U1,7,IO3*%
%TO.N,unconnected-(U1-IO3-Pad7)*%
X145500000Y-89050000D03*
%TO.P,U1,8,IO4*%
%TO.N,unconnected-(U1-IO4-Pad8)*%
X145500000Y-89900000D03*
%TO.P,U1,9,IO5*%
%TO.N,unconnected-(U1-IO5-Pad9)*%
X145500000Y-90750000D03*
%TO.P,U1,10,IO6*%
%TO.N,unconnected-(U1-IO6-Pad10)*%
X145500000Y-91600000D03*
%TO.P,U1,11,IO7*%
%TO.N,unconnected-(U1-IO7-Pad11)*%
X145500000Y-92450000D03*
%TO.P,U1,12,IO8*%
%TO.N,unconnected-(U1-IO8-Pad12)*%
X145500000Y-93300000D03*
%TO.P,U1,13,IO9*%
%TO.N,unconnected-(U1-IO9-Pad13)*%
X145500000Y-94150000D03*
%TO.P,U1,14,IO10*%
%TO.N,unconnected-(U1-IO10-Pad14)*%
X145500000Y-95000000D03*
%TO.P,U1,15,IO11*%
%TO.N,unconnected-(U1-IO11-Pad15)*%
X145500000Y-95850000D03*
D19*
%TO.P,U1,16,IO12*%
%TO.N,unconnected-(U1-IO12-Pad16)*%
X146550000Y-96900000D03*
%TO.P,U1,17,IO13*%
%TO.N,unconnected-(U1-IO13-Pad17)*%
X147400000Y-96900000D03*
%TO.P,U1,18,IO14*%
%TO.N,unconnected-(U1-IO14-Pad18)*%
X148250000Y-96900000D03*
%TO.P,U1,19,IO15*%
%TO.N,unconnected-(U1-IO15-Pad19)*%
X149100000Y-96900000D03*
%TO.P,U1,20,IO16*%
%TO.N,unconnected-(U1-IO16-Pad20)*%
X149950000Y-96900000D03*
%TO.P,U1,21,IO17*%
%TO.N,/I2C_SCL*%
X150800000Y-96900000D03*
%TO.P,U1,22,IO18*%
%TO.N,/I2C_SDA*%
X151650000Y-96900000D03*
%TO.P,U1,23,IO19*%
%TO.N,/USB_N*%
X152500000Y-96900000D03*
%TO.P,U1,24,IO20*%
%TO.N,/USB_P*%
X153350000Y-96900000D03*
%TO.P,U1,25,IO21*%
%TO.N,unconnected-(U1-IO21-Pad25)*%
X154200000Y-96900000D03*
%TO.P,U1,26,IO26*%
%TO.N,unconnected-(U1-IO26-Pad26)*%
X155050000Y-96900000D03*
%TO.P,U1,27,IO47*%
%TO.N,unconnected-(U1-IO47-Pad27)*%
X155900000Y-96900000D03*
%TO.P,U1,28,IO33*%
%TO.N,unconnected-(U1-IO33-Pad28)*%
X156750000Y-96900000D03*
%TO.P,U1,29,IO34*%
%TO.N,unconnected-(U1-IO34-Pad29)*%
X157600000Y-96900000D03*
%TO.P,U1,30,IO48*%
%TO.N,unconnected-(U1-IO48-Pad30)*%
X158450000Y-96900000D03*
D18*
%TO.P,U1,31,IO35*%
%TO.N,unconnected-(U1-IO35-Pad31)*%
X159500000Y-95850000D03*
%TO.P,U1,32,IO36*%
%TO.N,unconnected-(U1-IO36-Pad32)*%
X159500000Y-95000000D03*
%TO.P,U1,33,IO37*%
%TO.N,unconnected-(U1-IO37-Pad33)*%
X159500000Y-94150000D03*
%TO.P,U1,34,IO38*%
%TO.N,unconnected-(U1-IO38-Pad34)*%
X159500000Y-93300000D03*
%TO.P,U1,35,IO39*%
%TO.N,unconnected-(U1-IO39-Pad35)*%
X159500000Y-92450000D03*
%TO.P,U1,36,IO40*%
%TO.N,unconnected-(U1-IO40-Pad36)*%
X159500000Y-91600000D03*
%TO.P,U1,37,IO41*%
%TO.N,unconnected-(U1-IO41-Pad37)*%
X159500000Y-90750000D03*
%TO.P,U1,38,IO42*%
%TO.N,unconnected-(U1-IO42-Pad38)*%
X159500000Y-89900000D03*
%TO.P,U1,39,TXD0*%
%TO.N,unconnected-(U1-TXD0-Pad39)*%
X159500000Y-89050000D03*
%TO.P,U1,40,RXD0*%
%TO.N,unconnected-(U1-RXD0-Pad40)*%
X159500000Y-88200000D03*
%TO.P,U1,41,IO45*%
%TO.N,unconnected-(U1-IO45-Pad41)*%
X159500000Y-87350000D03*
%TO.P,U1,42,GND*%
%TO.N,GND*%
X159500000Y-86500000D03*
%TO.P,U1,43,GND*%
X159500000Y-85650000D03*
%TO.P,U1,44,IO46*%
%TO.N,unconnected-(U1-IO46-Pad44)*%
X159500000Y-84800000D03*
%TO.P,U1,45,EN*%
%TO.N,/ESP32_EN*%
X159500000Y-83950000D03*
D19*
%TO.P,U1,46,GND*%
%TO.N,GND*%
X158450000Y-82900000D03*
%TO.P,U1,47,GND*%
X157600000Y-82900000D03*
%TO.P,U1,48,GND*%
X156750000Y-82900000D03*
%TO.P,U1,49,GND*%
X155900000Y-82900000D03*
%TO.P,U1,50,GND*%
X155050000Y-82900000D03*
%TO.P,U1,51,GND*%
X154200000Y-82900000D03*
%TO.P,U1,52,GND*%
X153350000Y-82900000D03*
%TO.P,U1,53,GND*%
X152500000Y-82900000D03*
%TO.P,U1,54,GND*%
X151650000Y-82900000D03*
%TO.P,U1,55,GND*%
X150800000Y-82900000D03*
%TO.P,U1,56,GND*%
X149950000Y-82900000D03*
%TO.P,U1,57,GND*%
X149100000Y-82900000D03*
%TO.P,U1,58,GND*%
X148250000Y-82900000D03*
%TO.P,U1,59,GND*%
X147400000Y-82900000D03*
%TO.P,U1,60,GND*%
X146550000Y-82900000D03*
D20*
%TO.P,U1,61,GND*%
X152500000Y-89900000D03*
D21*
%TO.P,U1,61_1,GND*%
X150850000Y-88250000D03*
D20*
%TO.P,U1,61_2,GND*%
X152500000Y-88250000D03*
%TO.P,U1,61_3,GND*%
X154150000Y-88250000D03*
%TO.P,U1,61_4,GND*%
X154150000Y-89900000D03*
%TO.P,U1,61_5,GND*%
X154150000Y-91550000D03*
%TO.P,U1,61_6,GND*%
X152500000Y-91550000D03*
%TO.P,U1,61_7,GND*%
X150850000Y-91550000D03*
%TO.P,U1,61_8,GND*%
X150850000Y-89900000D03*
D22*
%TO.P,U1,62,GND*%
X145500000Y-82900000D03*
%TO.P,U1,63,GND*%
X145500000Y-96900000D03*
%TO.P,U1,64,GND*%
X159500000Y-96900000D03*
%TO.P,U1,65,GND*%
X159500000Y-82900000D03*
%TD*%
D23*
%TO.P,RESET1,1,1*%
%TO.N,GND*%
X155175000Y-108175000D03*
%TO.P,RESET1,2,2*%
X159325000Y-108175000D03*
%TO.P,RESET1,3,3*%
%TO.N,/ESP32_EN*%
X155175000Y-110325000D03*
%TO.P,RESET1,4,4*%
X159325000Y-110325000D03*
%TD*%
D24*
%TO.P,R6,1*%
%TO.N,Net-(U5-FB)*%
X149675000Y-105250000D03*
%TO.P,R6,2*%
%TO.N,/3V3*%
X151325000Y-105250000D03*
%TD*%
D13*
%TO.P,R1,1*%
%TO.N,Net-(J1-CC2)*%
X159000000Y-117175000D03*
%TO.P,R1,2*%
%TO.N,GND*%
X159000000Y-118825000D03*
%TD*%
%TO.P,R11,1*%
%TO.N,/I2C_SCL*%
X149500000Y-99425000D03*
%TO.P,R11,2*%
%TO.N,/3V3*%
X149500000Y-101075000D03*
%TD*%
D25*
%TO.P,U2,1*%
%TO.N,/USB_P*%
X152750000Y-111225000D03*
%TO.P,U2,2*%
%TO.N,/USB_N*%
X152250000Y-111225000D03*
D26*
%TO.P,U2,3,VSS*%
%TO.N,GND*%
X151750000Y-111262500D03*
D25*
%TO.P,U2,4*%
%TO.N,/5V_USB*%
X151250000Y-111225000D03*
%TO.P,U2,5*%
%TO.N,unconnected-(U2-Pad5)*%
X150750000Y-111225000D03*
%TO.P,U2,6,NC*%
%TO.N,unconnected-(U2-NC-Pad6)*%
X150750000Y-112000000D03*
%TO.P,U2,7,NC*%
%TO.N,/5V_USB*%
X151250000Y-112000000D03*
D27*
%TO.P,U2,8,VSS*%
%TO.N,GND*%
X151750000Y-112025000D03*
D25*
%TO.P,U2,9,NC*%
%TO.N,/USB_N*%
X152250000Y-112000000D03*
%TO.P,U2,10,NC*%
%TO.N,/USB_P*%
X152750000Y-112000000D03*
%TD*%
D13*
%TO.P,R2,1*%
%TO.N,Net-(J1-CC1)*%
X146000000Y-117175000D03*
%TO.P,R2,2*%
%TO.N,GND*%
X146000000Y-118825000D03*
%TD*%
D14*
%TO.P,C7,1*%
%TO.N,/GPIO1*%
X143500000Y-95225000D03*
%TO.P,C7,2*%
%TO.N,Net-(D1-K)*%
X143500000Y-96775000D03*
%TD*%
D28*
%TO.P,D1,1,K*%
%TO.N,Net-(D1-K)*%
X142750000Y-98600000D03*
%TO.P,D1,2,A*%
%TO.N,GND*%
X142750000Y-101900000D03*
%TD*%
D14*
%TO.P,C3,1*%
%TO.N,/ESP32_EN*%
X159000000Y-113225000D03*
%TO.P,C3,2*%
%TO.N,GND*%
X159000000Y-114775000D03*
%TD*%
D24*
%TO.P,R8,1*%
%TO.N,/GPIO2*%
X155175000Y-101000000D03*
%TO.P,R8,2*%
%TO.N,Net-(D3-A)*%
X156825000Y-101000000D03*
%TD*%
D13*
%TO.P,R3,1*%
%TO.N,/ESP32_EN*%
X160750000Y-113175000D03*
%TO.P,R3,2*%
%TO.N,/3V3*%
X160750000Y-114825000D03*
%TD*%
D16*
%TO.P,D6,1,K*%
%TO.N,Net-(D6-K)*%
X145400000Y-106150000D03*
%TO.P,D6,2,A*%
%TO.N,/12V_P*%
X145400000Y-102850000D03*
%TD*%
D13*
%TO.P,R5,1*%
%TO.N,Net-(GPIO1-Pad1)*%
X141750000Y-92675000D03*
%TO.P,R5,2*%
%TO.N,/GPIO1*%
X141750000Y-94325000D03*
%TD*%
D15*
%TO.P,GND2,1,1*%
%TO.N,GND*%
X162750000Y-93250000D03*
%TD*%
%TO.P,SCL1,1,1*%
%TO.N,/I2C_SCL*%
X162750000Y-87250000D03*
%TD*%
D13*
%TO.P,R10,1*%
%TO.N,/I2C_SDA*%
X151250000Y-99425000D03*
%TO.P,R10,2*%
%TO.N,/3V3*%
X151250000Y-101075000D03*
%TD*%
D29*
%TO.P,D3,1,K*%
%TO.N,GND*%
X155212500Y-99250000D03*
%TO.P,D3,2,A*%
%TO.N,Net-(D3-A)*%
X156787500Y-99250000D03*
%TD*%
D14*
%TO.P,C10,1*%
%TO.N,Net-(D4-A)*%
X145750000Y-113725000D03*
%TO.P,C10,2*%
%TO.N,GND*%
X145750000Y-115275000D03*
%TD*%
D15*
%TO.P,3V3,1,1*%
%TO.N,/3V3*%
X162750000Y-84250000D03*
%TD*%
D13*
%TO.P,R9,1*%
%TO.N,GND*%
X143500000Y-91925000D03*
%TO.P,R9,2*%
%TO.N,/GPIO1*%
X143500000Y-93575000D03*
%TD*%
D30*
%TO.P,C4,1*%
%TO.N,/GPIO0*%
X156475000Y-102750000D03*
%TO.P,C4,2*%
%TO.N,GND*%
X158025000Y-102750000D03*
%TD*%
D23*
%TO.P,BOOT1,1,1*%
%TO.N,GND*%
X155175000Y-104175000D03*
%TO.P,BOOT1,2,2*%
X159325000Y-104175000D03*
%TO.P,BOOT1,3,3*%
%TO.N,/GPIO0*%
X155175000Y-106325000D03*
%TO.P,BOOT1,4,4*%
X159325000Y-106325000D03*
%TD*%
D15*
%TO.P,GPIO1,1,1*%
%TO.N,Net-(GPIO1-Pad1)*%
X142250000Y-90250000D03*
%TD*%
D31*
%TO.P,PS1,1,PGND*%
%TO.N,GND*%
X145400000Y-107799999D03*
%TO.P,PS1,2,VIN*%
%TO.N,Net-(D6-K)*%
X144900001Y-107799999D03*
%TO.P,PS1,3,EN*%
X144399999Y-107799999D03*
%TO.P,PS1,4,AGND*%
%TO.N,GND*%
X143900001Y-107799999D03*
%TO.P,PS1,5,FB*%
X143900001Y-109700001D03*
%TO.P,PS1,6,VOS*%
%TO.N,Net-(D4-A)*%
X144399999Y-109700001D03*
%TO.P,PS1,7,SW*%
%TO.N,Net-(PS1-SW)*%
X144900001Y-109700001D03*
%TO.P,PS1,8,PG*%
%TO.N,Net-(PS1-PG)*%
X145400000Y-109700001D03*
D32*
%TO.P,PS1,9,EXP*%
%TO.N,GND*%
X144650002Y-108750000D03*
D33*
%TO.P,PS1,V*%
%TO.N,N/C*%
X145049998Y-108750000D03*
X144250000Y-108750000D03*
%TD*%
D15*
%TO.P,12VP1,1,1*%
%TO.N,/12V_P*%
X142250000Y-84250000D03*
%TD*%
D17*
%TO.P,C1,1*%
%TO.N,/3V3*%
X147775000Y-99500000D03*
%TO.P,C1,2*%
%TO.N,GND*%
X146225000Y-99500000D03*
%TD*%
D34*
%TO.P,J1,A1,GND*%
%TO.N,GND*%
X149300000Y-114570000D03*
%TO.P,J1,A4,VBUS*%
%TO.N,/5V_USB*%
X150100000Y-114570000D03*
D35*
%TO.P,J1,A5,CC1*%
%TO.N,Net-(J1-CC1)*%
X151250000Y-114570000D03*
%TO.P,J1,A6,D+*%
%TO.N,/USB_P*%
X152250000Y-114570000D03*
%TO.P,J1,A7,D-*%
%TO.N,/USB_N*%
X152750000Y-114570000D03*
%TO.P,J1,A8,SBU1*%
%TO.N,unconnected-(J1-SBU1-PadA8)*%
X153750000Y-114570000D03*
D34*
%TO.P,J1,A9,VBUS*%
%TO.N,/5V_USB*%
X154900000Y-114570000D03*
%TO.P,J1,A12,GND*%
%TO.N,GND*%
X155700000Y-114570000D03*
%TO.P,J1,B1,GND*%
X155700000Y-114570000D03*
%TO.P,J1,B4,VBUS*%
%TO.N,/5V_USB*%
X154900000Y-114570000D03*
D35*
%TO.P,J1,B5,CC2*%
%TO.N,Net-(J1-CC2)*%
X154250000Y-114570000D03*
%TO.P,J1,B6,D+*%
%TO.N,/USB_P*%
X153250000Y-114570000D03*
%TO.P,J1,B7,D-*%
%TO.N,/USB_N*%
X151750000Y-114570000D03*
%TO.P,J1,B8,SBU2*%
%TO.N,unconnected-(J1-SBU2-PadB8)*%
X150750000Y-114570000D03*
D34*
%TO.P,J1,B9,VBUS*%
%TO.N,/5V_USB*%
X150100000Y-114570000D03*
%TO.P,J1,B12,GND*%
%TO.N,GND*%
X149300000Y-114570000D03*
D36*
%TO.P,J1,S1,SHIELD*%
X148180000Y-115145000D03*
D37*
X148180000Y-119325000D03*
D36*
X156820000Y-115145000D03*
D37*
X156820000Y-119325000D03*
%TD*%
D38*
%TO.P,C9,1*%
%TO.N,Net-(D6-K)*%
X143000000Y-106275000D03*
%TO.P,C9,2*%
%TO.N,GND*%
X143000000Y-104725000D03*
%TD*%
D39*
%TO.P,L2,1*%
%TO.N,Net-(PS1-SW)*%
X145677100Y-111500000D03*
%TO.P,L2,2*%
%TO.N,Net-(D4-A)*%
X143822900Y-111500000D03*
%TD*%
D40*
%TO.P,U5,1,OUT*%
%TO.N,/3V3*%
X149900000Y-106862500D03*
%TO.P,U5,2,FB*%
%TO.N,Net-(U5-FB)*%
X149250000Y-106862500D03*
%TO.P,U5,3,GND*%
%TO.N,GND*%
X148600000Y-106862500D03*
%TO.P,U5,4,EN*%
%TO.N,/5V_USB*%
X148600000Y-108637500D03*
%TO.P,U5,5,DNC*%
%TO.N,unconnected-(U5-DNC-Pad5)*%
X149250000Y-108637500D03*
%TO.P,U5,6,IN*%
%TO.N,/5V_USB*%
X149900000Y-108637500D03*
D41*
%TO.P,U5,7,GND*%
%TO.N,GND*%
X149250000Y-107750000D03*
%TD*%
D42*
%TO.N,/GPIO2*%
X154099265Y-100150735D03*
X150750000Y-94750000D03*
%TO.N,GND*%
X146750000Y-94750000D03*
X155100000Y-107500000D03*
X156250000Y-84000000D03*
X153250000Y-94750000D03*
X157250000Y-94750000D03*
X161350000Y-93250000D03*
X150750000Y-87100000D03*
X153250000Y-90750000D03*
X155250000Y-90750000D03*
X157250000Y-85000000D03*
X158250000Y-84000000D03*
X153000000Y-87100000D03*
X154400000Y-99250000D03*
X149750000Y-84000000D03*
X156250000Y-88000000D03*
X149300000Y-113600000D03*
X149700000Y-102700000D03*
X155250000Y-87100000D03*
X155250000Y-89250000D03*
X156250000Y-86500000D03*
X149750000Y-86500000D03*
X153000000Y-85000000D03*
X158250000Y-90000000D03*
X158250000Y-93750000D03*
X155700000Y-113600000D03*
X146200000Y-98700000D03*
X156250000Y-95750000D03*
X148750000Y-85000000D03*
X146000000Y-107750000D03*
X149750000Y-95750000D03*
X149200000Y-112800000D03*
X146750000Y-92750000D03*
X155250000Y-92750000D03*
X147750000Y-95750000D03*
X155250000Y-85000000D03*
X142750000Y-103900000D03*
X151750000Y-93750000D03*
X146750000Y-85000000D03*
X146236936Y-102062573D03*
X158936593Y-115563407D03*
X157250000Y-87100000D03*
X151500000Y-110000000D03*
X147750000Y-91750000D03*
X141750000Y-102000000D03*
X147200000Y-103750000D03*
X151750000Y-89000000D03*
X157250000Y-90750000D03*
X147750000Y-84000000D03*
X159000000Y-119750000D03*
X150750000Y-92750000D03*
X143250000Y-109750000D03*
X154250000Y-84000000D03*
X151750000Y-84000000D03*
X143750000Y-87250000D03*
X159125000Y-103125000D03*
X145750000Y-116250000D03*
X147750000Y-89750000D03*
X158250000Y-95750000D03*
X147612500Y-106862500D03*
X146000000Y-119750000D03*
X151750000Y-90750000D03*
X153250000Y-89000000D03*
X150750000Y-85000000D03*
X147750000Y-93750000D03*
X154250000Y-86500000D03*
X149750000Y-93750000D03*
X146750000Y-89250000D03*
X149750000Y-88000000D03*
X143250000Y-107750000D03*
X152250000Y-86500000D03*
X143900000Y-91200000D03*
X149750000Y-91750000D03*
X146750000Y-90750000D03*
X156250000Y-91750000D03*
%TO.N,/GPIO0*%
X155000000Y-102500000D03*
X149150000Y-89375000D03*
%TO.N,/USB_P*%
X152100000Y-116000000D03*
X153500000Y-117000000D03*
%TO.N,/3V3*%
X147488068Y-85750000D03*
X151500000Y-102250000D03*
X160250000Y-116000000D03*
X148250000Y-98200000D03*
X161350000Y-84250000D03*
%TO.N,/12V_P*%
X145125000Y-100875000D03*
X143750000Y-84750000D03*
%TO.N,/GPIO1*%
X143500000Y-89000000D03*
X141750000Y-95250000D03*
%TO.N,/I2C_SDA*%
X152000000Y-95750000D03*
X161350000Y-90250000D03*
%TO.N,/I2C_SCL*%
X161350000Y-87250000D03*
X152250000Y-94750000D03*
%TO.N,/5V_USB*%
X149231018Y-109325000D03*
X141500000Y-117000000D03*
X150250000Y-113000000D03*
X154750000Y-113000000D03*
X151250000Y-113000000D03*
%TD*%
D43*
%TO.N,/GPIO2*%
X154948530Y-101000000D02*
X155175000Y-101000000D01*
X154099265Y-100150735D02*
X154948530Y-101000000D01*
X147048529Y-88200000D02*
X145500000Y-88200000D01*
X148500000Y-93750000D02*
X148500000Y-89651471D01*
X149250000Y-94500000D02*
X148500000Y-93750000D01*
X150500000Y-94500000D02*
X149250000Y-94500000D01*
X148500000Y-89651471D02*
X147048529Y-88200000D01*
X150750000Y-94750000D02*
X150500000Y-94500000D01*
D44*
%TO.N,GND*%
X145449999Y-107750000D02*
X145400000Y-107799999D01*
X146000000Y-107750000D02*
X145449999Y-107750000D01*
D43*
X146200000Y-98700000D02*
X146225000Y-98725000D01*
X159325000Y-108175000D02*
X155175000Y-108175000D01*
X159325000Y-103325000D02*
X159325000Y-104175000D01*
X141750000Y-102000000D02*
X141850000Y-101900000D01*
X149300000Y-113600000D02*
X149300000Y-114570000D01*
X158750000Y-102750000D02*
X158025000Y-102750000D01*
X159000000Y-114775000D02*
X159000000Y-115500000D01*
D44*
X142750000Y-103900000D02*
X143000000Y-104150000D01*
D43*
X147925000Y-103750000D02*
X148000000Y-103675000D01*
D44*
X143250000Y-109750000D02*
X143850002Y-109750000D01*
D43*
X155100000Y-107500000D02*
X155100000Y-108100000D01*
X149725000Y-102725000D02*
X149725000Y-103500000D01*
D44*
X143850002Y-107750000D02*
X143899999Y-107799997D01*
X149250000Y-107750000D02*
X148600000Y-107100000D01*
X148600000Y-107100000D02*
X148600000Y-106862500D01*
D43*
X159000000Y-119750000D02*
X159000000Y-118825000D01*
X143500000Y-91600000D02*
X143500000Y-91925000D01*
X155175000Y-104175000D02*
X159325000Y-104175000D01*
X159000000Y-115500000D02*
X158936593Y-115563407D01*
X143900000Y-91200000D02*
X143500000Y-91600000D01*
X154400000Y-99250000D02*
X155212500Y-99250000D01*
X155700000Y-113600000D02*
X155700000Y-114570000D01*
X151750000Y-112025000D02*
X151750000Y-111262500D01*
X151750000Y-110250000D02*
X151750000Y-111262500D01*
X146236936Y-102062573D02*
X146225000Y-102050637D01*
D44*
X149200000Y-112800000D02*
X149200000Y-112075000D01*
D43*
X146000000Y-119750000D02*
X146000000Y-118825000D01*
X159125000Y-103125000D02*
X158750000Y-102750000D01*
X146225000Y-98725000D02*
X146225000Y-99500000D01*
D44*
X149200000Y-112075000D02*
X149250000Y-112025000D01*
X143000000Y-104150000D02*
X143000000Y-104725000D01*
D43*
X143750000Y-87250000D02*
X142250000Y-87250000D01*
X145750000Y-116250000D02*
X145750000Y-115275000D01*
X155100000Y-108100000D02*
X155175000Y-108175000D01*
X159125000Y-103125000D02*
X159325000Y-103325000D01*
D44*
X143850002Y-109750000D02*
X143899999Y-109700003D01*
D43*
X146225000Y-102050637D02*
X146225000Y-101250000D01*
D44*
X143250000Y-107750000D02*
X143850002Y-107750000D01*
D43*
X141850000Y-101900000D02*
X142750000Y-101900000D01*
X162750000Y-93250000D02*
X161350000Y-93250000D01*
D44*
X147612500Y-106862500D02*
X148600000Y-106862500D01*
D43*
X149700000Y-102700000D02*
X149725000Y-102725000D01*
X147200000Y-103750000D02*
X147925000Y-103750000D01*
X151500000Y-110000000D02*
X151750000Y-110250000D01*
%TO.N,/ESP32_EN*%
X159000000Y-113225000D02*
X160700000Y-113225000D01*
X160700000Y-113225000D02*
X160750000Y-113175000D01*
X160200000Y-83950000D02*
X159500000Y-83950000D01*
X160750000Y-84500000D02*
X160200000Y-83950000D01*
X160750000Y-109400000D02*
X160750000Y-84500000D01*
X155175000Y-110325000D02*
X156100000Y-110325000D01*
X159825000Y-110325000D02*
X160750000Y-109400000D01*
X155175000Y-110325000D02*
X159325000Y-110325000D01*
X156100000Y-110325000D02*
X159000000Y-113225000D01*
X159325000Y-110325000D02*
X159825000Y-110325000D01*
%TO.N,/GPIO0*%
X155175000Y-106325000D02*
X159325000Y-106325000D01*
X155175000Y-106325000D02*
X154075000Y-106325000D01*
X155000000Y-102500000D02*
X155250000Y-102750000D01*
X154000000Y-103500000D02*
X155000000Y-102500000D01*
X149150000Y-89375000D02*
X149125000Y-89375000D01*
X149125000Y-89375000D02*
X146250000Y-86500000D01*
X146250000Y-86500000D02*
X145500000Y-86500000D01*
X154000000Y-106250000D02*
X154000000Y-103500000D01*
X155250000Y-102750000D02*
X156475000Y-102750000D01*
X154075000Y-106325000D02*
X154000000Y-106250000D01*
D45*
%TO.N,/USB_P*%
X152750000Y-112000000D02*
X152750000Y-111225000D01*
D46*
X153350000Y-96900000D02*
X153350000Y-97500001D01*
X153157600Y-97692401D02*
X153157600Y-109842400D01*
D47*
X153500000Y-117000000D02*
X153750000Y-116750000D01*
X152695000Y-112055000D02*
X152695000Y-113440001D01*
X153750000Y-116750000D02*
X153750000Y-115677410D01*
X152695000Y-113440001D02*
X152754999Y-113500000D01*
X153250000Y-114570000D02*
X153250000Y-113995001D01*
D46*
X152750000Y-111225000D02*
X152750000Y-110250000D01*
X153157600Y-109842400D02*
X152750000Y-110250000D01*
D47*
X153721718Y-115677410D02*
X153750000Y-115677410D01*
X152250000Y-115850000D02*
X152250000Y-114570000D01*
X153250000Y-115205692D02*
X153721718Y-115677410D01*
X152695000Y-112055000D02*
X152750000Y-112000000D01*
X153250000Y-113995001D02*
X152754999Y-113500000D01*
D46*
X153350000Y-97500001D02*
X153157600Y-97692401D01*
D47*
X152100000Y-116000000D02*
X152250000Y-115850000D01*
X153250000Y-114570000D02*
X153250000Y-115205692D01*
D44*
%TO.N,/3V3*%
X151500000Y-101325000D02*
X151250000Y-101075000D01*
D43*
X149900000Y-106862500D02*
X149962500Y-106862500D01*
D44*
X161350000Y-84250000D02*
X162750000Y-84250000D01*
X151500000Y-102250000D02*
X151500000Y-101325000D01*
D43*
X151500000Y-103475000D02*
X151475000Y-103500000D01*
D44*
X151325000Y-105500000D02*
X151325000Y-105250000D01*
X147388068Y-85650000D02*
X145500000Y-85650000D01*
D43*
X160750000Y-115500000D02*
X160750000Y-114825000D01*
D44*
X147488068Y-85750000D02*
X147388068Y-85650000D01*
X151275000Y-105200000D02*
X151325000Y-105250000D01*
X147775000Y-98675000D02*
X147775000Y-99500000D01*
X148250000Y-98200000D02*
X147775000Y-98675000D01*
X149325000Y-101250000D02*
X149500000Y-101075000D01*
X149962500Y-106862500D02*
X151325000Y-105500000D01*
X147775000Y-101250000D02*
X149325000Y-101250000D01*
X151275000Y-103500000D02*
X151275000Y-105200000D01*
D43*
X151475000Y-103500000D02*
X151275000Y-103500000D01*
X160250000Y-116000000D02*
X160750000Y-115500000D01*
D44*
X147775000Y-99500000D02*
X147775000Y-101250000D01*
X151250000Y-101075000D02*
X149500000Y-101075000D01*
X151500000Y-102250000D02*
X151500000Y-103475000D01*
%TO.N,/12V_P*%
X143250000Y-84250000D02*
X142250000Y-84250000D01*
X145250000Y-101000000D02*
X145250000Y-102700000D01*
X145250000Y-102700000D02*
X145400000Y-102850000D01*
X145125000Y-100875000D02*
X145250000Y-101000000D01*
X143750000Y-84750000D02*
X143250000Y-84250000D01*
D43*
%TO.N,Net-(D3-A)*%
X156787500Y-99250000D02*
X156787500Y-100962500D01*
X156787500Y-100962500D02*
X156825000Y-101000000D01*
%TO.N,/GPIO1*%
X143075000Y-94000000D02*
X143500000Y-93575000D01*
X143500000Y-89000000D02*
X145150000Y-87350000D01*
X142075000Y-94000000D02*
X143075000Y-94000000D01*
X141750000Y-94325000D02*
X142075000Y-94000000D01*
X141750000Y-95250000D02*
X141750000Y-94325000D01*
X145150000Y-87350000D02*
X145500000Y-87350000D01*
X143500000Y-95225000D02*
X143500000Y-93575000D01*
%TO.N,/I2C_SDA*%
X151250000Y-99425000D02*
X151250000Y-98100000D01*
X151250000Y-98100000D02*
X151650000Y-97700000D01*
X152000000Y-95750000D02*
X151650000Y-96100000D01*
X151650000Y-96100000D02*
X151650000Y-96900000D01*
X151650000Y-97700000D02*
X151650000Y-96900000D01*
X161350000Y-90250000D02*
X162750000Y-90250000D01*
%TO.N,/I2C_SCL*%
X152151471Y-94750000D02*
X150800000Y-96101471D01*
X152250000Y-94750000D02*
X152151471Y-94750000D01*
X150800000Y-98125000D02*
X150800000Y-96900000D01*
X150800000Y-96101471D02*
X150800000Y-96900000D01*
X149500000Y-99425000D02*
X150800000Y-98125000D01*
X161350000Y-87250000D02*
X162750000Y-87250000D01*
%TO.N,Net-(U5-FB)*%
X149675000Y-105825000D02*
X149250000Y-106250000D01*
X149675000Y-105250000D02*
X149675000Y-105825000D01*
X149250000Y-106250000D02*
X149250000Y-106862500D01*
X148000000Y-105325000D02*
X148325000Y-105325000D01*
X148325000Y-105325000D02*
X149250000Y-106250000D01*
D47*
%TO.N,/USB_N*%
X151750000Y-117000000D02*
X152750000Y-117000000D01*
D45*
X152250000Y-112000000D02*
X152250000Y-111225000D01*
D47*
X151750000Y-115500000D02*
X151530000Y-115720000D01*
X151750000Y-114570000D02*
X151750000Y-113995001D01*
X151750000Y-113995001D02*
X152245001Y-113500000D01*
X151530000Y-116780000D02*
X151750000Y-117000000D01*
X152305000Y-112536494D02*
X152305000Y-113440001D01*
D46*
X152500000Y-97500001D02*
X152692400Y-97692401D01*
X152692400Y-109629577D02*
X152250000Y-110071977D01*
D47*
X152305000Y-113440001D02*
X152245001Y-113500000D01*
D46*
X152692400Y-97692401D02*
X152692400Y-109629577D01*
D47*
X152305000Y-112536494D02*
X152295000Y-112526494D01*
X152295000Y-112526494D02*
X152295000Y-112000000D01*
X151750000Y-114570000D02*
X151750000Y-115500000D01*
X152750000Y-117000000D02*
X152750000Y-114570000D01*
D46*
X152250000Y-110071977D02*
X152250000Y-111225000D01*
X152500000Y-96900000D02*
X152500000Y-97500001D01*
D47*
X151530000Y-115720000D02*
X151530000Y-116780000D01*
D43*
%TO.N,Net-(J1-CC2)*%
X158825000Y-117000000D02*
X155861117Y-117000000D01*
X154250000Y-115388883D02*
X154250000Y-114570000D01*
X159000000Y-117175000D02*
X158825000Y-117000000D01*
X155861117Y-117000000D02*
X154250000Y-115388883D01*
%TO.N,Net-(J1-CC1)*%
X151250000Y-115277410D02*
X151250000Y-114570000D01*
X149527410Y-117000000D02*
X151250000Y-115277410D01*
X146175000Y-117000000D02*
X149527410Y-117000000D01*
X146000000Y-117175000D02*
X146175000Y-117000000D01*
D44*
%TO.N,/5V_USB*%
X149399999Y-109325000D02*
X149231018Y-109325000D01*
D43*
X149250000Y-109343982D02*
X149231018Y-109325000D01*
D44*
X149250000Y-110475000D02*
X149250000Y-109343982D01*
X148600000Y-108637500D02*
X148600000Y-108824999D01*
X150100000Y-113150000D02*
X150100000Y-114570000D01*
X149900000Y-108824999D02*
X149399999Y-109325000D01*
D45*
X151250000Y-112000000D02*
X151250000Y-111225000D01*
D44*
X149900000Y-108637500D02*
X149900000Y-108824999D01*
X154900000Y-113150000D02*
X154900000Y-114570000D01*
X143350000Y-117000000D02*
X143500000Y-117150000D01*
X148600000Y-108824999D02*
X149100001Y-109325000D01*
D45*
X151250000Y-112000000D02*
X151250000Y-113000000D01*
D43*
X149100001Y-109325000D02*
X149231018Y-109325000D01*
D45*
X151250000Y-111225000D02*
X151250000Y-110737500D01*
D44*
X149837500Y-109325000D02*
X149231018Y-109325000D01*
X150250000Y-113000000D02*
X150100000Y-113150000D01*
X151250000Y-110737500D02*
X149837500Y-109325000D01*
X154750000Y-113000000D02*
X154900000Y-113150000D01*
X141500000Y-117000000D02*
X143350000Y-117000000D01*
%TO.N,Net-(D6-K)*%
X144900001Y-106649999D02*
X145400000Y-106150000D01*
X143000000Y-106275000D02*
X145487500Y-106275000D01*
X144900001Y-107799999D02*
X144900001Y-106649999D01*
X144900001Y-107799999D02*
X144399999Y-107799999D01*
%TO.N,Net-(D4-A)*%
X144399999Y-110325003D02*
X144399999Y-109700001D01*
D43*
X145750000Y-113725000D02*
X143625000Y-113725000D01*
X145850000Y-113725000D02*
X145750000Y-113725000D01*
D44*
X143822900Y-111500000D02*
X143822900Y-110902102D01*
X143822900Y-111500000D02*
X143500000Y-111822900D01*
D43*
X143822900Y-111500000D02*
X143822900Y-111025629D01*
X143625000Y-113725000D02*
X143500000Y-113850000D01*
D44*
X143500000Y-111822900D02*
X143500000Y-113850000D01*
D43*
X147500000Y-112075000D02*
X145850000Y-113725000D01*
D44*
X143822900Y-110902102D02*
X144399999Y-110325003D01*
X143750000Y-112212500D02*
X144212500Y-111750000D01*
%TO.N,Net-(PS1-SW)*%
X144900001Y-109700001D02*
X144900001Y-110244069D01*
D43*
X145677100Y-111500000D02*
X145677100Y-110677099D01*
D44*
X145677100Y-111021168D02*
X145677100Y-111500000D01*
X144900001Y-110244069D02*
X145677100Y-111021168D01*
D43*
%TO.N,Net-(PS1-PG)*%
X145400000Y-109700001D02*
X145400000Y-109900000D01*
X145400000Y-109900000D02*
X145750000Y-110250000D01*
X145750000Y-110250000D02*
X147325000Y-110250000D01*
X147325000Y-110250000D02*
X147500000Y-110425000D01*
%TO.N,Net-(D1-K)*%
X142750000Y-98600000D02*
X143500000Y-97850000D01*
X143500000Y-97850000D02*
X143500000Y-96775000D01*
%TO.N,Net-(GPIO1-Pad1)*%
X141750000Y-92675000D02*
X141750000Y-90750000D01*
X141750000Y-90750000D02*
X142250000Y-90250000D01*
%TD*%
%TA.AperFunction,Conductor*%
%TO.N,GND*%
G36*
X153971784Y-106919027D02*
G01*
X153995943Y-106925501D01*
X153995945Y-106925501D01*
X154161653Y-106925501D01*
X154161669Y-106925500D01*
X154168965Y-106925500D01*
X154236004Y-106945185D01*
X154268232Y-106975190D01*
X154292449Y-107007541D01*
X154292452Y-107007544D01*
X154292454Y-107007546D01*
X154292457Y-107007548D01*
X154407664Y-107093793D01*
X154407671Y-107093797D01*
X154542517Y-107144091D01*
X154542516Y-107144091D01*
X154549444Y-107144835D01*
X154602127Y-107150500D01*
X155747872Y-107150499D01*
X155807483Y-107144091D01*
X155942331Y-107093796D01*
X156057546Y-107007546D01*
X156081768Y-106975190D01*
X156137701Y-106933318D01*
X156181035Y-106925500D01*
X158318965Y-106925500D01*
X158386004Y-106945185D01*
X158418232Y-106975190D01*
X158442449Y-107007541D01*
X158442452Y-107007544D01*
X158442454Y-107007546D01*
X158442457Y-107007548D01*
X158557664Y-107093793D01*
X158557671Y-107093797D01*
X158692517Y-107144091D01*
X158692516Y-107144091D01*
X158699444Y-107144835D01*
X158752127Y-107150500D01*
X159897872Y-107150499D01*
X159957483Y-107144091D01*
X159982165Y-107134884D01*
X160051856Y-107129899D01*
X160113180Y-107163384D01*
X160146666Y-107224706D01*
X160149500Y-107251066D01*
X160149500Y-109099902D01*
X160129815Y-109166941D01*
X160113181Y-109187583D01*
X159837582Y-109463181D01*
X159776259Y-109496666D01*
X159749901Y-109499500D01*
X158752129Y-109499500D01*
X158752123Y-109499501D01*
X158692516Y-109505908D01*
X158557671Y-109556202D01*
X158557664Y-109556206D01*
X158442457Y-109642451D01*
X158442449Y-109642458D01*
X158418232Y-109674810D01*
X158362299Y-109716682D01*
X158318965Y-109724500D01*
X156186669Y-109724500D01*
X156186653Y-109724499D01*
X156181034Y-109724499D01*
X156179521Y-109724054D01*
X156171289Y-109723542D01*
X156171281Y-109723541D01*
X156171510Y-109721702D01*
X156113995Y-109704814D01*
X156081769Y-109674812D01*
X156057546Y-109642454D01*
X156020791Y-109614939D01*
X155942335Y-109556206D01*
X155942328Y-109556202D01*
X155807482Y-109505908D01*
X155807483Y-109505908D01*
X155747883Y-109499501D01*
X155747881Y-109499500D01*
X155747873Y-109499500D01*
X155747864Y-109499500D01*
X154602129Y-109499500D01*
X154602123Y-109499501D01*
X154542516Y-109505908D01*
X154407671Y-109556202D01*
X154407664Y-109556206D01*
X154292455Y-109642452D01*
X154292452Y-109642455D01*
X154206206Y-109757664D01*
X154206202Y-109757671D01*
X154155910Y-109892513D01*
X154155909Y-109892517D01*
X154149500Y-109952127D01*
X154149500Y-109952134D01*
X154149500Y-109952135D01*
X154149500Y-110697870D01*
X154149501Y-110697876D01*
X154155908Y-110757483D01*
X154206202Y-110892328D01*
X154206206Y-110892335D01*
X154292452Y-111007544D01*
X154292455Y-111007547D01*
X154407664Y-111093793D01*
X154407671Y-111093797D01*
X154542517Y-111144091D01*
X154542516Y-111144091D01*
X154549444Y-111144835D01*
X154602127Y-111150500D01*
X155747872Y-111150499D01*
X155807483Y-111144091D01*
X155923917Y-111100663D01*
X155993605Y-111095679D01*
X156054928Y-111129163D01*
X157988181Y-113062416D01*
X158021666Y-113123739D01*
X158024500Y-113150097D01*
X158024500Y-113498337D01*
X158024501Y-113498355D01*
X158034650Y-113597707D01*
X158034651Y-113597710D01*
X158087996Y-113758694D01*
X158088001Y-113758705D01*
X158177029Y-113903040D01*
X158177032Y-113903044D01*
X158296955Y-114022967D01*
X158296959Y-114022970D01*
X158441294Y-114111998D01*
X158441297Y-114111999D01*
X158441303Y-114112003D01*
X158602292Y-114165349D01*
X158701655Y-114175500D01*
X159298344Y-114175499D01*
X159298352Y-114175498D01*
X159298355Y-114175498D01*
X159352760Y-114169940D01*
X159397708Y-114165349D01*
X159558697Y-114112003D01*
X159703044Y-114022968D01*
X159822968Y-113903044D01*
X159822968Y-113903043D01*
X159828075Y-113897937D01*
X159829857Y-113899719D01*
X159877177Y-113866195D01*
X159946976Y-113863038D01*
X160005131Y-113895788D01*
X160021660Y-113912317D01*
X160055145Y-113973637D01*
X160050163Y-114043329D01*
X160021662Y-114087680D01*
X159919529Y-114189813D01*
X159831522Y-114335393D01*
X159780913Y-114497807D01*
X159778627Y-114522967D01*
X159774500Y-114568384D01*
X159774500Y-115081616D01*
X159780914Y-115152196D01*
X159803443Y-115224495D01*
X159803896Y-115225948D01*
X159805046Y-115295808D01*
X159768245Y-115355200D01*
X159751491Y-115367825D01*
X159747743Y-115370180D01*
X159747735Y-115370186D01*
X159620184Y-115497737D01*
X159524211Y-115650476D01*
X159464631Y-115820745D01*
X159464630Y-115820750D01*
X159444435Y-115999996D01*
X159444435Y-116000004D01*
X159459838Y-116136716D01*
X159447783Y-116205538D01*
X159400434Y-116256917D01*
X159334426Y-116274123D01*
X159334426Y-116274500D01*
X159332981Y-116274500D01*
X159332824Y-116274541D01*
X159331738Y-116274500D01*
X159331616Y-116274500D01*
X158668384Y-116274500D01*
X158649145Y-116276248D01*
X158597807Y-116280913D01*
X158435393Y-116331522D01*
X158352527Y-116381617D01*
X158288377Y-116399500D01*
X157783947Y-116399500D01*
X157716908Y-116379815D01*
X157671153Y-116327011D01*
X157661209Y-116257853D01*
X157680845Y-116206609D01*
X157706185Y-116168684D01*
X157706192Y-116168671D01*
X157781569Y-115986693D01*
X157781572Y-115986681D01*
X157819999Y-115793495D01*
X157820000Y-115793492D01*
X157820000Y-115395000D01*
X157120000Y-115395000D01*
X157120000Y-114895000D01*
X157820000Y-114895000D01*
X157820000Y-114496508D01*
X157819999Y-114496504D01*
X157781572Y-114303318D01*
X157781569Y-114303306D01*
X157706192Y-114121328D01*
X157706185Y-114121315D01*
X157596751Y-113957537D01*
X157596748Y-113957533D01*
X157457466Y-113818251D01*
X157457462Y-113818248D01*
X157293684Y-113708814D01*
X157293671Y-113708807D01*
X157111691Y-113633429D01*
X157111683Y-113633427D01*
X157070000Y-113625135D01*
X157070000Y-114428011D01*
X157060060Y-114410795D01*
X157004205Y-114354940D01*
X156935796Y-114315444D01*
X156859496Y-114295000D01*
X156780504Y-114295000D01*
X156704204Y-114315444D01*
X156635795Y-114354940D01*
X156579940Y-114410795D01*
X156570000Y-114428011D01*
X156570000Y-113625136D01*
X156569999Y-113625135D01*
X156528316Y-113633427D01*
X156528308Y-113633429D01*
X156346328Y-113708807D01*
X156346315Y-113708814D01*
X156182537Y-113818248D01*
X156182533Y-113818251D01*
X156043251Y-113957533D01*
X156043248Y-113957537D01*
X155933810Y-114121321D01*
X155933055Y-114122735D01*
X155932464Y-114123335D01*
X155930426Y-114126387D01*
X155929847Y-114126000D01*
X155884089Y-114172576D01*
X155815950Y-114188033D01*
X155750272Y-114164197D01*
X155707907Y-114108636D01*
X155700082Y-114074004D01*
X155697598Y-114042431D01*
X155692928Y-114026358D01*
X155651745Y-113884606D01*
X155651744Y-113884603D01*
X155651744Y-113884602D01*
X155577289Y-113758705D01*
X155567768Y-113742605D01*
X155550500Y-113679484D01*
X155550500Y-113085929D01*
X155549903Y-113079871D01*
X155550885Y-113079774D01*
X155549711Y-113051951D01*
X155555565Y-113000000D01*
X155552082Y-112969086D01*
X155535369Y-112820750D01*
X155535368Y-112820745D01*
X155515300Y-112763393D01*
X155475789Y-112650478D01*
X155379816Y-112497738D01*
X155252262Y-112370184D01*
X155201035Y-112337996D01*
X155099523Y-112274211D01*
X154929254Y-112214631D01*
X154929249Y-112214630D01*
X154750004Y-112194435D01*
X154749996Y-112194435D01*
X154570750Y-112214630D01*
X154570745Y-112214631D01*
X154400476Y-112274211D01*
X154247737Y-112370184D01*
X154120184Y-112497737D01*
X154024211Y-112650476D01*
X153964631Y-112820745D01*
X153964630Y-112820750D01*
X153944435Y-112999996D01*
X153944435Y-113000003D01*
X153964630Y-113179249D01*
X153964632Y-113179257D01*
X154018637Y-113333594D01*
X154022198Y-113403372D01*
X153987469Y-113464000D01*
X153925476Y-113496227D01*
X153885410Y-113497487D01*
X153862729Y-113494501D01*
X153862726Y-113494500D01*
X153862720Y-113494500D01*
X153678381Y-113494500D01*
X153611342Y-113474815D01*
X153590700Y-113458181D01*
X153351819Y-113219300D01*
X153318334Y-113157977D01*
X153315500Y-113131619D01*
X153315500Y-112586041D01*
X153323318Y-112542708D01*
X153347508Y-112477849D01*
X153369091Y-112419983D01*
X153375500Y-112360373D01*
X153375500Y-112005276D01*
X153375500Y-111459272D01*
X153382662Y-111423280D01*
X153381041Y-111422789D01*
X153382807Y-111416965D01*
X153382809Y-111416961D01*
X153393742Y-111361998D01*
X153408100Y-111289819D01*
X153408100Y-110573956D01*
X153427785Y-110506917D01*
X153444419Y-110486275D01*
X153668777Y-110261917D01*
X153668779Y-110261915D01*
X153740800Y-110154127D01*
X153790409Y-110034361D01*
X153815700Y-109907217D01*
X153815700Y-107038804D01*
X153835385Y-106971765D01*
X153888189Y-106926010D01*
X153957347Y-106916066D01*
X153971784Y-106919027D01*
G37*
%TD.AperFunction*%
%TA.AperFunction,Conductor*%
G36*
X160081006Y-96555986D02*
G01*
X160132143Y-96603597D01*
X160149500Y-96666869D01*
X160149500Y-105398933D01*
X160129815Y-105465972D01*
X160077011Y-105511727D01*
X160007853Y-105521671D01*
X159982168Y-105515115D01*
X159957485Y-105505909D01*
X159957483Y-105505908D01*
X159897883Y-105499501D01*
X159897881Y-105499500D01*
X159897873Y-105499500D01*
X159897864Y-105499500D01*
X158752129Y-105499500D01*
X158752123Y-105499501D01*
X158692516Y-105505908D01*
X158557671Y-105556202D01*
X158557664Y-105556206D01*
X158442457Y-105642451D01*
X158442449Y-105642458D01*
X158418232Y-105674810D01*
X158362299Y-105716682D01*
X158318965Y-105724500D01*
X156181035Y-105724500D01*
X156113996Y-105704815D01*
X156081768Y-105674810D01*
X156057550Y-105642458D01*
X156057547Y-105642455D01*
X156057546Y-105642454D01*
X156033563Y-105624500D01*
X155942335Y-105556206D01*
X155942328Y-105556202D01*
X155807482Y-105505908D01*
X155807483Y-105505908D01*
X155747883Y-105499501D01*
X155747881Y-105499500D01*
X155747873Y-105499500D01*
X155747865Y-105499500D01*
X154724500Y-105499500D01*
X154657461Y-105479815D01*
X154611706Y-105427011D01*
X154600500Y-105375500D01*
X154600500Y-103800097D01*
X154620185Y-103733058D01*
X154636819Y-103712416D01*
X154776268Y-103572967D01*
X154984506Y-103364728D01*
X155045827Y-103331245D01*
X155104278Y-103332636D01*
X155130019Y-103339534D01*
X155170942Y-103350500D01*
X155170943Y-103350500D01*
X155544575Y-103350500D01*
X155611614Y-103370185D01*
X155650113Y-103409402D01*
X155677031Y-103453043D01*
X155796955Y-103572967D01*
X155796959Y-103572970D01*
X155941294Y-103661998D01*
X155941297Y-103661999D01*
X155941303Y-103662003D01*
X156102292Y-103715349D01*
X156201655Y-103725500D01*
X156748344Y-103725499D01*
X156748352Y-103725498D01*
X156748355Y-103725498D01*
X156802760Y-103719940D01*
X156847708Y-103715349D01*
X157008697Y-103662003D01*
X157153044Y-103572968D01*
X157272968Y-103453044D01*
X157362003Y-103308697D01*
X157415349Y-103147708D01*
X157425500Y-103048345D01*
X157425499Y-102451656D01*
X157415349Y-102352292D01*
X157362003Y-102191303D01*
X157292235Y-102078193D01*
X157273795Y-102010802D01*
X157294717Y-101944139D01*
X157333620Y-101906983D01*
X157460185Y-101830472D01*
X157580472Y-101710185D01*
X157668478Y-101564606D01*
X157719086Y-101402196D01*
X157725500Y-101331616D01*
X157725500Y-100668384D01*
X157719086Y-100597804D01*
X157668478Y-100435394D01*
X157580472Y-100289815D01*
X157580470Y-100289813D01*
X157580469Y-100289811D01*
X157497846Y-100207188D01*
X157464361Y-100145865D01*
X157469345Y-100076173D01*
X157497846Y-100031826D01*
X157524857Y-100004815D01*
X157574281Y-99955391D01*
X157662549Y-99812287D01*
X157715436Y-99652685D01*
X157725500Y-99554174D01*
X157725500Y-98945826D01*
X157715436Y-98847315D01*
X157662549Y-98687713D01*
X157662545Y-98687707D01*
X157662544Y-98687704D01*
X157574283Y-98544612D01*
X157574280Y-98544608D01*
X157455391Y-98425719D01*
X157455387Y-98425716D01*
X157312295Y-98337455D01*
X157312289Y-98337452D01*
X157312287Y-98337451D01*
X157152685Y-98284564D01*
X157152683Y-98284563D01*
X157054181Y-98274500D01*
X157054174Y-98274500D01*
X156520826Y-98274500D01*
X156520818Y-98274500D01*
X156422316Y-98284563D01*
X156422315Y-98284564D01*
X156343219Y-98310773D01*
X156262715Y-98337450D01*
X156262704Y-98337455D01*
X156119612Y-98425716D01*
X156119608Y-98425719D01*
X156000719Y-98544608D01*
X156000716Y-98544612D01*
X155912455Y-98687704D01*
X155912450Y-98687715D01*
X155885773Y-98768219D01*
X155859564Y-98847315D01*
X155859564Y-98847316D01*
X155859563Y-98847316D01*
X155849500Y-98945818D01*
X155849500Y-99554181D01*
X155859563Y-99652683D01*
X155912450Y-99812284D01*
X155912455Y-99812295D01*
X156000716Y-99955387D01*
X156000719Y-99955391D01*
X156114654Y-100069326D01*
X156148139Y-100130649D01*
X156143155Y-100200341D01*
X156114654Y-100244688D01*
X156087681Y-100271661D01*
X156026358Y-100305146D01*
X155956666Y-100300162D01*
X155912319Y-100271661D01*
X155810188Y-100169530D01*
X155745871Y-100130649D01*
X155664606Y-100081522D01*
X155502196Y-100030914D01*
X155502194Y-100030913D01*
X155502192Y-100030913D01*
X155452778Y-100026423D01*
X155431616Y-100024500D01*
X154991169Y-100024500D01*
X154924130Y-100004815D01*
X154878375Y-99952011D01*
X154874128Y-99941455D01*
X154825055Y-99801215D01*
X154823247Y-99798337D01*
X154729081Y-99648473D01*
X154601527Y-99520919D01*
X154547542Y-99486998D01*
X154448788Y-99424946D01*
X154278519Y-99365366D01*
X154278514Y-99365365D01*
X154099269Y-99345170D01*
X154099261Y-99345170D01*
X153953583Y-99361583D01*
X153884761Y-99349528D01*
X153833382Y-99302179D01*
X153815700Y-99238363D01*
X153815700Y-98016357D01*
X153835385Y-97949318D01*
X153852022Y-97928673D01*
X153861175Y-97919520D01*
X153861180Y-97919515D01*
X153903882Y-97855605D01*
X153957489Y-97810804D01*
X154006976Y-97800499D01*
X154447872Y-97800499D01*
X154507483Y-97794091D01*
X154581667Y-97766421D01*
X154651358Y-97761438D01*
X154668327Y-97766420D01*
X154729010Y-97789053D01*
X154742511Y-97794089D01*
X154742517Y-97794091D01*
X154802127Y-97800500D01*
X155297872Y-97800499D01*
X155357483Y-97794091D01*
X155431667Y-97766421D01*
X155501358Y-97761438D01*
X155518327Y-97766420D01*
X155579010Y-97789053D01*
X155592511Y-97794089D01*
X155592517Y-97794091D01*
X155652127Y-97800500D01*
X156147872Y-97800499D01*
X156207483Y-97794091D01*
X156281667Y-97766421D01*
X156351358Y-97761438D01*
X156368327Y-97766420D01*
X156429010Y-97789053D01*
X156442511Y-97794089D01*
X156442517Y-97794091D01*
X156502127Y-97800500D01*
X156997872Y-97800499D01*
X157057483Y-97794091D01*
X157131667Y-97766421D01*
X157201358Y-97761438D01*
X157218327Y-97766420D01*
X157279010Y-97789053D01*
X157292511Y-97794089D01*
X157292517Y-97794091D01*
X157352127Y-97800500D01*
X157847872Y-97800499D01*
X157907483Y-97794091D01*
X157981667Y-97766421D01*
X158051358Y-97761438D01*
X158068327Y-97766420D01*
X158129010Y-97789053D01*
X158142511Y-97794089D01*
X158142517Y-97794091D01*
X158202127Y-97800500D01*
X158697872Y-97800499D01*
X158757483Y-97794091D01*
X158892331Y-97743796D01*
X159007546Y-97657546D01*
X159093796Y-97542331D01*
X159144091Y-97407483D01*
X159150500Y-97347873D01*
X159150499Y-96674498D01*
X159170183Y-96607460D01*
X159222987Y-96561705D01*
X159274499Y-96550499D01*
X159947871Y-96550499D01*
X159947872Y-96550499D01*
X160001407Y-96544744D01*
X160012247Y-96543579D01*
X160081006Y-96555986D01*
G37*
%TD.AperFunction*%
%TA.AperFunction,Conductor*%
G36*
X146815471Y-88820185D02*
G01*
X146836113Y-88836819D01*
X147863181Y-89863887D01*
X147896666Y-89925210D01*
X147899500Y-89951568D01*
X147899500Y-93663330D01*
X147899499Y-93663348D01*
X147899499Y-93829054D01*
X147899498Y-93829054D01*
X147940424Y-93981789D01*
X147940425Y-93981790D01*
X147962186Y-94019480D01*
X147962187Y-94019482D01*
X148019475Y-94118709D01*
X148019481Y-94118717D01*
X148138349Y-94237585D01*
X148138355Y-94237590D01*
X148765139Y-94864374D01*
X148765149Y-94864385D01*
X148769479Y-94868715D01*
X148769480Y-94868716D01*
X148881284Y-94980520D01*
X148956960Y-95024211D01*
X149018215Y-95059577D01*
X149170943Y-95100500D01*
X149956293Y-95100500D01*
X150023332Y-95120185D01*
X150061287Y-95158528D01*
X150120184Y-95252262D01*
X150247737Y-95379815D01*
X150247743Y-95379820D01*
X150376885Y-95460966D01*
X150423176Y-95513300D01*
X150433824Y-95582354D01*
X150405449Y-95646202D01*
X150398594Y-95653640D01*
X150319483Y-95732750D01*
X150319482Y-95732751D01*
X150319480Y-95732755D01*
X150304503Y-95758697D01*
X150281047Y-95799322D01*
X150240422Y-95869686D01*
X150240422Y-95869687D01*
X150230264Y-95907596D01*
X150193898Y-95967256D01*
X150131051Y-95997784D01*
X150110490Y-95999500D01*
X149702129Y-95999500D01*
X149702123Y-95999501D01*
X149642516Y-96005908D01*
X149568332Y-96033577D01*
X149498640Y-96038561D01*
X149481668Y-96033577D01*
X149407488Y-96005910D01*
X149407484Y-96005909D01*
X149407483Y-96005909D01*
X149347873Y-95999500D01*
X149347863Y-95999500D01*
X148852129Y-95999500D01*
X148852123Y-95999501D01*
X148792516Y-96005908D01*
X148718332Y-96033577D01*
X148648640Y-96038561D01*
X148631668Y-96033577D01*
X148557488Y-96005910D01*
X148557484Y-96005909D01*
X148557483Y-96005909D01*
X148497873Y-95999500D01*
X148497863Y-95999500D01*
X148002129Y-95999500D01*
X148002123Y-95999501D01*
X147942516Y-96005908D01*
X147868332Y-96033577D01*
X147798640Y-96038561D01*
X147781668Y-96033577D01*
X147707488Y-96005910D01*
X147707484Y-96005909D01*
X147707483Y-96005909D01*
X147647873Y-95999500D01*
X147647863Y-95999500D01*
X147152129Y-95999500D01*
X147152123Y-95999501D01*
X147092516Y-96005908D01*
X147018332Y-96033577D01*
X146948640Y-96038561D01*
X146931668Y-96033577D01*
X146857485Y-96005909D01*
X146857483Y-96005908D01*
X146797883Y-95999501D01*
X146797881Y-95999500D01*
X146797873Y-95999500D01*
X146797865Y-95999500D01*
X146524499Y-95999500D01*
X146457460Y-95979815D01*
X146411705Y-95927011D01*
X146400499Y-95875500D01*
X146400499Y-95602129D01*
X146400498Y-95602123D01*
X146400497Y-95602116D01*
X146394091Y-95542517D01*
X146366421Y-95468332D01*
X146361438Y-95398642D01*
X146366422Y-95381667D01*
X146394091Y-95307483D01*
X146400500Y-95247873D01*
X146400499Y-94752128D01*
X146394091Y-94692517D01*
X146366421Y-94618332D01*
X146361438Y-94548642D01*
X146366422Y-94531667D01*
X146394091Y-94457483D01*
X146400500Y-94397873D01*
X146400499Y-93902128D01*
X146394091Y-93842517D01*
X146366421Y-93768332D01*
X146361438Y-93698642D01*
X146366422Y-93681667D01*
X146394091Y-93607483D01*
X146400500Y-93547873D01*
X146400499Y-93052128D01*
X146394091Y-92992517D01*
X146366421Y-92918332D01*
X146361438Y-92848642D01*
X146366422Y-92831667D01*
X146394091Y-92757483D01*
X146400500Y-92697873D01*
X146400499Y-92202128D01*
X146394091Y-92142517D01*
X146366421Y-92068332D01*
X146361438Y-91998642D01*
X146366422Y-91981667D01*
X146394091Y-91907483D01*
X146400500Y-91847873D01*
X146400499Y-91352128D01*
X146394091Y-91292517D01*
X146366421Y-91218332D01*
X146361438Y-91148642D01*
X146366422Y-91131667D01*
X146394091Y-91057483D01*
X146400500Y-90997873D01*
X146400499Y-90502128D01*
X146394091Y-90442517D01*
X146366421Y-90368332D01*
X146361438Y-90298642D01*
X146366422Y-90281667D01*
X146394091Y-90207483D01*
X146400500Y-90147873D01*
X146400499Y-89652128D01*
X146394091Y-89592517D01*
X146366421Y-89518332D01*
X146361438Y-89448642D01*
X146366422Y-89431667D01*
X146394091Y-89357483D01*
X146400500Y-89297873D01*
X146400499Y-88924499D01*
X146420183Y-88857461D01*
X146472987Y-88811706D01*
X146524499Y-88800500D01*
X146748432Y-88800500D01*
X146815471Y-88820185D01*
G37*
%TD.AperFunction*%
%TA.AperFunction,Conductor*%
G36*
X144518834Y-88932913D02*
G01*
X144574767Y-88974785D01*
X144599184Y-89040249D01*
X144599500Y-89049095D01*
X144599500Y-89297869D01*
X144599501Y-89297876D01*
X144605908Y-89357483D01*
X144633577Y-89431667D01*
X144638561Y-89501358D01*
X144633577Y-89518331D01*
X144605910Y-89592511D01*
X144605909Y-89592515D01*
X144605909Y-89592517D01*
X144599500Y-89652127D01*
X144599500Y-89652134D01*
X144599500Y-89652135D01*
X144599500Y-90147870D01*
X144599501Y-90147876D01*
X144605908Y-90207483D01*
X144633577Y-90281667D01*
X144638561Y-90351358D01*
X144633577Y-90368331D01*
X144605910Y-90442511D01*
X144605909Y-90442515D01*
X144605909Y-90442517D01*
X144599500Y-90502127D01*
X144599500Y-90502134D01*
X144599500Y-90502135D01*
X144599500Y-90997870D01*
X144599501Y-90997876D01*
X144605908Y-91057483D01*
X144633577Y-91131667D01*
X144638561Y-91201358D01*
X144633577Y-91218331D01*
X144605910Y-91292511D01*
X144605909Y-91292515D01*
X144605909Y-91292517D01*
X144599500Y-91352127D01*
X144599500Y-91352134D01*
X144599500Y-91352135D01*
X144599500Y-91847870D01*
X144599501Y-91847876D01*
X144605908Y-91907483D01*
X144633577Y-91981667D01*
X144638561Y-92051358D01*
X144633577Y-92068331D01*
X144605910Y-92142511D01*
X144605909Y-92142515D01*
X144605909Y-92142517D01*
X144599500Y-92202127D01*
X144599500Y-92202134D01*
X144599500Y-92202135D01*
X144599500Y-92697870D01*
X144599501Y-92697876D01*
X144605908Y-92757483D01*
X144633577Y-92831667D01*
X144638561Y-92901358D01*
X144633577Y-92918331D01*
X144603198Y-92999784D01*
X144600469Y-92998766D01*
X144572654Y-93047591D01*
X144510737Y-93079964D01*
X144441147Y-93073723D01*
X144385977Y-93030850D01*
X144380452Y-93022492D01*
X144330472Y-92939815D01*
X144330470Y-92939813D01*
X144330469Y-92939811D01*
X144210188Y-92819530D01*
X144115854Y-92762503D01*
X144064606Y-92731522D01*
X143902196Y-92680914D01*
X143902194Y-92680913D01*
X143902192Y-92680913D01*
X143852778Y-92676423D01*
X143831616Y-92674500D01*
X143168384Y-92674500D01*
X143149145Y-92676248D01*
X143097807Y-92680913D01*
X142935393Y-92731522D01*
X142913650Y-92744667D01*
X142846095Y-92762503D01*
X142779621Y-92740985D01*
X142735334Y-92686945D01*
X142725500Y-92638550D01*
X142725500Y-92418386D01*
X142719086Y-92347807D01*
X142719086Y-92347804D01*
X142668478Y-92185394D01*
X142580472Y-92039815D01*
X142580470Y-92039813D01*
X142580469Y-92039811D01*
X142460188Y-91919530D01*
X142410348Y-91889400D01*
X142363162Y-91837871D01*
X142350500Y-91783284D01*
X142350500Y-91356810D01*
X142370185Y-91289771D01*
X142422989Y-91244016D01*
X142440477Y-91238370D01*
X142440302Y-91237792D01*
X142446129Y-91236024D01*
X142446132Y-91236024D01*
X142634727Y-91178814D01*
X142641863Y-91175000D01*
X142722935Y-91131666D01*
X142808538Y-91085910D01*
X142960883Y-90960883D01*
X143085910Y-90808538D01*
X143178814Y-90634727D01*
X143236024Y-90446132D01*
X143255341Y-90250000D01*
X143236024Y-90053868D01*
X143203391Y-89946295D01*
X143202768Y-89876429D01*
X143240015Y-89817316D01*
X143303309Y-89787725D01*
X143335935Y-89787080D01*
X143499996Y-89805565D01*
X143500000Y-89805565D01*
X143500004Y-89805565D01*
X143679249Y-89785369D01*
X143679252Y-89785368D01*
X143679255Y-89785368D01*
X143849522Y-89725789D01*
X144002262Y-89629816D01*
X144129816Y-89502262D01*
X144225789Y-89349522D01*
X144285368Y-89179255D01*
X144295161Y-89092329D01*
X144322226Y-89027918D01*
X144330690Y-89018543D01*
X144387821Y-88961412D01*
X144449142Y-88927929D01*
X144518834Y-88932913D01*
G37*
%TD.AperFunction*%
%TA.AperFunction,Conductor*%
G36*
X164542539Y-82420185D02*
G01*
X164588294Y-82472989D01*
X164599500Y-82524500D01*
X164599500Y-121475500D01*
X164579815Y-121542539D01*
X164527011Y-121588294D01*
X164475500Y-121599500D01*
X140524500Y-121599500D01*
X140457461Y-121579815D01*
X140411706Y-121527011D01*
X140400500Y-121475500D01*
X140400500Y-118826504D01*
X147180000Y-118826504D01*
X147180000Y-119075000D01*
X147880000Y-119075000D01*
X147880000Y-119575000D01*
X147180000Y-119575000D01*
X147180000Y-119823495D01*
X147218427Y-120016681D01*
X147218430Y-120016693D01*
X147293807Y-120198671D01*
X147293814Y-120198684D01*
X147403248Y-120362462D01*
X147403251Y-120362466D01*
X147542533Y-120501748D01*
X147542537Y-120501751D01*
X147706315Y-120611185D01*
X147706328Y-120611192D01*
X147888308Y-120686569D01*
X147930000Y-120694862D01*
X147930000Y-119891988D01*
X147939940Y-119909205D01*
X147995795Y-119965060D01*
X148064204Y-120004556D01*
X148140504Y-120025000D01*
X148219496Y-120025000D01*
X148295796Y-120004556D01*
X148364205Y-119965060D01*
X148420060Y-119909205D01*
X148430000Y-119891988D01*
X148430000Y-120694862D01*
X148471690Y-120686569D01*
X148471692Y-120686569D01*
X148653671Y-120611192D01*
X148653684Y-120611185D01*
X148817462Y-120501751D01*
X148817466Y-120501748D01*
X148956748Y-120362466D01*
X148956751Y-120362462D01*
X149066185Y-120198684D01*
X149066192Y-120198671D01*
X149141569Y-120016693D01*
X149141572Y-120016681D01*
X149179999Y-119823495D01*
X149180000Y-119823492D01*
X149180000Y-119575000D01*
X148480000Y-119575000D01*
X148480000Y-119075000D01*
X149180000Y-119075000D01*
X149180000Y-118826508D01*
X149179999Y-118826504D01*
X155820000Y-118826504D01*
X155820000Y-119075000D01*
X156520000Y-119075000D01*
X156520000Y-119575000D01*
X155820000Y-119575000D01*
X155820000Y-119823495D01*
X155858427Y-120016681D01*
X155858430Y-120016693D01*
X155933807Y-120198671D01*
X155933814Y-120198684D01*
X156043248Y-120362462D01*
X156043251Y-120362466D01*
X156182533Y-120501748D01*
X156182537Y-120501751D01*
X156346315Y-120611185D01*
X156346328Y-120611192D01*
X156528308Y-120686569D01*
X156570000Y-120694862D01*
X156570000Y-119891988D01*
X156579940Y-119909205D01*
X156635795Y-119965060D01*
X156704204Y-120004556D01*
X156780504Y-120025000D01*
X156859496Y-120025000D01*
X156935796Y-120004556D01*
X157004205Y-119965060D01*
X157060060Y-119909205D01*
X157070000Y-119891988D01*
X157070000Y-120694862D01*
X157111690Y-120686569D01*
X157111692Y-120686569D01*
X157293671Y-120611192D01*
X157293684Y-120611185D01*
X157457462Y-120501751D01*
X157457466Y-120501748D01*
X157596748Y-120362466D01*
X157596751Y-120362462D01*
X157706185Y-120198684D01*
X157706192Y-120198671D01*
X157781569Y-120016693D01*
X157781572Y-120016681D01*
X157819999Y-119823495D01*
X157820000Y-119823492D01*
X157820000Y-119575000D01*
X157120000Y-119575000D01*
X157120000Y-119075000D01*
X157820000Y-119075000D01*
X157820000Y-118826508D01*
X157819999Y-118826504D01*
X157781572Y-118633318D01*
X157781569Y-118633306D01*
X157706192Y-118451328D01*
X157706185Y-118451315D01*
X157596751Y-118287537D01*
X157596748Y-118287533D01*
X157457466Y-118148251D01*
X157457462Y-118148248D01*
X157293684Y-118038814D01*
X157293671Y-118038807D01*
X157111691Y-117963429D01*
X157111683Y-117963427D01*
X157070000Y-117955135D01*
X157070000Y-118758011D01*
X157060060Y-118740795D01*
X157004205Y-118684940D01*
X156935796Y-118645444D01*
X156859496Y-118625000D01*
X156780504Y-118625000D01*
X156704204Y-118645444D01*
X156635795Y-118684940D01*
X156579940Y-118740795D01*
X156570000Y-118758011D01*
X156570000Y-117955136D01*
X156569999Y-117955135D01*
X156528316Y-117963427D01*
X156528308Y-117963429D01*
X156346328Y-118038807D01*
X156346315Y-118038814D01*
X156182537Y-118148248D01*
X156182533Y-118148251D01*
X156043251Y-118287533D01*
X156043248Y-118287537D01*
X155933814Y-118451315D01*
X155933807Y-118451328D01*
X155858430Y-118633306D01*
X155858427Y-118633318D01*
X155820000Y-118826504D01*
X149179999Y-118826504D01*
X149141572Y-118633318D01*
X149141569Y-118633306D01*
X149066192Y-118451328D01*
X149066185Y-118451315D01*
X148956751Y-118287537D01*
X148956748Y-118287533D01*
X148817466Y-118148251D01*
X148817462Y-118148248D01*
X148653684Y-118038814D01*
X148653671Y-118038807D01*
X148471691Y-117963429D01*
X148471683Y-117963427D01*
X148430000Y-117955135D01*
X148430000Y-118758011D01*
X148420060Y-118740795D01*
X148364205Y-118684940D01*
X148295796Y-118645444D01*
X148219496Y-118625000D01*
X148140504Y-118625000D01*
X148064204Y-118645444D01*
X147995795Y-118684940D01*
X147939940Y-118740795D01*
X147930000Y-118758011D01*
X147930000Y-117955136D01*
X147929999Y-117955135D01*
X147888316Y-117963427D01*
X147888308Y-117963429D01*
X147706328Y-118038807D01*
X147706315Y-118038814D01*
X147542537Y-118148248D01*
X147542533Y-118148251D01*
X147403251Y-118287533D01*
X147403248Y-118287537D01*
X147293814Y-118451315D01*
X147293807Y-118451328D01*
X147218430Y-118633306D01*
X147218427Y-118633318D01*
X147180000Y-118826504D01*
X140400500Y-118826504D01*
X140400500Y-116999996D01*
X140694435Y-116999996D01*
X140694435Y-117000000D01*
X140714630Y-117179249D01*
X140714631Y-117179254D01*
X140774211Y-117349523D01*
X140856525Y-117480524D01*
X140870184Y-117502262D01*
X140997738Y-117629816D01*
X141150478Y-117725789D01*
X141320739Y-117785366D01*
X141320745Y-117785368D01*
X141320750Y-117785369D01*
X141499996Y-117805565D01*
X141500000Y-117805565D01*
X141500004Y-117805565D01*
X141679249Y-117785369D01*
X141679251Y-117785368D01*
X141679255Y-117785368D01*
X141679258Y-117785366D01*
X141679262Y-117785366D01*
X141769377Y-117753832D01*
X141849522Y-117725789D01*
X141939096Y-117669505D01*
X142005068Y-117650500D01*
X142373314Y-117650500D01*
X142440353Y-117670185D01*
X142478852Y-117709403D01*
X142552029Y-117828040D01*
X142552032Y-117828044D01*
X142671955Y-117947967D01*
X142671959Y-117947970D01*
X142816294Y-118036998D01*
X142816297Y-118036999D01*
X142816303Y-118037003D01*
X142977292Y-118090349D01*
X143076655Y-118100500D01*
X143923344Y-118100499D01*
X143923352Y-118100498D01*
X143923355Y-118100498D01*
X143977760Y-118094940D01*
X144022708Y-118090349D01*
X144183697Y-118037003D01*
X144328044Y-117947968D01*
X144447968Y-117828044D01*
X144537003Y-117683697D01*
X144590349Y-117522708D01*
X144600500Y-117423345D01*
X144600499Y-116876656D01*
X144596868Y-116841115D01*
X144590349Y-116777292D01*
X144590348Y-116777289D01*
X144559897Y-116685393D01*
X144537003Y-116616303D01*
X144536999Y-116616297D01*
X144536998Y-116616294D01*
X144447970Y-116471959D01*
X144447967Y-116471955D01*
X144328044Y-116352032D01*
X144328040Y-116352029D01*
X144183705Y-116263001D01*
X144183699Y-116262998D01*
X144183697Y-116262997D01*
X144165349Y-116256917D01*
X144022709Y-116209651D01*
X143923346Y-116199500D01*
X143076662Y-116199500D01*
X143076644Y-116199501D01*
X142977292Y-116209650D01*
X142977289Y-116209651D01*
X142816305Y-116262996D01*
X142816298Y-116262999D01*
X142737203Y-116311786D01*
X142705991Y-116331038D01*
X142640895Y-116349500D01*
X142005068Y-116349500D01*
X141939096Y-116330494D01*
X141849522Y-116274210D01*
X141849518Y-116274209D01*
X141679262Y-116214633D01*
X141679249Y-116214630D01*
X141500004Y-116194435D01*
X141499996Y-116194435D01*
X141320750Y-116214630D01*
X141320745Y-116214631D01*
X141150476Y-116274211D01*
X140997737Y-116370184D01*
X140870184Y-116497737D01*
X140774211Y-116650476D01*
X140714631Y-116820745D01*
X140714630Y-116820750D01*
X140694435Y-116999996D01*
X140400500Y-116999996D01*
X140400500Y-102576647D01*
X144299500Y-102576647D01*
X144299500Y-103123337D01*
X144299501Y-103123355D01*
X144309650Y-103222707D01*
X144309651Y-103222710D01*
X144362996Y-103383694D01*
X144363001Y-103383705D01*
X144452029Y-103528040D01*
X144452032Y-103528044D01*
X144571955Y-103647967D01*
X144571959Y-103647970D01*
X144716294Y-103736998D01*
X144716297Y-103736999D01*
X144716303Y-103737003D01*
X144877292Y-103790349D01*
X144976655Y-103800500D01*
X145823344Y-103800499D01*
X145823352Y-103800498D01*
X145823355Y-103800498D01*
X145877760Y-103794940D01*
X145922708Y-103790349D01*
X146083697Y-103737003D01*
X146228044Y-103647968D01*
X146347968Y-103528044D01*
X146437003Y-103383697D01*
X146490349Y-103222708D01*
X146500500Y-103123345D01*
X146500499Y-102576656D01*
X146490349Y-102477292D01*
X146437003Y-102316303D01*
X146436999Y-102316297D01*
X146436998Y-102316294D01*
X146347970Y-102171959D01*
X146347967Y-102171955D01*
X146228044Y-102052032D01*
X146228040Y-102052029D01*
X146083705Y-101963001D01*
X146083699Y-101962998D01*
X146083697Y-101962997D01*
X145985495Y-101930456D01*
X145928051Y-101890685D01*
X145901228Y-101826169D01*
X145900500Y-101812751D01*
X145900500Y-101103523D01*
X145907459Y-101062567D01*
X145910368Y-101054255D01*
X145922030Y-100950754D01*
X145930565Y-100875003D01*
X145930565Y-100874996D01*
X145910369Y-100695750D01*
X145910368Y-100695745D01*
X145867412Y-100572985D01*
X145850789Y-100525478D01*
X145754816Y-100372738D01*
X145627262Y-100245184D01*
X145560197Y-100203044D01*
X145474523Y-100149211D01*
X145304254Y-100089631D01*
X145304249Y-100089630D01*
X145125004Y-100069435D01*
X145124996Y-100069435D01*
X144945750Y-100089630D01*
X144945745Y-100089631D01*
X144775476Y-100149211D01*
X144622737Y-100245184D01*
X144495184Y-100372737D01*
X144399211Y-100525476D01*
X144339631Y-100695745D01*
X144339630Y-100695750D01*
X144319435Y-100874996D01*
X144319435Y-100875003D01*
X144339630Y-101054249D01*
X144339631Y-101054254D01*
X144399211Y-101224523D01*
X144495184Y-101377262D01*
X144563181Y-101445259D01*
X144596666Y-101506582D01*
X144599500Y-101532940D01*
X144599500Y-101973125D01*
X144579815Y-102040164D01*
X144563182Y-102060806D01*
X144452029Y-102171959D01*
X144363001Y-102316294D01*
X144362996Y-102316305D01*
X144309651Y-102477290D01*
X144299500Y-102576647D01*
X140400500Y-102576647D01*
X140400500Y-92418386D01*
X140774500Y-92418386D01*
X140774500Y-92931613D01*
X140780913Y-93002192D01*
X140780913Y-93002194D01*
X140780914Y-93002196D01*
X140831522Y-93164606D01*
X140913206Y-93299728D01*
X140919530Y-93310188D01*
X141021661Y-93412319D01*
X141055146Y-93473642D01*
X141050162Y-93543334D01*
X141021661Y-93587681D01*
X140919531Y-93689810D01*
X140919530Y-93689811D01*
X140831522Y-93835393D01*
X140780913Y-93997807D01*
X140774500Y-94068386D01*
X140774500Y-94581613D01*
X140780913Y-94652192D01*
X140780913Y-94652194D01*
X140780914Y-94652196D01*
X140831522Y-94814606D01*
X140900829Y-94929254D01*
X140919530Y-94960188D01*
X140929034Y-94969692D01*
X140962519Y-95031015D01*
X140964573Y-95071256D01*
X140944435Y-95249995D01*
X140944435Y-95250003D01*
X140964630Y-95429249D01*
X140964631Y-95429254D01*
X141024211Y-95599523D01*
X141118760Y-95749996D01*
X141120184Y-95752262D01*
X141247738Y-95879816D01*
X141400478Y-95975789D01*
X141486556Y-96005909D01*
X141570745Y-96035368D01*
X141570750Y-96035369D01*
X141749996Y-96055565D01*
X141750000Y-96055565D01*
X141750004Y-96055565D01*
X141929249Y-96035369D01*
X141929252Y-96035368D01*
X141929255Y-96035368D01*
X142099522Y-95975789D01*
X142252262Y-95879816D01*
X142379816Y-95752262D01*
X142379819Y-95752256D01*
X142384159Y-95746816D01*
X142386348Y-95748561D01*
X142429172Y-95710641D01*
X142498220Y-95699956D01*
X142562084Y-95728297D01*
X142587430Y-95757779D01*
X142677029Y-95903040D01*
X142677032Y-95903044D01*
X142686307Y-95912319D01*
X142719792Y-95973642D01*
X142714808Y-96043334D01*
X142686307Y-96087681D01*
X142677032Y-96096955D01*
X142677029Y-96096959D01*
X142588001Y-96241294D01*
X142587996Y-96241305D01*
X142534651Y-96402290D01*
X142524500Y-96501647D01*
X142524500Y-97048337D01*
X142524501Y-97048355D01*
X142534650Y-97147707D01*
X142534651Y-97147710D01*
X142587996Y-97308694D01*
X142588001Y-97308705D01*
X142680823Y-97459191D01*
X142678394Y-97460688D01*
X142699652Y-97513407D01*
X142686599Y-97582047D01*
X142638509Y-97632733D01*
X142576243Y-97649500D01*
X142326663Y-97649500D01*
X142326644Y-97649501D01*
X142227292Y-97659650D01*
X142227289Y-97659651D01*
X142066305Y-97712996D01*
X142066294Y-97713001D01*
X141921959Y-97802029D01*
X141921955Y-97802032D01*
X141802032Y-97921955D01*
X141802029Y-97921959D01*
X141713001Y-98066294D01*
X141712996Y-98066305D01*
X141659651Y-98227290D01*
X141649500Y-98326647D01*
X141649500Y-98873337D01*
X141649501Y-98873355D01*
X141659650Y-98972707D01*
X141659651Y-98972710D01*
X141712996Y-99133694D01*
X141713001Y-99133705D01*
X141802029Y-99278040D01*
X141802032Y-99278044D01*
X141921955Y-99397967D01*
X141921959Y-99397970D01*
X142066294Y-99486998D01*
X142066297Y-99486999D01*
X142066303Y-99487003D01*
X142227292Y-99540349D01*
X142326655Y-99550500D01*
X143173344Y-99550499D01*
X143173352Y-99550498D01*
X143173355Y-99550498D01*
X143227760Y-99544940D01*
X143272708Y-99540349D01*
X143433697Y-99487003D01*
X143578044Y-99397968D01*
X143697968Y-99278044D01*
X143787003Y-99133697D01*
X143840349Y-98972708D01*
X143850500Y-98873345D01*
X143850499Y-98400098D01*
X143870183Y-98333060D01*
X143886813Y-98312422D01*
X143980520Y-98218716D01*
X144030639Y-98131904D01*
X144059577Y-98081785D01*
X144100500Y-97929057D01*
X144100500Y-97770943D01*
X144100500Y-97705424D01*
X144120185Y-97638385D01*
X144159402Y-97599886D01*
X144203044Y-97572968D01*
X144322968Y-97453044D01*
X144412003Y-97308697D01*
X144465349Y-97147708D01*
X144475500Y-97048345D01*
X144475499Y-96501656D01*
X144467642Y-96424743D01*
X144480411Y-96356053D01*
X144528292Y-96305169D01*
X144596082Y-96288248D01*
X144662258Y-96310664D01*
X144690266Y-96337833D01*
X144742452Y-96407544D01*
X144742455Y-96407547D01*
X144857664Y-96493793D01*
X144857671Y-96493797D01*
X144992517Y-96544091D01*
X144992516Y-96544091D01*
X144999444Y-96544835D01*
X145052127Y-96550500D01*
X145725500Y-96550499D01*
X145792539Y-96570183D01*
X145838294Y-96622987D01*
X145849500Y-96674499D01*
X145849500Y-97347870D01*
X145849501Y-97347876D01*
X145855908Y-97407483D01*
X145906202Y-97542328D01*
X145906206Y-97542335D01*
X145992452Y-97657544D01*
X145992455Y-97657547D01*
X146107664Y-97743793D01*
X146107671Y-97743797D01*
X146152618Y-97760561D01*
X146242517Y-97794091D01*
X146302127Y-97800500D01*
X146797872Y-97800499D01*
X146857483Y-97794091D01*
X146931667Y-97766421D01*
X147001358Y-97761438D01*
X147018327Y-97766420D01*
X147079010Y-97789053D01*
X147092511Y-97794089D01*
X147092517Y-97794091D01*
X147152127Y-97800500D01*
X147366937Y-97800499D01*
X147433976Y-97820183D01*
X147479731Y-97872987D01*
X147489675Y-97942145D01*
X147483979Y-97965452D01*
X147464633Y-98020741D01*
X147464630Y-98020752D01*
X147463815Y-98027988D01*
X147436743Y-98092400D01*
X147428278Y-98101775D01*
X147269723Y-98260331D01*
X147198534Y-98366874D01*
X147149499Y-98485255D01*
X147149497Y-98485261D01*
X147123311Y-98616906D01*
X147121788Y-98616603D01*
X147098469Y-98674340D01*
X147088915Y-98685071D01*
X146977032Y-98796955D01*
X146977029Y-98796959D01*
X146888001Y-98941294D01*
X146887996Y-98941305D01*
X146834651Y-99102290D01*
X146824500Y-99201647D01*
X146824500Y-99798337D01*
X146824501Y-99798355D01*
X146834650Y-99897707D01*
X146834651Y-99897710D01*
X146887996Y-100058694D01*
X146888001Y-100058705D01*
X146977029Y-100203040D01*
X146977032Y-100203044D01*
X147061306Y-100287318D01*
X147094791Y-100348641D01*
X147089807Y-100418333D01*
X147061307Y-100462679D01*
X146977032Y-100546955D01*
X146977029Y-100546959D01*
X146888001Y-100691294D01*
X146887996Y-100691305D01*
X146834651Y-100852290D01*
X146824500Y-100951647D01*
X146824500Y-101548337D01*
X146824501Y-101548355D01*
X146834650Y-101647707D01*
X146834651Y-101647710D01*
X146887996Y-101808694D01*
X146888001Y-101808705D01*
X146977029Y-101953040D01*
X146977032Y-101953044D01*
X147096955Y-102072967D01*
X147096959Y-102072970D01*
X147241294Y-102161998D01*
X147241297Y-102161999D01*
X147241303Y-102162003D01*
X147402292Y-102215349D01*
X147501655Y-102225500D01*
X148048344Y-102225499D01*
X148048352Y-102225498D01*
X148048355Y-102225498D01*
X148102760Y-102219940D01*
X148147708Y-102215349D01*
X148308697Y-102162003D01*
X148453044Y-102072968D01*
X148572968Y-101953044D01*
X148572971Y-101953038D01*
X148577276Y-101947595D01*
X148634296Y-101907215D01*
X148674547Y-101900500D01*
X148871087Y-101900500D01*
X148928107Y-101916394D01*
X148928555Y-101915400D01*
X148935089Y-101918340D01*
X148935233Y-101918381D01*
X148935390Y-101918476D01*
X148935391Y-101918476D01*
X148935394Y-101918478D01*
X149097804Y-101969086D01*
X149168384Y-101975500D01*
X149168387Y-101975500D01*
X149831613Y-101975500D01*
X149831616Y-101975500D01*
X149902196Y-101969086D01*
X150064606Y-101918478D01*
X150210185Y-101830472D01*
X150278839Y-101761817D01*
X150340160Y-101728334D01*
X150366519Y-101725500D01*
X150383481Y-101725500D01*
X150450520Y-101745185D01*
X150471157Y-101761814D01*
X150539815Y-101830472D01*
X150609538Y-101872621D01*
X150667370Y-101907582D01*
X150714558Y-101959110D01*
X150726396Y-102027970D01*
X150720263Y-102054650D01*
X150714631Y-102070746D01*
X150694435Y-102249996D01*
X150694435Y-102250003D01*
X150714630Y-102429246D01*
X150714632Y-102429255D01*
X150732113Y-102479214D01*
X150735674Y-102548993D01*
X150700944Y-102609620D01*
X150680169Y-102625705D01*
X150596956Y-102677031D01*
X150477032Y-102796955D01*
X150477029Y-102796959D01*
X150388001Y-102941294D01*
X150387996Y-102941305D01*
X150334651Y-103102290D01*
X150324500Y-103201647D01*
X150324500Y-103798337D01*
X150324501Y-103798355D01*
X150334650Y-103897707D01*
X150334651Y-103897710D01*
X150387996Y-104058694D01*
X150388001Y-104058705D01*
X150477029Y-104203040D01*
X150477032Y-104203044D01*
X150588181Y-104314193D01*
X150621666Y-104375516D01*
X150624500Y-104401874D01*
X150624500Y-104433480D01*
X150604815Y-104500519D01*
X150588181Y-104521161D01*
X150587681Y-104521661D01*
X150526358Y-104555146D01*
X150456666Y-104550162D01*
X150412319Y-104521661D01*
X150310188Y-104419530D01*
X150237380Y-104375516D01*
X150164606Y-104331522D01*
X150002196Y-104280914D01*
X150002194Y-104280913D01*
X150002192Y-104280913D01*
X149952778Y-104276423D01*
X149931616Y-104274500D01*
X149418384Y-104274500D01*
X149399145Y-104276248D01*
X149347807Y-104280913D01*
X149185393Y-104331522D01*
X149039811Y-104419530D01*
X148919528Y-104539813D01*
X148911339Y-104553360D01*
X148859809Y-104600545D01*
X148790949Y-104612380D01*
X148726621Y-104585108D01*
X148717544Y-104576886D01*
X148710188Y-104569530D01*
X148661030Y-104539813D01*
X148564606Y-104481522D01*
X148402196Y-104430914D01*
X148402194Y-104430913D01*
X148402192Y-104430913D01*
X148352778Y-104426423D01*
X148331616Y-104424500D01*
X147668384Y-104424500D01*
X147649145Y-104426248D01*
X147597807Y-104430913D01*
X147435393Y-104481522D01*
X147289811Y-104569530D01*
X147169530Y-104689811D01*
X147081522Y-104835393D01*
X147030913Y-104997807D01*
X147024500Y-105068386D01*
X147024500Y-105581613D01*
X147030913Y-105652192D01*
X147030913Y-105652194D01*
X147030914Y-105652196D01*
X147081522Y-105814606D01*
X147119025Y-105876644D01*
X147169530Y-105960188D01*
X147289811Y-106080469D01*
X147289813Y-106080470D01*
X147289815Y-106080472D01*
X147435394Y-106168478D01*
X147597804Y-106219086D01*
X147668384Y-106225500D01*
X147668387Y-106225500D01*
X148324903Y-106225500D01*
X148391942Y-106245185D01*
X148412584Y-106261819D01*
X148564666Y-106413901D01*
X148598151Y-106475224D01*
X148593167Y-106544916D01*
X148591547Y-106549033D01*
X148564795Y-106613619D01*
X148564794Y-106613621D01*
X148549501Y-106729788D01*
X148549500Y-106729804D01*
X148549500Y-106995195D01*
X148549501Y-106995211D01*
X148564794Y-107111378D01*
X148564796Y-107111383D01*
X148624671Y-107255936D01*
X148624672Y-107255938D01*
X148624673Y-107255939D01*
X148719926Y-107380074D01*
X148844061Y-107475327D01*
X148988620Y-107535205D01*
X149104798Y-107550500D01*
X149104805Y-107550500D01*
X149395195Y-107550500D01*
X149395202Y-107550500D01*
X149511380Y-107535205D01*
X149527545Y-107528508D01*
X149597014Y-107521039D01*
X149622454Y-107528508D01*
X149638620Y-107535205D01*
X149754798Y-107550500D01*
X149754805Y-107550500D01*
X150045195Y-107550500D01*
X150045202Y-107550500D01*
X150161380Y-107535205D01*
X150305939Y-107475327D01*
X150430074Y-107380074D01*
X150525327Y-107255939D01*
X150541570Y-107216721D01*
X150568447Y-107176497D01*
X151483127Y-106261819D01*
X151544450Y-106228334D01*
X151570808Y-106225500D01*
X151581613Y-106225500D01*
X151581616Y-106225500D01*
X151652196Y-106219086D01*
X151814606Y-106168478D01*
X151846150Y-106149408D01*
X151913703Y-106131572D01*
X151980177Y-106153089D01*
X152024466Y-106207129D01*
X152034300Y-106255525D01*
X152034300Y-109305620D01*
X152014615Y-109372659D01*
X151997981Y-109393301D01*
X151738824Y-109652457D01*
X151738821Y-109652460D01*
X151698572Y-109712697D01*
X151698573Y-109712698D01*
X151666799Y-109760251D01*
X151617191Y-109880015D01*
X151617189Y-109880021D01*
X151611891Y-109906658D01*
X151579506Y-109968569D01*
X151518790Y-110003143D01*
X151449020Y-109999402D01*
X151402593Y-109970147D01*
X150565771Y-109133325D01*
X150532286Y-109072002D01*
X150537270Y-109002310D01*
X150538879Y-108998219D01*
X150585205Y-108886380D01*
X150600500Y-108770202D01*
X150600500Y-108504798D01*
X150585205Y-108388620D01*
X150525327Y-108244061D01*
X150430074Y-108119926D01*
X150305939Y-108024673D01*
X150305938Y-108024672D01*
X150305936Y-108024671D01*
X150161383Y-107964796D01*
X150161378Y-107964794D01*
X150045211Y-107949501D01*
X150045208Y-107949500D01*
X150045202Y-107949500D01*
X149754798Y-107949500D01*
X149754792Y-107949500D01*
X149754788Y-107949501D01*
X149638621Y-107964794D01*
X149638620Y-107964795D01*
X149622449Y-107971493D01*
X149552979Y-107978959D01*
X149527551Y-107971493D01*
X149522657Y-107969466D01*
X149511380Y-107964795D01*
X149511378Y-107964794D01*
X149395211Y-107949501D01*
X149395208Y-107949500D01*
X149395202Y-107949500D01*
X149104798Y-107949500D01*
X149104792Y-107949500D01*
X149104788Y-107949501D01*
X148988621Y-107964794D01*
X148988620Y-107964795D01*
X148972449Y-107971493D01*
X148902979Y-107978959D01*
X148877551Y-107971493D01*
X148872657Y-107969466D01*
X148861380Y-107964795D01*
X148861378Y-107964794D01*
X148745211Y-107949501D01*
X148745208Y-107949500D01*
X148745202Y-107949500D01*
X148454798Y-107949500D01*
X148454792Y-107949500D01*
X148454788Y-107949501D01*
X148338621Y-107964794D01*
X148338616Y-107964796D01*
X148194063Y-108024671D01*
X148069926Y-108119926D01*
X147974671Y-108244063D01*
X147914796Y-108388616D01*
X147914794Y-108388621D01*
X147899501Y-108504788D01*
X147899500Y-108504804D01*
X147899500Y-108770195D01*
X147899501Y-108770211D01*
X147914794Y-108886378D01*
X147914796Y-108886383D01*
X147974670Y-109030934D01*
X147974672Y-109030936D01*
X147974673Y-109030939D01*
X147978937Y-109036496D01*
X147995118Y-109064523D01*
X148023533Y-109133123D01*
X148023534Y-109133125D01*
X148023535Y-109133126D01*
X148082175Y-109220889D01*
X148094726Y-109239672D01*
X148094727Y-109239673D01*
X148283046Y-109427991D01*
X148316531Y-109489314D01*
X148311547Y-109559005D01*
X148269676Y-109614939D01*
X148204211Y-109639356D01*
X148135938Y-109624504D01*
X148131215Y-109621789D01*
X148064606Y-109581522D01*
X147983356Y-109556204D01*
X147902196Y-109530914D01*
X147902194Y-109530913D01*
X147902192Y-109530913D01*
X147852778Y-109526423D01*
X147831616Y-109524500D01*
X147168384Y-109524500D01*
X147149145Y-109526248D01*
X147097807Y-109530913D01*
X146935393Y-109581522D01*
X146852527Y-109631617D01*
X146788377Y-109649500D01*
X146149499Y-109649500D01*
X146082460Y-109629815D01*
X146036705Y-109577011D01*
X146025499Y-109525500D01*
X146025499Y-109402130D01*
X146025499Y-109402128D01*
X146019091Y-109342518D01*
X146018815Y-109341779D01*
X145968797Y-109207672D01*
X145968793Y-109207665D01*
X145882547Y-109092456D01*
X145882544Y-109092453D01*
X145830670Y-109053620D01*
X145788799Y-108997686D01*
X145783815Y-108927995D01*
X145784994Y-108923820D01*
X145786308Y-108918063D01*
X145786310Y-108918058D01*
X145805246Y-108750000D01*
X145805246Y-108749997D01*
X145786311Y-108581946D01*
X145786310Y-108581943D01*
X145759318Y-108504804D01*
X145730453Y-108422310D01*
X145640475Y-108279111D01*
X145561018Y-108199654D01*
X145527533Y-108138331D01*
X145525547Y-108101210D01*
X145525323Y-108101198D01*
X145525435Y-108099101D01*
X145525413Y-108098687D01*
X145525501Y-108097872D01*
X145525500Y-108001966D01*
X145527883Y-107977775D01*
X145550501Y-107864070D01*
X145550501Y-107224499D01*
X145570186Y-107157460D01*
X145622990Y-107111705D01*
X145674501Y-107100499D01*
X145823338Y-107100499D01*
X145823344Y-107100499D01*
X145823352Y-107100498D01*
X145823355Y-107100498D01*
X145877760Y-107094940D01*
X145922708Y-107090349D01*
X146083697Y-107037003D01*
X146228044Y-106947968D01*
X146347968Y-106828044D01*
X146437003Y-106683697D01*
X146490349Y-106522708D01*
X146500500Y-106423345D01*
X146500499Y-105876656D01*
X146490349Y-105777292D01*
X146437003Y-105616303D01*
X146436999Y-105616297D01*
X146436998Y-105616294D01*
X146347970Y-105471959D01*
X146347967Y-105471955D01*
X146228044Y-105352032D01*
X146228040Y-105352029D01*
X146083705Y-105263001D01*
X146083699Y-105262998D01*
X146083697Y-105262997D01*
X146083694Y-105262996D01*
X145922709Y-105209651D01*
X145823346Y-105199500D01*
X144976662Y-105199500D01*
X144976644Y-105199501D01*
X144877292Y-105209650D01*
X144877289Y-105209651D01*
X144716305Y-105262996D01*
X144716294Y-105263001D01*
X144571959Y-105352029D01*
X144571955Y-105352032D01*
X144452033Y-105471954D01*
X144452032Y-105471956D01*
X144394271Y-105565598D01*
X144342326Y-105612322D01*
X144288735Y-105624500D01*
X143901874Y-105624500D01*
X143834835Y-105604815D01*
X143814193Y-105588181D01*
X143703044Y-105477032D01*
X143703040Y-105477029D01*
X143558705Y-105388001D01*
X143558699Y-105387998D01*
X143558697Y-105387997D01*
X143520983Y-105375500D01*
X143397709Y-105334651D01*
X143298346Y-105324500D01*
X142701662Y-105324500D01*
X142701644Y-105324501D01*
X142602292Y-105334650D01*
X142602289Y-105334651D01*
X142441305Y-105387996D01*
X142441294Y-105388001D01*
X142296959Y-105477029D01*
X142296955Y-105477032D01*
X142177032Y-105596955D01*
X142177029Y-105596959D01*
X142088001Y-105741294D01*
X142087996Y-105741305D01*
X142034651Y-105902290D01*
X142024500Y-106001647D01*
X142024500Y-106548337D01*
X142024501Y-106548355D01*
X142034650Y-106647707D01*
X142034651Y-106647710D01*
X142087996Y-106808694D01*
X142088001Y-106808705D01*
X142177029Y-106953040D01*
X142177032Y-106953044D01*
X142296955Y-107072967D01*
X142296959Y-107072970D01*
X142441294Y-107161998D01*
X142441297Y-107161999D01*
X142441303Y-107162003D01*
X142602292Y-107215349D01*
X142701655Y-107225500D01*
X143298344Y-107225499D01*
X143298352Y-107225498D01*
X143298355Y-107225498D01*
X143384247Y-107216724D01*
X143397708Y-107215349D01*
X143558697Y-107162003D01*
X143610745Y-107129899D01*
X143709191Y-107069177D01*
X143710198Y-107070809D01*
X143765950Y-107048310D01*
X143834594Y-107061341D01*
X143885295Y-107109416D01*
X143901957Y-107177270D01*
X143879289Y-107243360D01*
X143877348Y-107246026D01*
X143831203Y-107307667D01*
X143831201Y-107307670D01*
X143780907Y-107442516D01*
X143774500Y-107502115D01*
X143774499Y-107502134D01*
X143774499Y-107598034D01*
X143772116Y-107622226D01*
X143749499Y-107735927D01*
X143749499Y-107864070D01*
X143772116Y-107977768D01*
X143774499Y-108001959D01*
X143774499Y-108097868D01*
X143774500Y-108097885D01*
X143774593Y-108098744D01*
X143774557Y-108098941D01*
X143774678Y-108101194D01*
X143774145Y-108101222D01*
X143762171Y-108167501D01*
X143738982Y-108199652D01*
X143659522Y-108279112D01*
X143569545Y-108422308D01*
X143513687Y-108581943D01*
X143513686Y-108581946D01*
X143494752Y-108749997D01*
X143494752Y-108750002D01*
X143513686Y-108918053D01*
X143513687Y-108918056D01*
X143569545Y-109077691D01*
X143625625Y-109166941D01*
X143659523Y-109220889D01*
X143738982Y-109300348D01*
X143772466Y-109361672D01*
X143774460Y-109398807D01*
X143774499Y-109398807D01*
X143774499Y-109398810D01*
X143774677Y-109398820D01*
X143774568Y-109400834D01*
X143774592Y-109401265D01*
X143774499Y-109402126D01*
X143774499Y-109498036D01*
X143772116Y-109522228D01*
X143749499Y-109635929D01*
X143749499Y-109973800D01*
X143729814Y-110040839D01*
X143677010Y-110086594D01*
X143625499Y-110097800D01*
X143241629Y-110097800D01*
X143241623Y-110097801D01*
X143182016Y-110104208D01*
X143047171Y-110154502D01*
X143047164Y-110154506D01*
X142931955Y-110240752D01*
X142931952Y-110240755D01*
X142845706Y-110355964D01*
X142845702Y-110355971D01*
X142795408Y-110490817D01*
X142789001Y-110550416D01*
X142789000Y-110550435D01*
X142789000Y-112449570D01*
X142789001Y-112449576D01*
X142795408Y-112509183D01*
X142841682Y-112633247D01*
X142849500Y-112676580D01*
X142849500Y-112873313D01*
X142829815Y-112940352D01*
X142790598Y-112978851D01*
X142671956Y-113052031D01*
X142552032Y-113171955D01*
X142552029Y-113171959D01*
X142463001Y-113316294D01*
X142462996Y-113316305D01*
X142409651Y-113477290D01*
X142399500Y-113576647D01*
X142399500Y-114123337D01*
X142399501Y-114123355D01*
X142409650Y-114222707D01*
X142409651Y-114222710D01*
X142462996Y-114383694D01*
X142463001Y-114383705D01*
X142552029Y-114528040D01*
X142552032Y-114528044D01*
X142671955Y-114647967D01*
X142671959Y-114647970D01*
X142816294Y-114736998D01*
X142816297Y-114736999D01*
X142816303Y-114737003D01*
X142977292Y-114790349D01*
X143076655Y-114800500D01*
X143923344Y-114800499D01*
X143923352Y-114800498D01*
X143923355Y-114800498D01*
X143977760Y-114794940D01*
X144022708Y-114790349D01*
X144183697Y-114737003D01*
X144328044Y-114647968D01*
X144447968Y-114528044D01*
X144536568Y-114384403D01*
X144588516Y-114337678D01*
X144642106Y-114325500D01*
X144809996Y-114325500D01*
X144877035Y-114345185D01*
X144915535Y-114384404D01*
X144927031Y-114403043D01*
X145046955Y-114522967D01*
X145046959Y-114522970D01*
X145191294Y-114611998D01*
X145191297Y-114611999D01*
X145191303Y-114612003D01*
X145352292Y-114665349D01*
X145451655Y-114675500D01*
X146048344Y-114675499D01*
X146048352Y-114675498D01*
X146048355Y-114675498D01*
X146102760Y-114669940D01*
X146147708Y-114665349D01*
X146308697Y-114612003D01*
X146453044Y-114522968D01*
X146572968Y-114403044D01*
X146662003Y-114258697D01*
X146715349Y-114097708D01*
X146725500Y-113998345D01*
X146725499Y-113750095D01*
X146745183Y-113683057D01*
X146761813Y-113662420D01*
X147412416Y-113011819D01*
X147473739Y-112978334D01*
X147500097Y-112975500D01*
X147831613Y-112975500D01*
X147831616Y-112975500D01*
X147902196Y-112969086D01*
X148064606Y-112918478D01*
X148210185Y-112830472D01*
X148330472Y-112710185D01*
X148418478Y-112564606D01*
X148469086Y-112402196D01*
X148475500Y-112331616D01*
X148475500Y-111818384D01*
X148469086Y-111747804D01*
X148418478Y-111585394D01*
X148330472Y-111439815D01*
X148330470Y-111439813D01*
X148330469Y-111439811D01*
X148228338Y-111337680D01*
X148194853Y-111276357D01*
X148199837Y-111206665D01*
X148228336Y-111162320D01*
X148244870Y-111145786D01*
X148306193Y-111112305D01*
X148375884Y-111117292D01*
X148420259Y-111149602D01*
X148421925Y-111147937D01*
X148546955Y-111272967D01*
X148546959Y-111272970D01*
X148691294Y-111361998D01*
X148691297Y-111361999D01*
X148691303Y-111362003D01*
X148852292Y-111415349D01*
X148951655Y-111425500D01*
X149548344Y-111425499D01*
X149548352Y-111425498D01*
X149548355Y-111425498D01*
X149631976Y-111416956D01*
X149647708Y-111415349D01*
X149808697Y-111362003D01*
X149935404Y-111283848D01*
X150002795Y-111265408D01*
X150069458Y-111286330D01*
X150114228Y-111339972D01*
X150124500Y-111389386D01*
X150124500Y-111585365D01*
X150124501Y-111585373D01*
X150125992Y-111599248D01*
X150125991Y-111625740D01*
X150124501Y-111639605D01*
X150124500Y-111639629D01*
X150124500Y-112107839D01*
X150104815Y-112174878D01*
X150052011Y-112220633D01*
X150041455Y-112224881D01*
X149900476Y-112274211D01*
X149747737Y-112370184D01*
X149620184Y-112497737D01*
X149524211Y-112650476D01*
X149464631Y-112820745D01*
X149464630Y-112820750D01*
X149444435Y-112999996D01*
X149444435Y-113000002D01*
X149450288Y-113051952D01*
X149449119Y-113079774D01*
X149450097Y-113079871D01*
X149449500Y-113085932D01*
X149449500Y-113679484D01*
X149432232Y-113742605D01*
X149348255Y-113884603D01*
X149348254Y-113884606D01*
X149302402Y-114042426D01*
X149302401Y-114042432D01*
X149299917Y-114074004D01*
X149275033Y-114139292D01*
X149218802Y-114180763D01*
X149149076Y-114185250D01*
X149087994Y-114151328D01*
X149069614Y-114126359D01*
X149069574Y-114126387D01*
X149068973Y-114125488D01*
X149066938Y-114122723D01*
X149066187Y-114121318D01*
X148956751Y-113957537D01*
X148956748Y-113957533D01*
X148817466Y-113818251D01*
X148817462Y-113818248D01*
X148653684Y-113708814D01*
X148653671Y-113708807D01*
X148471691Y-113633429D01*
X148471683Y-113633427D01*
X148430000Y-113625135D01*
X148430000Y-114428011D01*
X148420060Y-114410795D01*
X148364205Y-114354940D01*
X148295796Y-114315444D01*
X148219496Y-114295000D01*
X148140504Y-114295000D01*
X148064204Y-114315444D01*
X147995795Y-114354940D01*
X147939940Y-114410795D01*
X147930000Y-114428011D01*
X147930000Y-113625136D01*
X147929999Y-113625135D01*
X147888316Y-113633427D01*
X147888308Y-113633429D01*
X147706328Y-113708807D01*
X147706315Y-113708814D01*
X147542537Y-113818248D01*
X147542533Y-113818251D01*
X147403251Y-113957533D01*
X147403248Y-113957537D01*
X147293814Y-114121315D01*
X147293807Y-114121328D01*
X147218430Y-114303306D01*
X147218427Y-114303318D01*
X147180000Y-114496504D01*
X147180000Y-114895000D01*
X147880000Y-114895000D01*
X147880000Y-115395000D01*
X147180000Y-115395000D01*
X147180000Y-115793495D01*
X147218427Y-115986681D01*
X147218430Y-115986693D01*
X147293807Y-116168671D01*
X147293814Y-116168684D01*
X147319155Y-116206609D01*
X147340033Y-116273287D01*
X147321548Y-116340667D01*
X147269570Y-116387357D01*
X147216053Y-116399500D01*
X146711623Y-116399500D01*
X146647473Y-116381617D01*
X146564606Y-116331522D01*
X146512197Y-116315191D01*
X146402196Y-116280914D01*
X146402194Y-116280913D01*
X146402192Y-116280913D01*
X146352778Y-116276423D01*
X146331616Y-116274500D01*
X145668384Y-116274500D01*
X145649145Y-116276248D01*
X145597807Y-116280913D01*
X145435393Y-116331522D01*
X145289811Y-116419530D01*
X145169530Y-116539811D01*
X145081522Y-116685393D01*
X145030913Y-116847807D01*
X145025782Y-116904275D01*
X145024756Y-116915574D01*
X145024500Y-116918386D01*
X145024500Y-117431613D01*
X145030913Y-117502192D01*
X145030913Y-117502194D01*
X145030914Y-117502196D01*
X145080196Y-117660350D01*
X145081522Y-117664606D01*
X145169530Y-117810188D01*
X145289811Y-117930469D01*
X145289813Y-117930470D01*
X145289815Y-117930472D01*
X145435394Y-118018478D01*
X145597804Y-118069086D01*
X145668384Y-118075500D01*
X145668387Y-118075500D01*
X146331613Y-118075500D01*
X146331616Y-118075500D01*
X146402196Y-118069086D01*
X146564606Y-118018478D01*
X146710185Y-117930472D01*
X146830472Y-117810185D01*
X146918478Y-117664606D01*
X146918478Y-117664603D01*
X146921050Y-117660350D01*
X146972578Y-117613163D01*
X147027167Y-117600500D01*
X149440741Y-117600500D01*
X149440757Y-117600501D01*
X149448353Y-117600501D01*
X149606464Y-117600501D01*
X149606467Y-117600501D01*
X149759195Y-117559577D01*
X149809314Y-117530639D01*
X149896126Y-117480520D01*
X150007930Y-117368716D01*
X150007930Y-117368714D01*
X150018138Y-117358507D01*
X150018139Y-117358504D01*
X150697820Y-116678824D01*
X150759142Y-116645340D01*
X150828834Y-116650324D01*
X150884767Y-116692196D01*
X150909184Y-116757660D01*
X150909500Y-116766506D01*
X150909500Y-116841119D01*
X150933343Y-116960986D01*
X150933346Y-116960996D01*
X150949503Y-117000000D01*
X150949504Y-117000003D01*
X150980116Y-117073909D01*
X150980118Y-117073914D01*
X150980120Y-117073917D01*
X151020826Y-117134839D01*
X151020827Y-117134840D01*
X151020826Y-117134840D01*
X151034426Y-117155192D01*
X151048026Y-117175546D01*
X151048029Y-117175549D01*
X151048032Y-117175553D01*
X151354451Y-117481972D01*
X151384720Y-117502197D01*
X151415417Y-117522708D01*
X151456083Y-117549880D01*
X151512545Y-117573267D01*
X151569007Y-117596655D01*
X151651999Y-117613163D01*
X151688880Y-117620499D01*
X151688884Y-117620500D01*
X151688885Y-117620500D01*
X152811115Y-117620500D01*
X152836791Y-117615392D01*
X152894650Y-117603883D01*
X152964241Y-117610110D01*
X152996158Y-117628555D01*
X152997741Y-117629818D01*
X153124399Y-117709403D01*
X153150478Y-117725789D01*
X153320739Y-117785366D01*
X153320745Y-117785368D01*
X153320750Y-117785369D01*
X153499996Y-117805565D01*
X153500000Y-117805565D01*
X153500004Y-117805565D01*
X153679249Y-117785369D01*
X153679252Y-117785368D01*
X153679255Y-117785368D01*
X153849522Y-117725789D01*
X154002262Y-117629816D01*
X154129816Y-117502262D01*
X154225789Y-117349522D01*
X154285368Y-117179255D01*
X154285786Y-117175553D01*
X154298932Y-117058869D01*
X154307591Y-117025299D01*
X154318069Y-117000003D01*
X154346654Y-116930993D01*
X154363202Y-116847804D01*
X154370500Y-116811116D01*
X154370500Y-116657980D01*
X154390185Y-116590941D01*
X154442989Y-116545186D01*
X154512147Y-116535242D01*
X154575703Y-116564267D01*
X154582178Y-116570296D01*
X155492401Y-117480520D01*
X155492403Y-117480521D01*
X155492407Y-117480524D01*
X155612530Y-117549876D01*
X155629333Y-117559577D01*
X155782060Y-117600501D01*
X155782062Y-117600501D01*
X155947771Y-117600501D01*
X155947787Y-117600500D01*
X157972833Y-117600500D01*
X158039872Y-117620185D01*
X158078950Y-117660350D01*
X158081521Y-117664603D01*
X158081522Y-117664606D01*
X158154526Y-117785368D01*
X158169530Y-117810188D01*
X158289811Y-117930469D01*
X158289813Y-117930470D01*
X158289815Y-117930472D01*
X158435394Y-118018478D01*
X158597804Y-118069086D01*
X158668384Y-118075500D01*
X158668387Y-118075500D01*
X159331613Y-118075500D01*
X159331616Y-118075500D01*
X159402196Y-118069086D01*
X159564606Y-118018478D01*
X159710185Y-117930472D01*
X159830472Y-117810185D01*
X159918478Y-117664606D01*
X159969086Y-117502196D01*
X159975500Y-117431616D01*
X159975500Y-116918384D01*
X159975500Y-116915574D01*
X159976375Y-116915574D01*
X159992139Y-116851163D01*
X160042804Y-116803050D01*
X160111438Y-116789967D01*
X160113284Y-116790161D01*
X160249997Y-116805565D01*
X160250000Y-116805565D01*
X160250004Y-116805565D01*
X160429249Y-116785369D01*
X160429252Y-116785368D01*
X160429255Y-116785368D01*
X160599522Y-116725789D01*
X160752262Y-116629816D01*
X160879816Y-116502262D01*
X160975789Y-116349522D01*
X161035368Y-116179255D01*
X161045161Y-116092330D01*
X161072226Y-116027920D01*
X161080700Y-116018534D01*
X161230520Y-115868716D01*
X161309577Y-115731784D01*
X161315930Y-115708071D01*
X161352292Y-115648415D01*
X161371551Y-115634052D01*
X161460185Y-115580472D01*
X161580472Y-115460185D01*
X161668478Y-115314606D01*
X161719086Y-115152196D01*
X161725500Y-115081616D01*
X161725500Y-114568384D01*
X161719086Y-114497804D01*
X161668478Y-114335394D01*
X161580472Y-114189815D01*
X161580470Y-114189813D01*
X161580469Y-114189811D01*
X161478339Y-114087681D01*
X161444854Y-114026358D01*
X161449838Y-113956666D01*
X161478339Y-113912319D01*
X161580468Y-113810189D01*
X161580469Y-113810188D01*
X161580472Y-113810185D01*
X161668478Y-113664606D01*
X161719086Y-113502196D01*
X161725500Y-113431616D01*
X161725500Y-112918384D01*
X161719086Y-112847804D01*
X161668478Y-112685394D01*
X161580472Y-112539815D01*
X161580470Y-112539813D01*
X161580469Y-112539811D01*
X161460188Y-112419530D01*
X161431514Y-112402196D01*
X161314606Y-112331522D01*
X161152196Y-112280914D01*
X161152194Y-112280913D01*
X161152192Y-112280913D01*
X161102778Y-112276423D01*
X161081616Y-112274500D01*
X160418384Y-112274500D01*
X160399145Y-112276248D01*
X160347807Y-112280913D01*
X160185393Y-112331522D01*
X160039811Y-112419530D01*
X160039810Y-112419531D01*
X159955358Y-112503984D01*
X159894035Y-112537469D01*
X159824343Y-112532485D01*
X159779996Y-112503984D01*
X159703044Y-112427032D01*
X159703040Y-112427029D01*
X159558705Y-112338001D01*
X159558699Y-112337998D01*
X159558697Y-112337997D01*
X159539157Y-112331522D01*
X159397709Y-112284651D01*
X159298352Y-112274500D01*
X159298345Y-112274500D01*
X158950097Y-112274500D01*
X158883058Y-112254815D01*
X158862416Y-112238181D01*
X157761416Y-111137181D01*
X157727931Y-111075858D01*
X157732915Y-111006166D01*
X157774787Y-110950233D01*
X157840251Y-110925816D01*
X157849097Y-110925500D01*
X158318965Y-110925500D01*
X158386004Y-110945185D01*
X158418232Y-110975190D01*
X158442449Y-111007541D01*
X158442452Y-111007544D01*
X158442454Y-111007546D01*
X158442457Y-111007548D01*
X158557664Y-111093793D01*
X158557671Y-111093797D01*
X158692517Y-111144091D01*
X158692516Y-111144091D01*
X158699444Y-111144835D01*
X158752127Y-111150500D01*
X159897872Y-111150499D01*
X159957483Y-111144091D01*
X160092331Y-111093796D01*
X160207546Y-111007546D01*
X160293796Y-110892331D01*
X160344091Y-110757483D01*
X160350500Y-110697873D01*
X160350499Y-110697866D01*
X160350677Y-110694566D01*
X160350855Y-110694575D01*
X160350856Y-110694569D01*
X160350977Y-110694582D01*
X160352127Y-110694643D01*
X160370122Y-110633152D01*
X160386813Y-110612420D01*
X161230520Y-109768716D01*
X161309577Y-109631784D01*
X161350501Y-109479057D01*
X161350501Y-109320942D01*
X161350501Y-109313347D01*
X161350500Y-109313329D01*
X161350500Y-94112075D01*
X162241476Y-94112075D01*
X162365462Y-94178348D01*
X162553969Y-94235531D01*
X162553965Y-94235531D01*
X162750000Y-94254838D01*
X162946032Y-94235531D01*
X163134537Y-94178348D01*
X163258523Y-94112076D01*
X163258523Y-94112075D01*
X162750001Y-93603553D01*
X162750000Y-93603553D01*
X162241476Y-94112075D01*
X161350500Y-94112075D01*
X161350500Y-93250000D01*
X161745161Y-93250000D01*
X161764468Y-93446032D01*
X161821651Y-93634539D01*
X161887922Y-93758523D01*
X161887923Y-93758523D01*
X162396446Y-93250000D01*
X162396446Y-93249999D01*
X162346719Y-93200272D01*
X162500000Y-93200272D01*
X162500000Y-93299728D01*
X162538060Y-93391614D01*
X162608386Y-93461940D01*
X162700272Y-93500000D01*
X162799728Y-93500000D01*
X162891614Y-93461940D01*
X162961940Y-93391614D01*
X163000000Y-93299728D01*
X163000000Y-93249999D01*
X163103553Y-93249999D01*
X163103553Y-93250000D01*
X163612075Y-93758523D01*
X163612076Y-93758523D01*
X163678348Y-93634537D01*
X163735531Y-93446032D01*
X163754838Y-93250000D01*
X163735531Y-93053967D01*
X163678348Y-92865462D01*
X163612075Y-92741476D01*
X163103553Y-93249999D01*
X163000000Y-93249999D01*
X163000000Y-93200272D01*
X162961940Y-93108386D01*
X162891614Y-93038060D01*
X162799728Y-93000000D01*
X162700272Y-93000000D01*
X162608386Y-93038060D01*
X162538060Y-93108386D01*
X162500000Y-93200272D01*
X162346719Y-93200272D01*
X161887923Y-92741476D01*
X161821649Y-92865466D01*
X161764468Y-93053967D01*
X161745161Y-93250000D01*
X161350500Y-93250000D01*
X161350500Y-92387923D01*
X162241476Y-92387923D01*
X162750000Y-92896446D01*
X162750001Y-92896446D01*
X163258523Y-92387923D01*
X163258523Y-92387922D01*
X163134539Y-92321651D01*
X162946030Y-92264468D01*
X162946034Y-92264468D01*
X162750000Y-92245161D01*
X162553967Y-92264468D01*
X162365466Y-92321649D01*
X162241476Y-92387923D01*
X161350500Y-92387923D01*
X161350500Y-91166321D01*
X161370185Y-91099282D01*
X161422989Y-91053527D01*
X161460612Y-91043101D01*
X161529255Y-91035368D01*
X161699522Y-90975789D01*
X161839137Y-90888062D01*
X161906373Y-90869062D01*
X161973208Y-90889429D01*
X162000963Y-90914392D01*
X162039117Y-90960883D01*
X162191460Y-91085909D01*
X162191467Y-91085913D01*
X162365266Y-91178811D01*
X162365269Y-91178811D01*
X162365273Y-91178814D01*
X162553868Y-91236024D01*
X162750000Y-91255341D01*
X162946132Y-91236024D01*
X163134727Y-91178814D01*
X163141863Y-91175000D01*
X163222935Y-91131666D01*
X163308538Y-91085910D01*
X163460883Y-90960883D01*
X163585910Y-90808538D01*
X163678814Y-90634727D01*
X163736024Y-90446132D01*
X163755341Y-90250000D01*
X163736024Y-90053868D01*
X163678814Y-89865273D01*
X163678811Y-89865269D01*
X163678811Y-89865266D01*
X163585913Y-89691467D01*
X163585909Y-89691460D01*
X163460883Y-89539116D01*
X163308539Y-89414090D01*
X163308532Y-89414086D01*
X163134733Y-89321188D01*
X163134727Y-89321186D01*
X162946132Y-89263976D01*
X162946129Y-89263975D01*
X162750000Y-89244659D01*
X162553870Y-89263975D01*
X162365266Y-89321188D01*
X162191467Y-89414086D01*
X162191460Y-89414090D01*
X162039116Y-89539116D01*
X162000962Y-89585608D01*
X161943216Y-89624942D01*
X161873372Y-89626813D01*
X161839137Y-89611937D01*
X161699521Y-89524210D01*
X161529249Y-89464630D01*
X161460616Y-89456897D01*
X161396202Y-89429830D01*
X161356647Y-89372235D01*
X161350500Y-89333677D01*
X161350500Y-88166321D01*
X161370185Y-88099282D01*
X161422989Y-88053527D01*
X161460612Y-88043101D01*
X161529255Y-88035368D01*
X161699522Y-87975789D01*
X161839137Y-87888062D01*
X161906373Y-87869062D01*
X161973208Y-87889429D01*
X162000963Y-87914392D01*
X162039117Y-87960883D01*
X162191460Y-88085909D01*
X162191467Y-88085913D01*
X162365266Y-88178811D01*
X162365269Y-88178811D01*
X162365273Y-88178814D01*
X162553868Y-88236024D01*
X162750000Y-88255341D01*
X162946132Y-88236024D01*
X163134727Y-88178814D01*
X163308538Y-88085910D01*
X163460883Y-87960883D01*
X163585910Y-87808538D01*
X163678814Y-87634727D01*
X163736024Y-87446132D01*
X163755341Y-87250000D01*
X163736024Y-87053868D01*
X163678814Y-86865273D01*
X163678811Y-86865269D01*
X163678811Y-86865266D01*
X163585913Y-86691467D01*
X163585909Y-86691460D01*
X163460883Y-86539116D01*
X163308539Y-86414090D01*
X163308532Y-86414086D01*
X163134733Y-86321188D01*
X163134727Y-86321186D01*
X162946132Y-86263976D01*
X162946129Y-86263975D01*
X162750000Y-86244659D01*
X162553870Y-86263975D01*
X162365266Y-86321188D01*
X162191467Y-86414086D01*
X162191460Y-86414090D01*
X162039116Y-86539116D01*
X162000962Y-86585608D01*
X161943216Y-86624942D01*
X161873372Y-86626813D01*
X161839137Y-86611937D01*
X161699521Y-86524210D01*
X161529249Y-86464630D01*
X161460616Y-86456897D01*
X161396202Y-86429830D01*
X161356647Y-86372235D01*
X161350500Y-86333677D01*
X161350500Y-85166321D01*
X161370185Y-85099282D01*
X161422989Y-85053527D01*
X161460612Y-85043101D01*
X161529255Y-85035368D01*
X161529259Y-85035366D01*
X161529262Y-85035366D01*
X161641405Y-84996125D01*
X161699522Y-84975789D01*
X161789096Y-84919505D01*
X161855068Y-84900500D01*
X161930914Y-84900500D01*
X161997953Y-84920185D01*
X162026768Y-84945836D01*
X162039117Y-84960883D01*
X162191460Y-85085909D01*
X162191467Y-85085913D01*
X162365266Y-85178811D01*
X162365269Y-85178811D01*
X162365273Y-85178814D01*
X162553868Y-85236024D01*
X162750000Y-85255341D01*
X162946132Y-85236024D01*
X163134727Y-85178814D01*
X163308538Y-85085910D01*
X163460883Y-84960883D01*
X163585910Y-84808538D01*
X163678814Y-84634727D01*
X163736024Y-84446132D01*
X163755341Y-84250000D01*
X163736024Y-84053868D01*
X163678814Y-83865273D01*
X163678811Y-83865269D01*
X163678811Y-83865266D01*
X163585913Y-83691467D01*
X163585909Y-83691460D01*
X163460883Y-83539116D01*
X163308539Y-83414090D01*
X163308532Y-83414086D01*
X163134733Y-83321188D01*
X163134727Y-83321186D01*
X162946132Y-83263976D01*
X162946129Y-83263975D01*
X162750000Y-83244659D01*
X162553870Y-83263975D01*
X162365266Y-83321188D01*
X162191467Y-83414086D01*
X162191460Y-83414090D01*
X162039117Y-83539116D01*
X162026768Y-83554164D01*
X161969022Y-83593499D01*
X161930914Y-83599500D01*
X161855068Y-83599500D01*
X161789096Y-83580494D01*
X161699522Y-83524210D01*
X161699518Y-83524209D01*
X161529262Y-83464633D01*
X161529249Y-83464630D01*
X161350004Y-83444435D01*
X161349996Y-83444435D01*
X161170750Y-83464630D01*
X161170745Y-83464631D01*
X161000476Y-83524211D01*
X160852664Y-83617089D01*
X160785428Y-83636089D01*
X160718592Y-83615721D01*
X160699011Y-83599776D01*
X160687590Y-83588355D01*
X160687588Y-83588352D01*
X160568717Y-83469481D01*
X160568716Y-83469480D01*
X160472777Y-83414090D01*
X160472775Y-83414088D01*
X160431788Y-83390424D01*
X160431787Y-83390423D01*
X160370693Y-83374053D01*
X160279057Y-83349499D01*
X160279054Y-83349499D01*
X160241438Y-83349499D01*
X160174399Y-83329814D01*
X160167128Y-83324766D01*
X160142335Y-83306206D01*
X160142328Y-83306202D01*
X160007482Y-83255908D01*
X160007483Y-83255908D01*
X159947883Y-83249501D01*
X159947881Y-83249500D01*
X159947873Y-83249500D01*
X159947864Y-83249500D01*
X159052129Y-83249500D01*
X159052123Y-83249501D01*
X158992516Y-83255908D01*
X158857671Y-83306202D01*
X158857664Y-83306206D01*
X158742455Y-83392452D01*
X158742452Y-83392455D01*
X158656206Y-83507664D01*
X158656202Y-83507671D01*
X158612629Y-83624499D01*
X158605909Y-83642517D01*
X158599500Y-83702127D01*
X158599500Y-83702134D01*
X158599500Y-83702135D01*
X158599500Y-84197870D01*
X158599501Y-84197876D01*
X158605908Y-84257483D01*
X158633577Y-84331667D01*
X158638561Y-84401358D01*
X158633577Y-84418331D01*
X158605910Y-84492511D01*
X158605909Y-84492515D01*
X158605909Y-84492517D01*
X158599500Y-84552127D01*
X158599500Y-84552134D01*
X158599500Y-84552135D01*
X158599500Y-85047870D01*
X158599501Y-85047876D01*
X158605908Y-85107483D01*
X158656202Y-85242328D01*
X158656206Y-85242335D01*
X158742452Y-85357544D01*
X158742455Y-85357547D01*
X158857664Y-85443793D01*
X158857671Y-85443797D01*
X158992517Y-85494091D01*
X158992516Y-85494091D01*
X158999444Y-85494835D01*
X159052127Y-85500500D01*
X159947872Y-85500499D01*
X160001407Y-85494744D01*
X160012247Y-85493579D01*
X160081006Y-85505986D01*
X160132143Y-85553597D01*
X160149500Y-85616869D01*
X160149500Y-86533131D01*
X160129815Y-86600170D01*
X160077011Y-86645925D01*
X160012246Y-86656421D01*
X160005756Y-86655723D01*
X159947873Y-86649500D01*
X159947865Y-86649500D01*
X159052129Y-86649500D01*
X159052123Y-86649501D01*
X158992516Y-86655908D01*
X158857671Y-86706202D01*
X158857664Y-86706206D01*
X158742455Y-86792452D01*
X158742452Y-86792455D01*
X158656206Y-86907664D01*
X158656202Y-86907671D01*
X158613944Y-87020973D01*
X158605909Y-87042517D01*
X158599500Y-87102127D01*
X158599500Y-87102134D01*
X158599500Y-87102135D01*
X158599500Y-87597870D01*
X158599501Y-87597876D01*
X158605908Y-87657483D01*
X158633577Y-87731667D01*
X158638561Y-87801358D01*
X158633577Y-87818331D01*
X158605910Y-87892511D01*
X158605909Y-87892515D01*
X158605909Y-87892517D01*
X158599500Y-87952127D01*
X158599500Y-87952134D01*
X158599500Y-87952135D01*
X158599500Y-88447870D01*
X158599501Y-88447876D01*
X158605908Y-88507483D01*
X158633577Y-88581667D01*
X158638561Y-88651358D01*
X158633577Y-88668331D01*
X158605910Y-88742511D01*
X158605909Y-88742515D01*
X158605909Y-88742517D01*
X158599500Y-88802127D01*
X158599500Y-88802134D01*
X158599500Y-88802135D01*
X158599500Y-89297870D01*
X158599501Y-89297876D01*
X158605908Y-89357483D01*
X158633577Y-89431667D01*
X158638561Y-89501358D01*
X158633577Y-89518331D01*
X158605910Y-89592511D01*
X158605909Y-89592515D01*
X158605909Y-89592517D01*
X158599500Y-89652127D01*
X158599500Y-89652134D01*
X158599500Y-89652135D01*
X158599500Y-90147870D01*
X158599501Y-90147876D01*
X158605908Y-90207483D01*
X158633577Y-90281667D01*
X158638561Y-90351358D01*
X158633577Y-90368331D01*
X158605910Y-90442511D01*
X158605909Y-90442515D01*
X158605909Y-90442517D01*
X158599500Y-90502127D01*
X158599500Y-90502134D01*
X158599500Y-90502135D01*
X158599500Y-90997870D01*
X158599501Y-90997876D01*
X158605908Y-91057483D01*
X158633577Y-91131667D01*
X158638561Y-91201358D01*
X158633577Y-91218331D01*
X158605910Y-91292511D01*
X158605909Y-91292515D01*
X158605909Y-91292517D01*
X158599500Y-91352127D01*
X158599500Y-91352134D01*
X158599500Y-91352135D01*
X158599500Y-91847870D01*
X158599501Y-91847876D01*
X158605908Y-91907483D01*
X158633577Y-91981667D01*
X158638561Y-92051358D01*
X158633577Y-92068331D01*
X158605910Y-92142511D01*
X158605909Y-92142515D01*
X158605909Y-92142517D01*
X158599500Y-92202127D01*
X158599500Y-92202134D01*
X158599500Y-92202135D01*
X158599500Y-92697870D01*
X158599501Y-92697876D01*
X158605908Y-92757483D01*
X158633577Y-92831667D01*
X158638561Y-92901358D01*
X158633577Y-92918331D01*
X158605910Y-92992511D01*
X158605909Y-92992515D01*
X158605909Y-92992517D01*
X158599500Y-93052127D01*
X158599500Y-93052134D01*
X158599500Y-93052135D01*
X158599500Y-93547870D01*
X158599501Y-93547876D01*
X158605908Y-93607483D01*
X158633577Y-93681667D01*
X158638561Y-93751358D01*
X158633577Y-93768331D01*
X158605910Y-93842511D01*
X158605909Y-93842515D01*
X158605909Y-93842517D01*
X158599500Y-93902127D01*
X158599500Y-93902134D01*
X158599500Y-93902135D01*
X158599500Y-94397870D01*
X158599501Y-94397876D01*
X158605908Y-94457483D01*
X158633577Y-94531667D01*
X158638561Y-94601358D01*
X158633577Y-94618331D01*
X158605910Y-94692511D01*
X158605909Y-94692515D01*
X158605909Y-94692517D01*
X158599500Y-94752127D01*
X158599500Y-94752134D01*
X158599500Y-94752135D01*
X158599500Y-95247870D01*
X158599501Y-95247876D01*
X158605908Y-95307483D01*
X158633577Y-95381667D01*
X158638561Y-95451358D01*
X158633577Y-95468331D01*
X158605909Y-95542514D01*
X158605908Y-95542516D01*
X158599975Y-95597708D01*
X158599501Y-95602123D01*
X158599500Y-95602135D01*
X158599500Y-95875500D01*
X158579815Y-95942539D01*
X158527011Y-95988294D01*
X158475500Y-95999500D01*
X158202130Y-95999500D01*
X158202123Y-95999501D01*
X158142516Y-96005908D01*
X158068332Y-96033577D01*
X157998640Y-96038561D01*
X157981668Y-96033577D01*
X157907488Y-96005910D01*
X157907484Y-96005909D01*
X157907483Y-96005909D01*
X157847873Y-95999500D01*
X157847863Y-95999500D01*
X157352129Y-95999500D01*
X157352123Y-95999501D01*
X157292516Y-96005908D01*
X157218332Y-96033577D01*
X157148640Y-96038561D01*
X157131668Y-96033577D01*
X157057488Y-96005910D01*
X157057484Y-96005909D01*
X157057483Y-96005909D01*
X156997873Y-95999500D01*
X156997863Y-95999500D01*
X156502129Y-95999500D01*
X156502123Y-95999501D01*
X156442516Y-96005908D01*
X156368332Y-96033577D01*
X156298640Y-96038561D01*
X156281668Y-96033577D01*
X156207488Y-96005910D01*
X156207484Y-96005909D01*
X156207483Y-96005909D01*
X156147873Y-95999500D01*
X156147863Y-95999500D01*
X155652129Y-95999500D01*
X155652123Y-95999501D01*
X155592516Y-96005908D01*
X155518332Y-96033577D01*
X155448640Y-96038561D01*
X155431668Y-96033577D01*
X155357488Y-96005910D01*
X155357484Y-96005909D01*
X155357483Y-96005909D01*
X155297873Y-95999500D01*
X155297863Y-95999500D01*
X154802129Y-95999500D01*
X154802123Y-95999501D01*
X154742516Y-96005908D01*
X154668332Y-96033577D01*
X154598640Y-96038561D01*
X154581668Y-96033577D01*
X154507488Y-96005910D01*
X154507484Y-96005909D01*
X154507483Y-96005909D01*
X154447873Y-95999500D01*
X154447863Y-95999500D01*
X153952129Y-95999500D01*
X153952123Y-95999501D01*
X153892516Y-96005908D01*
X153818332Y-96033577D01*
X153748640Y-96038561D01*
X153731668Y-96033577D01*
X153657488Y-96005910D01*
X153657484Y-96005909D01*
X153657483Y-96005909D01*
X153597873Y-95999500D01*
X153597863Y-95999500D01*
X153102129Y-95999500D01*
X153102123Y-95999501D01*
X153042516Y-96005908D01*
X152968332Y-96033577D01*
X152898640Y-96038561D01*
X152881667Y-96033577D01*
X152868701Y-96028741D01*
X152812767Y-95986870D01*
X152788350Y-95921406D01*
X152788814Y-95898676D01*
X152805565Y-95750003D01*
X152805565Y-95749996D01*
X152785369Y-95570750D01*
X152785367Y-95570740D01*
X152753029Y-95478326D01*
X152749466Y-95408547D01*
X152782389Y-95349689D01*
X152824595Y-95307483D01*
X152879816Y-95252262D01*
X152975789Y-95099522D01*
X153035368Y-94929255D01*
X153042189Y-94868716D01*
X153055565Y-94750003D01*
X153055565Y-94749996D01*
X153035369Y-94570750D01*
X153035368Y-94570745D01*
X153027044Y-94546956D01*
X152975789Y-94400478D01*
X152974150Y-94397870D01*
X152912954Y-94300477D01*
X152879816Y-94247738D01*
X152752262Y-94120184D01*
X152739357Y-94112075D01*
X152599523Y-94024211D01*
X152429254Y-93964631D01*
X152429249Y-93964630D01*
X152250004Y-93944435D01*
X152249996Y-93944435D01*
X152070750Y-93964630D01*
X152070745Y-93964631D01*
X151900476Y-94024211D01*
X151747737Y-94120184D01*
X151620184Y-94247737D01*
X151604994Y-94271913D01*
X151552659Y-94318204D01*
X151483605Y-94328852D01*
X151419757Y-94300477D01*
X151395006Y-94271913D01*
X151379815Y-94247737D01*
X151252262Y-94120184D01*
X151099523Y-94024211D01*
X150929254Y-93964631D01*
X150929250Y-93964630D01*
X150753638Y-93944844D01*
X150735429Y-93941399D01*
X150639741Y-93915759D01*
X150579057Y-93899499D01*
X150420943Y-93899499D01*
X150413347Y-93899499D01*
X150413331Y-93899500D01*
X149550097Y-93899500D01*
X149483058Y-93879815D01*
X149462416Y-93863181D01*
X149136819Y-93537584D01*
X149103334Y-93476261D01*
X149100500Y-93449903D01*
X149100500Y-90296955D01*
X149120185Y-90229916D01*
X149172989Y-90184161D01*
X149210615Y-90173735D01*
X149243568Y-90170022D01*
X149329250Y-90160369D01*
X149329253Y-90160368D01*
X149329255Y-90160368D01*
X149499522Y-90100789D01*
X149652262Y-90004816D01*
X149779816Y-89877262D01*
X149875789Y-89724522D01*
X149935368Y-89554255D01*
X149938753Y-89524211D01*
X149955565Y-89375003D01*
X149955565Y-89374996D01*
X149935369Y-89195750D01*
X149935368Y-89195745D01*
X149924282Y-89164064D01*
X149875789Y-89025478D01*
X149779816Y-88872738D01*
X149652262Y-88745184D01*
X149649459Y-88743423D01*
X149499521Y-88649210D01*
X149329249Y-88589630D01*
X149214155Y-88576662D01*
X149149741Y-88549595D01*
X149140358Y-88541123D01*
X147363059Y-86763824D01*
X147329574Y-86702501D01*
X147334558Y-86632809D01*
X147376430Y-86576876D01*
X147441894Y-86552459D01*
X147464617Y-86552922D01*
X147488068Y-86555565D01*
X147488069Y-86555564D01*
X147488070Y-86555565D01*
X147488072Y-86555565D01*
X147667317Y-86535369D01*
X147667320Y-86535368D01*
X147667323Y-86535368D01*
X147837590Y-86475789D01*
X147990330Y-86379816D01*
X148117884Y-86252262D01*
X148213857Y-86099522D01*
X148273436Y-85929255D01*
X148276972Y-85897872D01*
X148293633Y-85750003D01*
X148293633Y-85749996D01*
X148273437Y-85570750D01*
X148273436Y-85570745D01*
X148248856Y-85500499D01*
X148213857Y-85400478D01*
X148117884Y-85247738D01*
X147990330Y-85120184D01*
X147976338Y-85111392D01*
X147837591Y-85024211D01*
X147667322Y-84964631D01*
X147667317Y-84964630D01*
X147488072Y-84944435D01*
X147488064Y-84944435D01*
X147308818Y-84964630D01*
X147308813Y-84964631D01*
X147229051Y-84992542D01*
X147188096Y-84999500D01*
X146146729Y-84999500D01*
X146103396Y-84991682D01*
X146007482Y-84955908D01*
X146007483Y-84955908D01*
X145947883Y-84949501D01*
X145947881Y-84949500D01*
X145947873Y-84949500D01*
X145947864Y-84949500D01*
X145052129Y-84949500D01*
X145052123Y-84949501D01*
X144992516Y-84955908D01*
X144857671Y-85006202D01*
X144857664Y-85006206D01*
X144742455Y-85092452D01*
X144728277Y-85111392D01*
X144672343Y-85153263D01*
X144602651Y-85158246D01*
X144541328Y-85124760D01*
X144507844Y-85063436D01*
X144511970Y-84996125D01*
X144535366Y-84929262D01*
X144535369Y-84929249D01*
X144555565Y-84750003D01*
X144555565Y-84749996D01*
X144535369Y-84570750D01*
X144535368Y-84570745D01*
X144475788Y-84400476D01*
X144379815Y-84247737D01*
X144252262Y-84120184D01*
X144099521Y-84024210D01*
X143929255Y-83964632D01*
X143929246Y-83964630D01*
X143922012Y-83963815D01*
X143857600Y-83936744D01*
X143848223Y-83928277D01*
X143664674Y-83744727D01*
X143664673Y-83744726D01*
X143642456Y-83729881D01*
X143558127Y-83673535D01*
X143439744Y-83624499D01*
X143439738Y-83624497D01*
X143314071Y-83599500D01*
X143314069Y-83599500D01*
X143069086Y-83599500D01*
X143002047Y-83579815D01*
X142973232Y-83554164D01*
X142960882Y-83539116D01*
X142808539Y-83414090D01*
X142808532Y-83414086D01*
X142634733Y-83321188D01*
X142634727Y-83321186D01*
X142446132Y-83263976D01*
X142446129Y-83263975D01*
X142250000Y-83244659D01*
X142053870Y-83263975D01*
X141865266Y-83321188D01*
X141691467Y-83414086D01*
X141691460Y-83414090D01*
X141539116Y-83539116D01*
X141414090Y-83691460D01*
X141414086Y-83691467D01*
X141321188Y-83865266D01*
X141263975Y-84053870D01*
X141244659Y-84250000D01*
X141263975Y-84446129D01*
X141321188Y-84634733D01*
X141414086Y-84808532D01*
X141414090Y-84808539D01*
X141539116Y-84960883D01*
X141691460Y-85085909D01*
X141691467Y-85085913D01*
X141865266Y-85178811D01*
X141865269Y-85178811D01*
X141865273Y-85178814D01*
X142053868Y-85236024D01*
X142250000Y-85255341D01*
X142446132Y-85236024D01*
X142634727Y-85178814D01*
X142808533Y-85085912D01*
X142808535Y-85085912D01*
X142808536Y-85085910D01*
X142808538Y-85085910D01*
X142836478Y-85062979D01*
X142900784Y-85035666D01*
X142969652Y-85047455D01*
X143020290Y-85093761D01*
X143020506Y-85093626D01*
X143020997Y-85094407D01*
X143021214Y-85094606D01*
X143021793Y-85095674D01*
X143085330Y-85196792D01*
X143120184Y-85252262D01*
X143247738Y-85379816D01*
X143400478Y-85475789D01*
X143471098Y-85500500D01*
X143570745Y-85535368D01*
X143570750Y-85535369D01*
X143749996Y-85555565D01*
X143750000Y-85555565D01*
X143750004Y-85555565D01*
X143929249Y-85535369D01*
X143929252Y-85535368D01*
X143929255Y-85535368D01*
X144099522Y-85475789D01*
X144252262Y-85379816D01*
X144379816Y-85252262D01*
X144379819Y-85252256D01*
X144384159Y-85246816D01*
X144385503Y-85247888D01*
X144431210Y-85207450D01*
X144500263Y-85196792D01*
X144564115Y-85225159D01*
X144602494Y-85283544D01*
X144604129Y-85334523D01*
X144606739Y-85334804D01*
X144605910Y-85342514D01*
X144605909Y-85342517D01*
X144599500Y-85402127D01*
X144599500Y-85402134D01*
X144599500Y-85402135D01*
X144599500Y-85897870D01*
X144599501Y-85897876D01*
X144605908Y-85957483D01*
X144633577Y-86031667D01*
X144638561Y-86101358D01*
X144633577Y-86118331D01*
X144605910Y-86192511D01*
X144605909Y-86192515D01*
X144605909Y-86192517D01*
X144599500Y-86252127D01*
X144599500Y-86252134D01*
X144599500Y-86252135D01*
X144599500Y-86747870D01*
X144599501Y-86747876D01*
X144605908Y-86807483D01*
X144633577Y-86881667D01*
X144638561Y-86951358D01*
X144633577Y-86968332D01*
X144613943Y-87020973D01*
X144585442Y-87065321D01*
X143481465Y-88169298D01*
X143420142Y-88202783D01*
X143407668Y-88204837D01*
X143320750Y-88214630D01*
X143150478Y-88274210D01*
X142997737Y-88370184D01*
X142870184Y-88497737D01*
X142774211Y-88650476D01*
X142714631Y-88820745D01*
X142714630Y-88820750D01*
X142694435Y-88999996D01*
X142694435Y-89000004D01*
X142712919Y-89164064D01*
X142700864Y-89232886D01*
X142653515Y-89284265D01*
X142585904Y-89301889D01*
X142553705Y-89296608D01*
X142517313Y-89285568D01*
X142446130Y-89263975D01*
X142250000Y-89244659D01*
X142053870Y-89263975D01*
X141865266Y-89321188D01*
X141691467Y-89414086D01*
X141691460Y-89414090D01*
X141539116Y-89539116D01*
X141414090Y-89691460D01*
X141414086Y-89691467D01*
X141321188Y-89865266D01*
X141263975Y-90053870D01*
X141244659Y-90250000D01*
X141255416Y-90359230D01*
X141242397Y-90427876D01*
X141239402Y-90433380D01*
X141225453Y-90457542D01*
X141225451Y-90457545D01*
X141199711Y-90502128D01*
X141190423Y-90518215D01*
X141149499Y-90670943D01*
X141149499Y-90670945D01*
X141149499Y-90839046D01*
X141149500Y-90839059D01*
X141149500Y-91783284D01*
X141129815Y-91850323D01*
X141089652Y-91889400D01*
X141039811Y-91919530D01*
X140919530Y-92039811D01*
X140831522Y-92185393D01*
X140780913Y-92347807D01*
X140774500Y-92418386D01*
X140400500Y-92418386D01*
X140400500Y-88112075D01*
X141741476Y-88112075D01*
X141865462Y-88178348D01*
X142053969Y-88235531D01*
X142053965Y-88235531D01*
X142250000Y-88254838D01*
X142446032Y-88235531D01*
X142634537Y-88178348D01*
X142758523Y-88112076D01*
X142758523Y-88112075D01*
X142250001Y-87603553D01*
X142250000Y-87603553D01*
X141741476Y-88112075D01*
X140400500Y-88112075D01*
X140400500Y-87250000D01*
X141245161Y-87250000D01*
X141264468Y-87446032D01*
X141321651Y-87634539D01*
X141387922Y-87758523D01*
X141387923Y-87758523D01*
X141896446Y-87250000D01*
X141896446Y-87249999D01*
X141846719Y-87200272D01*
X142000000Y-87200272D01*
X142000000Y-87299728D01*
X142038060Y-87391614D01*
X142108386Y-87461940D01*
X142200272Y-87500000D01*
X142299728Y-87500000D01*
X142391614Y-87461940D01*
X142461940Y-87391614D01*
X142500000Y-87299728D01*
X142500000Y-87249999D01*
X142603553Y-87249999D01*
X142603553Y-87250000D01*
X143112075Y-87758523D01*
X143112076Y-87758523D01*
X143178348Y-87634537D01*
X143235531Y-87446032D01*
X143254838Y-87250000D01*
X143235531Y-87053967D01*
X143178348Y-86865462D01*
X143112075Y-86741476D01*
X142603553Y-87249999D01*
X142500000Y-87249999D01*
X142500000Y-87200272D01*
X142461940Y-87108386D01*
X142391614Y-87038060D01*
X142299728Y-87000000D01*
X142200272Y-87000000D01*
X142108386Y-87038060D01*
X142038060Y-87108386D01*
X142000000Y-87200272D01*
X141846719Y-87200272D01*
X141387923Y-86741476D01*
X141321649Y-86865466D01*
X141264468Y-87053967D01*
X141245161Y-87250000D01*
X140400500Y-87250000D01*
X140400500Y-86387923D01*
X141741476Y-86387923D01*
X142250000Y-86896446D01*
X142250001Y-86896446D01*
X142758523Y-86387923D01*
X142758523Y-86387922D01*
X142634539Y-86321651D01*
X142446030Y-86264468D01*
X142446034Y-86264468D01*
X142250000Y-86245161D01*
X142053967Y-86264468D01*
X141865466Y-86321649D01*
X141741476Y-86387923D01*
X140400500Y-86387923D01*
X140400500Y-82524500D01*
X140420185Y-82457461D01*
X140472989Y-82411706D01*
X140524500Y-82400500D01*
X164475500Y-82400500D01*
X164542539Y-82420185D01*
G37*
%TD.AperFunction*%
%TD*%
M02*
